<?xml version="1.0" encoding="UTF-8" standalone="no"?>
<svg width="1021px" height="567px" viewBox="0 0 1021 567" version="1.1" xmlns="http://www.w3.org/2000/svg" xmlns:xlink="http://www.w3.org/1999/xlink">
    <!-- Generator: Sketch 41 (35326) - http://www.bohemiancoding.com/sketch -->
    <title>Group 47</title>
    <desc>Created with Sketch.</desc>
    <defs>
        <polygon id="path-1" points="172.947183 0.133103231 0.268757228 0.133103231 0.268757228 159.768782 172.947183 159.768782 172.947183 0.133103231"></polygon>
    </defs>
    <g id="LANDING" stroke="none" stroke-width="1" fill="none" fill-rule="evenodd">
        <g id="01.-Landing-" transform="translate(-129.000000, -403.000000)">
            <g id="Group-47" transform="translate(129.000000, 403.000000)">
                <rect id="Rectangle-4" fill="#FFFFFF" x="0" y="0" width="1021" height="567"></rect>
                <g id="Page-1" opacity="0.558652052" transform="translate(164.000000, 110.000000)">
                    <path d="M601.478239,0.00287806462 L99.2370817,0.00287806462 C85.5672115,0.00287806462 73.9225073,11.2480521 73.9225073,25.127231 L73.9225073,355.593518 L626.792813,355.593518 L626.792813,25.127231 C626.792813,11.2480521 615.148109,0.00287806462 601.478239,0.00287806462 L601.478239,0.00287806462 Z" id="Fill-1" fill="#FEFEFE"></path>
                    <path d="M601.478239,0.00287806462 L99.2370817,0.00287806462 C85.5672115,0.00287806462 73.9225073,11.2480521 73.9225073,25.127231 L73.9225073,355.593518 L626.792813,355.593518 L626.792813,25.127231 C626.792813,11.2480521 615.148109,0.00287806462 601.478239,0.00287806462 L601.478239,0.00287806462 Z" id="Stroke-3" stroke="#333333" stroke-width="2.42352" fill="#F5F5F5"></path>
                    <path d="M351.370243,15.1990593 C353.607039,15.1990593 355.420575,17.0134833 355.420575,19.2513742 C355.420575,21.4892652 353.607039,23.3036892 351.370243,23.3036892 C349.133447,23.3036892 347.319911,21.4892652 347.319911,19.2513742 C347.319911,17.0134833 349.133447,15.1990593 351.370243,15.1990593 L351.370243,15.1990593 Z" id="Stroke-5" stroke="#333333" stroke-width="1.21176"></path>
                    <path d="M648.867122,386.998959 L51.9494566,386.998959 C20.8631592,386.998959 0.00394988412,376.361632 0.00394988412,371.802778 L0.00394988412,358.024907 C0.00394988412,356.707904 1.32030776,355.593518 3.04169882,355.593518 L697.77488,355.593518 C699.496271,355.593518 700.812629,356.707904 700.812629,358.024907 L700.812629,372.309317 C700.812629,375.956401 684.611301,386.998959 648.867122,386.998959" id="Fill-7" fill="#F5F5F5"></path>
                    <path d="M51.9494566,386.998959 C20.8631592,386.998959 0.00394988412,376.361632 0.00394988412,371.802778 L0.00394988412,358.024907 C0.00394988412,356.707904 1.32030776,355.593518 3.04169882,355.593518 L697.77488,355.593518 C699.496271,355.593518 700.812629,356.707904 700.812629,358.024907 L700.812629,372.309317 C700.812629,375.956401 684.611301,386.998959 648.867122,386.998959 L51.9494566,386.998959 Z" id="Stroke-9" stroke="#333333" stroke-width="2.42352"></path>
                    <path d="M0.510241373,369.296191 L698.888721,369.296191" id="Stroke-11" stroke="#333333" stroke-width="1.21176" stroke-linecap="square"></path>
                    <polygon id="Fill-13" fill="#FFFFFF" points="96.1993328 335.331943 603.604663 335.331943 603.604663 39.5129492 96.1993328 39.5129492"></polygon>
                    <polygon id="Stroke-15" stroke="#333333" stroke-width="1.21176" points="96.1993328 335.331943 603.604663 335.331943 603.604663 39.5129492 96.1993328 39.5129492"></polygon>
                    <path d="M426.301383,356.606597 L426.301383,359.747141 C426.301383,361.975914 421.947277,362.685069 418.605753,362.685069 L282.312084,362.685069 C278.768044,362.685069 274.413937,361.975914 274.413937,359.747141 L274.413937,356.606597" id="Fill-16" fill="#FFFFFF"></path>
                    <path d="M426.301383,356.606597 L426.301383,359.747141 C426.301383,361.975914 421.947277,362.685069 418.605753,362.685069 L282.312084,362.685069 C278.768044,362.685069 274.413937,361.975914 274.413937,359.747141 L274.413937,356.606597" id="Stroke-17" stroke="#333333" stroke-width="1.21176"></path>
                </g>
                <g id="Page-1" transform="translate(723.000000, 272.000000) scale(-1, 1) translate(-723.000000, -272.000000) translate(542.000000, 74.000000)">
                    <path d="M127.137882,183.181476 C127.137882,183.181476 131.126781,209.437636 130.954469,227.440467 C130.782157,245.443298 128.698979,266.043259 127.137882,270.716553 C125.576785,275.392413 124.362885,277.643088 125.401901,276.603722 C126.44349,275.564357 134.596171,266.736169 155.762281,266.21777 C176.925819,265.696804 196.880599,261.02351 196.880599,261.02351 L127.137882,183.181476 Z" id="Fill-1" fill="#FF3E00"></path>
                    <path d="M271.643001,220.344298 C271.643001,220.344298 284.478974,218.786533 293.673244,206.842816 C302.867514,194.899099 308.767277,175.510448 315.358862,170.662643 C321.950446,165.817405 335.480811,158.916534 343.113984,153.624754 C350.747157,148.332973 354.910939,143.831624 354.910939,143.831624 C354.910939,143.831624 323.339231,145.563899 304.083986,140.36964 C284.82617,135.17538 229.315926,118.904825 229.315926,118.904825 L217.94075,146.192651 L271.643001,220.344298 Z" id="Fill-3" fill="#FF3E00"></path>
                    <path d="M120.645056,164.531672 C120.645056,164.531672 133.126117,218.252736 128.32195,247.742477 C123.515212,277.234784 120.645056,285.906426 120.645056,285.906426 C120.645056,285.906426 136.554358,265.090893 155.675868,268.560576 C174.799949,272.030259 205.222052,264.559662 205.222052,264.559662 L200.477037,259.018947 C200.477037,259.018947 190.238607,262.001027 177.572375,262.409074 C168.388392,262.704202 153.582403,262.25766 144.300691,264.559662 C135.139855,266.830867 129.40726,271.894243 129.40726,271.894243 C129.40726,271.894243 133.671344,256.416685 133.80765,236.468573 C133.946529,216.517894 130.0425,171.979172 130.0425,171.979172 L120.645056,164.531672 Z" id="Fill-5" fill="#60574C"></path>
                    <path d="M232.323931,116.881014 C232.323931,116.881014 297.98002,137.801766 319.529331,140.976321 C341.076071,144.153442 361.98757,141.67693 361.98757,141.67693 C361.98757,141.67693 342.976648,158.381197 326.815308,166.288071 C310.656539,174.192379 305.844657,197.589643 294.942696,208.9739 C284.038163,220.35559 260.302802,229.109354 260.302802,229.109354 L266.92782,221.641323 C266.92782,221.641323 284.930586,214.663462 294.942696,201.067025 C304.952234,187.470589 307.169146,172.578155 320.794668,164.532698 C334.420191,156.484676 351.530534,146.191111 351.530534,146.191111 C351.530534,146.191111 333.471188,146.999506 315.092935,144.78476 C296.714683,142.572581 246.332655,126.130081 246.332655,126.130081 L232.323931,116.881014 Z" id="Fill-7" fill="#60574C"></path>
                    <path d="M217.837362,86.7681671 C215.669315,130.629377 173.128778,158.684537 128.083285,156.467225 C83.0377917,154.249913 47.9915494,126.743948 50.4939339,76.0845198 C52.6619813,32.2233101 93.1244845,-1.42902411 138.169978,0.788288231 C183.215471,3.00560057 220.167435,39.6040859 217.837362,86.7681671" id="Fill-9" fill="#FBF2E4"></path>
                    <g id="Group-13" transform="translate(46.415793, 0.259200)">
                        <mask id="mask-2" fill="white">
                            <use xlink:href="#path-1"></use>
                        </mask>
                        <g id="Clip-12"></g>
                        <path d="M22.5199176,35.4245548 C15.6737227,44.6197285 2.24365905,59.6302145 5.64103823,91.316737 C8.61663832,119.084468 29.1732256,144.095956 61.5524867,153.606789 C80.0181813,159.032019 106.641701,156.404093 128.113857,145.286735 C149.588586,134.166811 166.058545,114.069852 168.764104,84.2926816 C170.695543,63.0742343 160.315663,32.3192909 136.081367,17.50128 C111.849644,2.68326906 93.5202561,2.66530472 73.0665417,6.10162558 C52.4636616,9.56617611 30.7214635,24.4072841 22.5199176,35.4245548 M105.119181,1.48992387 C138.452589,6.75347435 157.414646,28.636602 166.272007,47.5556143 C177.660042,71.8741927 173.37024,102.667631 161.730166,121.02205 C150.08752,139.373902 134.988342,150.208963 104.206184,157.569209 C73.4214534,164.929454 37.9457165,152.657246 23.798114,137.947021 C10.3989122,124.014395 1.74729706,108.470112 0.474244301,88.2833306 C-1.35432239,59.2786268 9.33160533,44.9815816 20.1744143,31.3286861 C36.3691885,10.9391647 66.130333,-4.66671074 105.119181,1.48992387" id="Fill-11" fill="#60574C" mask="url(#mask-2)"></path>
                    </g>
                    <path d="M141.4776,46.170564 C144.057139,46.0756096 144.972709,44.5897024 148.233781,42.6213244 C152.989083,39.7521633 157.026847,39.2055342 158.629093,37.765821 C159.814704,36.7007925 156.638501,35.0070123 152.657318,36.5211492 C147.153615,38.6127111 144.090573,39.8933117 142.043401,41.9361133 C139.998802,43.9763486 139.543589,46.2424213 141.4776,46.170564" id="Fill-14" fill="#4E4332"></path>
                    <path d="M87.8545605,50.2648928 C85.483339,49.9979941 82.6440455,48.4171325 78.1227794,47.0390113 C75.5252374,46.2460142 70.4741755,44.2391412 73.5449331,43.8618902 C76.6131188,43.4820728 83.3307225,44.6471883 87.0804415,46.8388373 C90.8301606,49.0304863 89.7551382,50.4778985 87.8545605,50.2648928" id="Fill-16" fill="#4E4332"></path>
                    <path d="M112.932157,48.0989071 C113.137903,49.3872067 112.258339,50.6010825 110.964712,50.8063892 C109.673656,51.0116959 108.459755,50.1340098 108.251438,48.8431439 C108.045692,47.5548444 108.927827,46.3435349 110.218883,46.1356618 C111.509938,45.9303551 112.726411,46.8106076 112.932157,48.0989071" id="Fill-18" fill="#4E4332"></path>
                    <path d="M121.053976,47.5892333 C121.22886,48.6876241 120.632197,49.6936269 119.7192,49.8399079 C118.806202,49.986189 117.921495,49.2137225 117.746611,48.1153317 C117.571727,47.0195072 118.16839,46.010938 119.081387,45.864657 C119.996957,45.7209423 120.879092,46.4908424 121.053976,47.5892333" id="Fill-20" fill="#4E4332"></path>
                    <path d="M121.076865,65.9441654 C120.418479,65.0613466 117.03653,60.5882269 110.884728,61.5403367 C106.27602,62.2563438 104.254566,65.5001896 106.278592,69.4472109 C108.300045,73.3942322 113.543994,73.6380339 113.543994,73.6380339 C113.543994,73.6380339 107.549072,74.7364247 107.855119,79.9820108 C108.161166,85.2250307 111.995756,85.8178537 114.734748,86.2207681 C117.476312,86.6211162 122.753695,82.8768353 121.539794,82.2686142 C120.328465,81.6629594 118.422743,84.0522161 114.719317,83.6031077 C111.015891,83.1565657 109.328774,80.9161563 110.979885,78.0136329 C112.633568,75.1111094 116.409005,74.0101523 118.335301,74.1179383 C120.261597,74.2282906 118.430459,72.077703 115.277403,71.6542579 C112.124347,71.2333792 108.017144,70.8920568 107.513067,66.6139785 C107.101575,63.1186319 115.444571,63.711455 118.132127,65.9826604 C120.698807,68.1537787 122.200752,67.4531696 121.076865,65.9441654" id="Fill-22" fill="#4E4332"></path>
                    <path d="M115.24294,32.2461504 C113.625263,32.0434101 110.806544,27.1160493 111.092017,25.4043047 C111.377489,23.6925601 112.439653,24.6164403 113.658697,26.0407555 C114.87517,27.467637 117.529292,32.5310135 115.24294,32.2461504" id="Fill-24" fill="#4E4332"></path>
                    <path d="M121.77563,32.2148412 C122.986959,32.0121008 128.207761,25.9760839 126.975858,25.4833478 C125.378755,24.846897 123.55276,27.2951794 122.266848,29.1480724 C120.980936,31.0009653 120.060223,32.4997042 121.77563,32.2148412" id="Fill-26" fill="#4E4332"></path>
                    <path d="M113.255949,11.9964942 C113.255949,13.2001047 112.278656,14.1753115 111.072471,14.1753115 C109.866286,14.1753115 108.888993,13.2001047 108.888993,11.9964942 C108.888993,10.7928836 109.866286,9.81767682 111.072471,9.81767682 C112.278656,9.81767682 113.255949,10.7928836 113.255949,11.9964942" id="Fill-28" fill="#60574C"></path>
                    <path d="M140.855733,7.39659758 C140.855733,8.19216104 141.501261,8.8363108 142.298526,8.8363108 C143.09322,8.8363108 143.741319,8.19216104 143.741319,7.39659758 C143.741319,6.60103413 143.09322,5.95688436 142.298526,5.95688436 C141.501261,5.95688436 140.855733,6.60103413 140.855733,7.39659758" id="Fill-30" fill="#60574C"></path>
                    <path d="M132.84836,12.4520184 C132.84836,13.6556289 133.825653,14.6308357 135.031838,14.6308357 C136.238024,14.6308357 137.215317,13.6556289 137.215317,12.4520184 C137.215317,11.2484079 136.238024,10.2732011 135.031838,10.2732011 C133.825653,10.2732011 132.84836,11.2484079 132.84836,12.4520184" id="Fill-32" fill="#60574C"></path>
                    <path d="M159.371578,154.289177 C152.455944,154.566341 147.060258,151.253205 141.523121,147.02132 C135.985985,142.792002 118.770197,127.257984 104.758901,120.980732 C90.747605,114.706046 71.2840428,113.348455 74.5759772,120.115877 C77.8679116,126.8833 103.545,144.596135 111.872565,156.591179 C120.197559,168.586223 129.913909,186.589054 134.944396,194.205932 C139.974884,201.822811 162.964416,236.134693 174.84367,248.907336 C186.722924,261.677412 209.643017,273.700686 221.437401,281.835964 C233.234357,289.973808 252.142405,294.487989 260.122774,297.085119 C268.103143,299.679682 278.377579,300.780639 278.030383,293.856671 C277.683187,286.930136 275.260529,281.65632 272.634697,276.852144 C268.229163,268.798988 258.458804,258.253923 258.458804,258.253923 C258.458804,258.253923 278.200123,261.061492 279.982397,257.163231 C281.767243,253.267537 273.030758,243.713076 268.00027,238.174928 C262.969783,232.634213 260.346523,230.096109 264.605463,227.383495 C268.866975,224.67088 280.062124,217.228512 280.969977,210.822943 C281.877831,204.417374 284.652829,187.628419 269.561367,173.777916 C254.469905,159.929979 239.897952,146.192394 239.897952,146.192394 C239.897952,146.192394 254.642218,148.504661 260.714294,144.177823 C266.786369,139.850984 265.420731,134.325667 261.591285,130.943239 C257.764412,127.560812 229.875555,111.731665 217.942293,107.132795 C206.006459,102.536491 198.540454,102.097648 198.262697,105.575031 C197.98494,109.054979 204.298768,116.974685 207.420962,119.743759 C207.420962,119.743759 203.259751,128.428232 190.01743,140.130714 C177.387204,151.294266 159.371578,154.289177 159.371578,154.289177" id="Fill-34" fill="#FFEE00"></path>
                    <path d="M143.960439,148.473095 C141.460626,140.889579 110.459863,119.165564 93.4035274,115.251905 C76.3497641,111.340813 68.5957154,116.496577 75.3158909,124.234073 C82.0334946,131.969003 101.052131,144.764743 111.182545,160.02673 C121.312959,175.291283 144.572533,217.066063 161.628868,237.69682 C178.685203,258.325011 209.765693,278.534889 232.459466,289.059423 C263.57339,303.49505 280.745457,303.81071 280.807181,295.870473 C280.879192,286.57008 277.847012,281.25007 270.180405,269.986431 C265.764584,263.501306 257.406157,255.93832 257.406157,255.93832 L248.72368,253.097389 C248.72368,253.097389 259.263013,261.786995 267.60601,273.048067 C279.570134,289.203138 277.821294,297.9723 269.568311,296.427367 C261.312757,294.879868 242.564162,291.890089 217.941521,276.85394 C193.270016,261.786995 176.223968,249.87664 155.551649,221.580244 C134.876757,193.281282 125.276139,167.741129 112.679346,153.821335 C100.082554,139.901541 84.4998736,129.140903 78.057455,122.812324 C72.0136692,116.878961 83.6948927,115.860126 92.3413642,118.45469 C97.6213184,120.038118 109.374553,125.070698 120.543984,131.999799 C133.253937,139.886143 144.41308,149.843517 143.960439,148.473095" id="Fill-36" fill="#60574C"></path>
                    <path d="M219.362968,131.453427 C214.576804,128.017106 200.390624,117.043463 197.289005,107.227236 C194.189957,97.4135761 209.392007,103.118536 219.362968,107.227236 C229.333929,111.338503 257.760297,126.295096 262.929663,131.453427 C268.099028,136.611757 267.065155,145.378353 255.695122,146.925853 C244.322518,148.473352 242.254771,146.925853 242.254771,146.925853 C242.254771,146.925853 273.006068,170.631077 280.240608,184.553438 C287.47772,198.478365 284.12149,213.835306 275.333569,221.639527 C266.548219,229.443747 262.104107,229.264104 266.031282,232.538746 C273.114085,238.449012 286.821905,255.307259 282.169476,259.433923 C277.519619,263.558022 251.847674,258.581901 231.401675,245.94784 C214.949719,235.780025 200.524359,218.177542 204.526117,211.394722 C209.356002,203.202985 225.463334,199.625516 232.180938,200.141349 C238.901113,200.657182 234.387562,203.300506 227.001285,204.065273 C220.499714,204.740219 207.05422,210.093591 208.301554,214.974758 C210.106974,222.042441 221.793342,236.821957 241.951296,246.104386 C262.106679,255.386815 279.80597,258.522875 278.278307,254.054888 C276.388016,248.527005 267.983296,240.150492 261.782629,234.478894 C255.57939,228.80473 264.151279,226.823521 270.354518,222.250314 C276.555185,217.674541 284.625568,203.323603 277.527334,188.680102 C271.848747,176.962223 259.105361,165.531772 246.184518,155.351126 C233.263675,145.17048 235.529452,143.7359 243.116332,144.536596 C251.266442,145.398884 264.920254,145.460476 263.063397,136.976177 C261.605173,130.303709 234.302692,117.703011 220.864913,111.520713 C207.427134,105.335848 195.447579,100.739545 200.722389,109.413753 C205.891755,117.91345 218.894896,128.068432 220.960071,130.183091 C221.999087,131.245554 224.053975,134.820456 219.362968,131.453427" id="Fill-38" fill="#60574C"></path>
                    <path d="M169.019261,151.386141 C169.019261,151.386141 163.044914,160.014155 165.90221,169.086144 C168.759507,178.155568 174.214345,178.933167 177.328823,176.859569 C180.445874,174.785972 178.887349,167.271746 177.328823,163.383751 C175.770298,159.495755 172.128596,153.623984 172.128596,153.623984 C172.128596,153.623984 181.744645,160.532554 188.495682,161.828553 C195.249291,163.124551 203.039345,161.9774 199.662541,156.590665 C196.288308,151.203931 190.643155,145.404017 185.640958,146.279137 C180.636189,147.156823 175.770298,148.093535 175.770298,148.093535 L172.65582,148.871134 C172.65582,148.871134 181.225136,147.575135 186.42022,149.389533 C191.612733,151.203931 200.331215,159.521419 196.879828,160.026986 C193.431012,160.532554 185.381204,158.718156 179.926365,155.351126 C174.474099,151.98153 170.058278,149.648733 170.058278,149.648733 C170.058278,149.648733 169.019261,152.648777 170.577786,156.590665 C172.136311,160.532554 176.863323,167.31794 176.289807,172.453174 C175.718862,177.588408 171.822549,176.289843 168.499752,170.638776 C165.176956,164.990276 169.019261,151.386141 169.019261,151.386141" id="Fill-40" fill="#60574C"></path>
                    <path d="M200.478323,73.8305089 C200.478323,91.2610476 186.31529,105.393847 168.847463,105.393847 C151.377064,105.393847 137.216603,91.2610476 137.216603,73.8305089 C137.216603,56.3974039 151.377064,42.2671704 168.847463,42.2671704 C186.31529,42.2671704 200.478323,56.3974039 200.478323,73.8305089" id="Fill-42"></path>
                    <path d="M100.995037,82.0992362 C100.995037,98.4673127 87.6987079,111.735258 71.295616,111.735258 C65.5835954,111.735258 60.249633,110.128733 55.7232232,107.341695 C55.7232232,107.341695 51.055363,96.6067207 51.5182913,82.0992362 C52.0300842,65.9672624 56.0524166,56.6566036 56.0524166,56.6566036 C60.5093872,53.9927492 65.7224739,52.4606479 71.295616,52.4606479 C87.6987079,52.4606479 100.995037,65.7311597 100.995037,82.0992362" id="Fill-44"></path>
                    <path d="M4.82757038,42.5395544 C4.82757038,42.5395544 10.5164445,51.3138494 7.24251289,58.8845339 C3.96600942,66.4552184 0.000257182377,70.7563937 0.000257182377,70.7563937 C0.000257182377,70.7563937 7.75944946,64.3893197 16.3802027,66.7991071 C25.0009559,69.2063281 30.8621423,77.1209014 30.8621423,77.1209014 C30.8621423,77.1209014 24.8286437,65.5929303 27.5856388,58.5406452 C30.3452057,51.4857938 35.3448311,49.4224614 35.3448311,49.4224614 C35.3448311,49.4224614 24.139395,53.033293 19.30951,50.9699607 C14.4821968,48.904062 6.03375572,42.5395544 6.03375572,42.5395544 C6.03375572,42.5395544 14.1375724,55.4430804 18.6202612,55.271136 C23.10295,55.0991916 29.6559569,52.1735712 29.6559569,52.1735712 C29.6559569,52.1735712 21.3798281,57.8528677 22.7583256,61.4636993 C24.139395,65.0770972 27.2410144,71.7880599 27.2410144,71.7880599 C27.2410144,71.7880599 17.4140759,61.63821 11.5528895,63.5295979 L5.68913134,65.4209859 C5.68913134,65.4209859 11.1696878,57.6834897 11.3805773,53.8955811 C11.588895,50.1051062 4.82757038,42.5395544 4.82757038,42.5395544" id="Fill-46" fill="#60574C"></path>
                    <path d="M140.37043,282.7098 C140.37043,282.7098 175.967043,312.430511 203.935626,329.465835 C231.904209,346.501158 240.622692,351.212947 240.622692,351.212947 C240.622692,351.212947 179.963657,312.430511 164.707598,300.106977 C149.45154,287.783442 140.37043,280.171696 140.37043,282.7098" id="Fill-48" fill="#60574C"></path>
                    <path d="M170.462311,285.795817 C170.462311,285.795817 196.466021,307.958675 240.621663,339.701657 C274.415427,363.994572 319.684669,393.60493 319.684669,393.60493 C319.684669,393.60493 243.049465,339.208921 213.445202,316.145279 C183.84351,293.079072 170.462311,285.795817 170.462311,285.795817" id="Fill-50" fill="#60574C"></path>
                    <path d="M223.584102,311.692947 C223.584102,311.692947 285.626779,357.417315 303.063744,370.769949 C320.500709,384.12515 329.422366,390.597444 329.422366,390.597444 C329.422366,390.597444 256.431435,333.542712 245.076834,324.237186 C233.722232,314.929094 218.718212,305.218087 218.718212,305.218087 L223.584102,311.692947 Z" id="Fill-52" fill="#60574C"></path>
                    <path d="M272.710308,321.166055 C272.710308,321.166055 306.735537,353.293987 316.52647,362.186333 C326.317403,371.081246 359.012998,395.866897 359.012998,395.866897 C359.012998,395.866897 332.006277,370.901602 310.073764,350.997118 C288.141251,331.092633 272.887764,316.718598 272.887764,316.718598 L272.710308,321.166055 Z" id="Fill-54" fill="#60574C"></path>
                    <polygon id="Fill-56" fill="#60574C" points="293.8543 319.78588 349.814613 376.032217 293.8543 314.930377"></polygon>
                    <path d="M296.369029,288.992185 L347.8698,360.210513 C347.8698,360.210513 321.914955,319.341648 312.183174,305.583533 C302.451393,291.825418 291.503139,276.853427 291.503139,276.853427 L296.369029,288.992185 Z" id="Fill-58" fill="#60574C"></path>
                    <path d="M294.462794,236.831709 C294.462794,236.831709 326.903779,298.336463 335.419087,314.927811 C343.934395,331.519158 349.206634,342.849522 349.206634,342.849522 C349.206634,342.849522 316.359301,270.822799 307.440216,255.850808 C298.51856,240.878817 294.462794,236.831709 294.462794,236.831709" id="Fill-60" fill="#60574C"></path>
                    <path d="M305.005985,209.575705 C305.005985,209.575705 318.387184,247.080106 328.525313,270.143747 L338.663443,293.209955 C338.663443,293.209955 334.191041,280.665716 321.833428,249.389806 C310.147061,219.805111 305.005985,209.575705 305.005985,209.575705" id="Fill-62" fill="#60574C"></path>
                    <path d="M282.344874,85.3184452 C283.2553,85.1849958 288.355227,90.2714693 287.079602,99.1766473 C285.803977,108.079259 284.813825,112.442026 284.813825,112.442026 C284.813825,112.442026 293.089954,103.449593 299.462933,106.218667 C305.835913,108.987741 314.029743,115.893745 314.029743,115.893745 C314.029743,115.893745 306.746338,101.175821 308.021963,94.4520269 C309.295016,87.7282326 314.029743,85.3158789 314.029743,85.3158789 C314.029743,85.3158789 304.742888,89.7274065 298.187309,87.0019601 C291.63173,84.2765137 284.893552,78.4612015 284.893552,78.4612015 C284.893552,78.4612015 288.172627,83.9120943 292.359556,87.5460229 C296.549057,91.1799514 300.735986,91.0003081 303.832462,90.2714693 C306.928938,89.5451969 308.56719,88.092652 308.56719,88.092652 C308.56719,88.092652 302.739437,95.3605091 305.290686,101.537674 C307.839363,107.717406 309.842814,111.169125 309.842814,111.169125 C309.842814,111.169125 301.283785,103.354639 296.183858,102.446157 C291.086503,101.537674 287.807428,106.218667 287.807428,106.218667 C287.807428,106.218667 292.724755,96.2689912 290.356105,90.8180984 C287.990028,85.3672055 282.344874,85.3184452 282.344874,85.3184452" id="Fill-64" fill="#60574C"></path>
                </g>
            </g>
        </g>
    </g>
</svg>