<?xml version="1.0" encoding="UTF-8" standalone="no"?>
<svg width="320px" height="259px" viewBox="0 0 320 259" version="1.1" xmlns="http://www.w3.org/2000/svg" xmlns:xlink="http://www.w3.org/1999/xlink">
    <!-- Generator: Sketch 41 (35326) - http://www.bohemiancoding.com/sketch -->
    <title>Group 44</title>
    <desc>Created with Sketch.</desc>
    <defs></defs>
    <g id="LANDING" stroke="none" stroke-width="1" fill="none" fill-rule="evenodd">
        <g id="01.-Landing-" transform="translate(-868.000000, -1140.000000)">
            <g id="Group-44" transform="translate(868.000000, 1140.000000)">
                <rect id="Rectangle-3" fill="#FFFFFF" x="2.84217094e-14" y="0" width="320" height="259"></rect>
                <g id="Group-39" transform="translate(62.000000, 41.000000)">
                    <g id="Group-37" transform="translate(144.546748, 125.882883) scale(-1, 1) translate(-144.546748, -125.882883) translate(92.093496, 73.765766)" stroke="#333333">
                        <path d="M99.7080132,73.2296679 C91.5897543,91.3836894 73.3721941,103.94878 52.1496066,103.94878 C47.4914795,103.94878 42.9337431,103.341867 38.6102516,102.181397 C35.7190003,101.40775 32.9415251,100.407345 30.2845187,99.1334957 C12.3949014,90.943511 0,72.9028688 0,51.9810593 C0,47.9927769 0.448411658,44.1178737 1.33184955,40.3563498 C5.28054923,23.0893543 17.7222996,9.19039001 34.1060569,3.21463569 C39.7145489,1.11378457 45.7714527,0 52.1496066,0 C52.9928882,0 53.8227844,0 54.5991389,0.0600243179 C82.3136565,1.33387373 104.312599,24.0830902 104.312599,51.9810593 C104.312599,59.5641315 102.699655,66.7537109 99.7080132,73.2296679 Z" id="Fill-44" stroke-width="2.4" fill="#CCCCCC"></path>
                        <path d="M39.5305721,8.84408691 L30.6961932,22.7363818 L27.2628323,22.069445 L26.9817384,22.0094206 L20.3760323,37.7291226 L21.1590796,45.6456632 L21.0988452,46.1992208 L17.371005,52.4550886 L16.7151193,52.3417093 L1.54274271,40.2234664 L1.54274271,40.1701115 C5.49144238,22.956471 17.9331927,9.06417607 34.3102573,3.08842176 L39.5305721,8.84408691 Z" id="Fill-52" stroke-width="1.6" fill="#FFFFFF"></path>
                        <path d="M57.1969294,64.5680577 L55.9788559,67.6092898 L54.3123708,77.7400608 L51.5348956,81.1147614 L51.5884373,81.1747857 L53.8104175,87.4239841 L44.3736945,92.1392278 L38.5443429,101.656417 C35.6530917,100.88277 32.8756165,99.8823648 30.2186101,98.601846 L29.5961879,97.1145768 L29.709964,94.1266996 L29.709964,94.0666753 L28.7060573,92.7994953 L28.7060573,92.739471 L28.9336095,90.858709 L27.762385,83.3289918 L32.8153821,75.1990314 L32.8153821,75.0856521 L21.5983979,67.0090467 L28.8733751,52.5031698 L39.9364269,55.5977569 L45.0965073,53.66364 L45.544919,53.5035751 L54.2588291,61.967004 L57.1969294,64.5680577 Z" id="Fill-48" stroke-width="1.6" fill="#FFFFFF"></path>
                        <path d="M103.789621,51.921035 C103.789621,59.5041072 102.176678,66.6936866 99.185036,73.1696436 L98.3417544,73.6164913 L92.231309,68.1876252 L92.0706839,68.0809153 L91.6825067,66.5803073 L91.78959,64.4261012 L90.3439644,62.5986942 L90.2435737,62.5986942 L87.1247702,63.7658337 L85.6858373,61.544934 L87.3991714,55.1290013 L85.5720612,53.2482394 L85.5720612,53.0815052 L89.0723492,42.6172657 L86.736593,41.9569982 L86.2346396,41.8969739 L86.4554991,41.5701748 L80.4588298,39.1291859 L80.3985954,39.1291859 L73.7393476,30.719112 L72.9563004,30.6657571 L64.4164008,23.1893948 L64.3561664,23.1427092 L55.8497303,18.9876926 L51.9679577,14.0590291 L50.9105093,9.19039001 L54.0761618,0 C81.7906793,1.27384941 103.789621,24.0230659 103.789621,51.921035" id="Fill-56" stroke-width="1.6" fill="#FFFFFF"></path>
                    </g>
                    <g id="Page-1" transform="translate(50.451220, 85.792793)">
                        <path d="M57.4335005,51.0792199 L40.1877149,38.5243508 L39.8716264,38.3619076 C39.4980674,38.2380301 36.6877537,37.3171293 34.3280098,40.075157 L30.5234543,45.1447858 C29.4177195,46.6196294 20.5994265,55.4277881 14.1109928,56.3147979 C14.0834069,56.3183038 13.910995,56.338171 13.6638713,56.338171 C13.1179004,56.338171 12.6523883,56.2423412 12.3523916,56.0775608 C12.4190576,55.9571892 12.5156082,55.798252 12.6546871,55.5949059 L13.5190454,54.3245771 L2.53755804,50.5007353 L3.83064714,48.7757994 C4.02834609,48.5116832 4.58121352,48.1856282 4.90534786,48.1412193 L17.4408409,46.4268012 L17.7270446,45.9593389 C20.6856325,41.1234413 25.5941407,32.6517244 26.2159728,31.8219788 C26.2159728,31.8219788 7.5775392,28.4232295 2.53755804,24.3053158 C1.01949248,23.0649812 4.20554208,23.3084827 4.90534786,22.3621529 C5.86797572,21.0604153 35.7143212,20.8552789 36.4502519,19.8600982 C40.3551382,14.5796179 46.1887977,6.52071195 46.1887977,6.52071195 C47.7474011,4.44401061 53.642738,2.41288684 56.9070696,2.41288684 C57.7817725,2.41288684 58.0357927,2.56948672 58.0380915,2.57065538 C58.2231469,2.67700305 58.340387,2.77517014 58.4277423,2.86398798 C59.2507217,3.67737241 58.8944038,6.92740416 56.4519022,10.1832792 L46.1738553,24.3053158 L59.0967004,48.3013251 C59.1817569,48.4602623 59.154171,48.8447501 59.0461263,48.9873261 L57.4335005,51.0792199 Z" id="Path" fill="#FFFFFF"></path>
                        <path d="M22.8021227,31.5876775 C22.9379429,31.6215685 23.0737632,31.6379297 23.2081832,31.6379297 C23.8088728,31.6379297 24.3647557,31.3118747 24.548183,30.8070154 C24.7722164,30.1887965 24.3521538,29.5366866 23.6128436,29.3497016 L3.13339042,24.1900863 L4.66521879,22.5154026 C4.88505156,22.2734908 5.52634717,21.9871701 5.89040144,21.9661343 L34.0275962,20.3849431 C34.7991113,20.3417028 35.3829983,19.7854226 35.3311906,19.1414933 C35.2793829,18.497564 34.6184843,18.0078972 33.8399683,18.0534748 L5.70417368,19.6334974 C4.52659812,19.6989421 3.15159313,20.3148237 2.43748667,21.0989917 L0.531802564,23.1838737 C0.0277274152,23.7366479 -0.127695756,24.4004444 0.107539314,25.0081454 C0.342774383,25.6135091 0.935062684,26.0774654 1.73178146,26.2784742 L22.8021227,31.5876775 Z" id="Fill-1" fill="#333333"></path>
                        <path d="M59.0461263,48.9873261 L57.4335005,51.0792199 L40.1877149,38.5243508 L39.8716264,38.3619076 C39.4980674,38.2380301 36.6877537,37.3171293 34.3280098,40.075157 L30.5234543,45.1447858 C29.4177195,46.6196294 20.5994265,55.4277881 14.1109928,56.3147979 C14.0834069,56.3183038 13.910995,56.338171 13.6638713,56.338171 C13.1179004,56.338171 12.6523883,56.2423412 12.3523916,56.0775608 C12.4190576,55.9571892 12.5156082,55.798252 12.6546871,55.5949059 L13.5190454,54.3245771 L2.53755804,50.5007353 L3.83064714,48.7757994 C4.02834609,48.5116832 4.58121352,48.1856282 4.90534786,48.1412193 L17.4408409,46.4268012 L17.7270446,45.9593389 C20.6856325,41.1234413 24.7108752,35.5536278 25.3327073,34.7238821 L46.1887977,6.52071195 C47.7474011,4.44401061 53.642738,2.41288684 56.9070696,2.41288684 C57.7817725,2.41288684 58.0357927,2.56948672 58.0380915,2.57065538 L58.1748716,2.65012397 C58.2231469,2.67700305 58.340387,2.77517014 58.4277423,2.86398798 C59.2507217,3.67737241 58.8944038,6.92740416 56.4519022,10.1832792 L46.1738553,24.3053158 L59.0967004,48.3013251 C59.1817569,48.4602623 59.154171,48.8447501 59.0461263,48.9873261 M61.11277,47.1805842 L48.8956642,24.4934694 L58.2886634,11.5868348 C61.2667913,7.61924839 62.0150588,3.14797134 60.048414,1.20683407 C59.9541622,1.10866698 59.6300278,0.789623951 59.2507217,0.585109188 C58.708199,0.242693041 57.9403914,0.075575263 56.9070696,0.075575263 C53.4140049,0.075575263 46.6278733,2.0809886 44.3566341,5.10897575 L23.4993944,33.312146 C22.8925045,34.1243617 19.0350761,39.4592754 16.0638447,44.2566074 L4.59845471,45.8249435 C3.66513174,45.952327 2.57318983,46.5985936 2.00308122,47.3593886 L0.438730763,49.4431018 C0.029539902,49.9888641 -0.101493126,50.6514919 0.0801140534,51.2591929 C0.261721233,51.8668939 0.731830958,52.3437055 1.37090432,52.5657501 L10.0443713,55.584388 C9.87080999,56.0962592 9.83172996,56.6525394 10.1627608,57.1468808 C10.8225236,58.1320576 12.0661879,58.6754826 13.6638713,58.6754826 C14.1098434,58.6754826 14.4132883,58.6322423 14.4132883,58.6322423 C21.6224037,57.6458968 30.9889664,48.3784564 32.3510203,46.5611967 L36.1073004,41.5523379 C36.7176385,40.8406266 37.4774001,40.4806806 38.365896,40.4806806 C38.6498009,40.4806806 38.8819823,40.5180776 39.0210612,40.5496313 L56.0955843,52.9782856 C57.0771826,53.6935029 58.5794648,53.4644464 59.3116406,52.4886188 L60.8736922,50.4049055 C61.5288573,49.5319197 61.6323045,48.1470626 61.11277,47.1805842" id="Fill-3" fill="#333333"></path>
                        <path d="M50.0512836,10.3652389 C50.3030049,10.5276821 50.5938063,10.6106566 50.8961018,10.6106566 C51.024836,10.6106566 51.1547196,10.5966328 51.2857526,10.5662477 C52.7604489,10.2238316 54.6213478,7.48216507 55.5983484,5.87876932 C55.9328275,5.33066976 55.7661627,4.60960913 55.2270882,4.2695303 C54.6868643,3.92945146 53.9788262,4.09890655 53.6443471,4.64700612 C52.6638983,6.25507649 51.4282798,7.83509912 50.8616194,8.22659881 C50.4190956,8.15063618 49.9535835,8.34346439 49.6984139,8.75249391 C49.3570384,9.29591886 49.5156573,10.0193168 50.0512836,10.3652389" id="Fill-6" fill="#333333"></path>
                    </g>
                    <g id="Group-36" transform="translate(48.048780, 52.518018) scale(-1, 1) translate(-48.048780, -52.518018) ">
                        <path d="M96.0067001,46.1954885 C96.0067001,73.0498162 83.9738545,78.1691359 63.5328039,79.0933459 C61.081874,84.3653611 57.882357,89.7338156 53.5165227,94.9917668 C48.2191133,101.40699 42.1509363,105.397166 40.7036677,104.418709 C39.2582476,103.436233 44.779309,96.5227408 46.6590946,88.3434824 C47.3189603,85.4563307 47.6997231,82.3521906 47.8790144,79.2741696 C46.1304626,79.2741696 44.3357018,79.2580963 42.5095188,79.2580963 C32.8333365,79.2580963 22.1701281,81.6771155 13.0539999,76.9576171 C7.50521306,74.0865387 4.43692985,68.5352513 2.7586159,62.0376533 C-1.50925514,45.421965 -2.30959649,21.1192606 11.3793827,9.01813715 C15.8080614,5.0982813 22.1701281,2.84803089 27.6893412,1.59030165 C35.511615,-0.173733941 43.5372088,0.00508059997 51.483323,0.00508059997 C77.2957176,0.00508059997 96.0067001,5.69098119 96.0067001,46.1954885" id="Fill-22" stroke="#333333" stroke-width="2.4" fill="#FFFFFF"></path>
                        <g id="Group-37" transform="translate(81.490518, 17.114494)" fill="#333333">
                            <path d="M4.46068562,9.24643377 C3.8674697,9.24643377 3.32507582,8.7629493 3.16559975,8.03023501 C2.66438925,5.73475344 1.91783095,4.30034487 0.501823669,2.91514047 C-0.0756198963,2.35036215 -0.168501562,1.31921386 0.295030526,0.613240962 C0.756810129,-0.09166228 1.6006313,-0.206115462 2.18070359,0.359732512 C4.04184188,2.18135652 5.11085728,4.22225999 5.75752398,7.1862765 C5.94854476,8.06125503 5.52269109,8.95762668 4.80767751,9.19081167 C4.6911373,9.22824962 4.57547334,9.24643377 4.46068562,9.24643377" id="Fill-89"></path>
                            <path d="M6.17549148,16.1689259 C5.48063146,16.1689259 4.89267299,15.5153661 4.84009847,14.6553628 C4.80242005,14.0499375 4.69201355,13.5172489 4.47207677,12.879734 C4.18466935,12.0454024 4.50537397,11.0848514 5.18796659,10.7350739 C5.87406418,10.3820874 6.65830089,10.7767905 6.94483207,11.6089828 C7.27955656,12.5802303 7.45480499,13.4413033 7.51438945,14.4072026 C7.57134519,15.3078529 7.01756016,16.0961893 6.27888805,16.1635776 C6.24383836,16.1667866 6.20966492,16.1689259 6.17549148,16.1689259" id="Fill-91"></path>
                        </g>
                    </g>
                    <text id="$$$$" font-family="ChalkboardSE-Light, Chalkboard SE" font-size="25.6" font-weight="300" fill="#333333">
                        <tspan x="20.0203252" y="52.2522523">$$$$</tspan>
                    </text>
                    <g id="Group-22" transform="translate(74.475610, 6.414414)">
                        <path d="M19.425345,14.6389622 C19.9531516,16.0062018 16.6128902,19.3994071 15.2657268,18.8721709 L10.7668044,14.3032162 L6.3282028,18.8108941 C4.51732371,19.0432355 1.94112513,16.4172673 2.15978784,14.5866216 L6.60718626,10.0776671 L2.0705634,5.46913778 C1.85315737,3.62955584 4.42684259,1.01252394 6.23897837,1.2346525 L10.7668044,5.84318185 L15.3071974,1.2320993 C16.6543607,0.694650305 19.9933654,4.08785557 19.4655589,5.45637177 L14.925166,10.0687309 L19.425345,14.6389622 Z" id="Fill-123" fill="#FF3E00"></path>
                        <path d="M9.96547779,13.257113 C10.2871884,13.257113 10.6088991,13.3822199 10.8539521,13.6311571 L14.98718,17.8298975 C15.7336492,17.5413857 17.0921227,16.1588269 17.3736195,15.4043558 L13.235365,11.2017855 C12.9991087,10.9617845 12.8671571,10.6375279 12.8671571,10.2992287 C12.8671571,9.96092941 12.9991087,9.63539617 13.235365,9.3966718 L17.4138334,5.15069711 C17.1335932,4.39622596 15.7751197,3.01622036 15.0311639,2.73281495 L10.8539521,6.97623644 C10.6189525,7.21623741 10.2997553,7.35028051 9.96547779,7.35028051 C9.63120031,7.35028051 9.31200302,7.21496081 9.07574676,6.97623644 L4.95257236,2.77877259 C4.46120961,2.90387948 3.83663854,3.29068956 3.28998177,3.91750061 C2.87401995,4.39367276 2.64027705,4.8570789 2.55356598,5.19793135 L6.69307725,9.40433141 C6.92933351,9.64433238 7.06128515,9.96858902 7.06128515,10.3081649 C7.06128515,10.6477407 6.92933351,10.9719973 6.69307725,11.2107217 L2.64153373,15.3188235 C2.72950149,15.6571228 2.96324439,16.1179757 3.37669284,16.5928712 C3.93591643,17.2324483 4.57556769,17.6218116 5.02922998,17.7405355 L9.07700345,13.6311571 C9.32205648,13.3822199 9.64376713,13.257113 9.96547779,13.257113 M14.7798274,20.43544 C14.5083841,20.43544 14.2507642,20.3869292 14.0132513,20.2937373 C13.8486259,20.2299073 13.7003374,20.131609 13.5759258,20.0052255 L9.96547779,16.3388276 L6.41535048,19.9439487 C6.21805137,20.1456516 5.96168819,20.2733117 5.68396142,20.3077799 C4.34182479,20.4839509 2.73075817,19.7001179 1.49543954,18.2856441 C0.478783611,17.1201074 -0.025145964,15.8001021 0.109319035,14.6639272 C0.144506137,14.3792452 0.270174361,14.1149888 0.469986836,13.9132859 L4.02639755,10.3068883 L0.380762397,6.60219237 C0.182206604,6.40048942 0.0552816989,6.13623303 0.0213512786,5.85282762 C-0.11311372,4.71154639 0.392072537,3.38898783 1.40872846,2.22345118 C2.63902037,0.814083757 4.22872339,0.0353571911 5.58845357,0.197485509 C5.86743702,0.231953734 6.12757025,0.359613827 6.32738272,0.562593375 L9.96673447,4.26728927 L13.6161397,0.560040173 C13.7392945,0.436209883 13.8850697,0.337911611 14.045925,0.274081565 C14.287208,0.177059894 14.5498546,0.128549059 14.8263247,0.128549059 C16.5065088,0.128549059 18.3877621,1.99749282 19.1782152,3.17451887 C20.1257536,4.5851629 20.0578928,5.57325202 19.8342034,6.15155224 C19.7713692,6.31623376 19.6758614,6.46431947 19.5527065,6.58814976 L15.900788,10.2992287 L19.5124927,13.9669031 C19.6343909,14.0907334 19.7311554,14.2400957 19.7927328,14.4035006 C20.017679,14.9830775 20.0855398,15.96989 19.1380014,17.3818106 C18.3450349,18.5613899 16.4612682,20.43544 14.7798274,20.43544" id="Fill-125" fill="#333333"></path>
                    </g>
                </g>
            </g>
        </g>
    </g>
</svg>