<?xml version="1.0" encoding="UTF-8" standalone="no"?>
<svg width="33px" height="27px" viewBox="0 0 33 27" version="1.1" xmlns="http://www.w3.org/2000/svg" xmlns:xlink="http://www.w3.org/1999/xlink">
    <!-- Generator: Sketch 41 (35326) - http://www.bohemiancoding.com/sketch -->
    <title>Page 1</title>
    <desc>Created with Sketch.</desc>
    <defs></defs>
    <g id="UI" stroke="none" stroke-width="1" fill="none" fill-rule="evenodd">
        <g id="UI-03" transform="translate(-336.000000, -422.000000)">
            <g id="Page-1" transform="translate(336.000000, 423.000000)">
                <path d="M28.9989512,14.4 L24.974561,14.4 C24.0851707,14.4 23.3414634,15.3432 23.3414634,16.2272 L23.3414634,20.2272 L23.3414634,24.228 C23.3414634,25.112 24.0851707,25.6 24.974561,25.6 L28.9989512,25.6 C30.9845854,25.6 32.2184634,23.4544 32.2184634,20.0008 C32.2184634,16.5456 30.9845854,14.4 28.9989512,14.4 M28.986878,16 C29.9430732,16 30.5853659,17.8008 30.5853659,20.1136 L30.5853659,20.1712 L30.5853659,20.0856 C30.5853659,22.3984 29.9551463,24 28.9989512,24 L24.9512195,24 L24.9512195,20.228 L24.9512195,20.2272 L24.9512195,16 L28.9756098,16" id="Fill-1" fill="#BFC0C6"></path>
                <path d="M7.2672439,14.4 L3.24285366,14.4 C1.25721951,14.4 0.0233414634,16.5456 0.0233414634,19.9992 C0.0233414634,23.4544 1.25721951,25.6 3.24285366,25.6 L7.2672439,25.6 C8.15663415,25.6 8.85365854,25.112 8.85365854,24.228 L8.85365854,20.228 L8.85365854,16.2272 C8.85365854,15.3432 8.15663415,14.4 7.2672439,14.4 M7.24390244,16 L7.24390244,20.2272 L7.24390244,20.228 L7.24390244,24 L3.24285366,24 C2.28665854,24 1.6097561,22.4272 1.6097561,20.1144 L1.6097561,20.1704 L1.6097561,20.0848 C1.6097561,17.772 2.28665854,16 3.24285366,16 L7.24390244,16" id="Fill-3" fill="#BFC0C6"></path>
                <path d="M4.85260976,14.628 C4.85260976,5.9352 6.92919512,0.228 16.1209024,0.228 C25.3126098,0.228 27.3891951,5.9352 27.3891951,14.628" id="Stroke-5" stroke="#BFC0C6" stroke-width="1.6" stroke-linecap="round" stroke-linejoin="round"></path>
            </g>
        </g>
    </g>
</svg>