<?xml version="1.0" encoding="UTF-8" standalone="no"?>
<svg width="30px" height="30px" viewBox="0 0 30 30" version="1.1" xmlns="http://www.w3.org/2000/svg" xmlns:xlink="http://www.w3.org/1999/xlink">
    <!-- Generator: Sketch 41 (35326) - http://www.bohemiancoding.com/sketch -->
    <title>Page 1</title>
    <desc>Created with Sketch.</desc>
    <defs></defs>
    <g id="UI" stroke="none" stroke-width="1" fill="none" fill-rule="evenodd">
        <g id="UI-03" transform="translate(-339.000000, -478.000000)">
            <g id="Page-1" transform="translate(339.219512, 478.200000)">
                <path d="M8.04966585,0.20568 C5.89983659,0.20568 3.8787878,1.03768 2.35837317,2.54888 C0.837958537,4.06008 0.000885365854,6.06888 0.000885365854,8.20568 C0.000885365854,10.34248 0.837958537,12.35128 2.35837317,13.86248 C3.8787878,15.37368 5.89983659,16.20568 8.04966585,16.20568 C10.1994951,16.20568 12.2205439,15.37368 13.7409585,13.86248 C15.2613732,12.35128 16.0984463,10.34248 16.0984463,8.20568 C16.0984463,6.06888 15.2613732,4.06008 13.7409585,2.54888 C12.2205439,1.03768 10.1994951,0.20568 8.04966585,0.20568 M8.04966585,1.80568 C9.69725122,1.80568 11.3456415,2.43048 12.602861,3.68008 C15.1173,6.17928 15.1173,10.23208 12.602861,12.73128 C11.3456415,13.98088 9.69725122,14.60568 8.04966585,14.60568 C6.40208049,14.60568 4.75369024,13.98088 3.49647073,12.73128 C0.982031707,10.23208 0.982031707,6.17928 3.49647073,3.68008 C4.75369024,2.43048 6.40208049,1.80568 8.04966585,1.80568" id="Fill-1" fill="#D2D2D5"></path>
                <polyline id="Stroke-3" stroke="#D2D2D5" stroke-width="1.6" stroke-linecap="round" stroke-linejoin="round" points="16.0175561 9.33704 28.538239 24.04504 23.9858488 28.57064 9.18816585 16.12504"></polyline>
                <path d="M3.24285366,13.028 L12.9013902,3.428" id="Stroke-5" stroke="#D2D2D5" stroke-width="1.6" stroke-linecap="round" stroke-linejoin="round"></path>
            </g>
        </g>
    </g>
</svg>