<?xml version="1.0" encoding="UTF-8" standalone="no"?>
<svg width="32px" height="27px" viewBox="0 0 32 27" version="1.1" xmlns="http://www.w3.org/2000/svg" xmlns:xlink="http://www.w3.org/1999/xlink">
    <!-- Generator: Sketch 41 (35326) - http://www.bohemiancoding.com/sketch -->
    <title>Group 2</title>
    <desc>Created with Sketch.</desc>
    <defs></defs>
    <g id="UI" stroke="none" stroke-width="1" fill="none" fill-rule="evenodd">
        <g id="UI-03" transform="translate(-423.000000, -422.000000)">
            <g id="Group-2" transform="translate(423.000000, 423.000000)">
                <path d="M28.6574878,14 L24.6330976,14 C23.7437073,14 23,14.9432 23,15.8272 L23,19.8272 L23,23.828 C23,24.712 23.7437073,25.2 24.6330976,25.2 L28.6574878,25.2 C30.643122,25.2 31.877,23.0544 31.877,19.6008 C31.877,16.1456 30.643122,14 28.6574878,14 M28.6454146,15.6 C29.6016098,15.6 30.2439024,17.4008 30.2439024,19.7136 L30.2439024,19.7712 L30.2439024,19.6856 C30.2439024,21.9984 29.6136829,23.6 28.6574878,23.6 L24.6097561,23.6 L24.6097561,19.828 L24.6097561,19.8272 L24.6097561,15.6 L28.6341463,15.6" id="Fill-1" fill="#FF3E00"></path>
                <path d="M7.24390244,14 L3.2195122,14 C1.23387805,14 0,16.1456 0,19.5992 C0,23.0544 1.23387805,25.2 3.2195122,25.2 L7.24390244,25.2 C8.13329268,25.2 8.83031707,24.712 8.83031707,23.828 L8.83031707,19.828 L8.83031707,15.8272 C8.83031707,14.9432 8.13329268,14 7.24390244,14 M7.22056098,15.6 L7.22056098,19.8272 L7.22056098,19.828 L7.22056098,23.6 L3.2195122,23.6 C2.26331707,23.6 1.58641463,22.0272 1.58641463,19.7144 L1.58641463,19.7704 L1.58641463,19.6848 C1.58641463,17.372 2.26331707,15.6 3.2195122,15.6 L7.22056098,15.6" id="Fill-3" fill="#FF3E00"></path>
                <path d="M5,14.4 C5,5.7072 7.07658537,0 16.2682927,0 C25.46,0 27.5365854,5.7072 27.5365854,14.4" id="Stroke-5" stroke="#FF3E00" stroke-width="1.6" stroke-linecap="round" stroke-linejoin="round"></path>
            </g>
        </g>
    </g>
</svg>