<?xml version="1.0" encoding="UTF-8" standalone="no"?>
<svg width="149px" height="33px" viewBox="0 0 149 33" version="1.1" xmlns="http://www.w3.org/2000/svg" xmlns:xlink="http://www.w3.org/1999/xlink">
    <!-- Generator: Sketch 41 (35326) - http://www.bohemiancoding.com/sketch -->
    <title>Group</title>
    <desc>Created with Sketch.</desc>
    <defs></defs>
    <g id="UI" stroke="none" stroke-width="1" fill="none" fill-rule="evenodd">
        <g id="UI-01" transform="translate(-130.000000, -14.000000)">
            <g id="Group" transform="translate(130.000000, 14.000000)">
                <path d="M25,23.6679097 L21.4327476,18.7361734 C22.8327855,16.7925542 23.6671197,14.4128058 23.6671197,11.8339549 C23.6671197,5.29833765 18.3695721,0 11.8339549,0 C5.29754756,0 0,5.29833765 0,11.8339549 C0,18.3695721 5.29754756,23.6679097 11.8339549,23.6679097 C14.6411415,23.6679097 17.2168321,22.6850389 19.246571,21.0511346 L25,23.6679097 Z" id="Fill-1" fill="#FF3E00"></path>
                <path d="M32.7761789,24.3456319 L31.546055,26.2778265 C32.9741989,27.4419438 34.7263754,28.1980199 36.7665809,28.1980199 C39.5688632,28.1980199 41.8130893,26.7878779 41.8130893,23.8955865 C41.8130893,18.7470679 34.6903718,20.7812728 34.6903718,17.9369863 C34.6903718,16.8628781 35.6924727,16.3108225 36.9766021,16.3108225 C38.0447097,16.3108225 39.3348396,16.6888606 40.390946,17.4089331 L41.6030681,15.5307439 C40.3129382,14.5106411 38.5607616,13.8925789 36.8205863,13.8925789 C34.1383161,13.8925789 31.9480955,15.3447252 31.9480955,18.153008 C31.9480955,23.175514 39.010807,21.2613212 39.010807,24.1116083 C39.010807,25.2277207 37.9607012,25.7197703 36.6345676,25.7197703 C35.338437,25.7197703 34.0123034,25.2457225 32.7761789,24.3456319 Z M45.7794804,18.2190147 L43.6132622,18.2190147 L43.6132622,32.308434 L46.2595288,31.8403869 L46.2595288,26.9858978 C46.9916025,27.8439843 48.0057047,28.1980199 49.1338183,28.1980199 C52.1461218,28.1980199 53.568265,25.7797763 53.568265,23.1515116 C53.568265,20.1512093 51.7620831,18.0209947 49.0918141,18.0209947 C47.8256866,18.0209947 46.6855717,18.5070437 45.9714998,19.5331471 L45.7794804,18.2190147 Z M50.9279991,23.115508 C50.9279991,24.7176693 50.0279084,25.8637848 48.5457591,25.8637848 C47.0276062,25.8637848 46.1755203,24.6696645 46.1755203,23.1335098 C46.1755203,21.6933647 46.9195953,20.3252269 48.5157561,20.3252269 C49.9799036,20.3252269 50.9279991,21.4713423 50.9279991,23.115508 Z M63.9072978,26.8838876 L62.7251787,25.2637244 C62.0171074,25.7857769 61.1710222,26.1218108 60.2349279,26.1218108 C58.7407774,26.1218108 57.744677,25.2577238 57.5886613,23.8655835 L64.4893565,23.8655835 C64.5133589,23.6435611 64.5313607,23.2835249 64.5313607,22.977494 C64.5313607,20.1512093 62.7791842,18.0209947 59.898894,18.0209947 C57.1446166,18.0209947 54.9423947,19.9651906 54.9423947,23.1695134 C54.9423947,26.451844 57.2526275,28.1980199 60.0369079,28.1980199 C61.5130566,28.1980199 62.9231987,27.7059704 63.9072978,26.8838876 Z M57.6186643,22.1794137 C57.7986825,20.9432891 58.6567689,20.1392081 59.868891,20.1392081 C61.1470198,20.1392081 61.8550911,21.0392988 61.9811038,22.1794137 L57.6186643,22.1794137 Z M74.7263797,26.8838876 L73.5442607,25.2637244 C72.8361893,25.7857769 71.9901041,26.1218108 71.0540098,26.1218108 C69.5598593,26.1218108 68.5637589,25.2577238 68.4077432,23.8655835 L75.3084384,23.8655835 C75.3324408,23.6435611 75.3504426,23.2835249 75.3504426,22.977494 C75.3504426,20.1512093 73.5982661,18.0209947 70.7179759,18.0209947 C67.9636985,18.0209947 65.7614766,19.9651906 65.7614766,23.1695134 C65.7614766,26.451844 68.0717094,28.1980199 70.8559898,28.1980199 C72.3321385,28.1980199 73.7422806,27.7059704 74.7263797,26.8838876 Z M68.4377462,22.1794137 C68.6177644,20.9432891 69.4758508,20.1392081 70.6879729,20.1392081 C71.9661017,20.1392081 72.674173,21.0392988 72.8001857,22.1794137 L68.4377462,22.1794137 Z M84.1173178,25.1917171 C83.4932549,25.6357618 82.7311781,25.8937878 81.9811026,25.8937878 C80.3849418,25.8937878 79.2448269,24.7476724 79.2448269,23.0975061 C79.2448269,21.4413393 80.396943,20.3192263 81.9991044,20.3192263 C82.7431794,20.3192263 83.4992555,20.565251 84.1233184,20.991294 L85.221429,19.1731108 C84.3273389,18.4530383 82.9952047,18.0209947 81.6810724,18.0209947 C78.8787901,18.0209947 76.5805586,19.95919 76.5805586,23.1635128 C76.5805586,26.5238513 79.1008124,28.1980199 81.6570699,28.1980199 C83.0552108,28.1980199 84.3693432,27.6939692 85.3714441,26.90789 L84.1173178,25.1917171 Z M96.0465123,28 L96.0465123,22.0474004 C96.0465123,19.6291567 94.8283896,18.0209947 92.4221472,18.0209947 C91.3300371,18.0209947 90.2679301,18.3750304 89.5778606,19.1611096 L89.5778606,13.4485341 L86.9255935,13.9165813 L86.9255935,28 L89.5838612,28 L89.5838612,22.3954354 C89.5838612,21.1833133 90.4359471,20.3792323 91.636068,20.3792323 C92.8241877,20.3792323 93.3942451,21.1533103 93.3942451,22.3294288 L93.3942451,28 L96.0465123,28 Z M99.0348049,14.0905988 L98.4827493,28 L101.195022,28 L101.549058,18.579051 L105.185424,26.1578144 L107.105618,26.1578144 L110.633973,18.5610492 L110.964007,28 L113.802292,28 L113.262238,14.0905988 L110.291939,14.0905988 L106.217528,22.6534614 L102.083112,14.0905988 L99.0348049,14.0905988 Z M120.744979,28.1980199 C123.63727,28.1980199 125.887497,26.1578144 125.887497,23.0855049 C125.887497,20.0251966 123.655272,18.0209947 120.762981,18.0209947 C117.864689,18.0209947 115.632464,20.0431985 115.632464,23.1095073 C115.632464,26.1698156 117.864689,28.1980199 120.744979,28.1980199 Z M120.744979,25.8937878 C119.334837,25.8937878 118.27273,24.72367 118.27273,23.1095073 C118.27273,21.4953447 119.340837,20.3552299 120.75698,20.3552299 C122.173123,20.3552299 123.23523,21.5013453 123.23523,23.1035067 C123.23523,24.72367 122.155121,25.8937878 120.744979,25.8937878 Z M136.772585,28 L136.772585,22.0474004 C136.772585,19.641158 135.596466,18.0209947 133.214226,18.0209947 C131.954099,18.0209947 130.837987,18.4830413 130.123915,19.4671404 L129.925895,18.2190147 L127.759677,18.2190147 L127.759677,28 L130.411944,28 L130.411944,22.4914451 C130.411944,21.2433194 131.150018,20.3792323 132.392144,20.3792323 C133.520257,20.3792323 134.120318,21.081303 134.120318,22.1974155 L134.120318,28 L136.772585,28 Z M142.389142,23.8535823 L145.287434,28 L148.455753,28 L144.699375,22.629459 L148.11972,18.2190147 L144.9454,18.2190147 L142.383142,21.5133466 L141.735076,21.5133466 L141.735076,13.4485341 L139.08881,13.9165813 L139.08881,28 L141.735076,28 L141.735076,23.8535823 L142.389142,23.8535823 Z" id="SpeechMonk" fill="#333333"></path>
            </g>
        </g>
    </g>
</svg>