<?xml version="1.0" encoding="UTF-8" standalone="no"?>
<svg width="32px" height="12px" viewBox="0 0 32 12" version="1.1" xmlns="http://www.w3.org/2000/svg" xmlns:xlink="http://www.w3.org/1999/xlink">
    <!-- Generator: Sketch 41 (35326) - http://www.bohemiancoding.com/sketch -->
    <title>Page 1</title>
    <desc>Created with Sketch.</desc>
    <defs>
        <polygon id="path-1" points="0.0186409033 11.3034586 10.8477795 11.3034586 10.8477795 0.029051188 0.0186409033 0.029051188 0.0186409033 11.3034586"></polygon>
    </defs>
    <g id="UI" stroke="none" stroke-width="1" fill="none" fill-rule="evenodd">
        <g id="UI-01" transform="translate(-229.000000, -462.000000)">
            <g id="Page-1" transform="translate(229.000000, 462.000000)">
                <polygon id="Fill-1" fill="#FF2B06" points="0 0.0649429173 0 2.95460066 3.1723452 2.95460066 3.1723452 11.3393634 6.65769842 11.3393634 6.65769842 2.95460066 9.82886959 2.95460066 9.82886959 0.0649429173"></polygon>
                <polygon id="Fill-2" fill="#FF2B06" points="10.3705711 0.0649429173 10.3705711 11.3393634 19.9135657 11.3393634 19.9135657 8.44990051 13.8582072 8.44990051 13.8582072 7.04482863 19.9119351 7.04482863 19.9119351 4.35954262 13.8582072 4.35954262 13.8582072 2.95460066 19.9119351 2.95460066 19.9119351 0.0649429173"></polygon>
                <g id="Group-5" transform="translate(20.480209, 0.035924)">
                    <mask id="mask-2" fill="white">
                        <use xlink:href="#path-1"></use>
                    </mask>
                    <g id="Clip-4"></g>
                    <path d="M3.50608128,8.41394382 L4.8700371,8.41394382 C7.04256981,8.41394382 7.36020872,6.66060848 7.36020872,5.60146141 C7.36020872,4.89226683 7.1370788,2.91870893 4.61605642,2.91870893 L3.50608128,2.91870893 L3.50608128,8.41394382 Z M0.0186409033,0.029051188 L5.74194611,0.029051188 C9.51454405,0.029051188 10.8477795,2.80827284 10.8477795,5.64966352 C10.8477795,9.10884668 9.00873507,11.3034716 5.06088133,11.3034716 L0.0186409033,11.3034716 L0.0186409033,0.029051188 Z" id="Fill-3" fill="#FF2B06" mask="url(#mask-2)"></path>
                </g>
            </g>
        </g>
    </g>
</svg>