<?xml version="1.0" encoding="UTF-8" standalone="no"?>
<svg width="320px" height="259px" viewBox="0 0 320 259" version="1.1" xmlns="http://www.w3.org/2000/svg" xmlns:xlink="http://www.w3.org/1999/xlink">
    <!-- Generator: Sketch 41 (35326) - http://www.bohemiancoding.com/sketch -->
    <title>Group 43</title>
    <desc>Created with Sketch.</desc>
    <defs></defs>
    <g id="LANDING" stroke="none" stroke-width="1" fill="none" fill-rule="evenodd">
        <g id="01.-Landing-" transform="translate(-480.000000, -1140.000000)">
            <g id="Group-43" transform="translate(480.000000, 1140.000000)">
                <rect id="Rectangle-3" fill="#FFFFFF" x="2.84217094e-14" y="0" width="320" height="259"></rect>
                <g id="Group-38" transform="translate(63.000000, 27.000000)">
                    <g id="Group-40" transform="translate(0.000000, 43.952991)">
                        <g id="Group-3">
                            <g id="Page-1">
                                <path d="M153.707492,0.258057336 L25.5748601,0.258057336 C22.0873792,0.258057336 19.1165621,3.12249377 19.1165621,6.65787927 L19.1165621,90.8361823 L160.16579,90.8361823 L160.16579,6.65787927 C160.16579,3.12249377 157.194973,0.258057336 153.707492,0.258057336 L153.707492,0.258057336 Z" id="Fill-1" fill="#FEFEFE"></path>
                                <path d="M153.707492,0.258057336 L25.5748601,0.258057336 C22.0873792,0.258057336 19.1165621,3.12249377 19.1165621,6.65787927 L19.1165621,90.8361823 L160.16579,90.8361823 L160.16579,6.65787927 C160.16579,3.12249377 157.194973,0.258057336 153.707492,0.258057336 L153.707492,0.258057336 Z" id="Stroke-3" stroke="#333333" stroke-width="2.88" fill="#D2D2D5"></path>
                                <path d="M89.8995082,4.12891738 C90.4701634,4.12891738 90.9328358,4.59109807 90.9328358,5.16114672 C90.9328358,5.73119538 90.4701634,6.19337607 89.8995082,6.19337607 C89.328853,6.19337607 88.8661805,5.73119538 88.8661805,5.16114672 C88.8661805,4.59109807 89.328853,4.12891738 89.8995082,4.12891738 L89.8995082,4.12891738 Z" id="Stroke-5" stroke="#333333" stroke-width="1.44"></path>
                                <path d="M165.797426,98.8359598 L13.5107594,98.8359598 C5.57996947,98.8359598 0.25833192,96.1263577 0.25833192,94.9650997 L0.25833192,91.4555199 C0.25833192,91.1200454 0.594163416,90.8361823 1.03332768,90.8361823 L178.274858,90.8361823 C178.714022,90.8361823 179.049854,91.1200454 179.049854,91.4555199 L179.049854,95.0941284 C179.049854,96.0231348 174.916543,98.8359598 165.797426,98.8359598" id="Fill-7" fill="#D2D2D5"></path>
                                <path d="M165.797426,98.8359598 L13.5107594,98.8359598 C5.57996947,98.8359598 0.25833192,96.1263577 0.25833192,94.9650997 L0.25833192,91.4555199 C0.25833192,91.1200454 0.594163416,90.8361823 1.03332768,90.8361823 L178.274858,90.8361823 C178.714022,90.8361823 179.049854,91.1200454 179.049854,91.4555199 L179.049854,95.0941284 C179.049854,96.0231348 174.916543,98.8359598 165.797426,98.8359598 L165.797426,98.8359598 Z" id="Stroke-9" stroke="#333333" stroke-width="2.88"></path>
                                <path d="M0.38749788,94.3266073 L178.559023,94.3266073" id="Stroke-11" stroke="#333333" stroke-width="1.44" stroke-linecap="square"></path>
                                <polygon id="Fill-13" fill="#FFFFFF" points="24.7998643 85.6750356 154.249989 85.6750356 154.249989 10.3222934 24.7998643 10.3222934"></polygon>
                                <polygon id="Stroke-15" stroke="#333333" stroke-width="1.44" points="24.7998643 85.6750356 154.249989 85.6750356 154.249989 10.3222934 24.7998643 10.3222934"></polygon>
                                <path d="M109.01607,91.0942397 L109.01607,91.8942174 C109.01607,92.4619436 107.905243,92.6425837 107.052748,92.6425837 L72.2812712,92.6425837 C71.3771095,92.6425837 70.2662822,92.4619436 70.2662822,91.8942174 L70.2662822,91.0942397" id="Fill-16" fill="#FFFFFF"></path>
                                <path d="M109.01607,91.0942397 L109.01607,91.8942174 C109.01607,92.4619436 107.905243,92.6425837 107.052748,92.6425837 L72.2812712,92.6425837 C71.3771095,92.6425837 70.2662822,92.4619436 70.2662822,91.8942174 L70.2662822,91.0942397" id="Stroke-17" stroke="#333333" stroke-width="1.44"></path>
                            </g>
                        </g>
                        <g id="Page-1" transform="translate(59.200000, 18.380342)" fill="#333333">
                            <path d="M59.1838144,56.90293 C58.3836864,54.2847174 54.0693184,52.0899681 49.8972224,49.9702322 C48.7979584,49.4100509 47.7363904,48.8704377 46.8170944,48.3586522 C46.2261184,48.0283509 45.4892224,48.2388726 45.1621184,48.820832 C44.8325824,49.4052113 45.0417344,50.1420373 45.6278464,50.4687089 C46.5726784,50.9950132 47.6609984,51.549145 48.7906624,52.1238451 C51.9838784,53.7475241 56.3578304,55.9713109 56.8563904,57.6070888 C57.8936384,61.0081034 57.9471424,61.4969009 57.9471424,62.4115814 C57.9471424,62.7430926 57.8851264,62.8919097 57.8474304,62.9282066 C57.6054464,63.1617163 56.4429504,63.1205799 55.6720064,63.0927523 C55.2950464,63.0782335 54.9034944,63.0661346 54.5095104,63.0661346 L5.8695104,63.0661346 C5.5752384,63.0661346 5.2821824,63.0709742 4.9952064,63.0758137 C4.0965824,63.0927523 2.8586944,63.1157403 2.5619904,62.8253655 C2.4902464,62.7564015 2.4464704,62.5918558 2.4343104,62.3668153 C2.5328064,61.9155245 2.8927424,60.3160435 3.6089664,57.5611128 C4.1598144,55.4437967 9.5685824,52.3839725 19.6309824,48.4844813 C19.8778304,48.4034183 22.0775744,47.6387647 23.2960064,46.0211352 C23.6997184,45.4863617 23.5902784,44.7277576 23.0528064,44.3272824 C22.5177664,43.9280171 21.7541184,44.0344878 21.3516224,44.5704713 C20.7034944,45.4282867 19.3330624,46.0308144 18.8041024,46.2098788 C10.6909504,49.3531858 2.2604224,53.0869215 1.2547904,56.9549554 C0.3853504,60.2966852 0.0400064,61.9348829 0.0254144,62.0038469 C0.0083904,62.0836999 -0.0001216,62.1683926 -0.0001216,62.2506654 C-0.0001216,63.222211 0.2880704,63.9965438 0.8571584,64.5518855 C1.8834624,65.5536785 3.4375104,65.4859244 4.6535104,65.4859244 L56.9415104,65.4859244 C58.1575104,65.4859244 58.7776704,65.3976021 59.5364544,64.6692453 C60.0958144,64.132052 60.3791424,63.372238 60.3791424,62.4115814 C60.3791424,61.1436116 60.2624064,60.437033 59.1838144,56.90293" id="Fill-1"></path>
                            <path d="M9.2612992,23.5197519 C9.6796032,22.6631463 11.0913792,21.92995 11.9523072,21.92995 L14.3466112,21.9359995 C14.3843072,22.1888675 14.3830912,22.6353187 14.3818752,22.9511013 L14.3818752,33.0053279 C14.3830912,33.3247402 14.3843072,33.7772408 14.3453952,34.028899 L11.9523072,34.028899 C11.0913792,34.028899 9.6808192,33.2944928 9.2758912,32.4681346 C7.9735552,29.6139925 7.9735552,26.3424367 9.2612992,23.5197519 M30.1898752,2.57163161 C39.3791872,2.57163161 46.8709632,10.1177461 47.1834752,19.5101602 L45.9966592,19.5101602 C45.4360832,19.5101602 44.9642752,19.650508 44.5800192,19.9191047 C43.5780352,14.8133482 40.4407552,7.0095261 30.5875072,7.0095261 C20.7245312,7.0095261 17.3452672,15.1085626 16.1924992,20.2784435 C16.1560192,20.2348872 16.1244032,20.1877013 16.0818432,20.1465649 C15.6586752,19.7231017 15.0871552,19.5101602 14.3843072,19.5101602 L13.1950592,19.5101602 C13.5087872,10.1177461 21.0005632,2.57163161 30.1898752,2.57163161 M51.1050752,23.4895045 C52.4049792,26.3424367 52.4049792,29.6152024 51.1196672,32.4366773 C50.7001472,33.2944928 49.2895872,34.028899 48.4286592,34.028899 L46.0331392,34.0216396 C45.9954432,33.7687716 45.9966592,33.3235303 45.9978752,33.0065378 L45.9978752,22.9523112 C45.9966592,22.6328989 45.9954432,22.1803982 46.0343552,21.92995 L48.4286592,21.92995 C49.2895872,21.92995 50.7001472,22.6631463 51.1050752,23.4895045 M42.5809152,30.4669684 C42.4094592,30.782751 42.0932992,30.9787539 41.9716992,30.9956925 C41.5290752,31.0561872 41.1557632,31.3562412 41.0013312,31.7736549 C40.3702272,33.4687176 39.6041472,34.6628839 38.7930752,35.9260142 C38.5486592,36.3059212 38.3018112,36.6918777 38.0537472,37.0971924 C37.3132032,38.3034577 36.6444032,39.116507 35.9111552,39.6791082 C32.7665792,42.2719129 30.5473792,41.95976 30.4707712,41.948871 C30.3965952,41.9355621 30.3187712,41.9283028 30.2421632,41.9283028 C27.4623872,41.9283028 24.8078592,39.7928383 24.7032832,39.7129852 C23.8727552,39.1382851 23.1297792,38.2901488 22.3649152,37.0427472 C22.1290112,36.6580006 21.8967552,36.2938222 21.6657152,35.9344834 C20.8230272,34.615698 20.0946432,33.475977 19.4744832,31.7651856 C19.3151872,31.3211542 18.8458112,31.0065815 18.3727872,30.966655 C18.2560512,30.9557659 17.9350272,30.7646025 17.7611392,30.4512398 C17.5617152,30.0870614 17.1993472,29.8874287 16.8138752,29.8487121 L16.8138752,25.5596347 L16.8163072,25.5596347 C17.4753792,25.5596347 17.9824512,25.1930365 17.9982592,24.5348537 C17.9982592,24.4961371 18.0736512,20.790229 19.7310592,16.9584919 C21.8675712,12.0136514 25.4304512,9.50553927 30.4525312,9.50553927 C42.5809152,9.50553927 42.6186112,23.6770382 42.6198272,24.2807758 C42.6210432,24.9474279 43.5658752,25.4834113 43.5658752,25.4834113 L43.5658752,29.8608111 C43.1658112,29.8886386 42.7864192,30.091901 42.5809152,30.4669684 M39.5092992,49.6292838 L33.5934592,51.0291322 C32.9526272,51.1803691 32.2801792,50.7605355 32.1293952,50.1313902 C31.9737472,49.4828865 32.3786752,48.8295433 33.0304512,48.6746767 L38.9462912,47.2760382 C39.0387072,47.2542601 39.1311232,47.2421612 39.2259712,47.2421612 C39.7828992,47.2421612 40.2814592,47.6341671 40.4103552,48.1725704 C40.5660032,48.821074 40.1610752,49.4744173 39.5092992,49.6292838 M11.9523072,36.4486888 L14.3843072,36.4486888 C15.0871552,36.4486888 15.6586752,36.2345374 16.0818432,35.8110742 C16.8187392,35.0778779 16.8163072,34.0216396 16.8138752,33.0004883 L16.8138752,32.8807087 C17.0096512,33.0089576 17.2115072,33.1214778 17.4230912,33.2025408 C18.0797312,34.8334791 18.8275712,36.0022376 19.6143232,37.2339106 C19.8356352,37.5799405 20.0618112,37.9332298 20.2892032,38.3034577 C21.2364672,39.8484934 22.1983232,40.9277197 23.2355712,41.6403478 C23.3705472,41.7492383 26.5199872,44.3021166 30.1448832,44.3468827 C30.2798592,44.3650311 30.4950912,44.3855993 30.7796352,44.3855993 C31.9871232,44.3855993 34.4568192,44.0202111 37.4299392,41.568964 C38.3723392,40.8442369 39.2308352,39.8242956 40.1294592,38.3579029 C40.3690112,37.965897 40.6073472,37.5956691 40.8432512,37.229071 C41.6044672,36.043374 42.3887872,34.8201702 43.0648832,33.1698736 C43.2375552,33.0924403 43.4041472,32.9968586 43.5658752,32.8867582 L43.5658752,33.0004883 C43.5634432,34.0216396 43.5610112,35.076668 44.2966912,35.8110742 C44.4389632,35.9526319 44.6019072,36.0603125 44.7745792,36.1546843 C44.6931072,39.0027769 43.9780992,44.5259471 41.2980352,45.4757146 C40.7046272,45.0667701 39.9920512,44.8223714 39.2259712,44.8223714 C38.9426432,44.8223714 38.6593152,44.8562484 38.3832832,44.9215828 L32.4674432,46.3214312 C30.5108992,46.7848209 29.2985472,48.7472704 29.7630592,50.6927814 C30.1570432,52.3346088 31.6174592,53.4827991 33.3149952,53.4827991 C33.5983232,53.4827991 33.8804352,53.4477121 34.1564672,53.3835877 L40.0723072,51.9825294 C42.0288512,51.5191396 43.2412032,49.5579 42.7766912,47.612389 C42.7669632,47.5724625 42.7487232,47.5373755 42.7377792,47.4986589 C46.4964352,45.574926 47.1165952,39.2350767 47.2029312,36.4486888 L48.4286592,36.4486888 C50.0860672,36.4486888 52.4414592,35.2617819 53.3206272,33.4675078 C54.9087232,29.9805907 54.9099392,25.9794682 53.3060352,22.4586741 C52.6335872,21.0902829 51.0673792,20.0776009 49.6252032,19.6892246 C49.4014592,8.88002361 40.7775872,0.15184181 30.1898752,0.15184181 C19.6033792,0.15184181 10.9807232,8.87639393 10.7545472,19.6843851 C9.3196672,20.0618723 7.7619712,21.055196 7.0591232,22.4901313 C5.4698112,25.9770484 5.4698112,29.9781709 7.0737152,33.498965 C7.9382912,35.2629918 10.2948992,36.4486888 11.9523072,36.4486888" id="Fill-4"></path>
                        </g>
                    </g>
                    <g id="Group-36" transform="translate(102.400000, 93.500000)" stroke="#333333" stroke-width="2.4">
                        <path d="M93.5606384,41.2755407 C93.5606384,65.2698079 81.834366,69.8439058 61.9141131,70.6696849 C59.5256282,75.3802158 56.4076285,80.1769151 52.1530271,84.8748798 C46.9905852,90.6068636 41.0770134,94.1720749 39.6666184,93.2978262 C38.2580247,92.4199872 43.6384204,86.2428008 45.4703127,78.9346561 C46.1133664,76.3549942 46.4844281,73.5814536 46.6591514,70.8312503 C44.9551493,70.8312503 43.2061154,70.816889 41.4264599,70.816889 C31.9968077,70.816889 21.6052769,72.9782759 12.7214097,68.7614172 C7.31399501,66.1961166 4.32388562,61.2360567 2.6883318,55.4304709 C-1.4708023,40.5843996 -2.25075252,18.8700007 11.0894584,8.0576805 C15.4053031,4.55530018 21.6052769,2.54470769 26.9838713,1.4209301 C34.606849,-0.155230794 42.4279665,0.00453950196 50.1716293,0.00453950196 C75.3263749,0.00453950196 93.5606384,5.08487589 93.5606384,41.2755407" id="Fill-22" fill="#FFFFFF"></path>
                        <path d="M25.9688265,39.1953123 C25.9688265,41.133542 24.3857978,42.7073183 22.4310457,42.7073183 C20.4827026,42.7073183 18.8983921,41.133542 18.8983921,39.1953123 C18.8983921,37.254534 20.4827026,35.6807577 22.4310457,35.6807577 C24.3857978,35.6807577 25.9688265,37.254534 25.9688265,39.1953123" id="Fill-105" fill="#FF3E00"></path>
                        <path d="M39.7246081,42.7123719 C37.7759918,42.7123719 36.1902155,41.1347209 36.1902155,39.1952686 C36.1902155,37.2541755 37.7759918,35.6757041 39.7246081,35.6757041 C41.6740491,35.6757041 43.26065,37.2541755 43.26065,39.1952686 C43.26065,41.1347209 41.6740491,42.7123719 39.7246081,42.7123719" id="Fill-111" fill="#FF3E00"></path>
                        <path d="M57.0160194,42.7119616 C55.0676303,42.7119616 53.482039,41.1344946 53.482039,39.1952685 C53.482039,37.2544017 55.0676303,35.6761144 57.0160194,35.6761144 C58.9660576,35.6761144 60.5524735,37.2544017 60.5524735,39.1952685 C60.5524735,41.1344946 58.9660576,42.7119616 57.0160194,42.7119616" id="Fill-115" fill="#FF3E00"></path>
                    </g>
                    <text id="BLAH" font-family="ChalkboardSE-Regular, Chalkboard SE" font-size="17.6" font-weight="normal" line-spacing="14.4" fill="#333333">
                        <tspan x="71.2" y="20">BLAH</tspan>
                    </text>
                    <text id="BLAH" transform="translate(148.473856, 16.958677) rotate(22.000000) translate(-148.473856, -16.958677) " font-family="ChalkboardSE-Regular, Chalkboard SE" font-size="17.6" font-weight="normal" line-spacing="14.4" fill="#333333">
                        <tspan x="127.473856" y="29.7586774">BLAH</tspan>
                    </text>
                    <text id="BLAH" transform="translate(22.196215, 20.152872) rotate(-17.000000) translate(-22.196215, -20.152872) " font-family="ChalkboardSE-Regular, Chalkboard SE" font-size="17.6" font-weight="normal" line-spacing="14.4" fill="#333333">
                        <tspan x="1.1962152" y="32.9528724">BLAH</tspan>
                    </text>
                    <ellipse id="Oval" stroke="#333333" stroke-width="2.4" fill="#F5F5F5" cx="89.2" cy="95.8974359" rx="6.8" ry="5.59401709"></ellipse>
                    <path d="M177.068576,121.81677 C177.068576,121.81677 171.548761,137.030957 174.435605,140.961785 C177.322449,144.892613 182.801876,145.809038 185.236749,139.678406 C187.671622,133.547775 177.068576,121.81677 177.068576,121.81677 Z" id="Path-2" stroke="#333333" stroke-width="2.4" stroke-linecap="round" stroke-linejoin="round" fill="#FF3E00"></path>
                </g>
            </g>
        </g>
    </g>
</svg>