<?xml version="1.0" encoding="UTF-8" standalone="no"?>
<svg width="275px" height="34px" viewBox="0 0 275 34" version="1.1" xmlns="http://www.w3.org/2000/svg" xmlns:xlink="http://www.w3.org/1999/xlink">
    <!-- Generator: Sketch 41 (35326) - http://www.bohemiancoding.com/sketch -->
    <title>Group 20</title>
    <desc>Created with Sketch.</desc>
    <defs></defs>
    <g id="LANDING" stroke="none" stroke-width="1" fill="none" fill-rule="evenodd">
        <g id="01.-Landing-" transform="translate(-35.000000, -34.000000)">
            <g id="Group-13" transform="translate(35.000000, 34.000000)">
                <g id="Group-20">
                    <text id="NOW-IN-BETA" font-family="Roboto-Medium, Roboto" font-size="13" font-weight="400" line-spacing="16" fill="#999999">
                        <tspan x="194" y="28">NOW IN BETA</tspan>
                    </text>
                    <g id="Group-2">
                        <path d="M39.8202237,23.1251598 L38.2825688,25.5404031 C40.0677486,26.9955497 42.2579692,27.9406449 44.8082261,27.9406449 C48.311079,27.9406449 51.1163616,26.1779674 51.1163616,22.5626032 C51.1163616,16.1269549 42.2129647,18.669711 42.2129647,15.1143529 C42.2129647,13.7717176 43.4655909,13.0816481 45.0707526,13.0816481 C46.4058871,13.0816481 48.0185495,13.5541957 49.3386825,14.4542864 L50.8538351,12.1065499 C49.2411727,10.8314214 47.0509521,10.0588436 44.8757329,10.0588436 C41.5228952,10.0588436 38.7851194,11.8740264 38.7851194,15.3843801 C38.7851194,21.6625125 47.6135087,19.2697715 47.6135087,22.8326304 C47.6135087,24.2277709 46.3008765,24.8428329 44.6432095,24.8428329 C43.0230463,24.8428329 41.3653793,24.2502732 39.8202237,23.1251598 Z M56.0743505,15.4668884 L53.3665778,15.4668884 L53.3665778,33.0786625 L56.674411,32.4936036 L56.674411,26.4254923 C57.5895032,27.4981004 58.8571309,27.9406449 60.2672729,27.9406449 C64.0326522,27.9406449 65.8103313,24.9178404 65.8103313,21.6325095 C65.8103313,17.8821317 63.5526039,15.2193634 60.2147676,15.2193634 C58.6321082,15.2193634 57.2069646,15.8269246 56.3143747,17.1095538 L56.0743505,15.4668884 Z M62.5099988,21.5875049 C62.5099988,23.5902067 61.3848855,25.022851 59.5321989,25.022851 C57.6345077,25.022851 56.5694004,23.5302006 56.5694004,21.6100072 C56.5694004,19.8098259 57.4994941,18.0996536 59.4946951,18.0996536 C61.3248795,18.0996536 62.5099988,19.5322979 62.5099988,21.5875049 Z M78.7341223,26.2979795 L77.2564734,24.2727754 C76.3713843,24.9253412 75.3137777,25.3453835 74.1436599,25.3453835 C72.2759717,25.3453835 71.0308463,24.2652747 70.8358266,22.5250994 L79.4616956,22.5250994 C79.4916986,22.2475714 79.5142009,21.7975261 79.5142009,21.4149876 C79.5142009,17.8821317 77.3239802,15.2193634 73.7236175,15.2193634 C70.2807707,15.2193634 67.5279934,17.6496083 67.5279934,21.6550117 C67.5279934,25.7579251 70.4157843,27.9406449 73.8961349,27.9406449 C75.7413208,27.9406449 77.5039984,27.325583 78.7341223,26.2979795 Z M70.8733304,20.4173871 C71.0983531,18.8722314 72.1709611,17.8671302 73.6861138,17.8671302 C75.2837747,17.8671302 76.1688639,18.9922435 76.3263797,20.4173871 L70.8733304,20.4173871 Z M92.2579747,26.2979795 L90.7803258,24.2727754 C89.8952367,24.9253412 88.8376301,25.3453835 87.6675122,25.3453835 C85.7998241,25.3453835 84.5546987,24.2652747 84.359679,22.5250994 L92.985548,22.5250994 C93.015551,22.2475714 93.0380533,21.7975261 93.0380533,21.4149876 C93.0380533,17.8821317 90.8478326,15.2193634 87.2474699,15.2193634 C83.8046231,15.2193634 81.0518458,17.6496083 81.0518458,21.6550117 C81.0518458,25.7579251 83.9396367,27.9406449 87.4199873,27.9406449 C89.2651732,27.9406449 91.0278508,27.325583 92.2579747,26.2979795 Z M84.3971828,20.4173871 C84.6222055,18.8722314 85.6948135,17.8671302 87.2099662,17.8671302 C88.8076271,17.8671302 89.6927163,18.9922435 89.8502321,20.4173871 L84.3971828,20.4173871 Z M103.996647,24.1827664 C103.216569,24.7378223 102.263973,25.0603548 101.326378,25.0603548 C99.3311772,25.0603548 97.9060337,23.6277105 97.9060337,21.5650027 C97.9060337,19.4947941 99.3461788,18.0921528 101.34888,18.0921528 C102.278974,18.0921528 103.224069,18.3996838 104.004148,18.9322375 L105.376786,16.6595085 C104.259174,15.7594178 102.594006,15.2193634 100.95134,15.2193634 C97.4484876,15.2193634 94.5756982,17.6421075 94.5756982,21.647511 C94.5756982,25.8479341 97.7260155,27.9406449 100.921337,27.9406449 C102.669013,27.9406449 104.311679,27.3105815 105.564305,26.3279825 L103.996647,24.1827664 Z M118.90814,27.69312 L118.90814,20.2523704 C118.90814,17.2295659 117.385487,15.2193634 114.377684,15.2193634 C113.012546,15.2193634 111.684913,15.661908 110.822326,16.644507 L110.822326,9.50378767 L107.506992,10.0888466 L107.506992,27.69312 L110.829827,27.69312 L110.829827,20.6874143 C110.829827,19.1722616 111.894934,18.1671604 113.395085,18.1671604 C114.880235,18.1671604 115.592806,19.1347579 115.592806,20.604906 L115.592806,27.69312 L118.90814,27.69312 Z M122.643506,10.3063685 L121.953437,27.69312 L125.343778,27.69312 L125.786323,15.9169337 L130.331781,25.390388 L132.732022,25.390388 L137.142467,15.8944314 L137.555008,27.69312 L141.102866,27.69312 L140.427798,10.3063685 L136.714924,10.3063685 L131.621911,21.0099468 L126.45389,10.3063685 L122.643506,10.3063685 Z M149.781223,27.9406449 C153.396588,27.9406449 156.209371,25.390388 156.209371,21.5500012 C156.209371,17.7246158 153.41909,15.2193634 149.803726,15.2193634 C146.180861,15.2193634 143.39058,17.7471181 143.39058,21.5800042 C143.39058,25.4053895 146.180861,27.9406449 149.781223,27.9406449 Z M149.781223,25.0603548 C148.018546,25.0603548 146.690912,23.5977074 146.690912,21.5800042 C146.690912,19.5623009 148.026047,18.1371574 149.796225,18.1371574 C151.566403,18.1371574 152.894037,19.5698017 152.894037,21.5725034 C152.894037,23.5977074 151.543901,25.0603548 149.781223,25.0603548 Z M169.815731,27.69312 L169.815731,20.2523704 C169.815731,17.2445674 168.345583,15.2193634 165.367783,15.2193634 C163.792624,15.2193634 162.397484,15.7969216 161.504894,17.0270455 L161.257369,15.4668884 L158.549596,15.4668884 L158.549596,27.69312 L161.86493,27.69312 L161.86493,20.8074264 C161.86493,19.2472692 162.787523,18.1671604 164.340179,18.1671604 C165.750321,18.1671604 166.500397,19.0447488 166.500397,20.4398893 L166.500397,27.69312 L169.815731,27.69312 Z M176.836428,22.5100979 L180.459293,27.69312 L184.419692,27.69312 L179.724219,20.9799437 L183.999649,15.4668884 L180.03175,15.4668884 L176.828927,19.5848032 L176.018845,19.5848032 L176.018845,9.50378767 L172.711012,10.0888466 L172.711012,27.69312 L176.018845,27.69312 L176.018845,22.5100979 L176.836428,22.5100979 Z" id="SpeechMonk" fill="#333333"></path>
                        <path d="M31.2,30.2083956 L26.7948024,24.0787518 C28.5237083,21.6630318 29.554027,18.7052479 29.554027,15.5 C29.554027,7.37689621 23.012089,0.791604387 14.9412597,0.791604387 C6.86945471,0.791604387 0.327516779,7.37689621 0.327516779,15.5 C0.327516779,23.6231038 6.86945471,30.2083956 14.9412597,30.2083956 C18.4078526,30.2083956 21.5885711,28.9867876 24.0950944,26.9560117 L31.2,30.2083956 Z" id="Fill-1" fill="#FF3E00"></path>
                    </g>
                </g>
            </g>
        </g>
    </g>
</svg>