<?xml version="1.0" encoding="UTF-8" standalone="no"?>
<svg width="193px" height="193px" viewBox="0 0 193 193" version="1.1" xmlns="http://www.w3.org/2000/svg" xmlns:xlink="http://www.w3.org/1999/xlink">
    <!-- Generator: Sketch 41 (35326) - http://www.bohemiancoding.com/sketch -->
    <title>Group 33</title>
    <desc>Created with Sketch.</desc>
    <defs>
        <rect id="path-1" x="0.383218123" y="0" width="170.571865" height="170.571865" rx="5.76"></rect>
        <filter x="-50%" y="-50%" width="200%" height="200%" filterUnits="objectBoundingBox" id="filter-2">
            <feMorphology radius="2" operator="dilate" in="SourceAlpha" result="shadowSpreadOuter1"></feMorphology>
            <feOffset dx="0" dy="3" in="shadowSpreadOuter1" result="shadowOffsetOuter1"></feOffset>
            <feGaussianBlur stdDeviation="3.5" in="shadowOffsetOuter1" result="shadowBlurOuter1"></feGaussianBlur>
            <feColorMatrix values="0 0 0 0 0   0 0 0 0 0   0 0 0 0 0  0 0 0 0.05 0" type="matrix" in="shadowBlurOuter1"></feColorMatrix>
        </filter>
    </defs>
    <g id="LANDING" stroke="none" stroke-width="1" fill="none" fill-rule="evenodd">
        <g id="01.-Landing-" transform="translate(-440.000000, -4060.000000)">
            <g id="Group-33" transform="translate(451.000000, 4068.000000)">
                <g id="Rectangle-2">
                    <use fill="black" fill-opacity="1" filter="url(#filter-2)" xlink:href="#path-1"></use>
                    <use fill="#FFFFFF" fill-rule="evenodd" xlink:href="#path-1"></use>
                </g>
                <text id="ENTREPRENEURSHIP" font-family="Roboto-Regular, Roboto" font-size="14" font-weight="normal" line-spacing="20.16" fill="#333333">
                    <tspan x="18.3488379" y="112.766945">ENTREPRENEURSHIP</tspan>
                </text>
                <path d="M86.5539304,47.5751392 L87.2848101,55.6139241 L100.670886,63.6455696 L99.778481,67.2151899 L87.2848101,64.5379747 L86.3924051,71.6772152 L89.9620253,75.2468354 L88.1772152,77.9240506 L84.6075949,75.693038 L81.0379747,77.9240506 L79.2531646,75.2468354 L82.8227848,71.6772152 L81.9303797,64.5379747 L69.4367089,67.2151899 L68.5443038,63.6455696 L81.9303797,55.6139241 L82.6612595,47.5751392 C82.7522848,46.5685063 83.5965,45.7974684 84.6075949,45.7974684 L84.6075949,45.7974684 C85.6186899,45.7974684 86.4620127,46.5685063 86.5539304,47.5751392 Z" id="Page-1" stroke="#FF3E00" stroke-width="2.16" stroke-linecap="round" stroke-linejoin="round"></path>
            </g>
        </g>
    </g>
</svg>