<?xml version="1.0" encoding="UTF-8" standalone="no"?>
<svg width="193px" height="193px" viewBox="0 0 193 193" version="1.1" xmlns="http://www.w3.org/2000/svg" xmlns:xlink="http://www.w3.org/1999/xlink">
    <!-- Generator: Sketch 41 (35326) - http://www.bohemiancoding.com/sketch -->
    <title>Group 28</title>
    <desc>Created with Sketch.</desc>
    <defs>
        <rect id="path-1" x="0.383218123" y="0" width="170.571865" height="170.571865" rx="5.76"></rect>
        <filter x="-50%" y="-50%" width="200%" height="200%" filterUnits="objectBoundingBox" id="filter-2">
            <feMorphology radius="2" operator="dilate" in="SourceAlpha" result="shadowSpreadOuter1"></feMorphology>
            <feOffset dx="0" dy="3" in="shadowSpreadOuter1" result="shadowOffsetOuter1"></feOffset>
            <feGaussianBlur stdDeviation="3.5" in="shadowOffsetOuter1" result="shadowBlurOuter1"></feGaussianBlur>
            <feColorMatrix values="0 0 0 0 0   0 0 0 0 0   0 0 0 0 0  0 0 0 0.05 0" type="matrix" in="shadowBlurOuter1"></feColorMatrix>
        </filter>
    </defs>
    <g id="LANDING" stroke="none" stroke-width="1" fill="none" fill-rule="evenodd">
        <g id="01.-Landing-" transform="translate(-440.000000, -3866.000000)">
            <g id="Group-28" transform="translate(451.000000, 3874.000000)">
                <g id="Rectangle-2">
                    <use fill="black" fill-opacity="1" filter="url(#filter-2)" xlink:href="#path-1"></use>
                    <use fill="#FFFFFF" fill-rule="evenodd" xlink:href="#path-1"></use>
                </g>
                <text id="STRATEGY" font-family="Roboto-Regular, Roboto" font-size="14" font-weight="normal" line-spacing="20.16" fill="#333333">
                    <tspan x="51.7765723" y="112.766945">STRATEGY</tspan>
                </text>
                <g id="Page-1" transform="translate(67.101266, 48.341772)" stroke="#FF3E00" stroke-width="2.16">
                    <path d="M25.0691617,18.3987342 C25.0691617,21.7858535 22.3317447,24.5316456 18.9549564,24.5316456 C15.5781681,24.5316456 12.840751,21.7858535 12.840751,18.3987342 C12.840751,15.0116148 15.5781681,12.2658228 18.9549564,12.2658228 C22.3317447,12.2658228 25.0691617,15.0116148 25.0691617,18.3987342 Z" id="Stroke-1"></path>
                    <path d="M31.1833671,18.3987342 C31.1833671,25.1729729 25.7085329,30.664557 18.9549564,30.664557 C12.2013799,30.664557 6.7265457,25.1729729 6.7265457,18.3987342 C6.7265457,11.6244955 12.2013799,6.13291139 18.9549564,6.13291139 C25.7085329,6.13291139 31.1833671,11.6244955 31.1833671,18.3987342 Z" id="Stroke-3"></path>
                    <path d="M18.7594937,0 L18.7594937,6.13291139" id="Stroke-5"></path>
                    <path d="M0.0565035095,18.0379747 L6.17070885,18.0379747" id="Stroke-7"></path>
                    <path d="M18.7594937,36.7974684 L18.7594937,30.664557" id="Stroke-9"></path>
                    <path d="M37.019654,18.0379747 L30.9054487,18.0379747" id="Stroke-11"></path>
                </g>
            </g>
        </g>
    </g>
</svg>