<?xml version="1.0" encoding="UTF-8" standalone="no"?>
<svg width="193px" height="193px" viewBox="0 0 193 193" version="1.1" xmlns="http://www.w3.org/2000/svg" xmlns:xlink="http://www.w3.org/1999/xlink">
    <!-- Generator: Sketch 41 (35326) - http://www.bohemiancoding.com/sketch -->
    <title>Group 30</title>
    <desc>Created with Sketch.</desc>
    <defs>
        <rect id="path-1" x="0.42813538" y="0" width="170.571865" height="170.571865" rx="5.76"></rect>
        <filter x="-50%" y="-50%" width="200%" height="200%" filterUnits="objectBoundingBox" id="filter-2">
            <feMorphology radius="2" operator="dilate" in="SourceAlpha" result="shadowSpreadOuter1"></feMorphology>
            <feOffset dx="0" dy="3" in="shadowSpreadOuter1" result="shadowOffsetOuter1"></feOffset>
            <feGaussianBlur stdDeviation="3.5" in="shadowOffsetOuter1" result="shadowBlurOuter1"></feGaussianBlur>
            <feColorMatrix values="0 0 0 0 0   0 0 0 0 0   0 0 0 0 0  0 0 0 0.05 0" type="matrix" in="shadowBlurOuter1"></feColorMatrix>
        </filter>
    </defs>
    <g id="LANDING" stroke="none" stroke-width="1" fill="none" fill-rule="evenodd">
        <g id="01.-Landing-" transform="translate(-829.000000, -3866.000000)">
            <g id="Group-30" transform="translate(840.000000, 3874.000000)">
                <g id="Rectangle-2">
                    <use fill="black" fill-opacity="1" filter="url(#filter-2)" xlink:href="#path-1"></use>
                    <use fill="#FFFFFF" fill-rule="evenodd" xlink:href="#path-1"></use>
                </g>
                <text id="TECHNOLOGY" font-family="Roboto-Regular, Roboto" font-size="14" font-weight="normal" line-spacing="20.16" fill="#333333">
                    <tspan x="40.8805716" y="112.766945">TECHNOLOGY</tspan>
                </text>
                <g id="Page-1" transform="translate(72.887063, 50.506329)" stroke="#FF3E00" stroke-width="2.16">
                    <path d="M17.5388439,14.4303797 C17.5388439,22.3999578 15.3855105,28.8607595 12.7287173,28.8607595 C10.0719241,28.8607595 7.91859072,22.3999578 7.91859072,14.4303797 C7.91859072,6.46080169 10.0719241,0 12.7287173,0 C15.3855105,0 17.5388439,6.46080169 17.5388439,14.4303797 Z" id="Stroke-1"></path>
                    <path d="M15.1337806,10.2646498 C22.0355105,14.2498397 26.5538228,19.3445654 25.2262278,21.6454093 C23.8978312,23.9462532 17.225384,22.5809789 10.323654,18.595789 C3.42192405,14.6114008 -1.09638819,9.51587342 0.232008439,7.21502954 C1.55960338,4.91418565 8.23205063,6.27945992 15.1337806,10.2646498 Z" id="Stroke-3"></path>
                    <path d="M15.1337806,18.5961097 C8.23205063,22.5812996 1.55960338,23.9465738 0.232008439,21.64573 C-1.09638819,19.3448861 3.42192405,14.2493586 10.323654,10.2649705 C17.225384,6.27978059 23.8978312,4.91450633 25.2262278,7.21535021 C26.5538228,9.51619409 22.0355105,14.6109198 15.1337806,18.5961097 Z" id="Stroke-5"></path>
                </g>
            </g>
        </g>
    </g>
</svg>