<?xml version="1.0" encoding="UTF-8" standalone="no"?>
<svg width="193px" height="193px" viewBox="0 0 193 193" version="1.1" xmlns="http://www.w3.org/2000/svg" xmlns:xlink="http://www.w3.org/1999/xlink">
    <!-- Generator: Sketch 41 (35326) - http://www.bohemiancoding.com/sketch -->
    <title>Group 34</title>
    <desc>Created with Sketch.</desc>
    <defs>
        <rect id="path-1" x="0" y="0" width="170.571865" height="170.571865" rx="5.76"></rect>
        <filter x="-50%" y="-50%" width="200%" height="200%" filterUnits="objectBoundingBox" id="filter-2">
            <feMorphology radius="2" operator="dilate" in="SourceAlpha" result="shadowSpreadOuter1"></feMorphology>
            <feOffset dx="0" dy="3" in="shadowSpreadOuter1" result="shadowOffsetOuter1"></feOffset>
            <feGaussianBlur stdDeviation="3.5" in="shadowOffsetOuter1" result="shadowBlurOuter1"></feGaussianBlur>
            <feColorMatrix values="0 0 0 0 0   0 0 0 0 0   0 0 0 0 0  0 0 0 0.05 0" type="matrix" in="shadowBlurOuter1"></feColorMatrix>
        </filter>
    </defs>
    <g id="LANDING" stroke="none" stroke-width="1" fill="none" fill-rule="evenodd">
        <g id="01.-Landing-" transform="translate(-247.000000, -4060.000000)">
            <g id="Group-34" transform="translate(258.000000, 4068.000000)">
                <g id="Rectangle-2">
                    <use fill="black" fill-opacity="1" filter="url(#filter-2)" xlink:href="#path-1"></use>
                    <use fill="#FFFFFF" fill-rule="evenodd" xlink:href="#path-1"></use>
                </g>
                <text id="MARKETING" font-family="Roboto-Regular, Roboto" font-size="14" font-weight="normal" line-spacing="20.16" fill="#333333">
                    <tspan x="45.9622018" y="112.766945">MARKETING</tspan>
                </text>
                <path d="M94.5683912,47.3469505 L94.8559939,47.3469505 C95.8338434,47.3469505 96.5007223,48.3294407 96.5007223,49.3047595 L96.5007223,72.3681795 C96.5007223,73.3434983 95.8338434,74.239931 94.8559939,74.239931 L94.5683912,74.239931 C93.5788579,74.239931 87.4457288,65.2756041 80.8811955,65.2756041 L72.7078842,65.2756041 C71.383114,65.2756041 70.4367211,64.0179091 70.4367211,62.6965673 L70.4367211,58.9763717 C70.4367211,57.6541335 71.383114,56.3112773 72.7078842,56.3112773 L80.8811955,56.3112773 C87.4466275,56.3112773 93.5779591,47.3469505 94.5683912,47.3469505 Z" id="Stroke-1" stroke="#FF3E00" stroke-width="2.16" stroke-linecap="round" stroke-linejoin="round"></path>
                <path d="M96.6065062,56.5221183 C98.480418,57.0653565 99.8510249,58.7909894 99.8510249,60.8366488 C99.8510249,62.8814117 98.480418,64.6070446 96.6065062,65.1502829" id="Stroke-3" stroke="#FF3E00" stroke-width="2.16" stroke-linecap="round" stroke-linejoin="round"></path>
                <path d="M80.0886076,56.7594937 L80.0886076,64.8273878" id="Stroke-5" stroke="#FF3E00" stroke-width="2.16" stroke-linecap="round" stroke-linejoin="round"></path>
                <path d="M79.0824199,65.2756041 C79.4140619,65.2756041 78.9287322,69.0415178 80.0782445,70.8460368 L82.024057,73.9154223 C82.5138805,74.6836651 81.7238716,76.0327963 80.8421894,76.0327963 L77.9221225,76.0327963 C77.0395415,76.0327963 76.1021362,75.3470253 75.8918267,74.4604534 L73.7033493,65.2756041 L79.0824199,65.2756041 Z" id="Stroke-7" stroke="#FF3E00" stroke-width="2.16" stroke-linecap="round" stroke-linejoin="round"></path>
            </g>
        </g>
    </g>
</svg>