<?xml version="1.0" encoding="UTF-8" standalone="no"?>
<svg width="481px" height="355px" viewBox="0 0 481 355" version="1.1" xmlns="http://www.w3.org/2000/svg" xmlns:xlink="http://www.w3.org/1999/xlink">
    <!-- Generator: Sketch 41 (35326) - http://www.bohemiancoding.com/sketch -->
    <title>Group 27</title>
    <desc>Created with Sketch.</desc>
    <defs></defs>
    <g id="LANDING" stroke="none" stroke-width="1" fill="none" fill-rule="evenodd">
        <g id="01.-Landing-" transform="translate(-111.000000, -3199.000000)">
            <g id="Group-27" transform="translate(111.000000, 3199.000000)">
                <rect id="Rectangle-3" fill="#FFFFFF" x="0.5" y="0.5" width="480" height="354"></rect>
                <g id="Group-23" transform="translate(79.000000, 48.000000)">
                    <g id="Page-1" transform="translate(18.377171, 0.000000)">
                        <polygon id="Fill-1" fill="#FEFEFE" points="94.4480866 233.608108 46.9412814 211.848 46.9412814 197.866868 94.4480866 219.626976"></polygon>
                        <polygon id="Stroke-2" stroke="#333333" stroke-width="1.6" points="94.4480866 233.608108 46.9412814 211.848 46.9412814 197.866868 94.4480866 219.626976"></polygon>
                        <polygon id="Fill-3" fill="#FEFEFE" points="47.6424888 255.333175 0.135683643 233.573067 46.9412814 211.848 94.4480866 233.608108"></polygon>
                        <polygon id="Stroke-4" stroke="#333333" stroke-width="1.6" points="47.6424888 255.333175 0.135683643 233.573067 46.9412814 211.848 94.4480866 233.608108"></polygon>
                        <polygon id="Fill-6" fill="#FEFEFE" points="0.135613522 237.952981 47.6424187 259.713089 47.6424187 255.333035 0.135613522 233.572927"></polygon>
                        <polygon id="Stroke-7" stroke="#333333" stroke-width="1.6" stroke-linecap="round" stroke-linejoin="round" points="47.6424888 259.713229 0.135683643 237.953121 0.135683643 233.573067 47.6424888 255.333175"></polygon>
                        <polygon id="Fill-9" fill="#FEFEFE" points="94.4483671 219.626555 94.4483671 233.607687 47.6427693 255.333456 47.6427693 259.712809 98.1297062 236.23642 98.1297062 218.015396"></polygon>
                        <polyline id="Stroke-10" stroke="#333333" stroke-width="1.6" stroke-linecap="round" stroke-linejoin="round" points="47.6424888 259.713229 98.1294257 236.23614 98.1294257 218.015116 94.4480866 219.626976 94.4480866 233.608108 47.6424888 255.333175 47.6424888 259.713229"></polyline>
                        <path d="M42.2410177,234.453353 C39.9824285,233.458906 38.0085295,232.791035 36.3200219,232.450442 C34.6301119,232.11055 33.3644325,232.127369 32.5222823,232.499499 C31.6787298,232.87303 31.6548887,233.427369 32.4479543,234.16462 C33.2403188,234.901871 34.7661462,235.76807 37.0247354,236.761817 C39.2833246,237.756965 41.2558212,238.431844 42.9387191,238.785051 C44.6230194,239.13966 45.885894,239.129849 46.7287454,238.757019 C47.5715968,238.383488 47.5989439,237.822841 46.8114879,237.070873 C46.0240319,236.321008 44.5003081,235.448501 42.2410177,234.453353 M46.8395362,232.418205 C48.81624,233.28931 50.394658,234.142194 51.5761926,234.97966 C52.7570259,235.815725 53.5493903,236.604135 53.9525846,237.343488 C54.3557789,238.083542 54.383126,238.768232 54.0346259,239.398259 C53.686827,240.028286 52.9926316,240.573515 51.9534422,241.033946 C50.8953201,241.502086 49.6534817,241.813946 48.2272257,241.969526 C46.8009698,242.124404 45.2491977,242.113892 43.5733118,241.937989 C41.8981272,241.762086 40.1156579,241.411682 38.2259038,240.888879 C36.3361497,240.364674 34.4036219,239.667369 32.4269181,238.796965 C30.4516167,237.926561 28.8738999,237.077881 27.6965726,236.250927 C26.5185441,235.423973 25.7282833,234.640469 25.325089,233.901116 C24.9218947,233.161062 24.8945476,232.476372 25.2430477,231.846345 C25.5915478,231.215617 26.2934565,230.667585 27.3515785,230.198744 C28.390768,229.738313 29.6248931,229.430658 31.0504479,229.275078 C32.4767038,229.120199 34.0284759,229.130712 35.7043618,229.306615 C37.3795464,229.482518 39.1599121,229.828016 41.0461602,230.34241 C42.931707,230.855402 44.8635336,231.547801 46.8395362,232.418205" id="Fill-12" fill="#FEFEFE"></path>
                        <path d="M42.2410177,234.453353 C39.9824285,233.458906 38.0085295,232.791035 36.3200219,232.450442 C34.6301119,232.11055 33.3644325,232.127369 32.5222823,232.499499 C31.6787298,232.87303 31.6548887,233.427369 32.4479543,234.16462 C33.2403188,234.901871 34.7661462,235.76807 37.0247354,236.761817 C39.2833246,237.756965 41.2558212,238.431844 42.9387191,238.785051 C44.6230194,239.13966 45.885894,239.129849 46.7287454,238.757019 C47.5715968,238.383488 47.5989439,237.822841 46.8114879,237.070873 C46.0240319,236.321008 44.5003081,235.448501 42.2410177,234.453353 L42.2410177,234.453353 Z M46.8395362,232.418205 C48.81624,233.28931 50.394658,234.142194 51.5761926,234.97966 C52.7570259,235.815725 53.5493903,236.604135 53.9525846,237.343488 C54.3557789,238.083542 54.383126,238.768232 54.0346259,239.398259 C53.686827,240.028286 52.9926316,240.573515 51.9534422,241.033946 C50.8953201,241.502086 49.6534817,241.813946 48.2272257,241.969526 C46.8009698,242.124404 45.2491977,242.113892 43.5733118,241.937989 C41.8981272,241.762086 40.1156579,241.411682 38.2259038,240.888879 C36.3361497,240.364674 34.4036219,239.667369 32.4269181,238.796965 C30.4516167,237.926561 28.8738999,237.077881 27.6965726,236.250927 C26.5185441,235.423973 25.7282833,234.640469 25.325089,233.901116 C24.9218947,233.161062 24.8945476,232.476372 25.2430477,231.846345 C25.5915478,231.215617 26.2934565,230.667585 27.3515785,230.198744 C28.390768,229.738313 29.6248931,229.430658 31.0504479,229.275078 C32.4767038,229.120199 34.0284759,229.130712 35.7043618,229.306615 C37.3795464,229.482518 39.1599121,229.828016 41.0461602,230.34241 C42.931707,230.855402 44.8635336,231.547801 46.8395362,232.418205 L46.8395362,232.418205 Z" id="Stroke-14" stroke="#333333" stroke-width="1.6" stroke-linecap="round" stroke-linejoin="round"></path>
                        <path d="M46.2120256,227.868205 L44.7163501,229.583784 C44.1911457,229.590092 43.5628639,229.550846 42.8322057,229.466049 C42.1015475,229.381251 41.3253109,229.159094 40.5034957,228.796776 C38.9636441,228.118394 38.5401148,227.354512 39.2322066,226.504431 L40.7811739,224.526049 L41.7761873,224.086642 C42.546113,223.744647 43.4773165,223.6171 44.5662917,223.701197 C45.6566693,223.785995 46.754059,224.070523 47.8577595,224.556183 L67.9157988,233.390577 C67.7692465,233.499903 67.5483661,233.660388 67.2531578,233.870631 C66.9579494,234.080873 66.6129554,234.273596 66.2181756,234.448097 C65.824097,234.622598 65.4314208,234.762059 65.0408483,234.867181 C64.6502757,234.972302 64.2316549,235.020658 63.7856869,235.01435 C63.339719,235.008043 62.8600931,234.943569 62.346108,234.819526 C61.8300193,234.696183 61.2529256,234.492248 60.6106195,234.209822 L46.2120256,227.868205 Z" id="Fill-16" fill="#FEFEFE"></path>
                        <path d="M46.2120256,227.868205 L44.7163501,229.583784 C44.1911457,229.590092 43.5628639,229.550846 42.8322057,229.466049 C42.1015475,229.381251 41.3253109,229.159094 40.5034957,228.796776 C38.9636441,228.118394 38.5401148,227.354512 39.2322066,226.504431 L40.7811739,224.526049 L41.7761873,224.086642 C42.546113,223.744647 43.4773165,223.6171 44.5662917,223.701197 C45.6566693,223.785995 46.754059,224.070523 47.8577595,224.556183 L67.9157988,233.390577 C67.7692465,233.499903 67.5483661,233.660388 67.2531578,233.870631 C66.9579494,234.080873 66.6129554,234.273596 66.2181756,234.448097 C65.824097,234.622598 65.4314208,234.762059 65.0408483,234.867181 C64.6502757,234.972302 64.2316549,235.020658 63.7856869,235.01435 C63.339719,235.008043 62.8600931,234.943569 62.346108,234.819526 C61.8300193,234.696183 61.2529256,234.492248 60.6106195,234.209822 L46.2120256,227.868205 L46.2120256,227.868205 Z" id="Stroke-18" stroke="#333333" stroke-width="1.6" stroke-linecap="round" stroke-linejoin="round"></path>
                        <polygon id="Fill-20" fill="#FEFEFE" points="141.253684 193.521714 93.7468791 171.761606 93.7468791 157.780474 141.253684 179.540582"></polygon>
                        <polygon id="Stroke-22" stroke="#333333" stroke-width="1.6" stroke-linecap="round" stroke-linejoin="round" points="141.253684 193.521714 93.7468791 171.761606 93.7468791 157.780474 141.253684 179.540582"></polygon>
                        <polygon id="Fill-24" fill="#FEFEFE" points="94.4480866 215.246782 46.9412814 193.486674 93.7468791 171.761606 141.253684 193.521714"></polygon>
                        <polygon id="Stroke-26" stroke="#333333" stroke-width="1.6" stroke-linecap="round" stroke-linejoin="round" points="94.4480866 215.246782 46.9412814 193.486674 93.7468791 171.761606 141.253684 193.521714"></polygon>
                        <polygon id="Fill-28" fill="#FEFEFE" points="94.4480866 219.626836 46.9412814 197.866728 46.9412814 193.486674 94.4480866 215.246782"></polygon>
                        <polygon id="Stroke-30" stroke="#333333" stroke-width="1.6" points="94.4480866 219.626836 46.9412814 197.866728 46.9412814 193.486674 94.4480866 215.246782"></polygon>
                        <polygon id="Fill-32" fill="#FEFEFE" points="94.4480866 219.626836 144.935023 196.149747 144.935023 177.928722 141.253684 179.540582 141.253684 193.521714 94.4480866 215.246782"></polygon>
                        <polyline id="Stroke-34" stroke="#333333" stroke-width="1.6" stroke-linecap="round" stroke-linejoin="round" points="94.4480866 219.626836 144.935023 196.149747 144.935023 177.928722 141.253684 179.540582 141.253684 193.521714 94.4480866 215.246782 94.4480866 219.626836"></polyline>
                        <path d="M89.0466154,194.36696 C86.7880262,193.372512 84.8141272,192.704642 83.1256197,192.364749 C81.4357097,192.024156 80.1700302,192.040275 79.3278801,192.413806 C78.4843275,192.785935 78.4604864,193.341677 79.2535521,194.078226 C80.0459165,194.815477 81.5717439,195.680976 83.8303331,196.676124 C86.0889224,197.671272 88.0614189,198.34545 89.7443168,198.699358 C91.4286171,199.053267 92.6914918,199.043456 93.5343431,198.670625 C94.3771945,198.297094 94.4045416,197.735747 93.6170856,196.985181 C92.8296296,196.234615 91.3059058,195.362108 89.0466154,194.36696 M93.6451339,192.331811 C95.6218377,193.202216 97.2002557,194.056501 98.3817903,194.892566 C99.5626236,195.730032 100.354988,196.517741 100.758182,197.257795 C101.161377,197.997148 101.188724,198.681838 100.840224,199.312566 C100.492425,199.941892 99.7982294,200.487121 98.7590399,200.947553 C97.7009179,201.416394 96.4590794,201.726852 95.0328235,201.883132 C93.6065675,202.038011 92.0547954,202.028199 90.3789096,201.851596 C88.703725,201.674992 86.9212556,201.325989 85.0315015,200.801784 C83.1417474,200.278981 81.2092197,199.581677 79.2325159,198.710571 C77.2572144,197.840868 75.6794977,196.991488 74.5021704,196.163833 C73.3241418,195.33758 72.533881,194.554075 72.1306867,193.814022 C71.7274924,193.074668 71.7001454,192.390679 72.0486455,191.759251 C72.3971456,191.129925 73.0990542,190.581191 74.1571763,190.113051 C75.1963657,189.65262 76.4304909,189.344264 77.8560456,189.188685 C79.2823016,189.034507 80.8340737,189.043617 82.5099595,189.220221 C84.1851441,189.396825 85.9655099,189.741623 87.8517579,190.255315 C89.7373048,190.769008 91.6691313,191.461407 93.6451339,192.331811" id="Fill-36" fill="#FEFEFE"></path>
                        <path d="M89.0466154,194.36696 C86.7880262,193.372512 84.8141272,192.704642 83.1256197,192.364749 C81.4357097,192.024156 80.1700302,192.040275 79.3278801,192.413806 C78.4843275,192.785935 78.4604864,193.341677 79.2535521,194.078226 C80.0459165,194.815477 81.5717439,195.680976 83.8303331,196.676124 C86.0889224,197.671272 88.0614189,198.34545 89.7443168,198.699358 C91.4286171,199.053267 92.6914918,199.043456 93.5343431,198.670625 C94.3771945,198.297094 94.4045416,197.735747 93.6170856,196.985181 C92.8296296,196.234615 91.3059058,195.362108 89.0466154,194.36696 L89.0466154,194.36696 Z M93.6451339,192.331811 C95.6218377,193.202216 97.2002557,194.056501 98.3817903,194.892566 C99.5626236,195.730032 100.354988,196.517741 100.758182,197.257795 C101.161377,197.997148 101.188724,198.681838 100.840224,199.312566 C100.492425,199.941892 99.7982294,200.487121 98.7590399,200.947553 C97.7009179,201.416394 96.4590794,201.726852 95.0328235,201.883132 C93.6065675,202.038011 92.0547954,202.028199 90.3789096,201.851596 C88.703725,201.674992 86.9212556,201.325989 85.0315015,200.801784 C83.1417474,200.278981 81.2092197,199.581677 79.2325159,198.710571 C77.2572144,197.840868 75.6794977,196.991488 74.5021704,196.163833 C73.3241418,195.33758 72.533881,194.554075 72.1306867,193.814022 C71.7274924,193.074668 71.7001454,192.390679 72.0486455,191.759251 C72.3971456,191.129925 73.0990542,190.581191 74.1571763,190.113051 C75.1963657,189.65262 76.4304909,189.344264 77.8560456,189.188685 C79.2823016,189.034507 80.8340737,189.043617 82.5099595,189.220221 C84.1851441,189.396825 85.9655099,189.741623 87.8517579,190.255315 C89.7373048,190.769008 91.6691313,191.461407 93.6451339,192.331811 L93.6451339,192.331811 Z" id="Stroke-38" stroke="#333333" stroke-width="1.6" stroke-linecap="round" stroke-linejoin="round"></path>
                        <path d="M88.3810293,183.816496 C89.4026886,183.364474 90.4937674,183.045606 91.6556681,182.860593 C92.8154653,182.674879 93.9955974,182.601294 95.1932597,182.637736 C96.3902209,182.674178 97.5689506,182.821348 98.7280465,183.078544 C99.8871425,183.336442 100.967002,183.685445 101.968326,184.125553 C104.663768,185.313423 106.16365,186.916173 106.469377,188.934501 L106.988972,192.272453 L113.442184,189.416658 C113.832756,189.493747 114.294151,189.606577 114.829172,189.755148 C115.364193,189.90372 115.888697,190.090836 116.40198,190.316496 C117.325471,190.722965 117.842962,191.077574 117.954454,191.380323 C118.065245,191.683073 117.887138,191.936765 117.421536,192.142803 L108.090568,196.271968 C107.311527,196.277574 106.508644,196.196981 105.681921,196.030889 C104.854496,195.864097 104.029876,195.599892 103.208762,195.238976 C102.33646,194.854232 101.723605,194.473693 101.371599,194.096658 C101.018891,193.719623 100.81484,193.385337 100.760847,193.091698 L99.9292149,189.448895 C99.8296434,188.993369 99.7083346,188.600216 99.5638858,188.268032 C99.4201383,187.935148 99.2623666,187.647817 99.0905708,187.405337 C98.9201774,187.164259 98.7203333,186.95752 98.493142,186.785822 C98.266652,186.614825 98.0114125,186.466954 97.7288259,186.342911 C97.0107895,186.026146 96.2261383,185.875472 95.3762749,185.888787 C94.5264115,185.902102 93.7782231,186.051375 93.1331122,186.337305 C92.4164782,186.654771 91.9354499,187.008679 91.6921309,187.39973 C91.4481107,187.791482 91.3176861,188.149596 91.3001559,188.47407 C90.6865994,188.473369 90.0513055,188.415202 89.3921705,188.298868 C88.7330354,188.182534 88.0956379,187.98841 87.4792765,187.717197 C86.1455799,187.129919 85.5902236,186.496388 85.8139088,185.820108 C86.0368928,185.143127 86.8930671,184.475256 88.3810293,183.816496" id="Fill-40" fill="#FEFEFE"></path>
                        <path d="M88.3810293,183.816496 C89.4026886,183.364474 90.4937674,183.045606 91.6556681,182.860593 C92.8154653,182.674879 93.9955974,182.601294 95.1932597,182.637736 C96.3902209,182.674178 97.5689506,182.821348 98.7280465,183.078544 C99.8871425,183.336442 100.967002,183.685445 101.968326,184.125553 C104.663768,185.313423 106.16365,186.916173 106.469377,188.934501 L106.988972,192.272453 L113.442184,189.416658 C113.832756,189.493747 114.294151,189.606577 114.829172,189.755148 C115.364193,189.90372 115.888697,190.090836 116.40198,190.316496 C117.325471,190.722965 117.842962,191.077574 117.954454,191.380323 C118.065245,191.683073 117.887138,191.936765 117.421536,192.142803 L108.090568,196.271968 C107.311527,196.277574 106.508644,196.196981 105.681921,196.030889 C104.854496,195.864097 104.029876,195.599892 103.208762,195.238976 C102.33646,194.854232 101.723605,194.473693 101.371599,194.096658 C101.018891,193.719623 100.81484,193.385337 100.760847,193.091698 L99.9292149,189.448895 C99.8296434,188.993369 99.7083346,188.600216 99.5638858,188.268032 C99.4201383,187.935148 99.2623666,187.647817 99.0905708,187.405337 C98.9201774,187.164259 98.7203333,186.95752 98.493142,186.785822 C98.266652,186.614825 98.0114125,186.466954 97.7288259,186.342911 C97.0107895,186.026146 96.2261383,185.875472 95.3762749,185.888787 C94.5264115,185.902102 93.7782231,186.051375 93.1331122,186.337305 C92.4164782,186.654771 91.9354499,187.008679 91.6921309,187.39973 C91.4481107,187.791482 91.3176861,188.149596 91.3001559,188.47407 C90.6865994,188.473369 90.0513055,188.415202 89.3921705,188.298868 C88.7330354,188.182534 88.0956379,187.98841 87.4792765,187.717197 C86.1455799,187.129919 85.5902236,186.496388 85.8139088,185.820108 C86.0368928,185.143127 86.8930671,184.475256 88.3810293,183.816496 L88.3810293,183.816496 Z" id="Stroke-42" stroke="#333333" stroke-width="1.6" stroke-linecap="round" stroke-linejoin="round"></path>
                        <polygon id="Fill-44" fill="#FFFFFF" points="188.059282 153.435321 140.552477 131.675213 140.552477 117.694081 188.059282 139.454189"></polygon>
                        <polygon id="Stroke-46" stroke="#333333" stroke-width="1.6" stroke-linecap="round" stroke-linejoin="round" points="188.059282 153.435321 140.552477 131.675213 140.552477 117.694081 188.059282 139.454189"></polygon>
                        <polygon id="Fill-48" fill="#FEFEFE" points="141.253684 175.160388 93.7468791 153.40028 140.552477 131.675213 188.059282 153.435321"></polygon>
                        <polygon id="Stroke-50" stroke="#333333" stroke-width="1.6" stroke-linecap="round" stroke-linejoin="round" fill="#FF3E00" points="141.253684 175.160388 93.7468791 153.40028 140.552477 131.675213 188.059282 153.435321"></polygon>
                        <polygon id="Fill-52" fill="#FEFEFE" points="141.253684 179.540442 93.7468791 157.780334 93.7468791 153.40028 141.253684 175.160388"></polygon>
                        <polygon id="Stroke-54" stroke="#333333" stroke-width="1.6" stroke-linecap="round" stroke-linejoin="round" fill="#FFFFFF" points="141.253684 179.540442 93.7468791 157.780334 93.7468791 153.40028 141.253684 175.160388"></polygon>
                        <polygon id="Fill-56" fill="#FEFEFE" points="141.253684 179.540442 191.740621 156.063353 191.740621 137.842329 188.059282 139.454189 188.059282 153.435321 141.253684 175.160388"></polygon>
                        <polyline id="Stroke-58" stroke="#333333" stroke-width="1.6" stroke-linecap="round" stroke-linejoin="round" fill="#FFFFFF" points="141.253684 179.540442 191.740621 156.063353 191.740621 137.842329 188.059282 139.454189 188.059282 153.435321 141.253684 175.160388 141.253684 179.540442"></polyline>
                        <path d="M135.852213,154.280566 C133.593624,153.286119 131.619725,152.618248 129.931217,152.277655 C128.241307,151.937763 126.975628,151.954582 126.133478,152.326712 C125.289925,152.700243 125.266084,153.254582 126.05915,153.991833 C126.851514,154.729084 128.377342,155.595283 130.635931,156.58903 C132.89452,157.584178 134.867017,158.259057 136.549915,158.612264 C138.234215,158.966873 139.49709,158.957062 140.339941,158.584232 C141.182792,158.210701 141.210139,157.650054 140.422683,156.898086 C139.635227,156.148221 138.111504,155.275714 135.852213,154.280566 M140.450732,152.245418 C142.427435,153.116523 144.005853,153.969407 145.187388,154.806873 C146.368221,155.642938 147.160586,156.431348 147.56378,157.170701 C147.966974,157.910755 147.994321,158.595445 147.645821,159.225472 C147.298022,159.855499 146.603827,160.400728 145.564638,160.861159 C144.506516,161.329299 143.264677,161.641159 141.838421,161.796739 C140.412165,161.951617 138.860393,161.941105 137.184507,161.765202 C135.509323,161.589299 133.726853,161.238895 131.837099,160.716092 C129.947345,160.191887 128.014817,159.494582 126.038114,158.624178 C124.062812,157.753774 122.485095,156.905094 121.307768,156.07814 C120.12974,155.251186 119.339479,154.467682 118.936284,153.728329 C118.53309,152.988275 118.505743,152.303585 118.854243,151.673558 C119.202743,151.04283 119.904652,150.494798 120.962774,150.025957 C122.001963,149.565526 123.236089,149.257871 124.661643,149.102291 C126.087899,148.947412 127.639671,148.957925 129.315557,149.133827 C130.990742,149.30973 132.771108,149.655229 134.657356,150.169623 C136.542903,150.682615 138.474729,151.375013 140.450732,152.245418" id="Fill-60" fill="#FEFEFE"></path>
                        <path d="M135.852213,154.280566 C133.593624,153.286119 131.619725,152.618248 129.931217,152.277655 C128.241307,151.937763 126.975628,151.954582 126.133478,152.326712 C125.289925,152.700243 125.266084,153.254582 126.05915,153.991833 C126.851514,154.729084 128.377342,155.595283 130.635931,156.58903 C132.89452,157.584178 134.867017,158.259057 136.549915,158.612264 C138.234215,158.966873 139.49709,158.957062 140.339941,158.584232 C141.182792,158.210701 141.210139,157.650054 140.422683,156.898086 C139.635227,156.148221 138.111504,155.275714 135.852213,154.280566 L135.852213,154.280566 Z M140.450732,152.245418 C142.427435,153.116523 144.005853,153.969407 145.187388,154.806873 C146.368221,155.642938 147.160586,156.431348 147.56378,157.170701 C147.966974,157.910755 147.994321,158.595445 147.645821,159.225472 C147.298022,159.855499 146.603827,160.400728 145.564638,160.861159 C144.506516,161.329299 143.264677,161.641159 141.838421,161.796739 C140.412165,161.951617 138.860393,161.941105 137.184507,161.765202 C135.509323,161.589299 133.726853,161.238895 131.837099,160.716092 C129.947345,160.191887 128.014817,159.494582 126.038114,158.624178 C124.062812,157.753774 122.485095,156.905094 121.307768,156.07814 C120.12974,155.251186 119.339479,154.467682 118.936284,153.728329 C118.53309,152.988275 118.505743,152.303585 118.854243,151.673558 C119.202743,151.04283 119.904652,150.494798 120.962774,150.025957 C122.001963,149.565526 123.236089,149.257871 124.661643,149.102291 C126.087899,148.947412 127.639671,148.957925 129.315557,149.133827 C130.990742,149.30973 132.771108,149.655229 134.657356,150.169623 C136.542903,150.682615 138.474729,151.375013 140.450732,152.245418 L140.450732,152.245418 Z" id="Stroke-62" stroke="#333333" stroke-width="1.6" stroke-linecap="round" stroke-linejoin="round"></path>
                        <path d="M135.159911,143.742437 C137.22076,142.829984 139.400113,142.404593 141.693762,142.464863 C143.988814,142.525833 146.162557,143.007989 148.215693,143.912733 C149.447714,144.45586 150.265322,145.017208 150.667815,145.597477 C151.071009,146.179849 151.176892,146.705456 150.985462,147.174296 C151.567464,147.097908 152.173308,147.056561 152.804394,147.049553 C153.43478,147.041844 154.107238,147.085294 154.819665,147.1771 C155.532091,147.269606 156.268359,147.41958 157.028468,147.62772 C157.787174,147.83586 158.578136,148.120388 159.39925,148.482005 C160.503652,148.968367 161.325467,149.477154 161.866799,150.007666 C162.40743,150.538879 162.690017,151.070792 162.713858,151.604108 C162.739803,152.137423 162.503496,152.655321 162.009145,153.157801 C161.514793,153.65958 160.783434,154.124916 159.815066,154.553811 C157.950556,155.378663 156.171592,155.837693 154.476774,155.9309 C152.783358,156.023407 151.358504,155.815267 150.202915,155.30648 C149.510122,155.000927 149.029093,154.686264 148.762634,154.363191 C148.495474,154.039418 148.390995,153.740873 148.448494,153.465456 C149.167231,153.464755 150.024808,153.419202 151.022626,153.328798 C152.021847,153.238394 153.004238,152.978394 153.972606,152.549499 C154.88698,152.145132 155.332247,151.743569 155.309107,151.346911 C155.285967,150.948151 154.903108,150.585833 154.158426,150.257854 C153.414445,149.929876 152.675372,149.758879 151.941208,149.743461 C151.205641,149.728744 150.408368,149.912356 149.547987,150.292895 L147.020134,151.410685 C146.612732,151.342706 146.159051,151.237585 145.658389,151.096022 C145.157727,150.955159 144.626212,150.760334 144.060337,150.511547 C143.471323,150.251547 143.003618,150.010469 142.660727,149.788313 C142.317837,149.566156 142.076621,149.36152 141.938484,149.173003 L144.465635,148.054512 C145.756558,147.482652 145.695553,146.886965 144.284724,146.265348 C143.617174,145.971709 142.871791,145.82524 142.048573,145.826642 C141.226057,145.828744 140.402138,146.010954 139.577518,146.376776 C138.841951,146.701951 138.319552,147.041143 138.008216,147.395051 C137.695477,147.748259 137.54051,148.083245 137.541212,148.400011 C136.927655,148.400011 136.297971,148.343245 135.652159,148.232518 C135.005645,148.123191 134.37526,147.931871 133.758899,147.660658 C132.475689,147.095105 131.998167,146.473488 132.327734,145.795105 C132.655899,145.117423 133.599724,144.432733 135.159911,143.742437" id="Fill-64" fill="#FEFEFE"></path>
                        <path d="M135.159911,143.742437 C137.22076,142.829984 139.400113,142.404593 141.693762,142.464863 C143.988814,142.525833 146.162557,143.007989 148.215693,143.912733 C149.447714,144.45586 150.265322,145.017208 150.667815,145.597477 C151.071009,146.179849 151.176892,146.705456 150.985462,147.174296 C151.567464,147.097908 152.173308,147.056561 152.804394,147.049553 C153.43478,147.041844 154.107238,147.085294 154.819665,147.1771 C155.532091,147.269606 156.268359,147.41958 157.028468,147.62772 C157.787174,147.83586 158.578136,148.120388 159.39925,148.482005 C160.503652,148.968367 161.325467,149.477154 161.866799,150.007666 C162.40743,150.538879 162.690017,151.070792 162.713858,151.604108 C162.739803,152.137423 162.503496,152.655321 162.009145,153.157801 C161.514793,153.65958 160.783434,154.124916 159.815066,154.553811 C157.950556,155.378663 156.171592,155.837693 154.476774,155.9309 C152.783358,156.023407 151.358504,155.815267 150.202915,155.30648 C149.510122,155.000927 149.029093,154.686264 148.762634,154.363191 C148.495474,154.039418 148.390995,153.740873 148.448494,153.465456 C149.167231,153.464755 150.024808,153.419202 151.022626,153.328798 C152.021847,153.238394 153.004238,152.978394 153.972606,152.549499 C154.88698,152.145132 155.332247,151.743569 155.309107,151.346911 C155.285967,150.948151 154.903108,150.585833 154.158426,150.257854 C153.414445,149.929876 152.675372,149.758879 151.941208,149.743461 C151.205641,149.728744 150.408368,149.912356 149.547987,150.292895 L147.020134,151.410685 C146.612732,151.342706 146.159051,151.237585 145.658389,151.096022 C145.157727,150.955159 144.626212,150.760334 144.060337,150.511547 C143.471323,150.251547 143.003618,150.010469 142.660727,149.788313 C142.317837,149.566156 142.076621,149.36152 141.938484,149.173003 L144.465635,148.054512 C145.756558,147.482652 145.695553,146.886965 144.284724,146.265348 C143.617174,145.971709 142.871791,145.82524 142.048573,145.826642 C141.226057,145.828744 140.402138,146.010954 139.577518,146.376776 C138.841951,146.701951 138.319552,147.041143 138.008216,147.395051 C137.695477,147.748259 137.54051,148.083245 137.541212,148.400011 C136.927655,148.400011 136.297971,148.343245 135.652159,148.232518 C135.005645,148.123191 134.37526,147.931871 133.758899,147.660658 C132.475689,147.095105 131.998167,146.473488 132.327734,145.795105 C132.655899,145.117423 133.599724,144.432733 135.159911,143.742437 L135.159911,143.742437 Z" id="Stroke-66" stroke="#444366" stroke-width="1.6"></path>
                        <polygon id="Fill-68" fill="#FEFEFE" points="234.86488 113.348997 187.358075 91.5888895 187.358075 77.6077574 234.86488 99.3678652"></polygon>
                        <polygon id="Stroke-70" stroke="#333333" stroke-width="1.6" stroke-linecap="round" stroke-linejoin="round" points="234.86488 113.348997 187.358075 91.5888895 187.358075 77.6077574 234.86488 99.3678652"></polygon>
                        <polygon id="Fill-72" fill="#FEFEFE" points="188.059282 135.074065 140.552477 113.313957 187.358075 91.5888895 234.86488 113.348997"></polygon>
                        <polygon id="Stroke-74" stroke="#333333" stroke-width="1.6" points="188.059282 135.074065 140.552477 113.313957 187.358075 91.5888895 234.86488 113.348997"></polygon>
                        <polygon id="Fill-76" fill="#FEFEFE" points="188.059282 139.454119 140.552477 117.694011 140.552477 113.313957 188.059282 135.074065"></polygon>
                        <polygon id="Stroke-78" stroke="#333333" stroke-width="1.6" stroke-linecap="round" stroke-linejoin="round" points="188.059282 139.454119 140.552477 117.694011 140.552477 113.313957 188.059282 135.074065"></polygon>
                        <polygon id="Fill-80" fill="#FEFEFE" points="188.059282 139.454119 238.546219 115.97703 238.546219 97.7560054 234.86488 99.3678652 234.86488 113.348997 188.059282 135.074065"></polygon>
                        <polyline id="Stroke-82" stroke="#333333" stroke-width="1.6" stroke-linecap="round" stroke-linejoin="round" points="188.059282 139.454119 238.546219 115.97703 238.546219 97.7560054 234.86488 99.3678652 234.86488 113.348997 188.059282 135.074065 188.059282 139.454119"></polyline>
                        <path d="M182.657811,114.194173 C180.399222,113.199725 178.425323,112.531854 176.736815,112.191962 C175.046905,111.851369 173.781226,111.867488 172.939076,112.241019 C172.095523,112.613148 172.071682,113.168889 172.864748,113.905439 C173.657112,114.64269 175.182939,115.508189 177.441529,116.503337 C179.700118,117.498485 181.672614,118.172663 183.355512,118.526571 C185.039813,118.88048 186.302687,118.870668 187.145539,118.497838 C187.98839,118.124307 188.015737,117.56296 187.228281,116.812394 C186.440825,116.061827 184.917101,115.189321 182.657811,114.194173 M187.256329,112.159024 C189.233033,113.029429 190.811451,113.883714 191.992986,114.719779 C193.173819,115.557245 193.966184,116.344954 194.369378,117.085008 C194.772572,117.824361 194.799919,118.509051 194.451419,119.139779 C194.10362,119.769105 193.409425,120.314334 192.370235,120.774765 C191.312113,121.243606 190.070275,121.554065 188.644019,121.710345 C187.217763,121.865224 185.665991,121.855412 183.990105,121.678809 C182.31492,121.502205 180.532451,121.153202 178.642697,120.628997 C176.752943,120.106194 174.820415,119.408889 172.843711,118.537784 C170.86841,117.668081 169.290693,116.818701 168.113366,115.991046 C166.935337,115.164792 166.145076,114.381288 165.741882,113.641235 C165.338688,112.901881 165.311341,112.217892 165.659841,111.586464 C166.008341,110.957137 166.71025,110.408404 167.768372,109.940264 C168.807561,109.479833 170.041686,109.171477 171.467241,109.015898 C172.893497,108.86172 174.445269,108.87083 176.121155,109.047434 C177.79634,109.224038 179.576705,109.568836 181.462953,110.082528 C183.3485,110.596221 185.280327,111.28862 187.256329,112.159024" id="Fill-84" fill="#FEFEFE"></path>
                        <path d="M182.657811,114.194173 C180.399222,113.199725 178.425323,112.531854 176.736815,112.191962 C175.046905,111.851369 173.781226,111.867488 172.939076,112.241019 C172.095523,112.613148 172.071682,113.168889 172.864748,113.905439 C173.657112,114.64269 175.182939,115.508189 177.441529,116.503337 C179.700118,117.498485 181.672614,118.172663 183.355512,118.526571 C185.039813,118.88048 186.302687,118.870668 187.145539,118.497838 C187.98839,118.124307 188.015737,117.56296 187.228281,116.812394 C186.440825,116.061827 184.917101,115.189321 182.657811,114.194173 L182.657811,114.194173 Z M187.256329,112.159024 C189.233033,113.029429 190.811451,113.883714 191.992986,114.719779 C193.173819,115.557245 193.966184,116.344954 194.369378,117.085008 C194.772572,117.824361 194.799919,118.509051 194.451419,119.139779 C194.10362,119.769105 193.409425,120.314334 192.370235,120.774765 C191.312113,121.243606 190.070275,121.554065 188.644019,121.710345 C187.217763,121.865224 185.665991,121.855412 183.990105,121.678809 C182.31492,121.502205 180.532451,121.153202 178.642697,120.628997 C176.752943,120.106194 174.820415,119.408889 172.843711,118.537784 C170.86841,117.668081 169.290693,116.818701 168.113366,115.991046 C166.935337,115.164792 166.145076,114.381288 165.741882,113.641235 C165.338688,112.901881 165.311341,112.217892 165.659841,111.586464 C166.008341,110.957137 166.71025,110.408404 167.768372,109.940264 C168.807561,109.479833 170.041686,109.171477 171.467241,109.015898 C172.893497,108.86172 174.445269,108.87083 176.121155,109.047434 C177.79634,109.224038 179.576705,109.568836 181.462953,110.082528 C183.3485,110.596221 185.280327,111.28862 187.256329,112.159024 L187.256329,112.159024 Z" id="Stroke-86" stroke="#333333" stroke-width="1.6" stroke-linecap="round" stroke-linejoin="round"></path>
                        <path d="M192.002943,105.298528 L191.922304,105.33427 L195.583308,110.104674 L199.240105,108.486507 L192.002943,105.298528 Z M184.587674,103.243757 C184.772793,103.025105 185.034343,102.795941 185.371624,102.556264 C185.708204,102.317288 186.055301,102.117558 186.413618,101.958474 C186.825928,101.776965 187.283116,101.62559 187.783076,101.505752 C188.28444,101.385213 188.821565,101.317935 189.395854,101.301817 C189.970844,101.284997 190.578089,101.33966 191.219694,101.463003 C191.861299,101.587747 192.527446,101.802895 193.22094,102.107747 L203.462075,106.618151 L205.855296,105.558528 C206.245869,105.634916 206.724793,105.751251 207.294875,105.907531 C207.863554,106.063811 208.405588,106.254431 208.91817,106.480792 C209.894251,106.910388 210.434882,107.283218 210.540764,107.597881 C210.645946,107.913946 210.466436,108.175348 210.000134,108.381385 L208.736558,108.940631 L213.279681,110.94214 C213.13383,111.051466 212.90734,111.213353 212.603717,111.427801 C212.299393,111.642248 211.967722,111.828663 211.609405,111.987046 C211.214625,112.161547 210.838778,112.305213 210.483967,112.417342 C210.127052,112.529472 209.749802,112.58834 209.350815,112.595348 C208.953231,112.602356 208.520586,112.549795 208.053582,112.438367 C207.586577,112.32834 207.044544,112.137019 206.428884,111.865806 L204.273372,110.916911 L197.52425,113.903757 C196.803409,113.950712 195.994216,113.906561 195.095268,113.772706 C194.197021,113.636749 193.310695,113.378151 192.437692,112.993407 C191.950352,112.77896 191.456001,112.521763 190.954638,112.221817 C190.453976,111.921871 190.094256,111.628933 189.872675,111.3409 L184.587674,103.243757 Z" id="Fill-88" fill="#FEFEFE"></path>
                        <path d="M192.002943,105.298528 L191.922304,105.33427 L195.583308,110.104674 L199.240105,108.486507 L192.002943,105.298528 L192.002943,105.298528 Z M184.587674,103.243757 C184.772793,103.025105 185.034343,102.795941 185.371624,102.556264 C185.708204,102.317288 186.055301,102.117558 186.413618,101.958474 C186.825928,101.776965 187.283116,101.62559 187.783076,101.505752 C188.28444,101.385213 188.821565,101.317935 189.395854,101.301817 C189.970844,101.284997 190.578089,101.33966 191.219694,101.463003 C191.861299,101.587747 192.527446,101.802895 193.22094,102.107747 L203.462075,106.618151 L205.855296,105.558528 C206.245869,105.634916 206.724793,105.751251 207.294875,105.907531 C207.863554,106.063811 208.405588,106.254431 208.91817,106.480792 C209.894251,106.910388 210.434882,107.283218 210.540764,107.597881 C210.645946,107.913946 210.466436,108.175348 210.000134,108.381385 L208.736558,108.940631 L213.279681,110.94214 C213.13383,111.051466 212.90734,111.213353 212.603717,111.427801 C212.299393,111.642248 211.967722,111.828663 211.609405,111.987046 C211.214625,112.161547 210.838778,112.305213 210.483967,112.417342 C210.127052,112.529472 209.749802,112.58834 209.350815,112.595348 C208.953231,112.602356 208.520586,112.549795 208.053582,112.438367 C207.586577,112.32834 207.044544,112.137019 206.428884,111.865806 L204.273372,110.916911 L197.52425,113.903757 C196.803409,113.950712 195.994216,113.906561 195.095268,113.772706 C194.197021,113.636749 193.310695,113.378151 192.437692,112.993407 C191.950352,112.77896 191.456001,112.521763 190.954638,112.221817 C190.453976,111.921871 190.094256,111.628933 189.872675,111.3409 L184.587674,103.243757 L184.587674,103.243757 Z" id="Stroke-90" stroke="#333333" stroke-width="1.6" stroke-linecap="round" stroke-linejoin="round"></path>
                        <polygon id="Fill-92" fill="#FEFEFE" points="234.86488 94.9876712 187.358075 73.2275633 234.163672 51.502496 281.670478 73.2626038"></polygon>
                        <polygon id="Stroke-94" stroke="#333333" stroke-width="1.6" stroke-linecap="round" stroke-linejoin="round" points="234.86488 94.9876712 187.358075 73.2275633 234.163672 51.502496 281.670478 73.2626038"></polygon>
                        <polygon id="Fill-96" fill="#FEFEFE" points="234.86488 99.3677251 187.358075 77.6076173 187.358075 73.2275633 234.86488 94.9876712"></polygon>
                        <polygon id="Stroke-98" stroke="#333333" stroke-width="1.6" stroke-linecap="round" stroke-linejoin="round" points="234.86488 99.3677251 187.358075 77.6076173 187.358075 73.2275633 234.86488 94.9876712"></polygon>
                        <polygon id="Fill-100" fill="#FEFEFE" points="234.86488 99.3677251 285.351817 75.8906361 285.351817 45.6388302 281.670478 47.25069 281.670478 73.2626038 234.86488 94.9876712"></polygon>
                        <polyline id="Stroke-102" stroke="#333333" stroke-width="1.6" stroke-linecap="round" stroke-linejoin="round" points="234.86488 99.3677251 285.351817 75.8906361 285.351817 45.6388302 281.670478 47.25069 281.670478 73.2626038 234.86488 94.9876712 234.86488 99.3677251"></polyline>
                        <path d="M229.463409,74.107779 C227.204819,73.1133315 225.23092,72.4454609 223.542413,72.1048679 C221.852503,71.7649757 220.586823,71.7817951 219.744673,72.1539245 C218.901121,72.5274555 218.87728,73.0817951 219.670345,73.8190458 C220.46271,74.5562965 221.988537,75.422496 224.247126,76.4162426 C226.505716,77.4113908 228.478212,78.0862695 230.16111,78.4394771 C231.84541,78.7940863 233.108285,78.7842749 233.951136,78.4114447 C234.793988,78.0379137 234.821335,77.4772668 234.033879,76.7252992 C233.246423,75.975434 231.722699,75.1029272 229.463409,74.107779 M234.061927,72.0726307 C236.038631,72.9437358 237.617049,73.7966199 238.798584,74.6340863 C239.979417,75.4701509 240.771781,76.2585606 241.174976,76.9979137 C241.57817,77.7379677 241.605517,78.4226577 241.257017,79.0526846 C240.909218,79.6827116 240.215023,80.2279407 239.175833,80.688372 C238.117711,81.1565121 236.875873,81.468372 235.449617,81.6239515 C234.023361,81.7788302 232.471589,81.7683181 230.795703,81.5924151 C229.120518,81.4165121 227.338049,81.0661078 225.448295,80.5433046 C223.558541,80.0190997 221.626013,79.3217951 219.649309,78.4513908 C217.674008,77.5809865 216.096291,76.7323073 214.918964,75.9053531 C213.740935,75.0783989 212.950674,74.2948949 212.54748,73.5555418 C212.144286,72.8154879 212.116939,72.1307978 212.465439,71.5007709 C212.813939,70.8700431 213.515847,70.3220108 214.57397,69.8531698 C215.613159,69.3927385 216.847284,69.0850836 218.272839,68.929504 C219.699095,68.7746253 221.250867,68.7851375 222.926753,68.9610404 C224.601937,69.1369434 226.382303,69.482442 228.268551,69.9968356 C230.154098,70.5098275 232.085925,71.2022264 234.061927,72.0726307" id="Fill-104" fill="#FEFEFE"></path>
                        <path d="M229.463409,74.107779 C227.204819,73.1133315 225.23092,72.4454609 223.542413,72.1048679 C221.852503,71.7649757 220.586823,71.7817951 219.744673,72.1539245 C218.901121,72.5274555 218.87728,73.0817951 219.670345,73.8190458 C220.46271,74.5562965 221.988537,75.422496 224.247126,76.4162426 C226.505716,77.4113908 228.478212,78.0862695 230.16111,78.4394771 C231.84541,78.7940863 233.108285,78.7842749 233.951136,78.4114447 C234.793988,78.0379137 234.821335,77.4772668 234.033879,76.7252992 C233.246423,75.975434 231.722699,75.1029272 229.463409,74.107779 L229.463409,74.107779 Z M234.061927,72.0726307 C236.038631,72.9437358 237.617049,73.7966199 238.798584,74.6340863 C239.979417,75.4701509 240.771781,76.2585606 241.174976,76.9979137 C241.57817,77.7379677 241.605517,78.4226577 241.257017,79.0526846 C240.909218,79.6827116 240.215023,80.2279407 239.175833,80.688372 C238.117711,81.1565121 236.875873,81.468372 235.449617,81.6239515 C234.023361,81.7788302 232.471589,81.7683181 230.795703,81.5924151 C229.120518,81.4165121 227.338049,81.0661078 225.448295,80.5433046 C223.558541,80.0190997 221.626013,79.3217951 219.649309,78.4513908 C217.674008,77.5809865 216.096291,76.7323073 214.918964,75.9053531 C213.740935,75.0783989 212.950674,74.2948949 212.54748,73.5555418 C212.144286,72.8154879 212.116939,72.1307978 212.465439,71.5007709 C212.813939,70.8700431 213.515847,70.3220108 214.57397,69.8531698 C215.613159,69.3927385 216.847284,69.0850836 218.272839,68.929504 C219.699095,68.7746253 221.250867,68.7851375 222.926753,68.9610404 C224.601937,69.1369434 226.382303,69.482442 228.268551,69.9968356 C230.154098,70.5098275 232.085925,71.2022264 234.061927,72.0726307 L234.061927,72.0726307 Z" id="Stroke-106" stroke="#333333" stroke-width="1.6" stroke-linecap="round" stroke-linejoin="round"></path>
                        <path d="M254.044727,74.1071482 C253.220107,74.4722695 252.381463,74.7638059 251.529496,74.9817574 C250.67823,75.2011105 249.83047,75.3377682 248.987619,75.3938329 C248.144066,75.4498976 247.325056,75.4211644 246.529185,75.309035 C245.734717,75.195504 244.990736,74.9873639 244.297943,74.6818113 C243.578504,74.3650458 243.119915,74.0356658 242.918668,73.6936712 C242.717422,73.3530782 242.655014,73.0412183 242.730745,72.7573908 C243.772038,72.7728086 244.77827,72.7412722 245.749443,72.6613801 C246.722017,72.5835903 247.646209,72.3495202 248.524822,71.9605714 C249.366972,71.5877412 249.698643,71.2036981 249.517732,70.8070404 C249.33682,70.4117844 248.861401,70.043159 248.092177,69.7046685 C247.347494,69.37669 246.574764,69.1748571 245.773284,69.0991698 C244.972505,69.0234825 244.184348,69.1559353 243.414422,69.4972291 C242.929887,69.7109757 242.604527,69.9233208 242.435536,70.1335633 C242.267246,70.3445067 242.117188,70.6031051 241.988166,70.9100593 C241.057664,71.2765822 240.024084,71.4342642 238.88392,71.3831051 C237.744458,71.3326469 236.52015,71.0193854 235.210996,70.4426199 C235.133863,70.4089811 235.037798,70.3662318 234.922098,70.3157736 C234.806399,70.2639137 234.577805,70.1552884 234.236317,69.9898976 L228.707297,67.2686577 C227.657589,66.7598706 227.027905,66.267903 226.815439,65.7948571 C226.604375,65.3225121 226.883456,64.9146415 227.654083,64.5733477 L235.397517,61.1456927 C235.788791,61.2227817 236.267014,61.3391159 236.837096,61.4953962 C237.407178,61.6516765 237.94851,61.8415957 238.461794,62.0672561 C239.437173,62.4975526 239.977103,62.8710836 240.084388,63.1857466 C240.188868,63.5018113 240.009358,63.7632129 239.543055,63.9685499 L234.380766,66.2545876 L237.811774,67.9309218 C238.023539,67.7248841 238.252834,67.5209488 238.50036,67.3198167 C238.747886,67.1207871 239.13916,66.901434 239.677687,66.6638598 C240.608891,66.2503827 241.614422,65.9812722 242.694282,65.8551267 C243.77344,65.7289811 244.878543,65.7205714 246.010993,65.8312992 C247.142742,65.9427278 248.274491,66.1557736 249.404837,66.4718383 C250.533781,66.787903 251.626262,67.1768518 252.678775,67.6407871 C253.731287,68.1047224 254.618315,68.6058005 255.343363,69.1468248 C256.06771,69.6871482 256.527001,70.2379838 256.719833,70.7972291 C256.914068,71.357876 256.813094,71.9192237 256.414808,72.4798706 C256.017223,73.0412183 255.227664,73.5829434 254.044727,74.1071482" id="Fill-108" fill="#FEFEFE"></path>
                        <path d="M254.044727,74.1071482 C253.220107,74.4722695 252.381463,74.7638059 251.529496,74.9817574 C250.67823,75.2011105 249.83047,75.3377682 248.987619,75.3938329 C248.144066,75.4498976 247.325056,75.4211644 246.529185,75.309035 C245.734717,75.195504 244.990736,74.9873639 244.297943,74.6818113 C243.578504,74.3650458 243.119915,74.0356658 242.918668,73.6936712 C242.717422,73.3530782 242.655014,73.0412183 242.730745,72.7573908 C243.772038,72.7728086 244.77827,72.7412722 245.749443,72.6613801 C246.722017,72.5835903 247.646209,72.3495202 248.524822,71.9605714 C249.366972,71.5877412 249.698643,71.2036981 249.517732,70.8070404 C249.33682,70.4117844 248.861401,70.043159 248.092177,69.7046685 C247.347494,69.37669 246.574764,69.1748571 245.773284,69.0991698 C244.972505,69.0234825 244.184348,69.1559353 243.414422,69.4972291 C242.929887,69.7109757 242.604527,69.9233208 242.435536,70.1335633 C242.267246,70.3445067 242.117188,70.6031051 241.988166,70.9100593 C241.057664,71.2765822 240.024084,71.4342642 238.88392,71.3831051 C237.744458,71.3326469 236.52015,71.0193854 235.210996,70.4426199 C235.133863,70.4089811 235.037798,70.3662318 234.922098,70.3157736 C234.806399,70.2639137 234.577805,70.1552884 234.236317,69.9898976 L228.707297,67.2686577 C227.657589,66.7598706 227.027905,66.267903 226.815439,65.7948571 C226.604375,65.3225121 226.883456,64.9146415 227.654083,64.5733477 L235.397517,61.1456927 C235.788791,61.2227817 236.267014,61.3391159 236.837096,61.4953962 C237.407178,61.6516765 237.94851,61.8415957 238.461794,62.0672561 C239.437173,62.4975526 239.977103,62.8710836 240.084388,63.1857466 C240.188868,63.5018113 240.009358,63.7632129 239.543055,63.9685499 L234.380766,66.2545876 L237.811774,67.9309218 C238.023539,67.7248841 238.252834,67.5209488 238.50036,67.3198167 C238.747886,67.1207871 239.13916,66.901434 239.677687,66.6638598 C240.608891,66.2503827 241.614422,65.9812722 242.694282,65.8551267 C243.77344,65.7289811 244.878543,65.7205714 246.010993,65.8312992 C247.142742,65.9427278 248.274491,66.1557736 249.404837,66.4718383 C250.533781,66.787903 251.626262,67.1768518 252.678775,67.6407871 C253.731287,68.1047224 254.618315,68.6058005 255.343363,69.1468248 C256.06771,69.6871482 256.527001,70.2379838 256.719833,70.7972291 C256.914068,71.357876 256.813094,71.9192237 256.414808,72.4798706 C256.017223,73.0412183 255.227664,73.5829434 254.044727,74.1071482 L254.044727,74.1071482 Z" id="Stroke-110" stroke="#333333" stroke-width="1.6" stroke-linecap="round" stroke-linejoin="round"></path>
                        <polygon id="Fill-112" fill="#FEFEFE" points="299.901871 55.4503612 258.35533 2.0137035 220.314825 19.1835148 234.163672 25.4942965 234.163672 51.5027062 281.670478 73.262814 281.670478 47.1422749"></polygon>
                        <polygon id="Stroke-114" stroke="#333333" stroke-width="1.6" stroke-linecap="round" stroke-linejoin="round" fill="#FF3E00" points="299.901871 55.4503612 258.35533 2.0137035 220.314825 19.1835148 234.163672 25.4942965 234.163672 51.5027062 281.670478 73.262814 281.670478 47.1422749"></polygon>
                        <polygon id="Fill-116" fill="#FEFEFE" points="303.232607 53.8735418 261.686065 0.436884097 258.35533 2.0137035 299.901871 55.4503612"></polygon>
                        <polygon id="Stroke-118" stroke="#333333" stroke-width="1.6" stroke-linecap="round" stroke-linejoin="round" points="303.232607 53.8735418 261.686065 0.436884097 258.35533 2.0137035 299.901871 55.4503612"></polygon>
                    </g>
                    <g id="Group-21" transform="translate(44.344913, 95.200000) scale(-1, 1) translate(-44.344913, -95.200000) translate(0.000000, 76.000000)">
                        <path d="M86.9605949,7.07963003 L74.9217106,19.1370536 L86.9605949,31.195672 C88.6968003,32.9340342 83.2829419,38.3570075 81.549123,36.6174505 L66.3444978,21.3975219 C65.7454771,20.7977571 65.4089755,19.9853266 65.4089755,19.1370536 C65.4089755,18.2887807 65.7454771,17.4751555 66.3456911,16.8765854 L81.549123,1.66024105 C83.2829419,-0.0769264042 88.6968003,5.34007307 86.9605949,7.07963003" id="Fill-65" fill="#FF3E00"></path>
                        <path d="M82.4276071,2.02762688 C82.2056592,2.02762688 82.1054247,2.10170142 82.0493411,2.1602442 L66.8447159,17.3777833 C66.3817278,17.8389571 66.115629,18.4805382 66.115629,19.1364563 C66.115629,19.8019324 66.3745682,20.426787 66.8435227,20.896324 L82.0493411,36.1150578 C82.1101977,36.1783796 82.2080457,36.2488699 82.4276071,36.2488699 C83.6017832,36.2488699 85.7663719,34.3743061 86.4214762,32.7900668 C86.5455761,32.4913791 86.7162135,31.9501571 86.4608541,31.6956752 L74.4219699,19.635862 C74.1463249,19.3610694 74.1463249,18.9130379 74.4219699,18.634661 L86.4608541,6.57843213 C86.7162135,6.32395024 86.5455761,5.78272819 86.4214762,5.48404052 C85.7663719,3.90099591 83.6017832,2.02762688 82.4276071,2.02762688 M82.4276071,37.6646494 C81.8822835,37.6646494 81.4061694,37.4734893 81.0481889,37.1162589 L65.8435638,21.897525 C65.1073172,21.1603639 64.701606,20.1794736 64.701606,19.1364563 C64.701606,18.107776 65.1180566,17.1017959 65.8447571,16.3765823 L81.0493822,1.15904315 C81.4061694,0.803007454 81.8822835,0.6130421 82.4276071,0.6130421 C84.3177442,0.6130421 86.9214557,2.99418016 87.7269118,4.94042898 C88.3307056,6.39802478 87.8199867,7.22001323 87.460813,7.57843843 L75.9207149,19.1364563 L87.460813,30.6944741 C87.8187935,31.0540941 88.3307056,31.8724983 87.7269118,33.3336783 C86.9214557,35.2823166 84.3177442,37.6646494 82.4276071,37.6646494" id="Fill-67" fill="#333333"></path>
                        <path d="M42.7115798,19.1382484 L54.7516573,31.195672 C56.4878627,32.9340342 51.0740043,38.3558127 49.3401854,36.6186452 L34.1403334,21.3975219 C32.8933679,20.1490075 32.8945612,18.1262946 34.1403334,16.8777802 L49.3401854,1.66024105 C51.0740043,-0.0769264042 56.4878627,5.34007307 54.7516573,7.07963003 L42.7115798,19.1382484 Z" id="Fill-73" fill="#CCCCCC"></path>
                        <path d="M50.2186696,2.02762688 C49.9979149,2.02762688 49.8964871,2.10170142 49.8404035,2.1602442 L34.6393582,17.3777833 C33.6716175,18.3479208 33.6716175,19.9273812 34.6393582,20.896324 L49.8404035,36.1174473 C49.9012602,36.1783796 49.9991082,36.2488699 50.2186696,36.2488699 C51.3916523,36.2488699 53.5574344,34.3743061 54.2125387,32.7900668 C54.3366386,32.4913791 54.507276,31.9501571 54.2519165,31.6956752 L42.211839,19.6382515 C41.936194,19.3610694 41.936194,18.9130379 42.211839,18.6370505 L54.2519165,6.57843213 C54.507276,6.32395024 54.3366386,5.78272819 54.2125387,5.48404052 C53.5574344,3.90099591 51.3928456,2.02762688 50.2186696,2.02762688 M50.2186696,37.6646494 C49.6733459,37.6646494 49.1972319,37.4758788 48.8404446,37.1186484 L33.6405926,21.897525 C32.1203687,20.3754127 32.1203687,17.8998893 33.6405926,16.3765823 L48.8404446,1.15904315 C49.1972319,0.803007454 49.6733459,0.6130421 50.2186696,0.6130421 C52.1088066,0.6130421 54.7125181,2.99418016 55.5179742,4.94042898 C56.121768,6.39802478 55.6110492,7.22001323 55.2518754,7.57843843 L43.7117773,19.1364563 L55.2518754,30.6944741 C55.6098559,31.0540941 56.121768,31.8724983 55.5179742,33.3312888 C54.7125181,35.2823166 52.1076133,37.6646494 50.2186696,37.6646494" id="Fill-75" fill="#34334F"></path>
                        <path d="M10.4991818,19.1370536 L22.5392593,31.195672 C24.276658,32.9328395 18.860413,38.3558127 17.1265941,36.6186452 L1.92793532,21.3963271 C0.680969905,20.1490075 0.680969905,18.1250998 1.92793532,16.8765854 L17.1265941,1.66024105 C18.860413,-0.0769264042 24.276658,5.34007307 22.5392593,7.07963003 L10.4991818,19.1370536 Z" id="Fill-77" fill="#FFFFFF"></path>
                        <path d="M18.0050782,2.02762688 C17.7831303,2.02762688 17.6828958,2.10170142 17.6268122,2.1602442 L2.42696013,17.3777833 C1.45802624,18.3455313 1.45802624,19.9249917 2.42696013,20.896324 L17.6268122,36.1174473 C17.6876689,36.1783796 17.7855169,36.2488699 18.0050782,36.2488699 C19.1792543,36.2488699 21.3462296,34.3719166 22.0013339,32.7900668 C22.1242405,32.4889896 22.2936846,31.9501571 22.0395185,31.6956752 L9.99944099,19.635862 C9.72498927,19.3610694 9.72498927,18.9130379 9.99944099,18.634661 L22.0395185,6.57843213 C22.2936846,6.32395024 22.1242405,5.78272819 22.0001406,5.48404052 C21.3462296,3.90099591 19.1792543,2.02762688 18.0050782,2.02762688 M18.0050782,37.6646494 C17.4597546,37.6646494 16.9836406,37.4758788 16.6268533,37.1186484 L1.42700127,21.897525 C-0.0920293229,20.3730232 -0.0920293229,17.8974998 1.42700127,16.3765823 L16.6268533,1.15904315 C16.9836406,0.803007454 17.4597546,0.6130421 18.0050782,0.6130421 C19.8952153,0.6130421 22.5013133,2.99418016 23.3067695,4.94162373 C23.90937,6.40041428 23.3986511,7.22001323 23.0394774,7.57843843 L11.498186,19.1364563 L23.0394774,30.6944741 C23.3986511,31.0517046 23.90937,31.8724983 23.3067695,33.3288993 C22.5013133,35.2799271 19.8952153,37.6646494 18.0050782,37.6646494" id="Fill-79" fill="#333333"></path>
                    </g>
                    <g id="Group-20" transform="translate(127.042184, 18.400000)">
                        <path d="M15.4660169,83.9258198 C22.223918,87.014156 37.808512,87.1791116 45.4772307,84.4115225 C44.2643328,96.6571879 42.7241813,111.01062 40.893392,122.63541 C40.7080246,123.748861 40.9963739,124.905842 41.6669005,125.769568 C42.6829885,127.068593 44.0377726,129.536055 44.6716834,132.397577 C44.9325709,133.593505 44.6350676,134.862747 43.8592707,135.753966 C43.0903391,136.636021 41.9644037,137.034663 40.879661,136.782648 C36.3850733,135.744802 32.4786266,132.184509 31.5266162,129.813272 C31.8492928,116.745119 30.7714156,105.12262 30.7714156,94.1232859 L29.0825124,93.6215458 C28.6110842,104.721686 27.0228744,116.465611 26.7757179,129.671227 C25.7184371,132.058501 21.6586618,135.660033 17.1160158,136.704752 C16.0175422,136.959059 14.9144916,136.560416 14.1867529,135.660033 C13.4613026,134.766523 13.2072806,133.483535 13.5185148,132.27386 C14.2760039,129.380263 15.7360583,126.896765 16.8116471,125.574828 C17.5210779,124.711102 17.8620624,123.547249 17.7361957,122.410887 C16.2715642,109.466452 15.1547827,96.4143365 14.4773907,83.3164003 L14.5551992,83.2476688 C14.8366831,83.5455054 15.1341864,83.7814836 15.4660169,83.9258198" id="Fill-166" fill="#FFFFFF"></path>
                        <path d="M41.5174623,137.828971 C41.2314014,137.828971 40.9453406,137.796896 40.6615683,137.732746 C36.0434022,136.665117 31.7433358,132.962779 30.6242659,130.176862 C30.5762077,130.055436 30.5510343,129.922555 30.5533228,129.789674 C30.7409787,122.231498 30.4594948,115.1911 30.1848764,108.384388 C30.0384133,104.727872 29.8988156,101.222564 29.834738,97.7745332 C29.6241972,101.135504 29.3404249,104.558334 29.0452101,108.120918 C28.4776654,114.980323 27.8895243,122.073416 27.7476382,129.688868 C27.7453497,129.819458 27.7155994,129.947757 27.6652526,130.0646 C26.4248929,132.866555 21.9783634,136.58493 17.3327355,137.65256 C15.8795465,137.989344 14.3874532,137.45782 13.4308658,136.271056 C12.5086056,135.134695 12.1882175,133.549288 12.5749717,132.032613 C13.3736536,128.990097 14.8977857,126.385173 16.0603369,124.960139 C16.6004197,124.302608 16.8658842,123.388479 16.7697678,122.51788 C15.2570781,109.142726 14.160893,95.9691854 13.5086743,83.3661161 C13.478924,82.8300103 13.8931401,82.3718002 14.4286459,82.3443075 C14.9664403,82.3328523 15.4218491,82.729204 15.449311,83.2653099 C16.0992412,95.8294313 17.1931378,108.961733 18.7012505,122.302521 C18.8568676,123.709226 18.440363,125.127386 17.5638726,126.192725 C16.5798234,127.400108 15.1769811,129.782801 14.4583963,132.520606 C14.2272591,133.42328 14.4126265,134.394686 14.9412669,135.045344 C15.43558,135.659346 16.1610303,135.931981 16.8956345,135.75557 C21.1659506,134.775 24.7954904,131.471305 25.80929,129.446016 C25.9580416,121.844311 26.5438942,114.787875 27.1091504,107.960544 C27.5233665,102.95689 27.9146977,98.2327433 28.1115075,93.5796196 C28.1252385,93.279492 28.2739901,93.0022749 28.5188582,92.828155 C28.7614377,92.6540352 29.0703834,92.601341 29.3610212,92.6884009 L31.0499244,93.1924321 C31.461852,93.3138577 31.7433358,93.6941721 31.7433358,94.1248896 C31.7433358,98.713864 31.9287033,103.373861 32.1278016,108.304202 C32.4001315,115.081129 32.6816154,122.084871 32.5031134,129.624718 C33.4253735,131.617932 36.8901423,134.86206 41.0986692,135.835757 C41.821831,136.005294 42.588474,135.73495 43.1285569,135.114076 C43.6915246,134.467999 43.9180848,133.505758 43.7212749,132.607666 C43.1239799,129.901936 41.8286965,127.5559 40.9018594,126.369136 C40.0551193,125.278595 39.7026924,123.860435 39.9338295,122.476641 C41.8538698,110.288252 43.4649644,94.8603169 44.5085143,84.3169021 C44.563438,83.7807963 45.0463087,83.3936087 45.5726606,83.4440118 C46.105878,83.496706 46.4972092,83.9732445 46.444574,84.5093504 C45.3964471,95.0756756 43.7807756,110.542558 41.8538698,122.788224 C41.7119836,123.633621 41.9316784,124.522549 42.4351454,125.173207 C43.5359075,126.582203 44.9501922,129.166508 45.6184303,132.188404 C45.9525494,133.700497 45.5680836,135.269867 44.5931883,136.392482 C43.787641,137.315775 42.6617056,137.828971 41.5174623,137.828971" id="Fill-168" fill="#333333"></path>
                        <path d="M40.5054935,23.3293647 L40.5054935,31.3503328 C40.5054935,33.4787188 39.990584,35.256574 39.0797663,36.6403686 C38.956188,36.8488542 38.8120134,37.0550487 38.6678387,37.2406238 C37.7387131,38.4984106 36.4800455,39.4125398 35.0955111,40.0288324 C32.5781758,41.1056261 29.6054316,41.1239546 27.0674999,40.1136012 C25.1657675,39.3254798 23.5340766,37.9623047 22.524854,36.0011654 L22.524854,35.980546 C21.8428849,34.6975577 21.4492652,33.1465164 21.4492652,31.3503328 L21.4698616,22.6901616 C21.8222886,17.8743732 25.9507185,14.0712293 30.9876776,14.0712293 C33.6102832,14.0712293 36.0040403,15.1044931 37.7181168,16.77696 C39.4527896,18.454009 40.5054935,20.7679701 40.5054935,23.3293647" id="Fill-170" fill="#FFFFFF"></path>
                        <path d="M17.7762442,38.2124875 C18.1675754,37.8184268 18.5383102,37.5091349 18.9525263,37.3235598 C20.1288084,36.785163 21.325687,36.3315349 22.524854,36.0016237 C23.5340766,37.962763 25.1657675,39.3259381 27.0652115,40.1140595 C29.6054316,41.1244128 32.5781758,41.1037933 35.0955111,40.0292906 C36.4800455,39.4107069 37.7387131,38.4988688 38.6678387,37.238791 L38.8532061,37.3854182 L32.9901034,44.6182649 C32.2669416,43.8324346 31.2348341,42.902268 30.9876776,42.902268 C30.6169427,42.902268 28.3032827,45.2162291 28.3032827,45.5896704 C28.3032827,45.8187754 29.0676373,46.6847925 29.8091069,47.3881451 C29.6672208,47.885303 29.5207576,48.4603567 29.376583,49.0835225 L10.7757636,72.1062898 L10.7139744,72.1062898 C10.1578722,75.4741342 9.7230597,79.0710836 9.414114,82.9337949 C9.24934297,84.9613746 7.55586285,86.4917964 5.55343704,86.4917964 C5.45045514,86.4917964 5.34747325,86.4917964 5.24449135,86.471177 C3.09789088,86.3062213 1.50739266,84.4435972 1.69504857,82.2968828 C3.13679515,64.0876128 7.88769341,48.2152143 17.7533593,38.189577 L17.7762442,38.2124875 Z" id="Fill-172" fill="#FFFFFF"></path>
                        <path d="M62.966761,1.69291206 C65.2369397,2.00220389 66.8068416,4.35740389 66.3514327,6.98065681 L66.1454689,8.03683113 C64.7838194,15.1047222 62.7585087,22.2757105 59.2090659,28.9518319 C55.5543528,36.2052981 49.526479,41.6213416 46.1212108,44.2881245 C48.5561606,50.425849 49.1969369,59.7893728 48.9680882,72.0854412 C48.8033172,78.1635984 47.730017,82.8946179 45.4804346,83.9278817 C45.1074113,84.0928374 44.7160801,84.257793 44.2835561,84.4044202 C36.6239913,87.1743004 21.0371088,87.0070537 14.2860732,83.9278817 C13.9565311,83.7835455 13.6475854,83.5567315 13.377544,83.2451486 C11.745853,81.4902039 10.9425942,77.2929992 10.7755347,72.1060607 L29.3763541,49.0832934 C28.016993,55.450123 27.2091573,67.7049525 27.3121392,68.0761027 C27.4769102,68.5732607 30.4702507,71.75553 30.9874487,71.75553 C31.5229546,71.75553 34.4979872,68.5732607 34.6627582,68.0761027 C34.8069329,67.6843331 33.8160182,52.8864374 32.1843272,47.387916 C32.9280854,46.6845634 33.6924399,45.8185463 33.6924399,45.5894412 C33.6924399,45.4473961 33.3834942,45.0533354 32.9898745,44.6180358 L38.8552658,37.3851891 C42.5076904,35.9372451 46.9679509,33.8088591 52.0255064,24.4682459 C54.9135765,19.0957323 56.7306349,12.8526195 57.9503983,6.40331206 L58.1563621,5.43190661 C58.5705782,3.07670661 60.6736974,1.38132918 62.966761,1.69291206" id="Fill-174" fill="#FFFFFF"></path>
                        <path d="M32.9896457,44.6187231 C33.3832654,45.0517317 33.6922111,45.4457924 33.6922111,45.5901286 C33.6922111,45.8169426 32.930145,46.6852507 32.1840984,47.3886033 C32.0399237,46.9120647 31.9163454,46.4996756 31.7515744,46.1674733 L32.9896457,44.6187231 Z" id="Fill-176" fill="#444366"></path>
                        <path d="M30.9874487,48.2960884 C31.1522197,48.2960884 31.6694177,47.8836993 32.1843272,47.3888324 C33.8160182,52.8850627 34.8092214,67.6852495 34.6627582,68.0770191 C34.4979872,68.5718861 31.5229546,71.7541553 30.9874487,71.7541553 C30.4725392,71.7541553 27.4769102,68.5718861 27.3121392,68.0770191 C27.2091573,67.7035779 28.016993,55.4487483 29.3763541,49.0842098 L30.3695573,47.8836993 C30.6579066,48.1311328 30.9050632,48.2960884 30.9874487,48.2960884" id="Fill-178" fill="#333333"></path>
                        <path d="M30.3686419,47.8843866 L31.7508878,46.1683897 C31.9179474,46.5005921 32.0392372,46.9106901 32.1857003,47.3872286 C31.6685023,47.8843866 31.1535928,48.2967757 30.9865333,48.2967757 C30.9041478,48.2967757 30.6569912,48.129529 30.3686419,47.8843866" id="Fill-180" fill="#444366"></path>
                        <path d="M30.9874487,45.3413205 C31.2552016,45.3413205 31.5046467,45.6322839 31.7518032,46.1683897 L30.3695573,47.8843866 C30.2024978,47.7400504 29.9988225,47.5728037 29.8111666,47.3872286 C30.1635935,46.1294419 30.5549247,45.3413205 30.9874487,45.3413205" id="Fill-182" fill="#444366"></path>
                        <path d="M30.3686419,47.8843866 L29.3777272,49.0826061 C29.5219019,48.4617314 29.6660765,47.8843866 29.8102512,47.3872286 C29.9979071,47.5728037 30.2038709,47.7400504 30.3686419,47.8843866" id="Fill-184" fill="#333333"></path>
                        <path d="M31.7518032,46.1686188 C31.5046467,45.632513 31.2552016,45.3415496 30.9874487,45.3415496 C30.5549247,45.3415496 30.1635935,46.1273799 29.8111666,47.3874577 C29.0674084,46.6863963 28.3053424,45.8180881 28.3053424,45.588983 C28.3053424,45.2155418 30.6167139,42.9038718 30.9874487,42.9038718 C31.2368937,42.9038718 32.2690012,43.8317472 32.9898745,44.6198686 L31.7518032,46.1686188 Z" id="Fill-186" fill="#333333"></path>
                        <path d="M29.9381776,87.3461292 C23.7432442,87.3461292 17.5551764,86.4892763 13.8821553,84.8145183 C13.419881,84.6083237 13.001088,84.2944498 12.6417956,83.8820607 C10.9597579,82.0721307 9.996305,78.1109043 9.80636061,72.1381354 C9.78805272,71.6020296 10.2091343,71.1529837 10.7446401,71.1346553 C11.360243,71.1163268 11.7309779,71.5378802 11.7469973,72.076277 C11.9186338,77.4098428 12.7493544,81.1419642 14.0881191,82.583035 C14.280352,82.8006848 14.4702964,82.945021 14.6785487,83.0389541 C21.1160616,85.9760809 36.4351911,86.207477 43.9528698,83.4902911 C44.3762398,83.3459549 44.7401092,83.1924545 45.0856706,83.0389541 C46.737958,82.2806163 47.8318546,78.1727626 47.9966256,72.0579486 C48.2483592,58.5796981 47.3901767,50.1234304 45.2161144,44.6478195 C45.0582088,44.2468856 45.1817871,43.7863844 45.5227716,43.5206226 C48.7655572,40.9844296 54.7407958,35.660028 58.3405853,28.5142412 C61.4140228,22.7339206 63.5880851,16.1746428 65.1923143,7.85354708 L65.3982781,6.79508171 C65.581357,5.73432529 65.3479313,4.65065837 64.7575018,3.84191751 C64.2746311,3.17980389 63.5926621,2.76054163 62.835173,2.65744436 C61.0615959,2.414593 59.4459243,3.71132763 59.1140937,5.59915331 L58.9012645,6.60492451 C57.5052876,13.9935626 55.5326122,19.9961152 52.8802561,24.9287471 C47.8249892,34.2647782 43.3555747,36.6474708 39.2111254,38.2901541 C38.7122354,38.4871844 38.1469792,38.242042 37.9501693,37.742593 C37.7533595,37.243144 37.995939,36.6772545 38.4948291,36.4802241 C41.4973236,35.2911689 46.0331041,33.4949852 51.1707566,24.0031626 C53.7269962,19.2515237 55.6310171,13.4322553 56.9949551,6.22231907 L57.2054959,5.22800311 C57.7135399,2.33898833 60.3041068,0.34806537 63.0960605,0.728379767 C64.38219,0.904790661 65.5287218,1.60127004 66.3251151,2.69181012 C67.2290674,3.92668638 67.5860713,5.55104125 67.3091644,7.1479035 L67.0986236,8.22240623 C65.4577787,16.7382412 63.2242157,23.4716389 60.0683927,29.410042 C56.5075075,36.475642 50.7450981,41.820663 47.2826178,44.6088716 C49.3628522,50.3364981 50.1844189,58.8775346 49.9418393,72.1037696 C49.742741,79.3938926 48.3788029,83.6667019 45.886641,84.8122272 C45.4770019,84.9955113 45.0559203,85.1719222 44.5913575,85.3277136 C40.8428164,86.6817245 35.3893528,87.3461292 29.9381776,87.3461292" id="Fill-188" fill="#333333"></path>
                        <path d="M17.776473,39.1852675 C17.5293165,39.1852675 17.2821599,39.0913345 17.089927,38.9011773 C16.7100383,38.5231539 16.7100383,37.9068613 17.0876386,37.5265469 C17.4721043,37.1393594 17.9481095,36.7086419 18.55227,36.4360068 C19.831534,35.8517889 21.0810477,35.3912878 22.2641953,35.0636675 C22.7905473,34.9216224 23.3191877,35.2240411 23.4610738,35.7418185 C23.60296,36.259596 23.3008798,36.7957018 22.7836818,36.9377469 C21.6966506,37.2378746 20.5432534,37.666301 19.3532403,38.2069889 C19.0992183,38.3215415 18.8268884,38.5346092 18.4653075,38.8988862 C18.2753631,39.0890434 18.0259181,39.1852675 17.776473,39.1852675" id="Fill-190" fill="#444366"></path>
                        <path d="M5.5527505,87.463431 C5.38797946,87.463431 5.22091993,87.4565578 5.05843738,87.4244831 C3.86613584,87.3397142 2.68527674,86.739459 1.84540214,85.7474341 C1.012393,84.7622823 0.61419633,83.5067866 0.726332175,82.212343 C2.33513828,61.9296722 7.83208319,46.8866341 17.0615498,37.507073 C17.4391501,37.1221765 18.050176,37.1198854 18.4369303,37.4979088 C18.8191075,37.8736411 18.8236845,38.4899337 18.4483727,38.8725391 C9.54615968,47.9153158 4.23458219,62.552838 2.66239187,82.3750076 C2.59373727,83.1539648 2.83173988,83.9031384 3.32834148,84.4896473 C3.82952006,85.0807384 4.53666243,85.4404333 5.31932486,85.5000006 L5.5527505,85.518329 C7.07917109,85.518329 8.32181933,84.3728037 8.44539761,82.8561282 C8.75434331,79.0094543 9.19602123,75.3391913 9.75441197,71.9484364 C11.630971,60.6650123 14.9630076,51.9727664 20.2471232,44.5887104 C20.5583574,44.1488286 21.1716718,44.0526045 21.6019073,44.3641874 C22.0390082,44.6780613 22.1397017,45.2851897 21.826179,45.7227804 C16.7251423,52.8548209 13.4983761,61.2904691 11.6721638,72.2668925 C11.1206385,75.6026621 10.6881145,79.2179399 10.3814573,83.0119197 C10.1800705,85.5091648 8.05864337,87.463431 5.5527505,87.463431" id="Fill-192" fill="#333333"></path>
                        <path d="M23.4388755,35.6522384 C24.292481,37.2536828 25.6724385,38.483977 27.4391502,39.2148221 C29.7322138,40.1289513 32.4578014,40.0991676 34.7165377,39.1346353 C36.0438599,38.5412532 37.1148717,37.7073108 37.8838032,36.6625918 C38.0211124,36.4861809 38.1424022,36.3166431 38.2430956,36.1471054 C39.1081435,34.8274602 39.5338021,33.2283069 39.5338021,31.3496454 L39.5338021,23.3286774 C39.5338021,21.1063583 38.6504462,19.0283754 37.0439286,17.4773342 C35.432834,15.9079645 33.283945,15.0442384 30.9863045,15.0442384 C26.5100246,15.0442384 22.7569065,18.4327023 22.4388069,22.7604968 L22.420499,31.3519365 C22.420499,32.9190151 22.7454641,34.3211381 23.3816634,35.5239396 C23.4045482,35.5651785 23.4228561,35.6087085 23.4388755,35.6522384 M30.9771505,41.8197466 C29.5148076,41.8197466 28.0524646,41.5539847 26.7068344,41.0178789 C24.4641175,40.0900034 22.7225792,38.5091785 21.6607214,36.447233 C21.640125,36.4082851 21.6241056,36.3693373 21.6080862,36.3280984 C20.8574626,34.8664081 20.4775738,33.1939412 20.4775738,31.3496454 L20.4981702,22.6871832 C20.8917899,17.2803038 25.4985135,13.0991365 30.9863045,13.0991365 C33.7942776,13.0991365 36.4260372,14.1576019 38.3941357,16.0820844 C40.3805421,17.9974026 41.4767272,20.5748346 41.4767272,23.3286774 L41.4767272,31.3496454 C41.4767272,33.6154945 40.9435098,35.5743427 39.890806,37.1757871 C39.7718047,37.3796906 39.6024567,37.6225419 39.4285317,37.8424828 C38.4788097,39.1346353 37.1469105,40.1770633 35.4946231,40.9170727 C34.0849154,41.519619 32.5310329,41.8197466 30.9771505,41.8197466" id="Fill-194" fill="#333333"></path>
                        <path d="M21.5543068,22.5685068 C25.0991726,21.5031682 28.8660216,20.9624803 32.5481966,21.1984585 C35.2669187,21.3725784 37.9398711,21.9682515 40.4343215,23.0885753 L21.5543068,22.5685068 Z" id="Fill-196" fill="#444366"></path>
                        <path d="M40.4347792,24.0622718 C40.2997585,24.0622718 40.1670263,24.0347791 40.0365826,23.9775029 C37.7549614,22.9511122 35.2124527,22.3439838 32.4868651,22.1675729 C29.1136358,21.9545052 25.4451918,22.4127153 21.8339598,23.4986733 C21.3167619,23.6567558 20.776679,23.3612103 20.6256389,22.8480149 C20.4700218,22.3325286 20.7606596,21.7895496 21.2755691,21.6360492 C25.1614194,20.4676134 28.9809036,19.995657 32.6104434,20.2270531 C35.5694567,20.4172103 38.336237,21.0816149 40.8329759,22.2019387 C41.3227121,22.4218795 41.5401183,22.9969332 41.3227121,23.4872181 C41.1602295,23.846913 40.8055141,24.0622718 40.4347792,24.0622718" id="Fill-198" fill="#333333"></path>
                    </g>
                </g>
            </g>
        </g>
    </g>
</svg>