<?xml version="1.0" encoding="UTF-8" standalone="no"?>
<svg width="320px" height="259px" viewBox="0 0 320 259" version="1.1" xmlns="http://www.w3.org/2000/svg" xmlns:xlink="http://www.w3.org/1999/xlink">
    <!-- Generator: Sketch 41 (35326) - http://www.bohemiancoding.com/sketch -->
    <title>Group 42</title>
    <desc>Created with Sketch.</desc>
    <defs></defs>
    <g id="LANDING" stroke="none" stroke-width="1" fill="none" fill-rule="evenodd">
        <g id="01.-Landing-" transform="translate(-92.000000, -1140.000000)">
            <g id="Group-42" transform="translate(92.000000, 1140.000000)">
                <rect id="Rectangle-3" fill="#FFFFFF" x="2.84217094e-14" y="0" width="320" height="259"></rect>
                <g id="Group-41" transform="translate(57.000000, 55.000000)">
                    <g id="Page-1" transform="translate(64.275194, 58.469194) scale(-1, 1) translate(-64.275194, -58.469194) " stroke="#333333" stroke-width="2.4">
                        <polygon id="Stroke-1" fill="#D8D8D8" points="101.300682 96.9153027 127.803008 96.9153027 127.803008 7.40338807 120.681147 7.40338807"></polygon>
                        <polyline id="Stroke-3" fill="#D8D8D8" points="7.49396124 7.40338807 0.322217054 7.40338807 0.322217054 96.9153027 93.4090775 96.9153027"></polyline>
                        <path d="M54.8382171,0.325385071 L7.46403101,0.325385071 L7.46403101,89.1113572 L54.8382171,89.1113572 C59.9608915,89.1113572 64.1063566,93.2961263 64.1063566,98.4573843 L64.1063566,9.67012727 C64.1063566,4.51015413 59.9608915,0.325385071 54.8382171,0.325385071 Z" id="Stroke-5" fill="#FFFFFF"></path>
                        <path d="M92.9167636,89.1114857 L73.3764147,89.1114857 C68.266531,89.1114857 64.123624,93.2962548 64.123624,98.4575128 L64.123624,9.67025576 C64.123624,4.51028261 68.266531,0.325513556 73.3764147,0.325513556 L120.661066,0.325513556 L120.661066,89.1114857 L101.400833,89.1114857" id="Stroke-7" fill="#FFFFFF"></path>
                        <path d="M93.224124,22.3172009 L93.224124,27.8369331 L101.390984,27.8369331 L101.390984,22.3172009 C101.390984,21.9535872 100.990636,21.6644951 100.494357,21.6644951 L94.1258682,21.6644951 C93.6257519,21.6644951 93.224124,21.9535872 93.224124,22.3172009 Z" id="Stroke-9" stroke-linecap="round" stroke-linejoin="round"></path>
                        <polyline id="Stroke-11" stroke-linecap="round" stroke-linejoin="round" points="101.390601 105.77694 101.390601 27.8364192 93.2237403 27.8364192 93.2237403 105.77694"></polyline>
                        <path d="M97.3111357,105.082476 C95.8568333,105.082476 94.4779961,105.295762 93.2321822,105.672224 L97.3111357,116.312099 L101.386252,105.672224 C100.136601,105.295762 98.765438,105.082476 97.3111357,105.082476 Z" id="Stroke-13" stroke-linecap="round" stroke-linejoin="round"></path>
                        <polygon id="Stroke-15" stroke-linecap="round" stroke-linejoin="round" points="93.1924031 34.7326154 101.470543 34.7326154 101.470543 27.6659191 93.1924031 27.6659191"></polygon>
                        <path d="M98.6351008,112.835413 C98.2257984,112.803292 97.8101008,112.772455 97.3816124,112.772455 C96.9019612,112.772455 96.4312636,112.803292 95.9746357,112.852116 L97.3112636,116.312228 L98.6351008,112.835413 Z" id="Stroke-17"></path>
                        <path d="M32.0712868,21.4537057 L54.203031,21.4537057" id="Stroke-18"></path>
                        <path d="M16.9245426,32.0442422 L54.203031,32.0442422" id="Stroke-19"></path>
                        <path d="M16.9245426,39.4378053 L54.203031,39.4378053" id="Stroke-20"></path>
                        <path d="M27.583031,46.8289272 L54.203031,46.8289272" id="Stroke-21"></path>
                    </g>
                    <g id="Group-21" transform="translate(98.209302, 64.075829)">
                        <path d="M63.8655439,83.3390205 C61.7831924,83.3956243 59.844333,84.4552204 58.6682472,86.183708 L48.4768771,101.15335 C47.102374,102.905998 45.8713631,103.460301 44.9149781,103.082712 C43.9565334,102.703743 44.3252188,100.592144 44.4796959,99.5705135 C45.2459024,94.4941165 46.3389138,91.5741873 45.4559913,86.2927739 C45.3351558,85.5721105 45.2136338,84.8521375 44.7055758,84.3288972 C44.1995774,83.8042763 43.5006543,83.5115931 42.7749551,83.5198766 C33.5914623,83.6165173 24.0928362,83.0435761 14.9869252,78.6823201 C8.90945224,75.7782676 5.54116458,70.1510186 3.71215554,63.5677172 C-0.968157746,46.7239364 -1.84558776,22.092297 13.1579162,9.82169139 C18.0167363,5.85113988 24.9839975,3.57939353 31.0401869,2.31340058 C39.6057713,0.514503283 48.3910564,0.695359419 57.1001329,0.695359419 C85.386609,0.695359419 105.888125,6.46342764 105.888125,47.5081065 C105.888125,76.4119543 89.0116719,82.651491 63.8655439,83.3390205 Z" id="Fill-73" fill="#FFFFFF"></path>
                        <path d="M45.8134144,102.493657 C45.8511755,102.501941 45.8903097,102.505392 45.9315036,102.505392 C46.1306074,102.505392 46.8693513,102.388733 48.050243,100.893564 L58.2203297,85.9536045 C59.5845342,83.9510714 61.8412732,82.7154513 64.2572953,82.6498737 C78.5426523,82.2591692 87.7522346,80.0571422 94.1180648,75.510198 C101.613294,70.1563042 105.256895,61.1169488 105.256895,47.8751043 C105.256895,9.60608394 87.7536077,2.11919213 57.52072,2.11919213 L53.1459281,2.11366981 C45.8484292,2.11366981 38.7157059,2.23654153 31.6756689,3.71514399 C26.4591484,4.80511284 19.2007837,6.95605834 14.2410385,11.0094447 C-0.0271543914,22.6774267 0.423918783,46.6588123 5.1447394,63.6503153 C7.15431502,70.8859413 10.6592291,75.6109805 15.8578989,78.094646 C24.5875723,82.2757362 33.6948564,82.8397036 41.4509807,82.8390133 C42.029755,82.8390133 42.6085292,82.8355618 43.1845572,82.8300395 L43.1852438,82.8300395 C44.2205837,82.8300395 45.1879537,83.2414527 45.8806978,83.9600452 C46.6166954,84.7179843 46.7807844,85.6975066 46.9126049,86.4851282 C47.6225131,90.7311057 47.0966043,93.5923602 46.4876212,96.9043745 C46.3036218,97.9066764 46.1134433,98.9421123 45.9390558,100.095588 L45.9170857,100.236407 C45.7344594,101.433371 45.6994446,102.192 45.8134144,102.493657 M45.9315036,104.619062 C45.5930271,104.619062 45.2627893,104.556246 44.9504023,104.433374 C43.2518406,103.761721 43.6335707,101.259418 43.8395402,99.9154221 L43.8601371,99.7787445 C44.0393306,98.5907544 44.2329419,97.5380612 44.4203741,96.5205729 C45.0169991,93.2762071 45.4872961,90.7145387 44.8391787,86.8351055 C44.7396268,86.2380042 44.6531196,85.7216668 44.3730011,85.4338156 C44.0722857,85.121114 43.6541676,84.9437093 43.2250645,84.9437093 C42.6236336,84.9499219 42.0373072,84.9533734 41.4509807,84.9533734 C33.4600512,84.9533734 24.0616636,84.3652458 14.955066,80.0032995 C9.25520378,77.2801031 5.27312705,71.9690073 3.11937279,64.2191147 C-2.00652115,45.7676471 -2.12598345,21.6696024 12.914595,9.36931426 C18.2025182,5.04740484 25.8027923,2.78394197 31.2465658,1.64565278 C38.4815873,0.125632889 45.7344594,0 53.1459281,0 L57.52072,0.00483203417 C69.7800238,0.00483203417 83.6005763,0.982283518 93.1548142,8.23309594 C102.713171,15.4866695 107.359843,28.4537784 107.359843,47.8751043 C107.359843,77.5134213 90.1517791,84.0559956 64.3142802,84.7628532 C62.5690321,84.8104832 60.9398135,85.7016484 59.9559659,87.1484975 L49.7220287,102.174743 C48.4505104,103.796926 47.1748727,104.619062 45.9315036,104.619062" id="Fill-75" fill="#333333"></path>
                        <path d="M45.9998519,20.7540834 L48.9198126,24.5216895 C48.9198126,24.5216895 52.9101281,20.9038764 57.3096364,21.4416128 C61.5471152,21.9579502 63.1680951,27.3753508 59.6700467,30.3442906 C56.1706251,33.3111596 54.4075263,33.2096869 54.5050185,38.2826325 C54.6031973,43.3562684 54.3333773,51.9828299 54.3333773,51.9828299 C55.2465087,53.9784601 58.3916627,53.9784601 59.1153022,51.9828299 C59.1153022,51.9828299 58.5708562,38.2847034 59.6164946,36.3684567 C60.6635061,34.4529003 63.663795,35.2791781 67.1604703,32.2398286 C70.6578322,29.20255 71.5537994,19.3859274 63.663795,16.2747877 C59.8300163,14.7651222 52.2228766,13.771794 45.9998519,20.7540834" id="Fill-93" fill="#FF3E00"></path>
                        <path d="M55.7571785,52.0969216 C56.0887894,52.6029046 56.6819815,52.7892831 57.1598307,52.7892831 C57.6150233,52.7892831 58.1608425,52.6174007 58.4196774,52.1473128 C58.2837376,48.6026706 57.9843953,38.1958496 59.0602425,36.2271408 C59.7612254,34.94251 61.0059676,34.555257 62.3234858,34.144534 C63.6561083,33.7303597 65.1665512,33.2595815 66.8383369,31.8072101 C68.5197345,30.3465552 69.4108958,27.0303992 68.9110765,24.093903 C68.6124207,22.3357328 67.5303944,19.1576349 63.6444367,17.6251898 C62.6818727,17.2462203 60.692894,16.6097723 58.1999767,16.6097723 C55.4290005,16.6097723 51.4290731,17.4243152 47.7463387,21.1850184 L49.4620645,23.3987803 C50.8235228,22.3992396 53.6068571,20.6969829 56.7678022,20.6969829 C57.1158906,20.6969829 57.4626059,20.7176917 57.8010824,20.7597994 C60.1635524,21.0476506 62.0550389,22.6539568 62.7374844,24.9512439 C63.446706,27.3403396 62.6708876,29.8557586 60.7128044,31.5186686 C59.9356129,32.1778961 59.2511076,32.6824986 58.647617,33.1284263 C56.5583998,34.6712258 55.8546708,35.1910146 55.9198944,38.6293521 C56.0084613,43.1507555 55.8018053,50.5555027 55.7571785,52.0969216 M57.1598307,54.9029529 C55.6487013,54.9029529 54.3394219,54.0946226 53.742797,52.7913539 C53.674827,52.6429414 53.6418719,52.4800329 53.6473644,52.316434 C53.6501107,52.2301477 53.9151248,43.658119 53.8190057,38.6707695 C53.7359313,34.3378154 54.9902855,33.2064291 57.4028747,31.4254794 C57.9795893,30.9995701 58.6338857,30.5156764 59.3568386,29.9026983 C60.9215201,28.5752695 61.089042,26.7867266 60.7231029,25.5566287 C60.2837013,24.0766457 59.0664216,23.0425904 57.5470534,22.8575925 C57.2930243,22.8265294 57.0307565,22.8106528 56.7678022,22.8106528 C53.2072763,22.8106528 50.0195552,25.6456762 49.9872867,25.6746684 C49.7703322,25.8700207 49.4867808,25.9666614 49.1908713,25.9404303 C48.9018275,25.9141993 48.6340672,25.768548 48.4548737,25.5379909 L45.534913,21.7703848 C45.2225259,21.3665648 45.2424363,20.7963848 45.5815994,20.4160347 C49.9412868,15.5232549 54.8502262,14.4961025 58.1999767,14.4961025 C60.3036117,14.4961025 62.5095449,14.9088963 64.4113298,15.6571713 C68.0048108,17.0743379 70.338445,19.9438759 70.9838161,23.737713 C71.6072171,27.4045367 70.4421163,31.4703483 68.2128399,33.4059231 C66.2087568,35.1475263 64.3234495,35.7349636 62.9462002,36.1643243 C61.7955173,36.5225852 61.1817282,36.7331238 60.9022963,37.2439388 C60.3448056,38.2897291 60.2740894,45.8774033 60.5301781,52.3074602 C60.5356706,52.444828 60.5143871,52.5821959 60.4670141,52.7119705 C59.984359,54.0428508 58.6867512,54.9029529 57.1598307,54.9029529" id="Fill-95" fill="#333333"></path>
                        <path d="M57.2643231,66.3175982 C55.0110169,66.3175982 53.5534395,65.4416194 53.5520664,64.0845081 L53.5520664,59.9828014 C53.5520664,58.7313045 54.9396141,57.9844101 57.2636365,57.9844101 C59.5876589,57.9844101 60.9745201,58.7313045 60.9745201,59.9828014 L60.9745201,64.0838178 C60.9745201,65.4409291 59.5183158,66.3175982 57.2643231,66.3175982 L57.2643231,66.3175982 Z" id="Path" fill="#FF3E00"></path>
                        <path d="M55.6550148,63.908484 C55.8747156,64.0334266 56.4479973,64.2039283 57.2643231,64.2039283 C58.0785891,64.2039283 58.6518708,64.0341169 58.8722582,63.908484 L58.8722582,60.3162117 C58.6044979,60.2181904 58.0559325,60.0973896 57.2636365,60.0973896 C56.4713405,60.0973896 55.9227751,60.2181904 55.6550148,60.3162117 L55.6550148,63.908484 Z M57.2643231,66.3175982 C55.0110169,66.3175982 53.5534395,65.4416194 53.5520664,64.0845081 L53.5520664,59.9828014 C53.5520664,58.7313045 54.9396141,57.9844101 57.2636365,57.9844101 C59.5876589,57.9844101 60.9745201,58.7313045 60.9745201,59.9828014 L60.9745201,64.0838178 C60.9745201,65.4409291 59.5183158,66.3175982 57.2643231,66.3175982 L57.2643231,66.3175982 Z" id="Fill-99" fill="#424873"></path>
                        <path d="M15.4681634,19.7888173 C15.2436567,19.7888173 15.0170902,19.7163368 14.8255386,19.5679243 C14.3669132,19.2103537 14.2824657,18.5462942 14.6374198,18.0851801 C17.075412,14.9174365 19.7852838,12.9404443 22.6928864,12.2094265 C23.2565562,12.0679169 23.8270917,12.4109914 23.9678375,12.97772 C24.1085833,13.5437582 23.766674,14.11808 23.2036907,14.2595896 C20.765012,14.8732579 18.4423628,16.595533 16.3002801,19.3780944 C16.0929375,19.647998 15.7819236,19.7888173 15.4681634,19.7888173" id="Fill-119" fill="#333333"></path>
                        <path d="M27.2524838,11.7581413 C26.6716499,11.7581413 26.2013529,11.2846019 26.2013529,10.7013064 C26.2013529,10.1173205 26.6716499,9.64378118 27.2524838,9.64378118 C27.4028416,9.64378118 27.6067513,9.5692298 27.8422431,9.48294347 C28.1930778,9.35523971 28.6297331,9.19509229 29.1480897,9.19509229 C29.7289236,9.19509229 30.1992206,9.66863164 30.1992206,10.2519272 C30.1992206,10.835913 29.7289236,11.3094524 29.1480897,11.3094524 C28.9997916,11.3094524 28.7965684,11.3833135 28.5617632,11.4695998 C28.2109285,11.5979939 27.7729001,11.7581413 27.2524838,11.7581413" id="Fill-121" fill="#333333"></path>
                    </g>
                </g>
            </g>
        </g>
    </g>
</svg>