<?xml version="1.0" encoding="UTF-8" standalone="no"?>
<svg width="480px" height="354px" viewBox="0 0 480 354" version="1.1" xmlns="http://www.w3.org/2000/svg" xmlns:xlink="http://www.w3.org/1999/xlink">
    <!-- Generator: Sketch 41 (35326) - http://www.bohemiancoding.com/sketch -->
    <title>Group 35</title>
    <desc>Created with Sketch.</desc>
    <defs></defs>
    <g id="LANDING" stroke="none" stroke-width="1" fill="none" fill-rule="evenodd">
        <g id="01.-Landing-" transform="translate(-112.000000, -2352.000000)">
            <g id="Group-35" transform="translate(112.000000, 2352.000000)">
                <rect id="Rectangle-3" fill="#FFFFFF" x="0" y="0" width="480" height="354"></rect>
                <g id="Group-22" transform="translate(48.000000, 47.000000)">
                    <g id="Group-3" transform="translate(0.000000, 33.292683)">
                        <g id="Page-1">
                            <path d="M288.625998,0.485105437 L48.0234854,0.485105437 C41.4748283,0.485105437 35.8963426,5.86977579 35.8963426,12.5157203 L35.8963426,170.757114 L300.753141,170.757114 L300.753141,12.5157203 C300.753141,5.86977579 295.174655,0.485105437 288.625998,0.485105437 L288.625998,0.485105437 Z" id="Fill-1" fill="#FEFEFE"></path>
                            <path d="M288.625998,0.485105437 L48.0234854,0.485105437 C41.4748283,0.485105437 35.8963426,5.86977579 35.8963426,12.5157203 L35.8963426,170.757114 L300.753141,170.757114 L300.753141,12.5157203 C300.753141,5.86977579 295.174655,0.485105437 288.625998,0.485105437 L288.625998,0.485105437 Z" id="Stroke-3" stroke="#333333" stroke-width="2.85030928" fill="#D2D2D5"></path>
                            <path d="M168.809828,7.76168699 C169.881382,7.76168699 170.75017,8.63051083 170.75017,9.70210874 C170.75017,10.7737067 169.881382,11.6425305 168.809828,11.6425305 C167.738273,11.6425305 166.869485,10.7737067 166.869485,9.70210874 C166.869485,8.63051083 167.738273,7.76168699 168.809828,7.76168699 L168.809828,7.76168699 Z" id="Stroke-5" stroke="#333333" stroke-width="1.42515464"></path>
                            <path d="M311.32801,185.795382 L25.3699827,185.795382 C10.4778514,185.795382 0.485085711,180.701775 0.485085711,178.518801 L0.485085711,171.921367 C0.485085711,171.29073 1.11569714,170.757114 1.94034285,170.757114 L334.757649,170.757114 C335.582295,170.757114 336.212907,171.29073 336.212907,171.921367 L336.212907,178.761354 C336.212907,180.507733 328.451535,185.795382 311.32801,185.795382" id="Fill-7" fill="#D2D2D5"></path>
                            <path d="M311.32801,185.795382 L25.3699827,185.795382 C10.4778514,185.795382 0.485085711,180.701775 0.485085711,178.518801 L0.485085711,171.921367 C0.485085711,171.29073 1.11569714,170.757114 1.94034285,170.757114 L334.757649,170.757114 C335.582295,170.757114 336.212907,171.29073 336.212907,171.921367 L336.212907,178.761354 C336.212907,180.507733 328.451535,185.795382 311.32801,185.795382 L311.32801,185.795382 Z" id="Stroke-9" stroke="#333333" stroke-width="2.85030928"></path>
                            <path d="M0.727628567,177.31854 L335.291244,177.31854" id="Stroke-11" stroke="#333333" stroke-width="1.42515464" stroke-linecap="square"></path>
                            <polygon id="Fill-13" fill="#FFFFFF" points="46.5682283 161.055005 289.644678 161.055005 289.644678 19.4042175 46.5682283 19.4042175"></polygon>
                            <polygon id="Stroke-15" stroke="#333333" stroke-width="1.42515464" points="46.5682283 161.055005 289.644678 161.055005 289.644678 19.4042175 46.5682283 19.4042175"></polygon>
                            <path d="M204.70617,171.242219 L204.70617,172.746046 C204.70617,173.813278 202.620302,174.152852 201.019519,174.152852 L135.726982,174.152852 C134.029182,174.152852 131.943313,173.813278 131.943313,172.746046 L131.943313,171.242219" id="Fill-16" fill="#FFFFFF"></path>
                            <path d="M204.70617,171.242219 L204.70617,172.746046 C204.70617,173.813278 202.620302,174.152852 201.019519,174.152852 L135.726982,174.152852 C134.029182,174.152852 131.943313,173.813278 131.943313,172.746046 L131.943313,171.242219" id="Stroke-17" stroke="#333333" stroke-width="1.42515464"></path>
                        </g>
                        <text id="IT-TURNS-OUT-TO-BE-G" font-family="ChalkboardSE-Regular, Chalkboard SE" font-size="12.8263918" font-weight="normal" line-spacing="14.2515464">
                            <tspan x="84.8366241" y="58.2381269" fill="#333333">IT </tspan>
                            <tspan x="101.702266" y="56.395664" font-family="ChalkboardSE-Bold, Chalkboard SE" font-weight="bold" fill="#FF3E00">TURNS OUT</tspan>
                            <tspan x="175.259143" y="58.2381269" fill="#FF3E00"> </tspan>
                            <tspan x="179.085801" y="58.2381269" fill="#333333">TO BE GREAT!</tspan>
                            <tspan x="91.4553257" y="75.8141216" fill="#333333"></tspan>
                            <tspan x="84.8366241" y="86.7412197" fill="#333333">IT </tspan>
                            <tspan x="101.702266" y="84.8987567" font-family="ChalkboardSE-Bold, Chalkboard SE" font-weight="bold" fill="#FF3E00">TURNS OUT</tspan>
                            <tspan x="175.259143" y="86.7412197" fill="#333333"> TO BE A GREAT</tspan>
                            <tspan x="84.8366241" y="100.992766" fill="#333333">SOLUTION!</tspan>
                            <tspan x="91.4553257" y="118.568761" fill="#333333"></tspan>
                            <tspan x="84.8366241" y="129.495859" fill="#333333">IT </tspan>
                            <tspan x="101.702266" y="127.653396" font-family="ChalkboardSE-Bold, Chalkboard SE" font-weight="bold" fill="#FF3E00">TURNS OUT</tspan>
                            <tspan x="175.259143" y="129.495859" fill="#333333"> TO BE A GREAT</tspan>
                            <tspan x="84.8366241" y="143.747405" fill="#333333">ENGLISH PRATICE SOLUTION!</tspan>
                        </text>
                        <g id="Page-1" transform="translate(58.458850, 37.113354)" stroke-width="0.912098969" stroke="#333333" fill="#FF3E00">
                            <polygon id="Fill-1" points="0 13.5960133 1.70642079 10.9039034 5.61510235 13.9694664 14.4501942 0 17.5070364 2.56638842 6.34172502 18.4833781"></polygon>
                        </g>
                        <g id="Page-1" transform="translate(58.458850, 74.940426)" stroke-width="0.912098969" stroke="#333333" fill="#FF3E00">
                            <polygon id="Fill-1" points="0 13.5960133 1.70642079 10.9039034 5.61510235 13.9694664 14.4501942 0 17.5070364 2.56638842 6.34172502 18.4833781"></polygon>
                        </g>
                        <g id="Page-1" transform="translate(58.458850, 118.477245)" stroke-width="0.912098969" stroke="#333333" fill="#FF3E00">
                            <polygon id="Fill-1" points="0 13.5960133 1.70642079 10.9039034 5.61510235 13.9694664 14.4501942 0 17.5070364 2.56638842 6.34172502 18.4833781"></polygon>
                        </g>
                    </g>
                    <g id="Group-5" transform="translate(307.200000, 0.000000)">
                        <path d="M1.98472779,17.7134556 C0.951690713,20.0008728 0.337593108,22.6079803 0.107306505,25.683532 C-0.225763383,30.0822104 0.279045666,34.7275071 0.76694101,39.2201353 C1.00243183,41.400554 1.22621316,43.4596209 1.35631859,45.4677983 C2.08360791,56.6687046 4.32792649,70.1739912 15.3166307,75.2355378 C20.2294115,77.4994675 25.5025844,78.8004115 31.4458002,79.2101371 C32.4059783,79.2792946 33.2828888,79.7229465 33.9152012,80.4562771 C34.5462125,81.185693 34.8584655,82.1238864 34.7960149,83.096006 C34.3705702,88.928724 33.4351122,94.3478018 32.7260376,97.8657006 C32.6596838,98.221927 32.8210146,98.6016409 33.1267623,98.8025891 C33.4273058,98.9970131 33.8501485,98.9839645 34.1480899,98.7660531 C37.5373362,96.2437614 42.1768957,91.3231396 45.0053876,82.2361042 C45.6702263,80.1104895 47.5138202,78.5329155 49.7047956,78.2158348 C56.0123066,77.3324456 63.1251702,75.6491779 68.0991006,69.8569106 C73.7053433,63.3078252 76.4349551,53.462667 76.4414604,39.7616516 C76.4440625,16.5443023 68.4568905,3.92892928 52.0284785,1.1978602 C47.2484051,0.403201311 42.4917508,0 37.8899219,0 C25.1669124,0 8.60839497,3.07294203 1.98472779,17.7134556 Z" id="Fill-3" stroke="#333333" stroke-width="2.37525773" fill="#FFFFFF"></path>
                        <g id="Group-7" transform="translate(34.837113, 18.231707)">
                            <path d="M8.84021039,22.5713786 C7.65166796,24.9670073 3.35062434,24.9670073 1.99581388,22.5900507 C1.99581388,22.5900507 1.84781705,13.5004789 1.3983452,3.57906558 C2.00494948,0.832401626 9.48427066,0.664352846 10.2078107,3.38207507 C9.15995662,12.8852336 8.84021039,22.5713786 8.84021039,22.5713786" id="Fill-81" fill="#FF3E00"></path>
                            <path d="M3.38643592,22.1254892 C3.82311792,22.6287019 4.60421229,22.9414593 5.47209492,22.9414593 C6.33358263,22.9414593 7.07904813,22.6343035 7.45634869,22.1432276 C7.52669286,20.2797534 7.88024084,11.8857168 8.77461673,3.61865041 C8.48410444,3.29282249 7.49745892,2.85869648 5.962677,2.85869648 C4.20772696,2.85869648 3.05572696,3.42912873 2.80815202,3.79510163 C3.18819326,12.2918347 3.35080706,20.2059986 3.38643592,22.1254892 M5.47209492,25.8001558 C3.45769365,25.8001558 1.66254694,24.8450786 0.786442265,23.3092995 C0.665852257,23.0973713 0.60098945,22.857435 0.596421647,22.6128306 C0.595508086,22.5232046 0.443857015,13.430832 0.00169365307,3.64479133 C-0.00470127159,3.51688753 0.00717501707,3.38991734 0.0345818371,3.26481436 C0.566274145,0.855181572 3.56001245,0 5.962677,0 C8.28038041,0 10.9671623,0.788895664 11.5573225,3.00620596 C11.6039141,3.18172358 11.6176175,3.36284282 11.5975192,3.54302846 C10.5679363,12.8772046 10.2408816,22.5232046 10.2381409,22.6193659 C10.2308324,22.8275596 10.1805866,23.032019 10.0874034,23.2178062 C9.29808699,24.8105352 7.52943354,25.8001558 5.47209492,25.8001558" id="Fill-83" fill="#333333"></path>
                            <path d="M9.13099675,38.4317291 C9.13099675,40.5519446 2.0527287,40.5519446 2.05090158,38.4317291 L2.05090158,32.8833186 C2.05090158,31.1850923 9.13099675,31.1850923 9.13099675,32.8833186 L9.13099675,38.4317291 Z" id="Fill-85" fill="#FF3E00"></path>
                            <path d="M3.44983703,38.1937534 C3.74217644,38.3627358 4.50591316,38.593336 5.59213679,38.593336 C6.67561974,38.593336 7.43935646,38.3627358 7.73169587,38.1937534 L7.73169587,33.3343428 C7.37632077,33.201771 6.64547224,33.0393238 5.59122323,33.0393238 C4.53606066,33.0393238 3.80612569,33.201771 3.44983703,33.3343428 L3.44983703,38.1937534 Z M5.59213679,41.4510989 C2.59200357,41.4510989 0.653427832,40.2672886 0.651600711,38.4327561 L0.651600711,32.8824783 C0.651600711,31.1907873 2.49882038,30.1806274 5.59122323,30.1806274 C8.68271253,30.1806274 10.5299322,31.1907873 10.5299322,32.8824783 L10.5299322,38.4318225 C10.5299322,40.266355 8.59135646,41.4510989 5.59213679,41.4510989 L5.59213679,41.4510989 Z" id="Fill-87" fill="#333333"></path>
                        </g>
                        <g id="Group-2" transform="translate(60.173196, 15.060976)" fill="#333333">
                            <path d="M5.37409955,8.49076261 C4.65941089,8.49076261 4.0059511,8.04679124 3.81381914,7.37395852 C3.20997584,5.26607676 2.31054491,3.94889622 0.604582027,2.67689861 C-0.0911045712,2.15827719 -0.203005602,1.2114002 0.355443882,0.563123422 C0.911782027,-0.084171117 1.92839234,-0.189270534 2.62724594,0.330333125 C4.86948924,2.00308365 6.15740677,3.87719288 6.93649131,6.5989731 C7.16662739,7.40244341 6.65357172,8.22555847 5.79214491,8.43968625 C5.65174079,8.47406457 5.51239234,8.49076261 5.37409955,8.49076261" id="Fill-89"></path>
                            <path d="M7.45753664,14.9309644 C6.62039025,14.9309644 5.91203561,14.3308172 5.84869541,13.5410983 C5.80330159,12.9851518 5.67028716,12.4959975 5.40531396,11.9105839 C5.05905417,11.1444387 5.44542943,10.2623893 6.26779644,9.94119767 C7.09438613,9.61705928 8.03921087,9.97950493 8.38441499,10.7436857 C8.78768097,11.6355574 8.99881499,12.4262586 9.07060056,13.3132191 C9.13921912,14.1402632 8.47203561,14.8641722 7.58210572,14.9260532 C7.53987891,14.9289999 7.49870778,14.9309644 7.45753664,14.9309644" id="Fill-91"></path>
                        </g>
                    </g>
                    <g id="Group-6" transform="translate(285.822680, 95.914634)">
                        <g id="Group-5" transform="translate(0.508524, 0.162458)">
                            <g id="Group-3">
                                <path d="M62.8847717,136.623981 C73.3610642,142.679282 73.3610642,152.497647 62.8847717,158.555514 C52.4136045,164.615948 35.4357576,164.610814 24.9594651,158.555514 C14.4908606,152.497647 14.4908606,142.679282 24.9594651,136.623981 C35.4357576,130.568681 52.4136045,130.566114 62.8847717,136.623981" id="Fill-200" fill-opacity="0.5" fill="#CCCCCC"></path>
                                <path d="M26.4553095,93.6359704 C34.0229445,97.0961419 51.4748898,97.2809582 60.0624769,94.1801516 C58.7042492,107.900194 56.9795562,123.984344 54.9294011,137.006192 C54.7218229,138.253702 55.047285,139.549983 55.7955916,140.517701 C56.9334277,141.975696 58.4505425,144.737673 59.1604087,147.943722 C59.4525558,149.28364 59.1194056,150.705699 58.2532151,151.70422 C57.3895872,152.692474 56.1287418,153.139113 54.9140249,152.859322 C49.8808942,151.693953 45.5063757,147.705001 44.4402951,145.050834 C44.8016349,130.40671 43.5946061,117.384863 43.5946061,105.063777 L41.703338,104.499061 C41.1754231,116.935657 39.3969136,130.093549 39.1201426,144.88912 C37.9387407,147.563822 33.3899591,151.598978 28.3030118,152.769481 C27.0754814,153.054406 25.8377003,152.607766 25.0227636,151.598978 C24.2103897,150.597889 23.9259307,149.160429 24.274457,147.80511 C25.1227087,144.563124 26.7577074,141.780612 27.9647362,140.302082 C28.7591713,139.334364 29.13845,138.027815 28.9975018,136.754636 C27.3573777,122.251692 26.1067831,107.628103 25.3482258,92.9531769 L25.4353573,92.8761701 C25.7505687,93.2098662 26.0837189,93.4742561 26.4553095,93.6359704" id="Fill-202" fill="#FFFFFF"></path>
                                <path d="M55.628504,154.029312 C55.3081673,154.029312 54.9878305,153.993375 54.6700565,153.921502 C49.4985403,152.72533 44.6832385,148.577231 43.4300812,145.45589 C43.3737019,145.317277 43.348075,145.170964 43.3532004,145.022085 C43.5607786,136.553905 43.2455672,128.66841 42.9406066,121.039605 C42.7740315,116.93771 42.6177072,113.002663 42.5459518,109.134356 C42.3101839,112.907688 41.9924099,116.750327 41.6618224,120.749546 C41.0262743,128.432256 40.367662,136.379357 40.208775,144.909141 C40.2062123,145.055454 40.17546,145.196633 40.116518,145.330112 C38.7275379,148.469422 33.7482237,152.635489 28.5459552,153.831661 C26.9263326,154.211561 25.2503308,153.616042 24.1765621,152.283825 C23.1437965,151.013213 22.7850193,149.234356 23.2206773,147.532506 C24.1124948,144.121105 25.8218116,141.205115 27.1210974,139.611075 C27.7258931,138.874376 28.0231656,137.852753 27.9155325,136.874767 C26.2215918,121.873845 24.9914988,107.114211 24.2636937,93.0091351 C24.2329414,92.4084822 24.6916636,91.8951036 25.2938966,91.8643009 C25.9038178,91.8437658 26.4061058,92.2955389 26.4368581,92.8961918 C27.1621005,106.957631 28.3870681,121.673627 30.0784461,136.633479 C30.2527093,138.206984 29.786299,139.795891 28.8047872,140.99463 C27.7028289,142.342249 26.1318975,145.00925 25.3272117,148.081821 C25.0683796,149.093177 25.2733951,150.181539 25.8679401,150.910537 C26.4240446,151.601031 27.241544,151.896224 28.0564806,151.708841 C32.8384674,150.607644 36.9028999,146.906184 38.0381733,144.634484 C38.2047484,136.122667 38.860798,128.216637 39.4912207,120.569864 C39.957631,114.96377 40.3958516,109.66827 40.6162433,104.452343 C40.6316195,104.11608 40.7981946,103.808053 41.0698401,103.612969 C41.3440484,103.415319 41.690012,103.35628 42.0129115,103.453822 L43.9067422,104.018539 C44.3680271,104.154584 44.6832385,104.580688 44.6832385,105.063264 C44.6832385,110.20475 44.8933794,115.42581 45.113771,120.952331 C45.4187316,128.542633 45.7313803,136.389624 45.5340528,144.837268 C46.5642558,147.070465 50.4441743,150.705185 55.159531,151.796115 C55.9744677,151.986065 56.825282,151.683172 57.4326405,150.987544 C58.0630632,150.26368 58.3167699,149.185585 58.0963782,148.179363 C57.4275151,145.145296 55.9770304,142.516797 54.9391393,141.189714 C53.9909426,139.965306 53.5962878,138.376399 53.8551198,136.825996 C56.00522,123.17526 57.8093565,105.887236 58.9805076,94.0743957 C59.0394495,93.4737427 59.5673645,93.037371 60.1695975,93.0964095 C60.7692679,93.155448 61.2049259,93.6893617 61.1459839,94.2900147 C59.9722701,106.131091 58.1630082,123.460185 56.0026573,137.175093 C55.846333,138.122277 56.0897889,139.118231 56.6561442,139.849796 C57.8862373,141.425868 59.4725448,144.321323 60.2234141,147.709621 C60.592442,149.403771 60.1644721,151.162092 59.0727646,152.41987 C58.1706963,153.454328 56.9098509,154.029312 55.628504,154.029312" id="Fill-204" fill="#333333"></path>
                                <path d="M42.5887488,52.6989067 C42.4042348,53.3226617 42.2171582,54.0413917 42.0557084,54.8525298 L35.1902516,41.1658572 L35.2133158,41.1427552 C36.299898,42.7162605 37.8247009,43.853394 39.5365804,44.549022 C42.3811706,45.6810217 45.6870457,45.6604866 48.5290732,44.4540469 C50.053876,43.7840879 51.4428561,42.7650314 52.4807471,41.3737755 L52.6447595,41.4918526 L45.6383545,54.1337998 C45.5230333,53.602453 45.3846478,53.1378454 45.2718893,52.6989067 C46.0791378,51.9108706 46.9350776,50.9405851 46.9350776,50.6838958 C46.9350776,50.2654923 44.3441941,47.6729305 43.9059734,47.6729305 C43.4882543,47.6729305 40.8999335,50.2654923 40.8999335,50.6838958 C40.8999335,50.9405851 41.7558733,51.9108706 42.5887488,52.6989067" id="Fill-206" fill="#FFFFFF"></path>
                                <path d="M79.6453021,1.50222908 C82.1900572,1.84875961 83.9455025,4.48752545 83.4380891,7.42661774 L83.2048839,8.60995534 C81.6826438,16.5288197 79.4146597,24.5631943 75.4399215,32.0431201 C71.3472994,40.1699028 64.5971637,46.2380374 60.7838753,49.2259007 C63.5105815,56.1026066 64.2255731,66.5934976 63.9718664,80.3700115 C63.8104167,86.1583548 62.9083485,90.8840046 61.0837104,92.8502445 L47.257977,65.2484458 C46.8633221,61.290297 46.3097803,57.052357 45.6383545,54.1337998 L52.6447595,41.4918526 C56.7373816,39.8695763 61.7295093,37.4849329 67.3930627,27.0197108 C70.6297451,21.0003471 72.664524,14.0055641 74.0278772,6.77976075 L74.2610823,5.69139819 C74.7223672,3.05263235 77.0800456,1.15313165 79.6453021,1.50222908" id="Fill-208" fill="#FFFFFF"></path>
                                <path d="M61.0831979,92.8512712 L61.1062621,92.8743733 C61.0601337,92.9205773 60.9909409,92.9924503 60.9422497,93.0129855 C60.9909409,92.9693483 61.0345067,92.9205773 61.0831979,92.8512712" id="Fill-210" fill="#FFFFFF"></path>
                                <path d="M60.5278621,93.3849282 C60.6662476,93.2668512 60.8046331,93.151341 60.9430185,93.0127288 C60.8046331,93.1770099 60.6662476,93.2899532 60.5278621,93.3849282" id="Fill-212" fill="#FFFFFF"></path>
                                <path d="M58.7239819,94.1716809 C58.9315601,94.1023748 59.1160741,94.0305018 59.3031507,93.9637626 C58.6317249,94.2384201 57.9167334,94.4720074 57.1299863,94.6799257 C57.6835282,94.5207783 58.2165685,94.3564972 58.7239819,94.1716809" id="Fill-214" fill="#FFFFFF"></path>
                                <path d="M54.4004611,95.3296063 C55.3717221,95.14479 56.2737903,94.9368717 57.1297301,94.6801824 C56.2737903,94.9368717 55.3717221,95.14479 54.4004611,95.3296063" id="Fill-216" fill="#FFFFFF"></path>
                                <path d="M33.4337812,24.4004533 L54.3556139,24.8419589 L54.5401279,24.8419589 C54.5631922,25.1422853 54.5862564,25.4451787 54.5862564,25.7429383 L54.5862564,34.7296301 C54.5862564,37.1142735 54.0070876,39.1061824 52.9922608,40.6565857 C52.8282484,40.9132749 52.6667987,41.1442953 52.4822847,41.3753156 C51.441831,42.7640047 50.0554136,43.785628 48.5280481,44.4530202 C45.6860206,45.6594598 42.3801455,45.6825618 39.5355553,44.5479952 C37.8262385,43.8523672 36.2988729,42.7178006 35.2122907,41.1442953 C34.9124555,40.7720958 34.6561862,40.3562592 34.448608,39.9173205 C33.6874879,38.4798605 33.2492672,36.7420741 33.2492672,34.7296301 L33.2697688,25.0267752 C33.292833,24.8188569 33.31846,24.6109385 33.3415242,24.4004533 L33.4337812,24.4004533 Z" id="Fill-218" fill="#FFFFFF"></path>
                                <path d="M50.540019,95.9312859 C51.5343443,95.8157758 52.5056052,95.6771635 53.4307377,95.5154493 C52.5056052,95.6771635 51.5343443,95.8157758 50.540019,95.9312859" id="Fill-220" fill="#FFFFFF"></path>
                                <path d="M33.4337812,24.4004533 C37.2726966,23.1760454 41.4088845,22.5497236 45.5015066,22.7807439 C48.5049838,22.9655602 51.5110238,23.6124172 54.3556139,24.8419589 L33.4337812,24.4004533 Z" id="Fill-224" fill="#FFFFFF"></path>
                                <path d="M43.8821404,96.3473793 C44.2998595,96.3473793 44.7150159,96.3473793 45.1301723,96.3242772 C44.7150159,96.3473793 44.2998595,96.3473793 43.8821404,96.3473793" id="Fill-228" fill="#FFFFFF"></path>
                                <path d="M35.1902516,41.1661139 L42.0557084,54.8527865 C41.5918609,57.0757157 41.1997687,59.8761958 40.853805,62.7254468 L24.1168513,92.8505012 C22.2896506,90.8842612 21.4106466,86.1586115 21.2261327,80.3677013 C20.972426,66.5937543 21.7130445,56.1028633 24.4166865,49.2261574 C20.603398,46.2382941 13.8763266,40.1701595 9.78370452,32.0433767 C5.78333939,24.563451 3.51791801,16.5290764 2.0161794,8.61021203 L1.78297426,7.42687443 C1.25249663,4.48778213 3.01050462,1.8490163 5.55269694,1.50248577 C8.11795351,1.15338834 10.4756319,3.05288904 10.959981,5.68908798 L11.1701219,6.78001744 C12.5360377,14.0058208 14.5913182,20.9980369 17.8049363,27.0199675 C23.4684898,37.4851896 31.0976295,39.5464045 35.1902516,41.1661139" id="Fill-238" fill="#FFFFFF"></path>
                                <path d="M40.0691082,96.3245339 C40.4842646,96.347636 40.899421,96.347636 41.3171401,96.347636 C40.899421,96.347636 40.4842646,96.347636 40.0691082,96.3245339" id="Fill-240" fill="#FFFFFF"></path>
                                <path d="M39.8138638,75.8776923 C39.9983778,76.4347081 43.3529441,80.0001222 43.9039233,80.0001222 C44.5061563,80.0001222 47.8581599,76.4347081 48.0196096,75.8776923 C48.1118666,75.646672 47.8350957,70.713104 47.2584895,65.2481891 L61.084223,92.8525547 C61.0355318,92.9218608 60.991966,92.9680648 60.9432748,93.0142689 C60.8048893,93.1528811 60.6665039,93.2683913 60.5281184,93.3839015 C60.3666687,93.4763096 60.2282832,93.5712847 60.0642708,93.6380239 C59.8336284,93.7561009 59.5799217,93.8459422 59.3031507,93.9640193 C59.1160741,94.0307585 58.9315601,94.1026315 58.7239819,94.1719376 C58.2165685,94.3567539 57.6835282,94.521035 57.1299863,94.6801824 C56.2740466,94.9368717 55.3719783,95.14479 54.4007174,95.3296063 C54.0778179,95.3963455 53.7549185,95.4451164 53.4294564,95.5144225 C52.5068866,95.6787037 51.5356256,95.814749 50.5413004,95.9302592 C48.8063566,96.1407444 46.9791559,96.2562546 45.1314536,96.3255607 C44.7162972,96.3486627 44.2985781,96.3486627 43.8834217,96.3486627 C43.0505462,96.3691979 42.1946065,96.3691979 41.3181651,96.3486627 C40.900446,96.3486627 40.4852896,96.3486627 40.0701332,96.3255607 C39.4217717,96.3024586 38.7734101,96.2793566 38.1250486,96.2331525 C37.410057,96.1843816 36.715567,96.1407444 36.0467039,96.0714383 C35.7212417,96.0457694 35.3983423,96.0226673 35.0985071,95.9764633 C33.9427322,95.837851 32.830523,95.7018057 31.7670051,95.5144225 L31.7234393,95.5144225 C30.4292789,95.2834022 29.2017485,95.0036109 28.0921021,94.6801824 C27.515496,94.521035 26.9824556,94.3567539 26.4724796,94.1719376 C25.9881304,94.0102233 25.5499098,93.8228402 25.1347534,93.6380239 C24.7657254,93.4763096 24.4171991,93.2221872 24.1173639,92.8730898 L24.1173639,92.8525547 L40.8543176,62.7249334 C40.113699,69.0933946 39.7216069,75.6030348 39.8138638,75.8776923" id="Fill-242" fill="#FFFFFF"></path>
                                <path d="M36.0456788,96.0714383 C36.7171046,96.1407444 37.4090319,96.1843816 38.1240235,96.2305856 C37.4320962,96.1843816 36.7401688,96.1407444 36.0456788,96.0714383" id="Fill-244" fill="#FFFFFF"></path>
                                <path d="M31.7675176,95.5149359 C32.8310356,95.6997522 33.940682,95.8383644 35.0990197,95.9769766 C33.940682,95.8640333 32.8310356,95.6997522 31.7675176,95.5149359" id="Fill-246" fill="#FFFFFF"></path>
                                <path d="M33.3412679,24.4004533 C34.0331953,19.3077379 38.5204722,15.3701243 43.930319,15.3701243 C46.8415392,15.3701243 49.547744,16.527793 51.464639,18.4041917 C53.1995827,20.072672 54.3322934,22.3418053 54.5398716,24.8419589 L54.3553577,24.8419589 C51.5107675,23.6124172 48.5047276,22.9655602 45.5012504,22.7807439 C41.4086282,22.5497236 37.2724403,23.1760454 33.4335249,24.4004533 L33.3412679,24.4004533 Z" id="Fill-248" fill="#FFFFFF"></path>
                                <path d="M28.0921021,94.6806957 C29.2017485,95.0041242 30.4292789,95.2839156 31.7234393,95.5149359 C30.4292789,95.2839156 29.2017485,95.0041242 28.0921021,94.6806957" id="Fill-250" fill="#FFFFFF"></path>
                                <path d="M26.4735046,94.1716809 C26.9834807,94.3564972 27.5139583,94.5207783 28.0931272,94.6799257 C27.5139583,94.5438804 26.9834807,94.3564972 26.4735046,94.1716809" id="Fill-252" fill="#FFFFFF"></path>
                                <path d="M60.5283747,94.475601 C60.182411,94.475601 59.8415727,94.308753 59.6314318,94.0032927 C59.2905935,93.5053155 59.4161655,92.8276558 59.9107655,92.4862591 C60.0004597,92.4272205 60.056839,92.3758827 60.1132183,92.3091435 C60.1772856,92.2347036 60.2516037,92.1679644 60.3310472,92.1114927 C60.7641425,91.7418601 61.4406937,91.7341595 61.8430366,92.1371616 C62.258193,92.5555652 62.2991961,93.1921546 61.8994159,93.6208257 C61.8199724,93.7055332 61.7456543,93.7748393 61.6738988,93.8313109 C61.5175745,93.9981589 61.3484367,94.1444718 61.1434212,94.283084 C60.9563446,94.4114287 60.7410783,94.475601 60.5283747,94.475601" id="Fill-254" fill="#333333"></path>
                                <path d="M54.3991797,96.420279 C53.886641,96.420279 53.4304815,96.0557802 53.3305364,95.534701 C53.2177779,94.9417487 53.6047446,94.3718985 54.1967269,94.2589553 C55.2038656,94.0664383 56.0623681,93.8636538 56.8183628,93.6352003 C57.6102352,93.427282 58.2765356,93.2065292 58.8890194,92.9549737 C59.445124,92.7265202 60.0806721,92.9934771 60.3087518,93.5504928 C60.5368316,94.1100755 60.2703114,94.744098 59.7142068,94.9725515 C59.0120287,95.2600435 58.2585967,95.5090321 57.4077823,95.7349186 C56.6107846,95.9736397 55.6856521,96.1943925 54.6041953,96.3997439 C54.5350025,96.4125783 54.4658098,96.420279 54.3991797,96.420279" id="Fill-256" fill="#333333"></path>
                                <path d="M50.5392502,97.021702 C49.9933964,97.021702 49.5244235,96.6109992 49.4577934,96.0565503 C49.3886007,95.4584643 49.8191333,94.9168499 50.4136782,94.8475438 C51.3875019,94.7346005 52.3382613,94.6011221 53.2403296,94.4419747 C53.8425626,94.339299 54.3986672,94.7346005 54.501175,95.3275527 C54.6062454,95.920505 54.2090279,96.4852214 53.6170456,96.5878971 C52.6739742,96.7547452 51.6822117,96.8959243 50.6648222,97.0140013 C50.6238191,97.0191351 50.5802533,97.021702 50.5392502,97.021702" id="Fill-258" fill="#333333"></path>
                                <path d="M41.3171401,97.4365119 C40.8789194,97.4365119 40.4458242,97.4365119 40.0101662,97.4134099 C39.4104958,97.3800403 38.9492109,96.8666617 38.982526,96.2660088 C39.015841,95.6627889 39.4873766,95.1930476 40.1280501,95.2366847 C40.522705,95.2572199 40.9276106,95.2649206 41.3171401,95.2572199 C41.9168104,95.2572199 42.4037223,95.7449295 42.4037223,96.3481493 C42.4037223,96.9488023 41.9168104,97.4365119 41.3171401,97.4365119" id="Fill-260" fill="#333333"></path>
                                <path d="M24.1163388,93.9406605 C23.8241917,93.9406605 23.5346073,93.8251504 23.319341,93.59413 C21.4229475,91.5508833 20.3517415,87.1127256 20.1390379,80.4028677 C19.8648297,65.617565 20.7848368,56.0481885 23.1168882,49.5847523 C19.2523458,46.4711113 12.8199842,40.4953848 8.81193101,32.5354501 C5.25491191,25.8820639 2.7537227,18.3379658 0.947023516,8.81479339 L0.716381068,7.63658958 C0.390918946,5.83463081 0.780448414,4.01727068 1.78502441,2.63371544 C2.67684188,1.40417377 3.96075151,0.618704562 5.40354816,0.421053813 C8.53003468,-0.00248350475 11.4284414,2.22814637 12.0306745,5.49323406 L12.2382527,6.57389594 C13.7528048,14.5954361 15.8875288,21.1153439 18.7628713,26.5058188 C23.729372,35.6798938 30.1540456,38.0979069 34.4055547,39.699648 C34.8258365,39.8562285 35.2204914,40.0076751 35.5895193,40.153988 C36.1481865,40.3747408 36.4223948,41.0061965 36.2020031,41.568346 C35.9816114,42.1253617 35.348626,42.4051531 34.7899588,42.1792665 C34.4311816,42.0380874 34.0467776,41.8943414 33.6393092,41.7403278 C29.3621732,40.1283191 22.2020065,37.4356485 16.848539,27.5377097 C13.8630006,21.9444503 11.6565212,15.2217579 10.100966,6.9820319 L9.89338782,5.89623623 C9.50129566,3.76828207 7.65615607,2.31285383 5.69825795,2.58237758 C4.85000628,2.69788776 4.08376081,3.17019604 3.5455951,3.91459496 C2.88954547,4.82070814 2.63840147,6.02971466 2.85623045,7.2335874 L3.0843102,8.39895675 C4.85000628,17.7065102 7.28200277,25.0529575 10.7416395,31.5292281 C14.7983839,39.5815709 21.469076,45.5341954 25.0875998,48.3680451 C25.4668785,48.6658047 25.6052639,49.1766164 25.4284381,49.6258226 C22.9964416,55.8120343 22.0354314,65.2890027 22.314765,80.348963 C22.5069671,86.3272564 23.4295368,90.5087248 24.9133366,92.1078991 C25.3233676,92.5494046 25.2977407,93.2398988 24.8569573,93.6506017 C24.6468164,93.8456855 24.382859,93.9406605 24.1163388,93.9406605" id="Fill-262" fill="#333333"></path>
                                <path d="M42.6195011,97.4542235 C42.1838431,97.4542235 41.7404971,97.4490897 41.2869003,97.4362552 C40.8819947,97.4439559 40.4463367,97.4362552 40.0106787,97.4131532 C39.3700053,97.3900511 38.7088302,97.3669491 38.0450925,97.3181781 C37.245532,97.2642734 36.5920451,97.2206362 35.9385582,97.1564639 C35.5695303,97.1282281 35.2363801,97.1025591 34.9262941,97.0537882 C33.9242808,96.9562462 32.8069463,96.8022327 31.5819786,96.5891806 C30.1853104,96.3478926 28.9270277,96.0578338 27.7891917,95.7267046 C27.2202736,95.5932262 26.6487929,95.3955754 26.1029391,95.1953578 C25.6083392,95.0310766 25.1368035,94.8334259 24.6934575,94.6332082 C24.1629798,94.399621 23.6888815,94.0479567 23.2916639,93.585916 C22.8995718,93.129009 22.9508256,92.4410817 23.4044224,92.0483471 C23.8631447,91.6530456 24.5473839,91.7069504 24.9420388,92.1612904 C25.12399,92.3743425 25.3366936,92.5360568 25.5724615,92.6412994 C25.9619909,92.8132812 26.3694593,92.9878299 26.8179307,93.1367097 C27.317656,93.3189591 27.8096932,93.4909409 28.3452962,93.6192856 C29.4600681,93.9427141 30.6440326,94.2148047 31.9125661,94.4432582 C32.9914602,94.6229407 34.0754797,94.782088 35.203065,94.8924644 C35.5234018,94.9412354 35.7950473,94.9592036 36.0692556,94.9797388 C36.7842472,95.0490449 37.4146698,95.0901152 38.0450925,95.1337523 C38.8395276,95.1927909 39.472513,95.213326 40.1080611,95.2338612 C40.5232175,95.2569632 40.912747,95.2466956 41.3176526,95.2569632 C42.2043447,95.2800652 43.0397829,95.2800652 43.8521568,95.2569632 C44.2801267,95.2569632 44.6773443,95.2569632 45.0719991,95.236428 C47.1247169,95.1619882 48.8673488,95.0336435 50.4100905,94.8488272 C51.3890395,94.7358839 52.3397989,94.5998386 53.2418672,94.4432582 C53.3828154,94.4098886 53.5673293,94.3765189 53.7492806,94.3431493 L54.1772505,94.2635757 C55.202328,94.0659249 56.0608305,93.8631404 56.8193878,93.6346869 C57.3549909,93.4806733 57.8649669,93.3240929 58.3493161,93.1469773 L59.1719408,92.8389501 C59.312889,92.7824785 59.4461491,92.7311406 59.5691584,92.6669683 C59.7075438,92.6053629 59.7639231,92.5694264 59.8254277,92.5334899 C59.8279904,92.530923 59.8613055,92.5129547 59.8971832,92.4924196 C60.0201925,92.387177 60.0970733,92.3204378 60.1739541,92.243431 C61.7730751,90.5082114 62.7212718,86.2163666 62.8852842,80.338182 C63.1620552,65.2320177 62.201045,55.7576162 59.7716112,49.6278761 C59.5922226,49.1786699 59.7306081,48.6652913 60.1124495,48.3675317 C63.7437867,45.5234145 70.4375431,39.5553886 74.4686605,31.5543837 C77.9077957,25.078113 80.3423549,17.7290988 82.1362406,8.40357716 L82.3694457,7.21767267 C82.5744612,6.02920128 82.3156292,4.81506097 81.6518914,3.9089478 C81.111163,3.16968266 80.3449176,2.69737438 79.4992286,2.5818642 C77.5541439,2.31747424 75.6961909,3.79857141 75.3322884,5.87775461 L75.0913951,7.00718745 C73.5307146,15.2854169 71.3242351,22.0081092 68.3515103,27.5371964 C62.6879568,37.9972847 57.6855784,40.6668532 53.0445398,42.5047485 C52.4858725,42.7255013 51.8528871,42.4508437 51.6324954,41.8912611 C51.4121038,41.3316785 51.686312,40.7002228 52.2449793,40.4769032 C55.6021082,39.1472527 60.6788048,37.1373756 66.4371779,26.5001717 C69.299707,21.173869 71.434431,14.6565281 72.9592338,6.57594946 L73.1975644,5.46191797 C73.761357,2.23019988 76.6597638,-0.00813066899 79.7913757,0.423107328 C81.229047,0.618191183 82.5155193,1.39852661 83.4098994,2.62293449 C84.4196008,4.00392284 84.8193811,5.82128296 84.5092951,7.61297416 L84.2735273,8.8194138 C82.4386385,18.3605545 79.9348866,25.9046525 76.4009317,32.5554719 C72.41338,40.4717694 65.9605169,46.4603304 62.083161,49.5842389 C64.4126498,55.9963372 65.3326569,65.5657137 65.0610113,80.3895199 C64.9328766,84.9945256 64.2742643,91.0138893 61.8807082,93.5936166 C61.8781455,93.6192856 61.7756378,93.7245282 61.6961943,93.7989681 C61.5783104,93.919612 61.4399249,94.0376891 61.3041021,94.1531993 C61.2502855,94.1994033 61.1195882,94.3020791 61.0555208,94.3380156 C60.7864379,94.4971629 60.6429271,94.5767366 60.4840401,94.6434758 C60.3815323,94.6999474 60.1867676,94.7795211 59.9843148,94.8616617 L59.7280454,94.9669043 C59.7101065,94.974605 59.5589076,95.0310766 59.5435314,95.0362104 L59.0694331,95.2056253 C58.5671451,95.3904416 58.0110405,95.5598565 57.4318717,95.7267046 C56.6118096,95.9731263 55.6841145,96.1938791 54.6052203,96.4017974 L53.6595863,96.5814799 C52.6755118,96.7560286 51.6811866,96.8972077 50.6663599,97.0152848 C49.0646762,97.2078017 47.2656651,97.3361464 45.1693815,97.4131532 C44.7542251,97.4362552 44.3185671,97.4362552 43.8829092,97.4362552 C43.4728782,97.4490897 43.0525964,97.4542235 42.6195011,97.4542235" id="Fill-264" fill="#333333"></path>
                                <path d="M43.9292939,16.4610538 C39.1344937,16.4610538 35.046997,19.9366267 34.419137,24.5467662 L34.3525069,25.1448522 L34.3371308,34.732197 C34.3371308,36.4879517 34.6984706,38.0640239 35.4108995,39.4065088 C35.6107896,39.8249124 35.8209305,40.1637422 36.0592611,40.4589349 C37.0202713,41.845057 38.3477467,42.8897824 39.9468677,43.5392063 C42.5480019,44.576231 45.5232895,44.5454283 48.1039222,43.4493651 C49.52878,42.8256101 50.7434969,41.8809935 51.6096875,40.720758 C51.7942014,40.4897376 51.9351496,40.2920869 52.0760977,40.0713341 C53.0217318,38.6236065 53.4983928,36.8319153 53.4983928,34.7296301 L53.4983928,25.7429383 C53.4983928,25.4734145 53.4753286,25.2013239 53.4548271,24.9266663 C53.2728758,22.755075 52.2990521,20.7169621 50.7101819,19.1896609 C48.9342351,17.4544413 46.4663609,16.4610538 43.9292939,16.4610538 M43.9139178,46.4731648 C42.2840445,46.4731648 40.6567339,46.1702715 39.1344937,45.5619179 C37.1355925,44.7482128 35.4724042,43.4339637 34.3191919,41.7629165 C34.0219194,41.4035515 33.7195215,40.9158418 33.4658149,40.3870619 C32.6073124,38.7673525 32.1614037,36.8498836 32.1614037,34.7296301 L32.258786,24.2849431 C33.037845,18.5684728 38.0530369,14.2817618 43.9292939,14.2817618 C47.0275908,14.2817618 50.0515696,15.498469 52.224734,17.6238562 C54.1903202,19.5156562 55.3999117,22.0491795 55.6254288,24.7521176 L55.6254288,24.7598183 C55.6510557,25.0883806 55.6741199,25.4195098 55.6741199,25.7429383 L55.6741199,34.7296301 C55.6741199,37.2631533 55.0770123,39.4578467 53.9007358,41.2546717 C53.7239099,41.534463 53.539396,41.7962861 53.3266924,42.0581091 C52.2631744,43.4878685 50.7460596,44.6712061 48.9649874,45.4515415 C47.3633037,46.1317681 45.6386107,46.4731648 43.9139178,46.4731648" id="Fill-266" fill="#333333"></path>
                                <path d="M54.3543326,25.9318616 C54.2108217,25.9318616 54.0647482,25.9036258 53.9238,25.8420203 C51.3226658,24.7202882 48.4678248,24.0554629 45.4361579,23.8680797 C41.676686,23.6550276 37.6430059,24.1992089 33.76565,25.4390182 C33.1941693,25.6212676 32.5791228,25.3055397 32.3971715,24.7305557 C32.2152202,24.1581386 32.5304316,23.5446512 33.104475,23.3624019 C37.2329748,22.0430189 41.5485513,21.4680349 45.5617299,21.6939215 C48.8522289,21.896706 51.9530884,22.6180029 54.7874279,23.8398439 C55.338407,24.078565 55.5921137,24.7202882 55.3537832,25.2721701 C55.1769573,25.6854399 54.7771771,25.9318616 54.3543326,25.9318616" id="Fill-268" fill="#333333"></path>
                            </g>
                        </g>
                    </g>
                </g>
            </g>
        </g>
    </g>
</svg>