<?xml version="1.0" encoding="UTF-8" standalone="no"?>
<svg width="193px" height="193px" viewBox="0 0 193 193" version="1.1" xmlns="http://www.w3.org/2000/svg" xmlns:xlink="http://www.w3.org/1999/xlink">
    <!-- Generator: Sketch 41 (35326) - http://www.bohemiancoding.com/sketch -->
    <title>Group 29</title>
    <desc>Created with Sketch.</desc>
    <defs>
        <rect id="path-1" x="0.0449172577" y="0" width="170.571865" height="170.571865" rx="5.76"></rect>
        <filter x="-50%" y="-50%" width="200%" height="200%" filterUnits="objectBoundingBox" id="filter-2">
            <feMorphology radius="2" operator="dilate" in="SourceAlpha" result="shadowSpreadOuter1"></feMorphology>
            <feOffset dx="0" dy="3" in="shadowSpreadOuter1" result="shadowOffsetOuter1"></feOffset>
            <feGaussianBlur stdDeviation="3.5" in="shadowOffsetOuter1" result="shadowBlurOuter1"></feGaussianBlur>
            <feColorMatrix values="0 0 0 0 0   0 0 0 0 0   0 0 0 0 0  0 0 0 0.05 0" type="matrix" in="shadowBlurOuter1"></feColorMatrix>
        </filter>
    </defs>
    <g id="LANDING" stroke="none" stroke-width="1" fill="none" fill-rule="evenodd">
        <g id="01.-Landing-" transform="translate(-635.000000, -3866.000000)">
            <g id="Group-29" transform="translate(646.000000, 3874.000000)">
                <g id="Rectangle-2">
                    <use fill="black" fill-opacity="1" filter="url(#filter-2)" xlink:href="#path-1"></use>
                    <use fill="#FFFFFF" fill-rule="evenodd" xlink:href="#path-1"></use>
                </g>
                <text id="INNOVATION" font-family="Roboto-Regular, Roboto" font-size="14" font-weight="normal" line-spacing="20.16" fill="#333333">
                    <tspan x="44.5032128" y="112.766945">INNOVATION</tspan>
                </text>
                <g id="Page-1" transform="translate(73.477323, 47.620253)" stroke="#FF3E00" stroke-width="2.16" stroke-linejoin="round">
                    <path d="M15.618764,22.7545867 L15.618764,29.2851824 C15.618764,31.4425242 13.8714147,33.1898734 11.714073,33.1898734 C9.5567312,33.1898734 7.80938198,31.4425242 7.80938198,29.2851824 L7.80938198,22.7545867 C3.26041698,21.1536634 0,16.8194564 0,11.714073 C0,5.24204765 5.24204765,0 11.714073,0 C18.1860983,0 23.4281459,5.24204765 23.4281459,11.714073 C23.4281459,16.8194564 20.167729,21.1536634 15.618764,22.7545867 Z" id="Stroke-1"></path>
                    <path d="M11.514854,24.4043187 L11.514854,17.5711095" id="Stroke-3"></path>
                    <path d="M7.80938198,25.0617412 L14.6425912,25.0617412" id="Stroke-5"></path>
                    <path d="M7.80938198,29.1258073 L14.6425912,29.1258073" id="Stroke-7"></path>
                    <path d="M8.78555473,14.6425912 L11.714073,17.5711095" id="Stroke-9"></path>
                    <path d="M14.6425912,14.6425912 L11.714073,17.5711095" id="Stroke-11"></path>
                </g>
            </g>
        </g>
    </g>
</svg>