<?xml version="1.0" encoding="UTF-8" standalone="no"?>
<svg width="320px" height="259px" viewBox="0 0 320 259" version="1.1" xmlns="http://www.w3.org/2000/svg" xmlns:xlink="http://www.w3.org/1999/xlink">
    <!-- Generator: Sketch 41 (35326) - http://www.bohemiancoding.com/sketch -->
    <title>Group 42</title>
    <desc>Created with Sketch.</desc>
    <defs></defs>
    <g id="LANDING" stroke="none" stroke-width="1" fill="none" fill-rule="evenodd">
        <g id="01.-Landing-" transform="translate(-92.000000, -1140.000000)">
            <g id="Group-42" transform="translate(92.000000, 1140.000000)">
                <rect id="Rectangle-3" fill="#FFFFFF" x="2.84217094e-14" y="0" width="320" height="259"></rect>
                <g id="Group-41" transform="translate(69.000000, 82.000000)">
                    <g id="Page-1" transform="translate(58.500000, 53.000000) scale(-1, 1) translate(-58.500000, -53.000000) " stroke="#333333" stroke-width="2.4">
                        <polygon id="Stroke-1" fill="#D8D8D8" points="92.0112281 87.8002122 116.083243 87.8002122 116.083243 6.70708367 109.61447 6.70708367"></polygon>
                        <polyline id="Stroke-3" fill="#D8D8D8" points="6.80675157 6.70708367 0.292669173 6.70708367 0.292669173 87.8002122 84.8432978 87.8002122"></polyline>
                        <path d="M49.8094543,0.294781913 L6.77956599,0.294781913 L6.77956599,80.7302445 L49.8094543,80.7302445 C54.4623703,80.7302445 58.2276889,84.5214271 58.2276889,89.1972578 L58.2276889,8.76063122 C58.2276889,4.08596453 54.4623703,0.294781913 49.8094543,0.294781913 Z" id="Stroke-5" fill="#FFFFFF"></path>
                        <path d="M84.3961299,80.7303609 L66.6476661,80.7303609 C62.0063678,80.7303609 58.2433728,84.5215435 58.2433728,89.1973742 L58.2433728,8.76074763 C58.2433728,4.08608094 62.0063678,0.294898314 66.6476661,0.294898314 L109.59623,0.294898314 L109.59623,80.7303609 L92.1021953,80.7303609" id="Stroke-7" fill="#FFFFFF"></path>
                        <path d="M84.6753049,20.2182207 L84.6753049,25.2188103 L92.0932496,25.2188103 L92.0932496,20.2182207 C92.0932496,19.8888056 91.7296135,19.6269033 91.2788441,19.6269033 L85.4943575,19.6269033 C85.0401028,19.6269033 84.6753049,19.8888056 84.6753049,20.2182207 Z" id="Stroke-9" stroke-linecap="round" stroke-linejoin="round"></path>
                        <polyline id="Stroke-11" stroke-linecap="round" stroke-linejoin="round" points="92.0929011 95.8283935 92.0929011 25.2183447 84.6749563 25.2183447 84.6749563 95.8283935"></polyline>
                        <path d="M88.3875302,95.1992458 C87.06659,95.1992458 85.8141946,95.3924716 84.6826241,95.7335267 L88.3875302,105.372699 L92.088951,95.7335267 C90.9538951,95.3924716 89.7084704,95.1992458 88.3875302,95.1992458 Z" id="Stroke-13" stroke-linecap="round" stroke-linejoin="round"></path>
                        <polygon id="Stroke-15" stroke-linecap="round" stroke-linejoin="round" points="84.6464928 31.465939 92.1655121 31.465939 92.1655121 25.0638805 84.6464928 25.0638805"></polygon>
                        <path d="M89.5900853,102.223002 C89.2183168,102.193902 88.8407393,102.165966 88.4515441,102.165966 C88.0158778,102.165966 87.588344,102.193902 87.1735896,102.238134 L88.3876464,105.372815 L89.5900853,102.223002 Z" id="Stroke-17"></path>
                        <path d="M29.1302924,19.435939 L49.232516,19.435939" id="Stroke-18"></path>
                        <path d="M15.3725318,29.030413 L49.232516,29.030413" id="Stroke-19"></path>
                        <path d="M15.3725318,35.7285958 L49.232516,35.7285958" id="Stroke-20"></path>
                        <path d="M25.0536177,42.4245669 L49.232516,42.4245669" id="Stroke-21"></path>
                    </g>
                    <g id="Group-21" transform="translate(86.209302, 37.075829)">
                        <path d="M63.8655439,83.3390205 C61.7831924,83.3956243 59.844333,84.4552204 58.6682472,86.183708 L48.4768771,101.15335 C47.102374,102.905998 45.8713631,103.460301 44.9149781,103.082712 C43.9565334,102.703743 44.3252188,100.592144 44.4796959,99.5705135 C45.2459024,94.4941165 46.3389138,91.5741873 45.4559913,86.2927739 C45.3351558,85.5721105 45.2136338,84.8521375 44.7055758,84.3288972 C44.1995774,83.8042763 43.5006543,83.5115931 42.7749551,83.5198766 C33.5914623,83.6165173 24.0928362,83.0435761 14.9869252,78.6823201 C8.90945224,75.7782676 5.54116458,70.1510186 3.71215554,63.5677172 C-0.968157746,46.7239364 -1.84558776,22.092297 13.1579162,9.82169139 C18.0167363,5.85113988 24.9839975,3.57939353 31.0401869,2.31340058 C39.6057713,0.514503283 48.3910564,0.695359419 57.1001329,0.695359419 C85.386609,0.695359419 105.888125,6.46342764 105.888125,47.5081065 C105.888125,76.4119543 89.0116719,82.651491 63.8655439,83.3390205 Z" id="Fill-73" fill="#FFFFFF"></path>
                        <path d="M45.8134144,102.493657 C45.8511755,102.501941 45.8903097,102.505392 45.9315036,102.505392 C46.1306074,102.505392 46.8693513,102.388733 48.050243,100.893564 L58.2203297,85.9536045 C59.5845342,83.9510714 61.8412732,82.7154513 64.2572953,82.6498737 C78.5426523,82.2591692 87.7522346,80.0571422 94.1180648,75.510198 C101.613294,70.1563042 105.256895,61.1169488 105.256895,47.8751043 C105.256895,9.60608394 87.7536077,2.11919213 57.52072,2.11919213 L53.1459281,2.11366981 C45.8484292,2.11366981 38.7157059,2.23654153 31.6756689,3.71514399 C26.4591484,4.80511284 19.2007837,6.95605834 14.2410385,11.0094447 C-0.0271543914,22.6774267 0.423918783,46.6588123 5.1447394,63.6503153 C7.15431502,70.8859413 10.6592291,75.6109805 15.8578989,78.094646 C24.5875723,82.2757362 33.6948564,82.8397036 41.4509807,82.8390133 C42.029755,82.8390133 42.6085292,82.8355618 43.1845572,82.8300395 L43.1852438,82.8300395 C44.2205837,82.8300395 45.1879537,83.2414527 45.8806978,83.9600452 C46.6166954,84.7179843 46.7807844,85.6975066 46.9126049,86.4851282 C47.6225131,90.7311057 47.0966043,93.5923602 46.4876212,96.9043745 C46.3036218,97.9066764 46.1134433,98.9421123 45.9390558,100.095588 L45.9170857,100.236407 C45.7344594,101.433371 45.6994446,102.192 45.8134144,102.493657 M45.9315036,104.619062 C45.5930271,104.619062 45.2627893,104.556246 44.9504023,104.433374 C43.2518406,103.761721 43.6335707,101.259418 43.8395402,99.9154221 L43.8601371,99.7787445 C44.0393306,98.5907544 44.2329419,97.5380612 44.4203741,96.5205729 C45.0169991,93.2762071 45.4872961,90.7145387 44.8391787,86.8351055 C44.7396268,86.2380042 44.6531196,85.7216668 44.3730011,85.4338156 C44.0722857,85.121114 43.6541676,84.9437093 43.2250645,84.9437093 C42.6236336,84.9499219 42.0373072,84.9533734 41.4509807,84.9533734 C33.4600512,84.9533734 24.0616636,84.3652458 14.955066,80.0032995 C9.25520378,77.2801031 5.27312705,71.9690073 3.11937279,64.2191147 C-2.00652115,45.7676471 -2.12598345,21.6696024 12.914595,9.36931426 C18.2025182,5.04740484 25.8027923,2.78394197 31.2465658,1.64565278 C38.4815873,0.125632889 45.7344594,0 53.1459281,0 L57.52072,0.00483203417 C69.7800238,0.00483203417 83.6005763,0.982283518 93.1548142,8.23309594 C102.713171,15.4866695 107.359843,28.4537784 107.359843,47.8751043 C107.359843,77.5134213 90.1517791,84.0559956 64.3142802,84.7628532 C62.5690321,84.8104832 60.9398135,85.7016484 59.9559659,87.1484975 L49.7220287,102.174743 C48.4505104,103.796926 47.1748727,104.619062 45.9315036,104.619062" id="Fill-75" fill="#333333"></path>
                        <path d="M45.9998519,20.7540834 L48.9198126,24.5216895 C48.9198126,24.5216895 52.9101281,20.9038764 57.3096364,21.4416128 C61.5471152,21.9579502 63.1680951,27.3753508 59.6700467,30.3442906 C56.1706251,33.3111596 54.4075263,33.2096869 54.5050185,38.2826325 C54.6031973,43.3562684 54.3333773,51.9828299 54.3333773,51.9828299 C55.2465087,53.9784601 58.3916627,53.9784601 59.1153022,51.9828299 C59.1153022,51.9828299 58.5708562,38.2847034 59.6164946,36.3684567 C60.6635061,34.4529003 63.663795,35.2791781 67.1604703,32.2398286 C70.6578322,29.20255 71.5537994,19.3859274 63.663795,16.2747877 C59.8300163,14.7651222 52.2228766,13.771794 45.9998519,20.7540834" id="Fill-93" fill="#FF3E00"></path>
                        <path d="M55.7571785,52.0969216 C56.0887894,52.6029046 56.6819815,52.7892831 57.1598307,52.7892831 C57.6150233,52.7892831 58.1608425,52.6174007 58.4196774,52.1473128 C58.2837376,48.6026706 57.9843953,38.1958496 59.0602425,36.2271408 C59.7612254,34.94251 61.0059676,34.555257 62.3234858,34.144534 C63.6561083,33.7303597 65.1665512,33.2595815 66.8383369,31.8072101 C68.5197345,30.3465552 69.4108958,27.0303992 68.9110765,24.093903 C68.6124207,22.3357328 67.5303944,19.1576349 63.6444367,17.6251898 C62.6818727,17.2462203 60.692894,16.6097723 58.1999767,16.6097723 C55.4290005,16.6097723 51.4290731,17.4243152 47.7463387,21.1850184 L49.4620645,23.3987803 C50.8235228,22.3992396 53.6068571,20.6969829 56.7678022,20.6969829 C57.1158906,20.6969829 57.4626059,20.7176917 57.8010824,20.7597994 C60.1635524,21.0476506 62.0550389,22.6539568 62.7374844,24.9512439 C63.446706,27.3403396 62.6708876,29.8557586 60.7128044,31.5186686 C59.9356129,32.1778961 59.2511076,32.6824986 58.647617,33.1284263 C56.5583998,34.6712258 55.8546708,35.1910146 55.9198944,38.6293521 C56.0084613,43.1507555 55.8018053,50.5555027 55.7571785,52.0969216 M57.1598307,54.9029529 C55.6487013,54.9029529 54.3394219,54.0946226 53.742797,52.7913539 C53.674827,52.6429414 53.6418719,52.4800329 53.6473644,52.316434 C53.6501107,52.2301477 53.9151248,43.658119 53.8190057,38.6707695 C53.7359313,34.3378154 54.9902855,33.2064291 57.4028747,31.4254794 C57.9795893,30.9995701 58.6338857,30.5156764 59.3568386,29.9026983 C60.9215201,28.5752695 61.089042,26.7867266 60.7231029,25.5566287 C60.2837013,24.0766457 59.0664216,23.0425904 57.5470534,22.8575925 C57.2930243,22.8265294 57.0307565,22.8106528 56.7678022,22.8106528 C53.2072763,22.8106528 50.0195552,25.6456762 49.9872867,25.6746684 C49.7703322,25.8700207 49.4867808,25.9666614 49.1908713,25.9404303 C48.9018275,25.9141993 48.6340672,25.768548 48.4548737,25.5379909 L45.534913,21.7703848 C45.2225259,21.3665648 45.2424363,20.7963848 45.5815994,20.4160347 C49.9412868,15.5232549 54.8502262,14.4961025 58.1999767,14.4961025 C60.3036117,14.4961025 62.5095449,14.9088963 64.4113298,15.6571713 C68.0048108,17.0743379 70.338445,19.9438759 70.9838161,23.737713 C71.6072171,27.4045367 70.4421163,31.4703483 68.2128399,33.4059231 C66.2087568,35.1475263 64.3234495,35.7349636 62.9462002,36.1643243 C61.7955173,36.5225852 61.1817282,36.7331238 60.9022963,37.2439388 C60.3448056,38.2897291 60.2740894,45.8774033 60.5301781,52.3074602 C60.5356706,52.444828 60.5143871,52.5821959 60.4670141,52.7119705 C59.984359,54.0428508 58.6867512,54.9029529 57.1598307,54.9029529" id="Fill-95" fill="#333333"></path>
                        <path d="M57.2643231,66.3175982 C55.0110169,66.3175982 53.5534395,65.4416194 53.5520664,64.0845081 L53.5520664,59.9828014 C53.5520664,58.7313045 54.9396141,57.9844101 57.2636365,57.9844101 C59.5876589,57.9844101 60.9745201,58.7313045 60.9745201,59.9828014 L60.9745201,64.0838178 C60.9745201,65.4409291 59.5183158,66.3175982 57.2643231,66.3175982 L57.2643231,66.3175982 Z" id="Path" fill="#FF3E00"></path>
                        <path d="M55.6550148,63.908484 C55.8747156,64.0334266 56.4479973,64.2039283 57.2643231,64.2039283 C58.0785891,64.2039283 58.6518708,64.0341169 58.8722582,63.908484 L58.8722582,60.3162117 C58.6044979,60.2181904 58.0559325,60.0973896 57.2636365,60.0973896 C56.4713405,60.0973896 55.9227751,60.2181904 55.6550148,60.3162117 L55.6550148,63.908484 Z M57.2643231,66.3175982 C55.0110169,66.3175982 53.5534395,65.4416194 53.5520664,64.0845081 L53.5520664,59.9828014 C53.5520664,58.7313045 54.9396141,57.9844101 57.2636365,57.9844101 C59.5876589,57.9844101 60.9745201,58.7313045 60.9745201,59.9828014 L60.9745201,64.0838178 C60.9745201,65.4409291 59.5183158,66.3175982 57.2643231,66.3175982 L57.2643231,66.3175982 Z" id="Fill-99" fill="#424873"></path>
                        <path d="M15.4681634,19.7888173 C15.2436567,19.7888173 15.0170902,19.7163368 14.8255386,19.5679243 C14.3669132,19.2103537 14.2824657,18.5462942 14.6374198,18.0851801 C17.075412,14.9174365 19.7852838,12.9404443 22.6928864,12.2094265 C23.2565562,12.0679169 23.8270917,12.4109914 23.9678375,12.97772 C24.1085833,13.5437582 23.766674,14.11808 23.2036907,14.2595896 C20.765012,14.8732579 18.4423628,16.595533 16.3002801,19.3780944 C16.0929375,19.647998 15.7819236,19.7888173 15.4681634,19.7888173" id="Fill-119" fill="#333333"></path>
                        <path d="M27.2524838,11.7581413 C26.6716499,11.7581413 26.2013529,11.2846019 26.2013529,10.7013064 C26.2013529,10.1173205 26.6716499,9.64378118 27.2524838,9.64378118 C27.4028416,9.64378118 27.6067513,9.5692298 27.8422431,9.48294347 C28.1930778,9.35523971 28.6297331,9.19509229 29.1480897,9.19509229 C29.7289236,9.19509229 30.1992206,9.66863164 30.1992206,10.2519272 C30.1992206,10.835913 29.7289236,11.3094524 29.1480897,11.3094524 C28.9997916,11.3094524 28.7965684,11.3833135 28.5617632,11.4695998 C28.2109285,11.5979939 27.7729001,11.7581413 27.2524838,11.7581413" id="Fill-121" fill="#333333"></path>
                    </g>
                </g>
                <path d="M248.636513,44.4652693 C247.746768,44.9886489 246.836742,45.4852053 245.917557,45.9686771 C245.710167,45.843066 245.498853,45.7226887 245.283613,45.6062368 C246.98198,43.8502983 248.319869,41.8280905 248.914559,39.4813874 C250.20011,34.4124562 246.673186,29.7903604 242.579049,27.1538358 C247.151424,28.1855478 251.804268,30.255514 254.445372,34.277686 C257.405738,38.7879094 252.016891,42.476427 248.636513,44.4652693 M164.593531,55.0192183 C164.785218,55.9554135 165.142425,56.8974968 165.710292,57.8382715 C166.071424,58.4362327 166.489473,58.9687714 166.955281,59.4417757 C165.53038,58.2929575 164.777368,56.7391744 164.593531,55.0192183 M242.910741,44.5470474 C238.250046,42.8342877 232.555676,42.5725979 228.54528,42.4339024 C219.067531,42.1048275 209.283604,43.231402 200.053805,45.344547 C195.130766,46.4717757 190.167165,48.0922897 185.888537,50.8302191 C182.998173,52.6797117 178.506268,56.5507578 178.224297,60.2863795 C172.153749,60.1516092 165.447948,58.422494 167.224167,51.3666832 C168.189148,47.5309651 171.829253,44.5745248 174.883827,42.3796017 C178.558606,39.7384976 182.645546,37.6678772 186.769777,35.8308149 C193.786335,32.7055846 201.333468,30.4589778 208.812562,28.7664991 C216.007068,27.1387887 223.641214,25.9147347 231.171337,25.9611846 C232.109495,26.0979176 233.043728,26.2588568 233.97011,26.4564326 C239.275216,27.5888951 246.4586,30.8888033 246.683653,37.2328179 C246.784404,40.080657 245.12987,42.5196058 242.910741,44.5470474 M211.280297,57.4130256 C204.480942,59.0780269 197.596538,60.5173207 190.646057,61.4037948 C196.826516,60.1444128 202.846035,58.2988456 208.974156,56.7450625 C210.525976,56.3518736 209.867172,53.9554494 208.313389,54.3492925 C200.337738,56.3708461 192.533495,58.9288637 184.332791,59.9592672 C183.340333,60.0835699 182.126746,60.1967507 180.810447,60.2549767 C180.85428,59.9723517 180.972694,59.6413142 181.180083,59.2468168 C182.406754,56.9118897 184.555882,54.8007074 186.689962,53.2809439 C190.973169,50.2316037 196.316221,48.7478226 201.373376,47.5898453 C206.838767,46.3383139 212.431732,45.6716592 218.014883,45.2267866 C225.189109,44.6556486 233.397663,44.2375992 240.449549,46.5071039 C238.760341,47.6991008 236.999169,48.6974474 235.549407,49.4988723 C233.357755,50.7111502 231.092176,51.7952002 228.779493,52.7791538 C222.935306,54.5658408 216.989714,56.014948 211.280297,57.4130256 M218.073764,73.43302 C211.614605,74.4771623 204.348134,75.55467 197.834021,74.39473 C196.378372,74.1350029 194.769634,73.9145292 195.863497,72.5903789 C198.065617,69.9270311 201.913765,68.1357646 204.980115,66.7278735 C211.541987,63.7151699 219.893816,62.2955028 227.037293,63.5228279 C229.847841,64.0056455 232.83045,65.1106306 234.172265,67.8079981 C234.285446,68.0369767 234.377691,68.2738059 234.455544,68.5139063 C229.218477,70.9005171 223.814583,72.5053297 218.073764,73.43302 M250.449369,27.4325355 C244.924444,24.2870242 238.246121,23.3992417 231.658734,23.4535423 C227.55871,22.8791332 223.323261,22.9282 219.363894,23.1741884 C210.15961,23.7453264 201.017478,25.8414616 192.322835,28.8659413 C184.480646,31.5947115 176.735937,35.2151897 170.240796,40.4522565 C165.806463,44.0269389 161.712326,49.1096088 162.015886,55.1265111 C162.508517,64.8816521 175.346364,65.2781121 184.418495,64.5591194 C184.624575,64.5780919 184.825422,64.5951018 185.015147,64.6101489 C188.015421,64.8535204 191.064107,64.831931 194.056529,64.505473 C200.923924,63.7550776 207.728512,62.1613868 214.372162,60.3073147 C220.077653,58.7142781 225.768752,56.8255321 231.199469,54.4009762 C231.828833,54.1981666 232.458197,53.9960113 233.085598,53.7899306 C237.27656,52.415405 241.476027,50.8478832 245.479226,48.9244632 C248.107246,50.9708774 249.39476,54.0647048 248.183136,57.6132183 C246.655522,62.086151 241.459671,64.9693182 237.547409,67.0150781 C237.256933,67.1668581 236.963186,67.3029368 236.672057,67.4501373 C236.278868,66.3229086 235.633148,65.2558685 234.664242,64.2915416 C229.99635,59.6452395 221.377597,60.3603068 215.483689,61.2212662 C208.212638,62.2837268 200.846071,65.062218 195.157589,69.8066538 C193.73138,70.9966881 192.317601,72.780104 193.243983,74.6838972 C194.07681,76.3940399 196.726419,76.7617141 198.364597,76.9730286 C205.059276,77.8372591 212.113779,76.8735865 218.73453,75.8294442 C224.357589,74.9416616 229.563254,73.325073 234.702187,71.0843542 C234.462741,73.8798553 232.838955,76.8735865 231.541628,78.8591577 C224.741619,89.2645978 211.50535,95.0832701 199.714262,97.3521206 C199.268736,97.4352071 198.8219,97.5130598 198.373757,97.5843702 C196.796421,97.8473685 197.467656,100.241176 199.034523,99.9801402 C210.616259,98.0514865 222.305942,92.8608696 230.435335,84.2218356 C233.601127,80.8571592 237.358992,75.0993297 237.144407,69.9721726 C237.349179,69.8746932 237.554605,69.7844102 237.759378,69.6849681 C244.766776,66.2836551 254.104522,59.7178584 250.243943,50.7229263 C249.724489,49.512611 248.979981,48.4861329 248.072572,47.6094721 C249.032319,47.0952517 249.982907,46.5653298 250.909943,46.0000799 C254.1477,44.0230136 257.456113,41.2549899 257.797619,37.2334721 C258.16333,32.9332547 253.756474,29.3160477 250.449369,27.4325355" id="Fill-1" fill="#333333"></path>
            </g>
        </g>
    </g>
</svg>