<?xml version="1.0" encoding="UTF-8" standalone="no"?>
<svg width="214px" height="214px" viewBox="0 0 214 214" version="1.1" xmlns="http://www.w3.org/2000/svg" xmlns:xlink="http://www.w3.org/1999/xlink">
    <!-- Generator: Sketch 41 (35326) - http://www.bohemiancoding.com/sketch -->
    <title>Group 31</title>
    <desc>Created with Sketch.</desc>
    <defs>
        <rect id="path-1" x="0" y="0" width="189.524294" height="189.524294" rx="6.4"></rect>
        <filter x="-50%" y="-50%" width="200%" height="200%" filterUnits="objectBoundingBox" id="filter-2">
            <feMorphology radius="2" operator="dilate" in="SourceAlpha" result="shadowSpreadOuter1"></feMorphology>
            <feOffset dx="0" dy="3" in="shadowSpreadOuter1" result="shadowOffsetOuter1"></feOffset>
            <feGaussianBlur stdDeviation="4" in="shadowOffsetOuter1" result="shadowBlurOuter1"></feGaussianBlur>
            <feComposite in="shadowBlurOuter1" in2="SourceAlpha" operator="out" result="shadowBlurOuter1"></feComposite>
            <feColorMatrix values="0 0 0 0 0   0 0 0 0 0   0 0 0 0 0  0 0 0 0.05 0" type="matrix" in="shadowBlurOuter1"></feColorMatrix>
        </filter>
        <mask id="mask-3" maskContentUnits="userSpaceOnUse" maskUnits="objectBoundingBox" x="0" y="0" width="189.524294" height="189.524294" fill="white">
            <use xlink:href="#path-1"></use>
        </mask>
    </defs>
    <g id="LANDING" stroke="none" stroke-width="1" fill="none" fill-rule="evenodd">
        <g id="01.-Landing-" transform="translate(-228.000000, -4047.000000)">
            <g id="Group-31" transform="translate(240.000000, 4056.000000)">
                <g id="Rectangle-2">
                    <use fill="black" fill-opacity="1" filter="url(#filter-2)" xlink:href="#path-1"></use>
                    <use stroke="#CCCCCC" mask="url(#mask-3)" stroke-width="1.6" fill="#FFFFFF" fill-rule="evenodd" xlink:href="#path-1"></use>
                </g>
                <text id="MARKETING" font-family="Roboto-Regular, Roboto" font-size="16" font-weight="normal" line-spacing="22.4" fill="#333333">
                    <tspan x="49.8207408" y="131.407717">MARKETING</tspan>
                </text>
                <g id="Page-1" transform="translate(77.763713, 52.109705)" stroke="#FF3E00" stroke-width="2.4" stroke-linecap="round" stroke-linejoin="round">
                    <path d="M27.3122771,0.498018156 L27.6318357,0.498018156 C28.7183351,0.498018156 29.4593117,1.58967395 29.4593117,2.67336146 L29.4593117,28.2993837 C29.4593117,29.3830712 28.7183351,30.3791075 27.6318357,30.3791075 L27.3122771,30.3791075 C26.2127957,30.3791075 19.3982078,20.4187444 12.1042819,20.4187444 L3.02282496,20.4187444 C1.550858,20.4187444 0.499310367,19.0213055 0.499310367,17.5531479 L0.499310367,13.4195972 C0.499310367,11.9504437 1.550858,10.4583813 3.02282496,10.4583813 L12.1042819,10.4583813 C19.3992064,10.4583813 26.211797,0.498018156 27.3122771,0.498018156 Z" id="Stroke-1"></path>
                    <path d="M29.5768493,10.692649 C31.6589736,11.296247 33.1818702,13.2136169 33.1818702,15.4865718 C33.1818702,17.7585306 31.6589736,19.6759005 29.5768493,20.2794985" id="Stroke-3"></path>
                    <path d="M11.2236287,10.9563994 L11.2236287,19.9207262" id="Stroke-5"></path>
                    <path d="M10.1056424,20.4187444 C10.4741334,20.4187444 9.93487824,24.603093 11.2121142,26.6081141 L13.3741281,30.0185424 C13.9183764,30.8721455 13.0405887,32.3711802 12.0609418,32.3711802 L8.81642302,32.3711802 C7.83577746,32.3711802 6.79421603,31.6092124 6.56053878,30.6241325 L4.12889729,20.4187444 L10.1056424,20.4187444 Z" id="Stroke-7"></path>
                </g>
            </g>
        </g>
    </g>
</svg>