<?xml version="1.0" encoding="UTF-8" standalone="no"?>
<svg width="480px" height="354px" viewBox="0 0 480 354" version="1.1" xmlns="http://www.w3.org/2000/svg" xmlns:xlink="http://www.w3.org/1999/xlink">
    <!-- Generator: Sketch 41 (35326) - http://www.bohemiancoding.com/sketch -->
    <title>Group 26</title>
    <desc>Created with Sketch.</desc>
    <defs></defs>
    <g id="LANDING" stroke="none" stroke-width="1" fill="none" fill-rule="evenodd">
        <g id="01.-Landing-" transform="translate(-112.000000, -2771.000000)">
            <g id="Group-26" transform="translate(112.000000, 2771.000000)">
                <rect id="Rectangle-3" fill="#FFFFFF" x="0" y="0" width="480" height="354"></rect>
                <g id="Page-1" transform="translate(144.000000, 165.000000)" fill="#333333">
                    <path d="M47.452993,24.7409267 C45.4918703,26.0833326 41.6499228,27.2652164 36.7733672,28.0048774 C36.0892906,26.3650333 35.3048415,24.6653869 34.4323735,22.9295442 C35.3048415,21.1937016 36.0892906,19.4940552 36.7733672,17.8557849 C37.959306,18.0367658 39.0834772,18.2413528 40.1397039,18.4711199 C40.2261786,20.775085 42.0807521,22.6132212 44.3615224,22.6147949 C45.6200382,22.6147949 46.7442093,22.0513936 47.5193932,21.1653742 C48.5833409,21.8940189 48.9276955,22.5455501 48.9060768,22.9279705 C48.9276955,23.3214072 48.5756199,23.9918233 47.452993,24.7409267 M38.0272504,40.8702566 C38.0365156,42.5557393 37.5902443,43.3976938 37.2011082,43.5881172 C37.2011082,43.5896909 37.1980198,43.5896909 37.1980198,43.5896909 C37.05441,43.6715257 36.884549,43.7218856 36.6251249,43.7250331 C35.4160233,43.800573 32.6658189,42.0899103 29.7488419,38.8889095 C28.8022527,37.8706954 27.8155146,36.6982541 26.8210555,35.4156506 C27.875738,33.989836 28.9319648,32.4570068 29.975838,30.815589 C31.8844582,30.7164429 33.717413,30.5574945 35.4530838,30.3418912 C37.134708,34.6807108 38.0426923,38.4230805 38.0272504,40.8702566 M25.4992279,33.6577755 C24.8661095,32.7843461 24.2329912,31.8684255 23.5998728,30.9131612 C24.2268144,30.927325 24.8599328,30.9351937 25.4992279,30.9383412 C26.138523,30.9383412 26.768553,30.9226037 27.4001272,30.9100138 C26.7670088,31.865278 26.1323463,32.7843461 25.4992279,33.6577755 M21.346898,38.780321 C20.8033427,38.5222265 20.2011082,38.3727206 19.5618131,38.3727206 C17.2239077,38.3727206 15.3291852,40.3052815 15.3291852,42.687934 C15.3291852,42.9649135 15.3569807,43.2355979 15.4048506,43.4968398 C14.9971841,43.657362 14.6420202,43.7391968 14.3733309,43.7234594 C14.1139068,43.7218856 13.9425016,43.6683782 13.7942592,43.5865434 C13.4082115,43.4008413 12.9588518,42.5620343 12.968117,40.8686829 C12.9526751,38.4215067 13.8637478,34.6791371 15.5469162,30.3418912 C17.2779544,30.554347 19.1109093,30.7132954 21.0210737,30.8108677 C22.0649469,32.455433 23.1227178,33.9882623 24.1758561,35.4156506 C23.2138251,36.6526155 22.2641475,37.7857131 21.346898,38.780321 M19.5618131,44.8675732 C18.382051,44.8659995 17.4231084,43.8902765 17.42002,42.687934 C17.4231084,41.4840178 18.382051,40.5082949 19.5618131,40.5067211 C20.7400309,40.5082949 21.6989736,41.4840178 21.6989736,42.687934 C21.6989736,43.8902765 20.7400309,44.8659995 19.5618131,44.8675732 M8.48996276,26.8104036 C6.3450813,26.2045111 4.63411754,25.4758664 3.54237442,24.7409267 C2.42438005,23.9918233 2.07076029,23.3214072 2.09237896,22.9279705 C2.07076029,22.5376813 2.42438005,21.8672652 3.54237442,21.1165881 C5.50349714,19.7741821 9.34853302,18.5922983 14.2220002,17.8526374 C14.907621,19.4909077 15.6920701,21.1905541 16.5629939,22.9295442 C15.6920701,24.6669606 14.907621,26.366607 14.220456,28.0080248 C12.0941048,27.6885543 10.1576892,27.2825276 8.48996276,26.8104036 M12.968117,4.98568439 C12.9588518,3.29548044 13.4082115,2.45667345 13.7942592,2.27411883 C13.94559,2.18598902 14.1139068,2.13405538 14.3702425,2.13248163 C14.398038,2.13090788 14.4242892,2.13090788 14.4520847,2.13090788 C14.9369607,2.13090788 15.6395676,2.39529733 16.4873285,2.89260129 C16.3035698,3.37416777 16.2016532,3.89507793 16.2016532,4.43959429 C16.2016532,6.82382054 18.0948315,8.75323399 20.4327369,8.75480774 C21.1415206,8.75480774 21.8055228,8.57540061 22.3907712,8.26222502 C22.9775638,8.94523109 23.5720774,9.67072832 24.1758561,10.4450117 C23.1227178,11.8708262 22.0649469,13.4020817 21.024162,15.040352 C19.1139976,15.1394981 17.2810428,15.2984465 15.5438278,15.5171973 C13.8606595,11.1768039 12.9526751,7.43286051 12.968117,4.98568439 M20.4327369,2.25995511 C21.6124989,2.26310261 22.5714415,3.23725181 22.5745299,4.43959429 C22.5714415,5.64351051 21.6124989,6.62080721 20.4327369,6.62080721 C19.2529748,6.62080721 18.2971205,5.64351051 18.2940322,4.43959429 C18.2971205,3.23725181 19.2529748,2.26310261 20.4327369,2.25995511 M27.4001272,14.947501 C26.7716414,14.934911 26.138523,14.922321 25.4992279,14.9207473 C24.8568444,14.9207473 24.2299028,14.934911 23.5998728,14.947501 C24.2329912,13.9922367 24.8630212,13.0763162 25.4961395,12.2060342 C26.1323463,13.0794637 26.7670088,13.990663 27.4001272,14.947501 M33.2356254,20.6161366 C32.9345081,20.0558828 32.6225815,19.4909077 32.302934,18.9259326 C31.9832864,18.3593838 31.6574621,17.8101462 31.3347261,17.2624824 C32.4635298,17.3427435 33.5583613,17.4434633 34.6145881,17.5662155 C34.1914797,18.5623972 33.7297666,19.5806113 33.2356254,20.6161366 M32.302934,26.9331558 C32.6225815,26.366607 32.9345081,25.801632 33.2356254,25.2398044 C33.7328549,26.2784772 34.1945681,27.2982651 34.6161323,28.2960205 C33.5583613,28.4203465 32.4604415,28.52264 31.3300936,28.6029011 C31.6559179,28.0536635 31.980198,27.5012784 32.302934,26.9331558 M18.9132528,22.9295442 C19.4166591,21.9585425 19.9478608,20.9765246 20.5053138,19.9913592 C21.0658552,19.0030462 21.6387501,18.0493557 22.2147334,17.1145502 C23.2925788,17.0752065 24.3843219,17.0500266 25.4992279,17.0531741 C26.6187665,17.0531741 27.7105096,17.0815015 28.7868108,17.1239927 C29.3627941,18.0525032 29.9326006,19.00462 30.4915978,19.9913592 C31.0521392,20.9749508 31.5802525,21.955395 32.0836588,22.9295442 C31.5802525,23.9021197 31.0521392,24.8825639 30.4915978,25.8693031 C29.9295122,26.857616 29.3597057,27.8097328 28.7837224,28.7429646 C27.7074212,28.7823082 26.6125897,28.8074882 25.4992279,28.8043407 C24.3812335,28.8043407 23.286402,28.7744395 22.2085566,28.7335221 C21.6356617,27.801864 21.0658552,26.8544685 20.5084022,25.8677293 C19.9478608,24.8825639 19.4166591,23.9021197 18.9132528,22.9295442 M16.3792352,17.5614943 C17.4400945,17.4371683 18.5380144,17.333301 19.6699064,17.2530399 C19.3409937,17.8038513 19.0151694,18.3562363 18.6955218,18.9259326 C18.3758743,19.4909077 18.0654919,20.0574565 17.7628304,20.6177103 C17.2656009,19.5806113 16.8038877,18.5592497 16.3792352,17.5614943 M18.6924335,26.9347296 C19.012081,27.4981309 19.3379054,28.0489423 19.6606413,28.5934586 C18.534926,28.5147713 17.4354619,28.417199 16.3792352,28.2944467 C16.8038877,27.2982651 17.2656009,26.2784772 17.759742,25.2413781 C18.0654919,25.8047795 18.3727859,26.366607 18.6924335,26.9347296 M29.7519302,6.96703149 C32.602507,3.83842305 35.2955763,2.13090788 36.5417386,2.13090788 C36.5710782,2.13090788 36.5988736,2.13090788 36.6251249,2.13405538 C36.884549,2.13405538 37.05441,2.18598902 37.1980198,2.26939759 L37.7261332,1.34875577 L37.2041966,2.27254509 C37.587156,2.4550997 38.0365156,3.29390669 38.0303388,4.98568439 C38.0457807,7.43286051 37.134708,11.1799514 35.4499955,15.5219185 C33.7127805,15.3063152 31.8844582,15.1394981 29.9696612,15.040352 C28.9288764,13.4036555 27.8726497,11.8676787 26.8210555,10.4450117 C27.818603,9.16240813 28.8022527,7.98839309 29.7519302,6.96703149 M44.3615224,16.1183685 C45.5412844,16.1230898 46.5002271,17.1003865 46.5033155,18.3011552 C46.5002271,19.5019239 45.5412844,20.4776469 44.3615224,20.4807944 C43.1817604,20.4776469 42.2259061,19.5019239 42.2228177,18.3011552 C42.2259061,17.1003865 43.1817604,16.1230898 44.3615224,16.1183685 M48.6049596,19.333533 C48.5663548,19.3099268 48.5231174,19.2863206 48.4845127,19.2611407 C48.5540013,18.9526863 48.592606,18.631642 48.5956944,18.3011552 C48.592606,15.9200765 46.6994277,13.9890893 44.3615224,13.9859418 C42.7030611,13.9875155 41.2700518,14.9632385 40.57671,16.382758 C39.6270324,16.1750234 38.6310292,15.9877476 37.587156,15.8209304 C39.2131892,11.5419131 40.1088201,7.77751104 40.124262,4.98568439 C40.1149968,3.03423849 39.696521,1.31885459 38.2480698,0.421818969 L38.2480698,0.424966462 C37.7477518,0.129102083 37.1841221,-0.00309263971 36.6251249,5.48536857e-05 C34.0895631,0.0771684419 31.3717867,2.18913651 28.2324462,5.50029956 C27.3368153,6.4618588 26.4226542,7.54302278 25.4992279,8.71231658 C24.9772913,8.05291671 24.4615315,7.436008 23.94886,6.8427055 C24.401308,6.15497819 24.6638205,5.32876117 24.6669089,4.43959429 C24.6638205,2.05694179 22.7737306,0.12595459 20.4327369,0.12595459 C19.3981288,0.12595459 18.4484513,0.508375037 17.7118721,1.13787372 C16.5537288,0.440703929 15.4465437,0.034677281 14.3702425,5.48536857e-05 C13.8097012,-0.00151889301 13.242983,0.132249576 12.7472977,0.424966462 C11.3003906,1.31728084 10.8803706,3.03423849 10.875738,4.98568439 C10.8865474,7.77751104 11.7821782,11.5419131 13.4082115,15.8177829 C11.4053956,16.1372535 9.55699882,16.5306902 7.92787719,16.991798 C5.6486511,17.6401816 3.77554728,18.4128912 2.39349623,19.333533 C1.03615224,20.2478799 0.0200744845,21.40301 0,22.9279705 C0.0200744845,24.4545048 1.03615224,25.6096349 2.39349623,26.5208342 C4.74684349,28.0725485 8.61040966,29.2843334 13.4082115,30.0428793 C11.7821782,34.3171754 10.8896358,38.0815775 10.875738,40.8686829 C10.8803706,42.8232763 11.303479,44.5386602 12.750386,45.434122 C13.2460714,45.7221177 13.8035244,45.8558862 14.3609774,45.8558862 L14.3733309,45.8558862 C15.0002725,45.8354274 15.6395676,45.682774 16.2912163,45.427827 C17.0664002,46.3862388 18.2430738,47 19.5618131,47 C21.8981742,47 23.7928967,45.0705865 23.7959851,42.687934 C23.7928967,41.7310961 23.4856027,40.8497979 22.9667545,40.1337432 C23.7990735,39.2304126 24.643746,38.2279359 25.4992279,37.1483457 C26.4226542,38.314492 27.3368153,39.3972297 28.2293578,40.3556414 C31.3686983,43.6652307 34.0864747,45.7771988 36.6251249,45.8574599 L36.63439,45.8574599 C37.1902988,45.8574599 37.7539286,45.7284127 38.2480698,45.4356958 L37.7230448,44.5119065 L38.2511581,45.434122 C39.696521,44.5355127 40.1149968,42.8232763 40.1211736,40.8702566 C40.1088201,38.0815775 39.2131892,34.3156016 37.587156,30.0397318 C39.5930602,29.7202613 41.4383686,29.3268246 43.0705786,28.8657168 C45.3513489,28.2141857 47.2244527,27.4461973 48.6049596,26.5208342 C49.9623036,25.6096349 50.9783813,24.4545048 51,22.9279705 C50.9783813,21.40301 49.9623036,20.2478799 48.6049596,19.333533 M25.6737215,20.7483313 C26.8534835,20.7514788 27.8093378,21.7272018 27.8124262,22.9279705 C27.8093378,24.1318867 26.8534835,25.1060359 25.6737215,25.1091834 C24.4924153,25.1060359 23.536561,24.1318867 23.5334726,22.9279705 C23.536561,21.7272018 24.4924153,20.7514788 25.6737215,20.7483313 M25.6737215,27.2431839 C28.0085385,27.2400365 29.9063494,25.3121967 29.9063494,22.9279705 C29.903261,20.545318 28.0085385,18.6174783 25.6737215,18.6143308 C23.3373603,18.6174783 21.4426378,20.545318 21.4395495,22.9279705 C21.4426378,25.3121967 23.3373603,27.2400365 25.6737215,27.2431839" id="Fill-1"></path>
                </g>
                <g id="Group-46" transform="translate(84.000000, 32.000000)">
                    <g id="Group-45">
                        <g id="Page-1" transform="translate(1.757062, 0.000000)">
                            <path d="M148.014476,8.78071797 C148.014476,10.786468 141.208496,10.786468 141.204982,8.78071797 L141.204982,3.53592891 C141.204982,1.92832734 148.014476,1.92832734 148.014476,3.53592891 L148.014476,8.78071797 Z" id="Fill-18" fill="#FFFFFF"></path>
                            <path d="M222.477628,110.067032 C218.590128,95.645407 217.857433,74.5550164 230.332574,64.0513133 C234.367667,60.6516023 240.164215,58.7023523 245.193806,57.6182586 C252.316057,56.0856961 259.623679,56.236657 266.857503,56.236657 C290.374023,56.236657 307.419283,61.1733445 307.419283,96.323407 C307.419283,126.756602 288.719749,125.008634 258.681893,125.008634 C249.878133,125.008634 240.157187,127.11061 231.84804,123.015243 C226.795608,120.52218 224.000122,115.706438 222.477628,110.067032" id="Fill-60" fill="#CCCCCC"></path>
                            <path d="M263.265893,57.5845352 C257.208421,57.5845352 251.290636,57.6878242 245.47476,58.9396523 C241.194556,59.8630742 235.243387,61.6790195 231.195994,65.0875586 C219.496596,74.9388633 219.886664,95.2841602 223.775921,109.71373 C225.413503,115.778652 228.248523,119.73277 232.440873,121.802082 C235.800376,123.457355 239.643071,124.19627 244.900201,124.19627 C247.195802,124.19627 249.557294,124.058551 251.839718,123.924363 C254.097542,123.792824 256.433556,123.656871 258.681718,123.656871 C260.263952,123.656871 261.813681,123.662168 263.330025,123.666582 C264.783994,123.670996 266.206336,123.67541 267.599686,123.67541 C292.171322,123.67541 306.074076,122.405043 306.074076,96.3232305 C306.074076,80.439668 302.494062,69.920957 295.131972,64.1659023 C287.715412,58.3702383 276.677548,57.5889492 266.857328,57.5889492 L263.265893,57.5845352 Z M244.900201,126.899441 C239.211712,126.899441 235.003548,126.075777 231.255734,124.228934 C226.395701,121.830332 223.006328,117.184973 221.179862,110.421746 C216.88648,94.4931602 216.809169,73.6755586 229.467924,63.0147148 C233.937011,59.2512852 240.333596,57.2834961 244.910743,56.2965117 C250.984907,54.9899492 257.059949,54.8804805 263.265893,54.8804805 L266.857328,54.8848945 C292.729189,54.8848945 308.764138,61.8176211 308.764138,96.3232305 C308.764138,124.356059 293.212381,126.378582 267.599686,126.378582 C266.203701,126.378582 264.777845,126.374168 263.322119,126.369754 C261.807531,126.364457 260.260438,126.360043 258.681718,126.360043 C256.511746,126.360043 254.318054,126.488051 251.996096,126.624004 C249.674138,126.759074 247.273992,126.899441 244.900201,126.899441 L244.900201,126.899441 Z" id="Fill-62" fill="#333333"></path>
                            <g id="Group-70" transform="translate(0.214494, 60.914063)">
                                <path d="M63.8663977,72.6321625 L63.8663977,72.6321625 C61.4917282,72.6321625 59.0915814,72.4926781 56.7696237,72.356725 C54.4467876,72.2207719 52.2530955,72.0936469 50.0813667,72.0936469 C48.5017678,72.0936469 46.9546746,72.0971781 45.4409655,72.102475 C43.9852395,72.1068891 42.5602621,72.1113031 41.1651548,72.1113031 C15.5515814,72.1113031 -0.000175706215,70.0887797 -0.000175706215,42.0559516 C-0.000175706215,7.55034219 16.0347734,0.618498438 41.906635,0.618498438 L45.4971915,0.614084375 C51.7048921,0.614084375 57.7799345,0.722670313 63.8523412,2.02923281 C68.4303667,3.01621719 74.8251944,4.98312344 79.296039,8.74831875 C91.9556718,19.4082797 91.878361,40.2258813 87.5841011,56.1527016 C85.7585136,62.9168109 82.3682621,67.5630531 77.5082282,69.9607719 C73.7612932,71.8084984 69.5540079,72.6321625 63.8663977,72.6321625" id="Path" stroke="#979797" stroke-width="0.88" fill="#CCCCCC"></path>
                                <path d="M56.9260023,69.6579672 C59.2093045,69.7912719 61.5699175,69.9289906 63.8663977,69.9289906 C69.1226492,69.9289906 72.9644655,69.1900766 76.3222113,67.5348031 C80.5163186,65.4654906 83.3504599,61.5104906 84.9871633,55.4455687 C88.8772989,41.0168812 89.2682452,20.6715844 77.5679684,10.8202797 C73.5196972,7.41085781 67.5676492,5.5949125 63.2883243,4.67237344 C57.4733271,3.42054531 51.5546633,3.31725625 45.4971915,3.31725625 L41.906635,3.32167031 C32.0872932,3.32167031 21.0494288,4.10295937 13.633748,9.89862344 C6.26990056,15.6536781 2.69076497,26.1723891 2.69076497,42.0559516 C2.69076497,68.1377641 16.5926407,69.4081312 41.1651548,69.4081312 C42.5576266,69.4081312 43.9799684,69.4046 45.4321802,69.3993031 C46.9494034,69.3948891 48.4991322,69.3895922 50.0813667,69.3895922 C52.3312847,69.3895922 54.6664203,69.5255453 56.9260023,69.6579672 Z M63.8663977,72.6321625 L63.8663977,72.6321625 C61.4917282,72.6321625 59.0915814,72.4926781 56.7696237,72.356725 C54.4467876,72.2207719 52.2530955,72.0936469 50.0813667,72.0936469 C48.5017678,72.0936469 46.9546746,72.0971781 45.4409655,72.102475 C43.9852395,72.1068891 42.5602621,72.1113031 41.1651548,72.1113031 C15.5515814,72.1113031 -0.000175706215,70.0887797 -0.000175706215,42.0559516 C-0.000175706215,7.55034219 16.0347734,0.618498438 41.906635,0.618498438 L45.4971915,0.614084375 C51.7048921,0.614084375 57.7799345,0.722670313 63.8523412,2.02923281 C68.4303667,3.01621719 74.8251944,4.98312344 79.296039,8.74831875 C91.9556718,19.4082797 91.878361,40.2258813 87.5841011,56.1527016 C85.7585136,62.9168109 82.3682621,67.5630531 77.5082282,69.9607719 C73.7612932,71.8084984 69.5540079,72.6321625 63.8663977,72.6321625" id="Fill-68" fill="#333333"></path>
                            </g>
                            <path d="M13.8585861,82.8530362 C13.6723375,82.8530362 13.4825748,82.8141924 13.302476,82.7312081 C12.6268856,82.4231065 12.3273065,81.6206299 12.6347923,80.9417471 C13.8049957,78.3568721 15.2616003,75.1407862 18.3601794,73.4387237 C19.0129279,73.0820674 19.8299618,73.3213096 20.1857669,73.9763565 C20.541572,74.6314034 20.3026116,75.4533018 19.6507415,75.8108409 C17.3384477,77.0803252 16.1410099,79.7261143 15.084137,82.0602706 C14.8583545,82.5590596 14.3698912,82.8530362 13.8585861,82.8530362" id="Fill-71" fill="#333333"></path>
                            <path d="M172.963353,140.517884 C170.298768,140.590274 167.817796,141.945391 166.312873,144.155954 L153.271957,163.300626 C151.513138,165.542087 149.937932,166.250985 148.714138,165.768087 C147.487709,165.283423 147.95948,162.582899 148.157149,161.276337 C149.13759,154.784134 150.536212,151.049837 149.406421,144.295438 C149.251799,143.373782 149.096299,142.453009 148.446186,141.783837 C147.798709,141.112899 146.904364,140.738587 145.975757,140.74918 C134.224525,140.872774 122.070048,140.14004 110.41809,134.56243 C102.641333,130.848438 98.3312596,123.651751 95.9908528,115.232368 C90.0019065,93.6908602 88.8791438,62.1894617 108.077683,46.4965867 C114.295048,41.4186492 123.210381,38.5133133 130.959904,36.8942352 C141.920457,34.5936258 153.162141,34.8249227 164.306308,34.8249227 C200.501788,34.8249227 226.735604,42.2017039 226.735604,94.6937352 C226.735604,131.65886 205.140432,139.638602 172.963353,140.517884 Z" id="Fill-73" fill="#FFFFFF"></path>
                            <path d="M149.326211,164.545391 C149.37453,164.555985 149.424606,164.560399 149.477318,164.560399 C149.732092,164.560399 150.677392,164.411204 152.188465,162.499032 L165.202146,143.392321 C166.947787,140.831282 169.835519,139.251048 172.927069,139.16718 C191.206666,138.667509 202.991281,135.851337 211.137021,130.036251 C220.727945,123.189157 225.39031,111.628727 225.39031,94.6937352 C225.39031,45.751493 202.993038,36.1765086 164.306923,36.1765086 L158.708923,36.1694461 C149.371016,36.1694461 140.243956,36.3265867 131.235499,38.2175711 C124.56042,39.611532 115.272589,42.3623758 108.926081,47.5462508 C90.668448,62.4684305 91.2456429,93.1382195 97.2864226,114.868649 C99.8578831,124.12229 104.342784,130.165141 110.995021,133.341501 C122.165544,138.688696 133.819259,139.409954 143.744024,139.409071 C144.484626,139.409071 145.225228,139.404657 145.962315,139.397595 L145.963194,139.397595 C147.288019,139.397595 148.525869,139.923751 149.412307,140.842759 C150.354092,141.812087 150.564061,143.064798 150.732739,144.072087 C151.64114,149.502266 150.968185,153.161524 150.188928,157.397259 C149.953482,158.679102 149.710129,160.003321 149.486982,161.478501 L149.458869,161.658595 C149.22518,163.189391 149.180375,164.159602 149.326211,164.545391 M149.477318,167.263571 C149.044202,167.263571 148.621629,167.183235 148.221897,167.026095 C146.048411,166.167118 146.536875,162.966923 146.800434,161.248087 L146.82679,161.07329 C147.056086,159.55397 147.303832,158.20768 147.543671,156.906415 C148.307115,152.757196 148.908908,149.481079 148.079575,144.519673 C147.952188,143.75604 147.841493,143.095696 147.483053,142.727563 C147.098256,142.327649 146.563231,142.100766 146.014149,142.100766 C145.244555,142.108712 144.49429,142.113126 143.744024,142.113126 C133.518801,142.113126 121.492589,141.36097 109.839753,135.782477 C102.546188,132.299782 97.4507079,125.507423 94.6947559,115.596087 C88.1356429,91.9985086 87.9827785,61.1795242 107.228759,45.4486883 C113.995205,39.9213992 123.720544,37.026657 130.686417,35.5708992 C139.944377,33.6269461 149.22518,33.4662742 158.708923,33.4662742 L164.306923,33.4724539 C179.993973,33.4724539 197.678804,34.7225164 209.904442,43.9955789 C222.135352,53.2721727 228.08125,69.8558055 228.08125,94.6937352 C228.08125,132.598173 206.061747,140.96547 172.999988,141.86947 C170.766762,141.930384 168.682007,143.070095 167.423072,144.92047 L154.327688,164.137532 C152.700649,166.212141 151.068338,167.263571 149.477318,167.263571" id="Fill-75" fill="#333333"></path>
                            <path d="M288.60431,125.824088 C288.60431,150.835931 276.480581,155.603119 255.886056,156.463861 C253.419141,161.374947 250.194053,166.375197 245.794369,171.271275 C240.45905,177.249681 234.345353,180.961908 232.886112,180.051728 C231.430386,179.138017 236.994124,172.6979 238.88648,165.078345 C239.551528,162.390181 239.935446,159.49897 240.115545,156.632478 C238.351454,156.632478 236.545194,156.619236 234.70555,156.619236 C224.958248,156.619236 214.21557,158.869525 205.031406,154.474002 C199.441313,151.799962 196.347127,146.631978 194.656833,140.578533 C190.359937,125.105478 189.551689,102.469283 203.342869,91.1975328 C207.805807,87.5471031 214.21557,85.4530719 219.775793,84.2815797 C227.657095,82.6386656 235.742217,82.8046344 243.746514,82.8046344 C269.75279,82.8046344 288.60431,88.1015094 288.60431,125.824088" id="Fill-77" fill="#FFFFFF"></path>
                            <path d="M234.705902,155.267209 C235.637145,155.267209 236.559602,155.27074 237.472396,155.274271 C238.363227,155.277802 239.244393,155.281334 240.115018,155.281334 L241.547023,155.281334 L241.458292,156.71767 C241.258865,159.887849 240.833656,162.810841 240.19145,165.403662 C239.172354,169.507857 237.148218,173.252748 235.671407,175.987701 C235.191729,176.874927 234.635619,177.902521 234.298263,178.647615 C236.295164,177.930771 240.511235,175.166685 244.793195,170.369482 C248.764156,165.950123 251.998907,161.20324 254.684577,155.855162 L255.04126,155.146263 L255.830181,155.113599 C276.675088,154.242263 287.258752,149.474193 287.258752,125.823646 C287.258752,90.9737398 271.304628,84.1557789 243.746865,84.1557789 L239.714407,84.150482 C233.027029,84.150482 226.489879,84.2617164 220.049368,85.605357 C215.295636,86.6064664 208.68469,88.5707242 204.19276,92.2458727 C191.221249,102.846685 191.646458,124.712185 195.953018,140.215255 C197.778605,146.752482 200.936924,151.019115 205.609831,153.253513 C209.352373,155.04474 213.629941,155.842802 219.478323,155.842802 C222.018156,155.842802 224.626515,155.695373 227.150534,155.55324 C229.644684,155.412873 232.224051,155.267209 234.705902,155.267209 M233.466294,181.539709 C232.971681,181.539709 232.538566,181.425826 232.176611,181.199826 C230.396707,180.082185 231.553732,177.940482 233.306402,174.697029 C234.716444,172.090084 236.645698,168.51999 237.581334,164.75038 C238.087368,162.709318 238.450201,160.437841 238.665441,157.981857 C238.266588,157.980091 237.865099,157.979209 237.462732,157.977443 C236.553453,157.973912 235.633631,157.971263 234.705902,157.971263 C232.299605,157.971263 229.872224,158.108099 227.301642,158.25288 C224.740724,158.396779 222.092831,158.546857 219.478323,158.546857 C213.209125,158.546857 208.575752,157.667576 204.452806,155.693607 C199.113094,153.13963 195.381094,148.177341 193.362229,140.942693 C188.620797,123.870865 188.52943,101.562193 202.49456,90.149193 C207.40467,86.1315133 214.452246,84.0215914 219.499407,82.959568 C226.193814,81.5638414 232.881193,81.448193 239.714407,81.448193 L243.746865,81.452607 C267.124577,81.452607 289.949693,84.8788023 289.949693,125.823646 C289.949693,151.079146 277.782916,156.776818 256.726283,157.779693 C254.002837,163.058912 250.748758,167.774896 246.793611,172.177482 C242.108405,177.426685 236.253873,181.539709 233.466294,181.539709" id="Fill-79" fill="#333333"></path>
                            <path d="M244.930861,123.082513 C243.787892,125.34781 239.651768,125.34781 238.348906,123.10017 C238.348906,123.10017 238.206584,114.505107 237.774347,105.123459 C238.357692,102.526224 245.550226,102.367318 246.246022,104.937185 C245.238347,113.923334 244.930861,123.082513 244.930861,123.082513" id="Fill-81" fill="#FFFFFF"></path>
                            <path d="M245.210498,138.079997 C245.210498,140.084864 238.403639,140.084864 238.401882,138.079997 L238.401882,132.833442 C238.401882,131.227606 245.210498,131.227606 245.210498,132.833442 L245.210498,138.079997 Z" id="Fill-85" fill="#FFFFFF"></path>
                            <path d="M277.329242,102.474315 C276.734477,102.474315 276.190666,102.075284 276.030773,101.470557 C275.528254,99.5760414 274.779745,98.3921898 273.360039,97.2489477 C272.781087,96.7828227 272.687963,95.9317914 273.152706,95.3491352 C273.615692,94.7673617 274.461717,94.6729008 275.043305,95.1399086 C276.909305,96.6433383 277.981112,98.3277445 278.629468,100.774018 C278.820988,101.496159 278.394022,102.235955 277.677141,102.428409 C277.560296,102.459307 277.44433,102.474315 277.329242,102.474315" id="Fill-89" fill="#333333"></path>
                            <path d="M279.048528,108.187612 C278.351853,108.187612 277.762358,107.648214 277.709646,106.938433 C277.671869,106.438761 277.561175,105.99912 277.340663,105.472964 C277.052505,104.78437 277.374047,103.991605 278.058423,103.702925 C278.746313,103.411597 279.532598,103.737355 279.819878,104.424183 C280.155477,105.225777 280.331183,105.936441 280.390923,106.73362 C280.448028,107.476948 279.892796,108.127581 279.152194,108.183198 C279.117053,108.185847 279.08279,108.187612 279.048528,108.187612" id="Fill-91" fill="#333333"></path>
                            <path d="M111.241362,55.1602438 C110.954082,55.1602438 110.664167,55.0675484 110.419056,54.8777438 C109.832198,54.4204469 109.724138,53.5711813 110.178339,52.9814625 C113.298003,48.9302359 116.765565,46.4018609 120.486144,45.4669625 C121.207418,45.2859859 121.937477,45.7247438 122.117576,46.4495328 C122.297675,47.1734391 121.860167,47.9079391 121.139771,48.0889156 C118.019229,48.8737359 115.047158,51.0763531 112.306141,54.6349703 C112.040825,54.98015 111.64285,55.1602438 111.241362,55.1602438" id="Fill-119" fill="#333333"></path>
                            <path d="M124.953826,46.2631711 C124.210589,46.2631711 123.608795,45.6575617 123.608795,44.9115852 C123.608795,44.1647258 124.210589,43.5591164 124.953826,43.5591164 C125.146224,43.5591164 125.407148,43.4637727 125.708484,43.3534211 C126.157414,43.1901008 126.716159,42.9852883 127.37945,42.9852883 C128.122688,42.9852883 128.724481,43.5908977 128.724481,44.3368742 C128.724481,45.0837336 128.122688,45.689343 127.37945,45.689343 C127.189688,45.689343 126.929642,45.7838039 126.629185,45.8941555 C126.180255,46.0583586 125.619753,46.2631711 124.953826,46.2631711" id="Fill-121" fill="#333333"></path>
                            <path d="M56.0578379,3.30966406 C56.0578379,4.65948437 54.9710949,5.75505469 53.6269424,5.75505469 C52.2827898,5.75505469 51.1934113,4.65948437 51.1934113,3.30966406 C51.1934113,1.96072656 52.2827898,0.866039062 53.6269424,0.866039062 C54.9710949,0.866039062 56.0578379,1.96072656 56.0578379,3.30966406" id="Fill-135" fill="#FFFFFF"></path>
                            <path d="M21.0649788,8.33242578 C21.0649788,10.9570273 18.949476,13.081957 16.3393602,13.081957 C13.7301229,13.081957 11.6154986,10.9570273 11.6154986,8.33242578 C11.6154986,5.70958984 13.7301229,3.58377734 16.3393602,3.58377734 C18.949476,3.58377734 21.0649788,5.70958984 21.0649788,8.33242578" id="Fill-139" fill="#FFFFFF"></path>
                            <path d="M4.17469181,36.7686109 C4.17469181,37.7661891 3.36820028,38.5748453 2.37721723,38.5748453 C1.38359859,38.5748453 0.578864124,37.7661891 0.578864124,36.7686109 C0.578864124,35.7727984 1.38359859,34.9632594 2.37721723,34.9632594 C3.36820028,34.9632594 4.17469181,35.7727984 4.17469181,36.7686109" id="Fill-143" fill="#FFFFFF"></path>
                            <path d="M132.770225,163.142031 C131.317135,164.592492 129.467827,165.688945 127.120392,166.278663 C120.693937,167.895093 113.361717,167.935702 106.438013,167.940999 C104.926061,167.941882 103.479999,168.565148 102.437183,169.666015 C101.393488,170.765999 100.845284,172.247359 100.916446,173.764913 L101.599064,188.326023 C101.63157,189.005788 101.202847,189.621109 100.558005,189.825038 C99.913163,190.028968 99.2103382,189.770304 98.8501404,189.195593 C96.6924681,185.746445 93.891711,181.269702 92.263793,178.670702 C89.2047478,173.786101 86.4268325,167.297429 80.1058014,167.157945 C75.9073014,167.066132 70.6308438,167.285952 69.4088071,167.19414 C65.7321545,166.916054 61.7040896,166.822476 58.3358014,165.115999 C48.7378495,160.25082 46.8191376,148.57739 46.3060755,138.848796 C45.6629907,126.57064 44.3258664,113.232226 48.2608071,101.390179 C51.4753523,91.7048431 59.8943156,88.2512806 69.2954766,87.5423822 C83.684937,86.4547572 98.5162986,86.0045228 112.894338,87.335804 C120.252036,88.0146869 128.642886,90.415054 133.300858,96.5497181 C139.321431,104.48532 138.04229,114.917515 138.391067,124.23207 C138.854053,136.592327 142.665999,153.26689 132.770225,163.142031" id="Fill-167" fill="#FFFFFF"></path>
                            <path d="M77.3709613,165.378788 C78.1713031,165.378788 78.9663738,165.384968 79.7271817,165.401742 C85.8839274,165.537695 88.9728427,170.771007 91.6971675,175.389882 C92.1311619,176.125265 92.559885,176.85182 92.9938794,177.54571 L99.5802269,188.071484 C99.6223963,188.136812 99.6891647,188.148288 99.7462692,188.131515 C99.8095235,188.110327 99.8508144,188.052062 99.8473003,187.986734 L99.1655602,173.423859 C99.0768286,171.545234 99.7655969,169.687796 101.055281,168.328265 C102.344964,166.967851 104.157374,166.186562 106.028645,166.183913 C112.56843,166.179499 119.979718,166.17332 126.385967,164.562187 C128.371447,164.064281 130.061741,163.126734 131.414679,161.777796 C139.030665,154.177663 138.024747,141.965718 137.13743,131.190992 C136.925704,128.624656 136.726278,126.201335 136.639303,123.877773 C136.57517,122.154523 136.565507,120.368593 136.555843,118.640929 C136.513673,110.995773 136.470625,103.090187 131.822317,96.9652337 C127.172252,90.8393978 118.674221,88.8592493 112.363733,88.2765931 C99.8929839,87.1236399 86.3214359,87.1766087 68.9888963,88.4849368 C58.2427043,89.2953587 51.7468455,93.5240306 49.1279444,101.412843 C45.7034302,111.722327 46.3702353,123.215663 47.0141986,134.331156 C47.0932664,135.688921 47.1714557,137.036976 47.2417382,138.373554 C47.73108,147.65721 49.4573935,158.903359 58.5343766,163.504577 C61.2841788,164.897656 64.6225969,165.128952 67.8520771,165.352304 L69.1013483,165.441468 C69.6346167,165.480312 71.0139105,165.45471 72.6919048,165.429109 C74.1054613,165.405273 75.749193,165.378788 77.3709613,165.378788 M99.7032212,190.840867 C98.7227805,190.840867 97.8258003,190.34296 97.3030743,189.510468 L90.7167269,178.985577 C90.2704331,178.272265 89.8294105,177.525406 89.3831167,176.767952 C86.9003879,172.559585 84.3324415,168.20732 79.6683201,168.104031 C77.3999528,168.055476 74.816193,168.096968 72.7358314,168.131398 C70.902337,168.161413 69.4799952,168.182601 68.9001647,168.136695 L67.6675856,168.048413 C64.3353173,167.818882 60.5576336,167.55757 57.3228822,165.918187 C47.011563,160.691054 45.0831873,148.528546 44.5543116,138.515687 C44.4849076,137.184406 44.4075969,135.840765 44.3294076,134.488296 C43.6696308,123.117671 42.9870122,111.360374 46.5766901,100.557398 C49.5338257,91.6462884 57.006611,86.6787024 68.7868342,85.7905931 C86.2748738,84.4672571 99.9852297,84.4142884 112.609721,85.5848978 C119.456114,86.2169915 128.719346,88.4204915 133.96154,95.3249681 C139.156295,102.171179 139.201978,110.535827 139.245905,118.625921 C139.255569,120.410085 139.264354,122.09714 139.327608,123.776249 C139.411947,126.038015 139.609617,128.433085 139.817829,130.96764 C140.753464,142.331202 141.813851,155.210554 133.310549,163.696148 C131.609713,165.393796 129.499481,166.567054 127.038716,167.185023 C120.312682,168.876492 112.725687,168.882671 106.031281,168.887968 C104.891826,168.888851 103.787512,169.364687 103.002984,170.192765 C102.217577,171.020843 101.798518,172.151726 101.852108,173.296734 L102.534727,187.857843 C102.596224,189.149398 101.781826,190.321773 100.552761,190.709327 C100.277781,190.796726 99.9913794,190.840867 99.7032212,190.840867" id="Fill-169" fill="#333333"></path>
                            <path d="M39.7746371,180.732657 C39.8677614,181.150227 39.5734535,181.446852 39.0656626,181.432727 C38.568414,181.423016 37.976284,181.124626 37.693397,180.696462 C34.9822501,176.824446 31.0358886,170.90872 28.9906682,166.690641 C26.3910948,166.761266 23.8126061,166.690641 21.3650185,166.52379 C13.7007134,165.985274 7.63621342,161.72129 5.98281794,154.131751 C3.52380946,142.881188 3.06082359,126.412321 10.94564,118.214524 C13.4889874,115.565204 17.1542191,114.044118 20.3345016,113.199266 C24.841366,112.00129 29.4510185,112.12047 34.0264083,112.12047 C48.889397,112.12047 59.6619451,115.970415 59.6619451,143.402931 C59.6619451,157.326649 49.906736,163.479852 38.5543575,165.692181 C38.4744112,166.52379 38.4023716,167.401306 38.34351,168.316782 C38.0808292,172.511907 38.9681456,177.372673 39.7746371,180.732657 Z" id="Fill-179" fill="#FFFFFF"></path>
                            <path d="M28.6008811,164.925266 C29.1139433,164.925266 29.5839574,165.219242 29.8097399,165.684484 C31.6915534,169.564445 35.1872286,174.850727 37.5575054,178.288398 C36.9240845,175.147352 36.3943303,171.294758 36.6113275,167.818242 C36.6728246,166.885109 36.7457427,165.993469 36.825689,165.148617 C36.8836721,164.552719 37.3246947,164.065406 37.9097964,163.952406 C51.1923077,161.363117 57.9271269,154.311211 57.9271269,142.989141 C57.9271269,115.31032 46.9261608,113.058266 33.6366212,113.058266 L31.3612258,113.054734 C27.5826636,113.054734 23.8937116,113.134187 20.2890986,114.092922 C17.6535054,114.792992 13.993545,116.167531 11.5248726,118.739164 C4.18738112,126.366664 4.45181898,142.192844 6.90731333,153.428398 C8.36128225,160.100695 13.5226523,164.232258 21.0692342,164.761062 C23.608189,164.934977 26.0900393,164.993242 28.5648613,164.926148 C28.5771608,164.925266 28.5885817,164.925266 28.6008811,164.925266 L28.6008811,164.925266 Z M38.704867,179.668234 L38.7101382,181.020703 L38.7101382,179.668234 L38.704867,179.668234 Z M38.7101382,182.371406 C38.6978388,182.371406 38.6521551,182.371406 38.6407342,182.370523 C37.6919207,182.350219 36.7009376,181.812586 36.1843613,181.031297 C33.9889122,177.895547 30.0653924,172.106945 27.7803331,167.646094 C25.5084517,167.684055 23.2181212,167.617844 20.8847427,167.458055 C12.1872851,166.848031 5.98134158,161.819531 4.27962689,154.006641 C1.55705909,141.549273 1.52191785,125.249023 9.58946869,116.861422 C12.4886212,113.84132 16.6344094,112.268148 19.6012088,111.478914 C23.5177003,110.437195 27.3990506,110.351563 31.3612258,110.351563 L33.6366212,110.355094 C50.2935704,110.355094 60.617189,115.814406 60.617189,142.989141 C60.617189,155.3185 53.2919969,163.397117 39.4147201,166.401328 C39.3716721,166.916008 39.3312597,167.447461 39.2961184,167.991273 C39.0422229,172.049563 39.9154828,176.763781 40.6929828,180.001938 C40.8273981,180.601367 40.6991325,181.188438 40.345963,181.631609 C39.9708303,182.102148 39.3760647,182.371406 38.7101382,182.371406 L38.7101382,182.371406 Z" id="Fill-181" fill="#333333"></path>
                        </g>
                        <text id="BUSINESS" font-family="ChalkboardSE-Regular, Chalkboard SE" font-size="15.84" font-weight="normal" line-spacing="15.84" fill="#333333">
                            <tspan x="130.90113" y="191.03125">BUSINESS</tspan>
                        </text>
                        <text id="TECHNOLOGY" font-family="ChalkboardSE-Regular, Chalkboard SE" font-size="15.84" font-weight="normal" line-spacing="15.84" fill="#333333">
                            <tspan x="57.1045198" y="228.109375">TECHNOLOGY</tspan>
                        </text>
                        <text id="HUMANITY" font-family="ChalkboardSE-Regular, Chalkboard SE" font-size="15.84" font-weight="normal" line-spacing="15.84" fill="#333333">
                            <tspan x="0" y="206.921875">HUMANITY</tspan>
                        </text>
                        <text id="INNOVATION" font-family="ChalkboardSE-Regular, Chalkboard SE" font-size="15.84" font-weight="normal" line-spacing="15.84" fill="#333333">
                            <tspan x="196.79096" y="209.570313">INNOVATION</tspan>
                        </text>
                    </g>
                    <g id="Page-1" transform="translate(225.782486, 97.109375)" stroke="#333333" stroke-width="0.55" fill="#333333">
                        <path d="M23.4692841,5.02703902 C22.8792459,4.78625139 22.2669097,4.58184174 21.6511431,4.42247151 C21.2206211,4.30987298 20.7798076,4.57318032 20.6700331,5.00798388 C20.5585433,5.44451973 20.8175426,5.88798472 21.2497799,6.00058325 C21.7969374,6.14263063 22.3406645,6.32278828 22.8638088,6.53759163 C22.963292,6.57743419 23.0662057,6.59648933 23.1674041,6.59648933 C23.4864364,6.59648933 23.7883164,6.40420568 23.9152432,6.08719751 C24.0816202,5.66971679 23.8826539,5.19507067 23.4692841,5.02703902" id="Fill-4"></path>
                        <path d="M27.1160289,7.18667887 C26.7678378,6.90604868 26.2601305,6.9614818 25.9822637,7.31313568 C25.7043968,7.66305727 25.7592841,8.17581366 26.1074752,8.45817614 C29.1948844,10.9578635 30.9649991,14.6805443 30.9649991,18.6734614 C30.9649991,19.4980291 30.8895291,20.3243291 30.7385891,21.1263771 C30.6545429,21.5681098 30.9427011,21.994252 31.3800841,22.079134 C31.4315409,22.0877954 31.4812825,22.0929922 31.5310241,22.0929922 C31.9118045,22.0929922 32.2497043,21.8210235 32.3234591,21.429527 C32.4932666,20.5270065 32.579028,19.600234 32.579028,18.6734614 C32.579028,14.1833784 30.587649,9.9981776 27.1160289,7.18667887" id="Fill-6"></path>
                        <path d="M25.5352754,33.0980263 C24.0979149,33.8498381 23.0619176,34.6605475 22.612528,36.3928326 L21.5645241,36.3928326 L24.8234561,19.4043125 C24.905787,18.9625798 24.619344,18.6802173 24.181961,18.5970677 C23.7428628,18.5121857 23.3209169,18.8742333 23.238586,19.315966 L23.034474,20.4315576 C21.5902525,20.4627387 20.8218307,20.9945502 20.1426007,21.4518735 C19.5354102,21.8606928 19.0551465,22.1932915 18.0088579,22.1932915 C16.9625692,22.1932915 16.4840208,21.8745511 15.8768303,21.4657318 C15.1976003,21.0084085 14.4291784,20.4956521 12.9832418,20.464471 L12.780845,19.3869897 C12.6967988,18.945257 12.2748529,18.6559654 11.8374699,18.7408473 C11.400087,18.823997 11.1119288,18.9625798 11.1959749,19.4043125 L14.4549068,36.3928326 L13.4086182,36.3928326 C12.9609438,34.6605475 11.928377,33.8515703 10.4961621,33.1049555 C7.8135466,31.7052691 5.56488356,29.7321963 3.99373532,27.1251073 C2.37627595,24.4435299 1.55296683,21.424157 1.61643024,18.2627366 C1.69704592,14.1156461 3.34537939,10.1937526 6.25440495,7.15359222 C9.16514574,4.11169957 13.0261225,2.33610733 17.1238006,2.1178394 C17.4239653,2.10224884 17.7206997,2.10398112 18.017434,2.10398112 C22.2403237,2.10398112 26.2162207,3.70288028 29.2933385,6.65296182 C32.5900054,9.81264986 34.4064312,13.9372207 34.4064312,18.526044 C34.4064312,24.7414829 31.0068506,30.2380236 25.5352754,33.0980263 L25.5352754,33.0980263 Z M19.7292309,46.7865433 L16.2884849,46.7865433 C15.5680894,46.7865433 14.9557532,46.3794563 14.5046484,45.8926841 L22.2591912,44.8030768 C21.9401589,45.910007 20.9264596,46.7865433 19.7292309,46.7865433 L19.7292309,46.7865433 Z M18.0088579,49.1320573 C17.3210517,49.1320573 16.7258678,48.7336317 16.4308487,48.1550485 L19.586867,48.1550485 C19.2935631,48.7336317 18.696664,49.1320573 18.0088579,49.1320573 L18.0088579,49.1320573 Z M13.5595582,43.2440202 L13.5595582,42.3761454 L22.1356948,41.0803961 L22.1356948,42.9460672 L13.5921475,44.2262259 C13.5269688,43.9213437 13.5595582,43.5939418 13.5595582,43.2440202 L13.5595582,43.2440202 Z M15.4240103,38.1251177 L15.4274407,38.1251177 L15.4308712,38.1251177 L20.5868446,38.1251177 L20.590275,38.1251177 L20.5937055,38.1251177 L22.3655353,38.1251177 C22.3655353,38.1251177 22.1356948,38.6690552 22.1356948,38.7054332 L22.1356948,39.432993 L13.5595582,40.7287422 L13.5595582,38.7019686 C13.5595582,38.6673229 13.6538957,38.1251177 13.6538957,38.1251177 L15.4240103,38.1251177 Z M15.7481882,34.6605475 L20.2712427,34.6605475 L19.9230516,36.3928326 L16.0963794,36.3928326 L15.7481882,34.6605475 Z M20.5782684,32.9282624 L15.4411626,32.9282624 L13.2954132,21.8329762 C14.0449675,21.9126614 14.4686287,22.3370712 14.9814816,22.6835282 C15.6812944,23.1547098 16.4754446,23.7592773 18.0088579,23.7592773 C19.5439863,23.7592773 20.3381366,23.2603792 21.0379493,22.7891976 C21.5508023,22.4444729 21.9744635,21.8953385 22.7240178,21.8156534 L20.5782684,32.9282624 Z M30.4048058,5.47674023 C26.7856761,2.00870544 22.0379269,0.2452392 17.0397544,0.510278822 C12.532137,0.747601882 8.2903798,2.71894234 5.09491127,6.05705574 C1.90115798,9.39343687 0.093308367,13.7432048 0.0041165456,18.3025792 C-0.0644925478,21.7758108 0.839432257,25.1693574 2.61640778,28.1177066 C4.34192647,30.9794416 6.71237065,33.3041682 9.65741598,34.8407051 C11.0673328,35.575194 11.8443308,37.0562978 11.8443308,38.7019686 L11.8443308,43.2440202 C11.8443308,45.4093766 12.9780961,47.1226066 14.5578205,47.8172529 C14.7876609,49.4785143 16.2524651,50.7604053 17.9608315,50.7604053 C19.6640522,50.7604053 21.0413798,49.4819789 21.2746507,47.824182 C22.8080639,47.1780397 23.8509222,45.6466997 23.8509222,43.8659106 L23.8509222,38.7054332 C23.8509222,37.0580301 24.7960124,35.575194 26.2145054,34.833776 C32.2229468,31.6914108 35.9878708,25.5002238 35.9878708,18.6732882 C35.9878708,13.6323385 34.0256507,8.94650731 30.4048058,5.47674023 L30.4048058,5.47674023 Z" id="Fill-1"></path>
                    </g>
                    <g id="Page-1" transform="translate(141.443503, 67.093750)">
                        <path d="M42.4241679,27.6286854 L41.8316475,34.3428276 C41.6520367,36.450101 39.8695948,38.0640588 37.753311,38.0640588 L5.39310703,38.0640588 C3.27584714,38.0640588 1.51585656,36.450101 1.317699,34.3428276 L0.743725361,27.6286854 L1.47583459,11.5434885 C1.57247301,9.37794945 3.37443785,7.66494008 5.55221877,7.66494008 L37.5951755,7.66494008 C39.7934554,7.66494008 41.5944441,9.37794945 41.6901064,11.5434885 L42.4241679,27.6286854 L42.4241679,27.6286854 Z" id="Fill-1" fill="#FF3E00"></path>
                        <path d="M5.55182831,8.4068557 C3.7635295,8.4068557 2.30126334,9.79940414 2.2212194,11.5774768 L1.48911017,27.6617026 L2.06113151,34.2797065 C2.22317169,36.0111666 3.65712963,37.3211721 5.39369272,37.3211721 L37.7529206,37.3211721 C39.4787461,37.3211721 40.9429645,35.9859182 41.0874341,34.2816487 L41.6770261,27.6121768 L40.9449168,11.5784479 C40.8668252,9.79940414 39.3947976,8.4068557 37.594785,8.4068557 L5.55182831,8.4068557 Z M5.39369272,38.8069455 C2.88109385,38.8069455 0.810688952,36.9171971 0.573485562,34.4117752 L0.000488072819,27.6918065 L0.730645009,11.5095002 C0.84680634,8.93804398 2.96406623,6.92205336 5.55182831,6.92205336 L37.594785,6.92205336 C40.195237,6.92205336 42.3212822,8.93804398 42.4354912,11.5114424 L43.1695527,27.5956682 C43.171505,27.6277143 43.171505,27.6607315 43.1676004,27.6937487 L42.57508,34.4078909 C42.3652087,36.8734979 40.248925,38.8069455 37.7529206,38.8069455 L5.39369272,38.8069455 Z" id="Fill-3" stroke="#333333" stroke-width="0.55" fill="#333333"></path>
                        <path d="M42.1649036,22.1197677 C42.2312815,23.5560153 41.7031868,24.9563325 40.7045898,25.9954028 C39.7059928,27.0354442 38.3227944,27.623927 36.8780989,27.623927 L6.27398085,27.623927 C4.82830917,27.623927 3.44608694,27.0354442 2.44748996,25.9963739 C1.44889297,24.9563325 0.92079818,23.5560153 0.987176083,22.1197677 L1.47036817,11.5455278 C1.56895888,9.37027781 3.37092373,7.65726844 5.55944225,7.65726844 L37.5916613,7.65726844 C39.781156,7.65726844 41.5811685,9.37027781 41.6817116,11.5445567 L42.1649036,22.1197677 Z" id="Fill-6" fill="#FF3E00"></path>
                        <path d="M5.55944225,8.40025227 C3.76528657,8.40025227 2.29716353,9.79668508 2.21516729,11.5786421 L1.73295135,22.152882 C1.67535876,23.3813155 2.13317106,24.5951827 2.98729849,25.4827624 C3.84044978,26.3722843 5.03915662,26.8801663 6.27398085,26.8801663 L36.8780989,26.8801663 C38.1138992,26.8801663 39.3126061,26.3713132 40.1647812,25.4827624 C41.0189087,24.5951827 41.476721,23.3813155 41.4191284,22.152882 L40.9359363,11.577671 C40.8549162,9.79571398 39.3848409,8.40025227 37.5916613,8.40025227 L5.55944225,8.40025227 Z M6.27398085,28.3659398 C4.63308004,28.3659398 3.04196265,27.6890874 1.90865756,26.5082374 C0.774376334,25.3293296 0.167213748,23.7163429 0.242376962,22.0858765 L0.724592906,11.5116366 C0.842706529,8.93435383 2.96679944,6.91544992 5.55944225,6.91544992 L37.5916613,6.91544992 C40.1862564,6.91544992 42.3093732,8.93435383 42.4274868,11.5116366 L42.9106789,22.0858765 C42.9858421,23.7163429 42.3786795,25.3293296 41.2443983,26.5082374 C40.1110932,27.6881163 38.5199758,28.3659398 36.8780989,28.3659398 L6.27398085,28.3659398 Z" id="Fill-8" stroke="#333333" stroke-width="0.55" fill="#333333"></path>
                        <path d="M21.587656,28.3636091 L21.5671569,28.3636091 C21.1542473,28.3636091 20.8194294,28.0314951 20.8194294,27.6216935 C20.8194294,27.211892 21.1542473,26.8788068 21.5671569,26.8788068 C21.9781142,26.8788068 22.3236698,27.211892 22.3236698,27.6216935 C22.3236698,28.0314951 21.9995895,28.3636091 21.587656,28.3636091" id="Fill-10" fill="#4B497A"></path>
                        <path d="M28.6853085,7.64784883 L28.6853085,2.48163008 C24.9622891,1.14831836 18.1917429,1.14928945 14.4687235,2.48163008 L14.4687235,7.64784883 C14.4687235,8.05765039 14.1339055,8.38976445 13.7209959,8.38976445 C13.3090625,8.38976445 12.9761968,8.05765039 12.9761968,7.64784883 L12.9761968,1.97569023 C12.9761968,1.67562227 13.1548315,1.4066293 13.4320568,1.29009805 C17.5435822,-0.430680078 25.6124021,-0.429708984 29.7229513,1.29009805 C29.9992006,1.4066293 30.1788114,1.67562227 30.1788114,1.97569023 L30.1788114,7.64784883 C30.1788114,8.05765039 29.8449696,8.38976445 29.4330361,8.38976445 C29.0201265,8.38976445 28.6853085,8.05765039 28.6853085,7.64784883 Z" id="Fill-12" stroke="#333333" stroke-width="0.55" fill="#333333"></path>
                        <path d="M13.7212888,3.84825031 L29.4333289,3.84825031 L13.7212888,3.84825031 Z" id="Fill-14" fill="#FFFFFF"></path>
                        <path d="M13.7209959,4.59074859 C13.3090625,4.59074859 12.9761968,4.25863453 12.9761968,3.84786187 C12.9761968,3.43806031 13.3090625,3.10594625 13.7209959,3.10594625 L29.4330361,3.10594625 C29.8449696,3.10594625 30.1788114,3.43806031 30.1788114,3.84786187 C30.1788114,4.25863453 29.8449696,4.59074859 29.4330361,4.59074859 L13.7209959,4.59074859 Z" id="Fill-16" stroke="#333333" stroke-width="0.55" fill="#333333"></path>
                        <polygon id="Fill-18" fill="#FFFFFF" points="17.7072819 31.1971636 25.4481168 31.1971636 25.4481168 26.1348519 17.7072819 26.1348519"></polygon>
                        <path d="M18.4550094,31.4263417 L24.7003892,31.4263417 L24.7003892,27.8478613 L18.4550094,27.8478613 L18.4550094,31.4263417 Z M17.708258,32.9121152 C17.2963245,32.9121152 16.9624827,32.57903 16.9624827,32.1682573 L16.9624827,27.1059456 C16.9624827,26.6961441 17.2963245,26.3630589 17.708258,26.3630589 L25.4481168,26.3630589 C25.8600502,26.3630589 26.193892,26.6961441 26.193892,27.1059456 L26.193892,32.1682573 C26.193892,32.57903 25.8600502,32.9121152 25.4481168,32.9121152 L17.708258,32.9121152 Z" id="Fill-20" stroke="#333333" stroke-width="0.55" fill="#333333"></path>
                    </g>
                    <path d="M37.3643514,148.842541 C34.033551,151.600927 32.1053657,154.615677 32.0068213,154.775217 C31.8568148,154.602474 29.0351604,151.323658 26.8343357,148.842541 C24.6346059,146.355922 15.811598,138.6298 21.522793,132.693823 C23.3425794,130.804653 25.0736759,130.160993 26.5890696,130.160993 C29.83337,130.160993 31.9794479,132.96119 32.0900366,133.111927 C32.2433278,132.958989 35.1153494,130.056467 38.5983462,130.056467 C40.1936704,130.056467 41.8820643,130.694626 43.4237366,132.557389 C48.3268675,138.490065 40.7017215,146.080854 37.3643514,148.842541" id="Fill-1" stroke="#333333" stroke-width="2.2" fill="#FF3E00"></path>
                </g>
            </g>
        </g>
    </g>
</svg>