<?xml version="1.0" encoding="UTF-8" standalone="no"?>
<svg width="214px" height="214px" viewBox="0 0 214 214" version="1.1" xmlns="http://www.w3.org/2000/svg" xmlns:xlink="http://www.w3.org/1999/xlink">
    <!-- Generator: Sketch 41 (35326) - http://www.bohemiancoding.com/sketch -->
    <title>Group 28</title>
    <desc>Created with Sketch.</desc>
    <defs>
        <rect id="path-1" x="0.425797914" y="0" width="189.524294" height="189.524294" rx="6.4"></rect>
        <filter x="-50%" y="-50%" width="200%" height="200%" filterUnits="objectBoundingBox" id="filter-2">
            <feMorphology radius="2" operator="dilate" in="SourceAlpha" result="shadowSpreadOuter1"></feMorphology>
            <feOffset dx="0" dy="3" in="shadowSpreadOuter1" result="shadowOffsetOuter1"></feOffset>
            <feGaussianBlur stdDeviation="4" in="shadowOffsetOuter1" result="shadowBlurOuter1"></feGaussianBlur>
            <feComposite in="shadowBlurOuter1" in2="SourceAlpha" operator="out" result="shadowBlurOuter1"></feComposite>
            <feColorMatrix values="0 0 0 0 0   0 0 0 0 0   0 0 0 0 0  0 0 0 0.05 0" type="matrix" in="shadowBlurOuter1"></feColorMatrix>
        </filter>
        <mask id="mask-3" maskContentUnits="userSpaceOnUse" maskUnits="objectBoundingBox" x="0" y="0" width="189.524294" height="189.524294" fill="white">
            <use xlink:href="#path-1"></use>
        </mask>
    </defs>
    <g id="LANDING" stroke="none" stroke-width="1" fill="none" fill-rule="evenodd">
        <g id="01.-Landing-" transform="translate(-431.000000, -3845.000000)">
            <g id="Group-28" transform="translate(443.000000, 3854.000000)">
                <g id="Rectangle-2">
                    <use fill="black" fill-opacity="1" filter="url(#filter-2)" xlink:href="#path-1"></use>
                    <use stroke="#CCCCCC" mask="url(#mask-3)" stroke-width="1.6" fill="#FFFFFF" fill-rule="evenodd" xlink:href="#path-1"></use>
                </g>
                <text id="STRATEGY" font-family="Roboto-Regular, Roboto" font-size="16" font-weight="normal" line-spacing="22.4" fill="#333333">
                    <tspan x="56.4535699" y="131.407717">STRATEGY</tspan>
                </text>
                <g id="Page-1" transform="translate(74.556962, 53.713080)" stroke="#FF3E00" stroke-width="2.4">
                    <path d="M27.8546242,20.443038 C27.8546242,24.2065039 24.8130496,27.257384 21.0610627,27.257384 C17.3090757,27.257384 14.2675012,24.2065039 14.2675012,20.443038 C14.2675012,16.679572 17.3090757,13.628692 21.0610627,13.628692 C24.8130496,13.628692 27.8546242,16.679572 27.8546242,20.443038 Z" id="Stroke-1"></path>
                    <path d="M34.6481856,20.443038 C34.6481856,27.9699699 28.5650366,34.07173 21.0610627,34.07173 C13.5570887,34.07173 7.47393967,27.9699699 7.47393967,20.443038 C7.47393967,12.9161061 13.5570887,6.81434599 21.0610627,6.81434599 C28.5650366,6.81434599 34.6481856,12.9161061 34.6481856,20.443038 Z" id="Stroke-3"></path>
                    <path d="M20.8438819,0 L20.8438819,6.81434599" id="Stroke-5"></path>
                    <path d="M0.0627816772,20.0421941 L6.85634317,20.0421941" id="Stroke-7"></path>
                    <path d="M20.8438819,40.8860759 L20.8438819,34.07173" id="Stroke-9"></path>
                    <path d="M41.1329489,20.0421941 L34.3393874,20.0421941" id="Stroke-11"></path>
                </g>
            </g>
        </g>
    </g>
</svg>