<?xml version="1.0" encoding="UTF-8" standalone="no"?>
<svg width="480px" height="355px" viewBox="0 0 480 355" version="1.1" xmlns="http://www.w3.org/2000/svg" xmlns:xlink="http://www.w3.org/1999/xlink">
    <!-- Generator: Sketch 41 (35326) - http://www.bohemiancoding.com/sketch -->
    <title>Group 25</title>
    <desc>Created with Sketch.</desc>
    <defs></defs>
    <g id="LANDING" stroke="none" stroke-width="1" fill="none" fill-rule="evenodd">
        <g id="01.-Landing-" transform="translate(-98.000000, -1955.000000)">
            <g id="Group-25" transform="translate(98.000000, 1955.000000)">
                <rect id="Rectangle-3" fill="#FFFFFF" x="0" y="0.5" width="480" height="354"></rect>
                <g id="Group-17" transform="translate(118.000000, 54.000000)">
                    <text id="10-MINS!" font-family="ChalkboardSE-Regular, Chalkboard SE" font-size="19.36" font-weight="normal" line-spacing="15.84" fill="#333333">
                        <tspan x="0" y="41.4163701">10 MINS!</tspan>
                    </text>
                    <g id="Page-1" transform="translate(4.388489, 51.188612)">
                        <path d="M75.1544374,140.42415 L75.1544374,154.605953 C75.1544374,160.013741 71.6013662,165.42795 64.4502753,169.560296 C50.1480935,177.82927 26.9610932,177.82927 12.6631922,169.560296 C5.51210133,165.42795 1.95903012,160.013741 1.95903012,154.605953 L1.95903012,140.42415 C1.95903012,145.831939 5.51210133,151.246147 12.6631922,155.378494 C26.9610932,163.647467 50.1480935,163.647467 64.4502753,155.378494 C71.6013662,151.246147 75.1544374,145.831939 75.1544374,140.42415" id="Fill-1" fill="#FFFFFF"></path>
                        <path d="M3.02859017,147.89747 L3.02859017,154.606381 C3.02859017,159.864369 6.63945229,164.846297 13.1976512,168.636243 C19.9527673,172.541749 28.9595888,174.692453 38.5571619,174.692453 C48.1525945,174.692453 57.1572756,172.541749 63.9145321,168.636243 C70.472731,164.846297 74.0835931,159.864369 74.0835931,154.606381 L74.0835931,147.89747 C72.2064585,151.045415 69.1285571,153.91302 64.9847343,156.307683 C57.9106979,160.39937 48.5228845,162.652793 38.5571619,162.652793 C28.5871584,162.652793 19.2036258,160.39937 12.127449,156.307683 C7.98576663,153.91302 4.90572478,151.045415 3.02859017,147.89747 M38.5571619,176.832456 C28.5871584,176.832456 19.2036258,174.581172 12.127449,170.489486 C4.87789952,166.301499 0.888185823,160.65831 0.888185823,154.606381 L0.888185823,140.424578 C0.888185823,139.833937 1.3676364,139.354577 1.95838799,139.354577 C2.54913959,139.354577 3.02859017,139.833937 3.02859017,140.424578 C3.02859017,145.682567 6.63945229,150.664495 13.1976512,154.454441 C19.9527673,158.359947 28.9595888,160.51279 38.5571619,160.51279 C48.1525945,160.51279 57.1572756,158.359947 63.9145321,154.454441 C70.472731,150.664495 74.0835931,145.682567 74.0835931,140.424578 C74.0835931,139.833937 74.5630437,139.354577 75.1537953,139.354577 C75.7466873,139.354577 76.2239975,139.833937 76.2239975,140.424578 L76.2239975,154.606381 C76.2239975,160.65831 72.2342838,166.301499 64.9847343,170.489486 C57.9106979,174.581172 48.5228845,176.832456 38.5571619,176.832456" id="Fill-3" fill="#333333"></path>
                        <path d="M38.5565197,162.626685 C28.9824911,162.626685 19.4148837,160.520922 12.1268069,156.307255 C4.8793978,152.119269 0.887543702,146.47608 0.887543702,140.42415 C0.887543702,136.880305 2.31305299,133.359999 5.01210287,130.254854 C5.40379687,129.811873 6.07802423,129.762653 6.52322834,130.149994 C6.96843244,130.539475 7.01766174,131.211436 6.63024855,131.658696 C4.27366337,134.372221 3.02794804,137.402466 3.02794804,140.42415 C3.02794804,145.682139 6.64095058,150.664067 13.1970091,154.456153 C27.1781302,162.538945 49.928488,162.534665 63.9160304,154.456153 C70.4720889,150.664067 74.0850914,145.682139 74.0850914,140.42415 C74.0850914,137.402466 72.8393761,134.372221 70.4827909,131.658696 C70.0953777,131.211436 70.144607,130.539475 70.5898111,130.149994 C71.0371556,129.762653 71.7092426,129.811873 72.1009366,130.254854 C74.7999865,133.359999 76.2254958,136.880305 76.2254958,140.42415 C76.2254958,146.47608 72.2336417,152.119269 64.9862326,156.307255 C57.6981558,160.520922 48.1262676,162.626685 38.5565197,162.626685" id="Fill-5" fill="#333333"></path>
                        <path d="M38.5355438,7.90272841 C29.9782072,7.90272841 21.9559717,9.80947143 15.9435759,13.2741369 C10.1195357,16.6596223 6.9089292,21.0765893 6.9089292,25.7161166 L6.9089292,38.3763767 C6.9089292,54.0497615 7.5510505,64.2789777 16.4850982,74.1379733 C20.8493827,78.9208809 26.3309582,82.158706 32.3262308,83.5004881 C32.814243,83.6139083 33.1609885,84.044049 33.1609885,84.5448098 L33.1609885,91.3971006 C33.1609885,91.8978614 32.814243,92.3322821 32.3262308,92.4414223 C26.3009925,93.7874844 20.8236978,97.0231696 16.4829578,101.799657 C7.27707875,111.956113 6.9089292,118.271263 6.9089292,132.833986 L6.9089292,135.718711 C6.9089292,140.368938 10.1259569,144.788045 15.96498,148.164971 C21.9880778,151.625356 30.0188749,153.532099 38.5783519,153.532099 C47.1378288,153.532099 55.1686259,151.625356 61.1917237,148.160691 C67.015764,144.796605 70.2242301,140.377498 70.2242301,135.718711 L70.2242301,132.833986 C70.2242301,118.284103 69.8560805,111.973233 60.6245166,101.799657 C56.2602321,96.9974895 50.7829374,93.7618044 44.7876649,92.4414223 C44.2953719,92.3322821 43.946486,91.8978614 43.946486,91.3971006 L43.946486,84.5448098 C43.946486,84.044049 44.2953719,83.6096283 44.7876649,83.5004881 C50.7850778,82.180106 56.2602321,78.9401409 60.6245166,74.1379733 C69.5542835,64.3153578 70.2242301,53.6025008 70.2242301,38.3763767 L70.2242301,25.7161166 C70.2242301,21.0851493 66.9986407,16.6639023 61.140354,13.2741369 C55.121537,9.80947143 47.0907399,7.90272841 38.5355438,7.90272841 M38.5783519,155.672102 C29.6507253,155.672102 21.2410767,153.660499 14.8969182,150.016073 C8.36440415,146.243248 4.76852486,141.162879 4.76852486,135.718711 L4.76852486,132.833986 C4.76852486,118.063683 5.17734209,111.082992 14.8990586,100.361575 C19.3361168,95.4759471 24.8947469,92.0990218 31.0205841,90.5517993 L31.0205841,85.3901111 C24.9247126,83.8428887 19.3660825,80.4659633 14.901199,75.5803356 C4.76852486,64.3902579 4.76852486,51.7556779 4.76852486,38.3763767 L4.76852486,25.7161166 C4.76852486,20.282648 8.35584254,15.2087 14.8712334,11.423034 C21.2068302,7.7721882 29.6100577,5.76272502 38.5355438,5.76272502 C47.4610299,5.76272502 55.8685381,7.7721882 62.2105562,11.418754 C68.7580531,15.21298 72.3646344,20.286928 72.3646344,25.7161166 L72.3646344,38.3763767 C72.3646344,54.1011216 71.658301,65.1863391 62.2105562,75.5760556 C57.7499536,80.4830834 52.1913235,83.8642887 46.0868903,85.3943911 L46.0868903,90.5475193 C52.1891831,92.0733417 57.7478132,95.4545471 62.2105562,100.361575 C71.9536768,111.100112 72.3646344,118.074383 72.3646344,132.833986 L72.3646344,135.718711 C72.3646344,141.171439 68.7751763,146.249668 62.2597855,150.016073 C55.915627,153.660499 47.503838,155.672102 38.5783519,155.672102" id="Fill-7" fill="#333333"></path>
                        <path d="M75.1711326,22.7573479 L75.1711326,36.9263104 L75.1711326,36.8171702 L75.1711326,36.9263104 C75.1711326,42.3383789 71.5923765,47.7525875 64.432724,51.872094 C50.1391038,60.1325071 26.9585248,60.1325071 12.6627642,51.872094 C5.51809446,47.7525875 1.94790001,42.3383789 1.94790001,36.9263104 L1.94790001,22.7573479 L75.1711326,22.7573479 Z" id="Fill-9" fill="#FFFFFF"></path>
                        <path d="M38.5479581,59.1123675 C28.9782103,59.1123675 19.4127433,57.0108842 12.1268069,52.8014975 C4.87297659,48.6177909 0.87684168,42.978882 0.87684168,36.9269524 L0.87684168,22.7579899 C0.87684168,22.167349 1.35629225,21.6879882 1.94704385,21.6879882 C2.53993585,21.6879882 3.01724602,22.167349 3.01724602,22.7579899 L3.01724602,36.9269524 C3.01724602,42.1806607 6.63238896,47.1625886 13.1970091,50.9503946 C27.1781302,59.0246274 49.917786,59.0246274 63.8989072,50.9503946 C70.4785101,47.1583086 74.1000743,42.1806607 74.1000743,36.9269524 L74.1000743,22.7579899 C74.1000743,22.167349 74.5795248,21.6879882 75.1702764,21.6879882 C75.7631684,21.6879882 76.2404786,22.167349 76.2404786,22.7579899 L76.2404786,36.9269524 L76.2404786,36.9676124 C76.1762665,43.0709021 72.1779912,48.6498909 64.9669689,52.8014975 C57.6853134,57.0108842 48.1155655,59.1123675 38.5479581,59.1123675" id="Fill-11" fill="#333333"></path>
                        <path d="M75.1711326,22.7573479 C75.1711326,28.1608565 71.5923765,33.5750651 64.432724,37.6945716 C50.1391038,45.9592647 26.9585248,45.9592647 12.6627642,37.6945716 C5.51809446,33.5750651 1.94790001,28.1608565 1.94790001,22.7573479 C1.94790001,17.3452794 5.51809446,11.9396308 12.6627642,7.81584427 C26.9585248,-0.427448782 50.1391038,-0.427448782 64.432724,7.81584427 C71.5923765,11.9396308 75.1711326,17.3452794 75.1711326,22.7573479" id="Fill-14" fill="#FFFFFF"></path>
                        <path d="M38.5479581,2.70316218 C28.9546659,2.70316218 19.9521252,4.84744557 13.1970091,8.74225174 C6.63452936,12.5343377 3.01724602,17.5119856 3.01724602,22.7571339 C3.01724602,28.0065623 6.63238896,32.9842101 13.1970091,36.7720161 C19.9521252,40.6753823 28.9546659,42.8239457 38.5479581,42.8239457 C48.1433908,42.8239457 57.1459315,40.6753823 63.8989072,36.7720161 C70.4785101,32.9799301 74.1000743,28.0065623 74.1000743,22.7571339 C74.1000743,17.5119856 70.4785101,12.5343377 63.8989072,8.74225174 C57.1459315,4.84744557 48.1433908,2.70316218 38.5479581,2.70316218 M38.5479581,44.9639491 C28.5843759,44.9639491 19.2008433,42.7105255 12.1268069,38.6231191 C4.87297659,34.4394124 0.87684168,28.8047835 0.87684168,22.7571339 C0.87684168,16.7137644 4.87297659,11.0791354 12.1268069,6.89114881 C19.2008433,2.81230235 28.5843759,0.563158787 38.5479581,0.563158787 C48.5115403,0.563158787 57.895073,2.81230235 64.9691093,6.8868688 C72.2379225,11.0791354 76.2404786,16.7137644 76.2404786,22.7571339 C76.2404786,28.8047835 72.2379225,34.4394124 64.9669689,38.6231191 C57.895073,42.7105255 48.5115403,44.9639491 38.5479581,44.9639491" id="Fill-16" fill="#333333"></path>
                        <path d="M52.0175227,72.9012654 C51.4631579,73.7957868 50.8039134,74.6731882 50.0162446,75.5334695 C46.9404835,78.9317949 42.8651537,80.7935979 38.5565197,80.7935979 C34.2521666,80.7935979 30.1725559,78.9317949 27.0839525,75.5334695 C26.2962837,74.6560681 25.6241967,73.7786667 25.0676916,72.8713053 C25.3009956,72.7172251 25.5450017,72.5631448 25.7890078,72.4283246 C29.0638265,70.5515416 33.7106443,69.4622799 38.5415369,69.4622799 C43.3574467,69.4622799 48.0171069,70.5515416 51.2962064,72.4411646 C51.5402125,72.5802648 51.786359,72.7343451 52.0175227,72.9012654" id="Fill-19" fill="#FF3E00"></path>
                        <path d="M26.5794592,73.2147758 C26.9583107,73.7412167 27.388532,74.2719375 27.8786846,74.8197784 C30.7511072,77.9805634 34.5460441,79.7225262 38.5571619,79.7225262 C42.57042,79.7225262 46.3589357,77.9805634 49.2227967,74.8154984 C49.6936857,74.3061776 50.1239069,73.7754567 50.5134605,73.2318959 C47.392751,71.5091931 43.052011,70.5312116 38.542179,70.5312116 C34.0344875,70.5312116 29.6980283,71.5049131 26.5794592,73.2147758 M38.5571619,81.8625295 C33.9338885,81.8625295 29.5781656,79.8723264 26.2905046,76.2535807 C25.4257812,75.2884391 24.7301498,74.3682377 24.154381,73.4330562 C23.8547244,72.9429954 23.9959911,72.3031344 24.4754417,71.9821339 C24.7322902,71.8109336 25.0041216,71.6397334 25.2759529,71.4920731 C28.7048807,69.52327 33.5486157,68.3912082 38.542179,68.3912082 C43.5421636,68.3912082 48.3858986,69.53183 51.8319496,71.5134732 C52.1016405,71.6675534 52.3798931,71.8430337 52.6431628,72.035634 C53.099069,72.3630545 53.2232124,72.9900755 52.9256962,73.4651562 C52.3285234,74.4345778 51.6136284,75.3718993 50.8066959,76.2578607 C47.5340177,79.8723264 43.1825756,81.8625295 38.5571619,81.8625295" id="Fill-21" fill="#333333"></path>
                        <path d="M38.5772817,147.517192 C31.1693422,147.517192 24.0225321,145.850129 18.9797395,142.948284 C15.186943,140.763341 12.9223952,138.062657 12.9223952,135.725773 L12.9223952,132.834628 C12.9223952,97.924753 64.1979216,97.924753 64.1979216,132.834628 L64.1979216,135.725773 C64.1979216,138.066937 61.9376547,140.776181 58.159841,142.961124 C53.1320312,145.850129 45.9873615,147.517192 38.5772817,147.517192" id="Fill-23" fill="#FF3E00"></path>
                        <path d="M38.5605865,107.722331 C26.7284313,107.722331 13.9908851,115.580423 13.9908851,132.83313 L13.9908851,135.726415 C13.9908851,137.648138 16.1077449,140.059922 19.5152687,142.020165 C24.4039522,144.834269 31.3517047,146.447832 38.5777097,146.447832 C45.799434,146.447832 52.7429057,144.838549 57.6273084,142.033005 C61.0177089,140.072762 63.1281476,137.652418 63.1281476,135.726415 L63.1281476,132.83313 C63.1281476,115.580423 50.3906013,107.722331 38.5605865,107.722331 M38.5777097,148.587835 C30.9899763,148.587835 23.6505299,146.869413 18.4472069,143.877688 C14.2562952,141.461624 11.8504807,138.489159 11.8504807,135.726415 L11.8504807,132.83313 C11.8504807,114.112381 25.694616,105.582327 38.5605865,105.582327 C51.4244166,105.582327 65.2685519,114.112381 65.2685519,132.83313 L65.2685519,135.726415 C65.2685519,138.497719 62.871299,141.472324 58.6953702,143.888388 C53.496328,146.877973 46.1633027,148.587835 38.5777097,148.587835" id="Fill-25" fill="#333333"></path>
                        <path d="M38.5417509,81.2481346 L38.5417509,106.309714 L38.5417509,81.2481346 Z" id="Fill-27" fill="#333333"></path>
                        <path d="M38.5417509,107.379502 C37.9509993,107.379502 37.4715488,106.902281 37.4715488,106.3095 L37.4715488,81.2479206 C37.4715488,80.6594196 37.9509993,80.1779189 38.5417509,80.1779189 C39.1325025,80.1779189 39.6119531,80.6594196 39.6119531,81.2479206 L39.6119531,106.3095 C39.6119531,106.902281 39.1325025,107.379502 38.5417509,107.379502" id="Fill-29" fill="#333333"></path>
                    </g>
                    <g id="Group-19" transform="translate(124.633094, 0.000000)">
                        <g id="Group-10">
                            <path d="M114.022033,212.596217 C104.784746,233.347339 84.0560619,247.709983 59.9081347,247.709983 C54.6079274,247.709983 49.4219487,247.016246 44.5025034,245.689759 C41.2127196,244.805435 38.0523948,243.661913 35.0291444,242.205827 C14.6736068,232.844189 0.570181663,212.222666 0.570181663,188.307798 C0.570181663,183.748955 1.08040277,179.319711 2.0856145,175.020066 C6.57860632,155.282867 20.7353382,139.395527 39.3774466,132.564885 C45.7590181,130.163488 52.6508106,128.890366 59.9081347,128.890366 C60.867655,128.890366 61.8119448,128.890366 62.6953127,128.958978 C94.2300231,130.415063 119.261318,156.418766 119.261318,188.307798 C119.261318,196.975699 117.426045,205.193814 114.022033,212.596217 Z" id="Fill-44" stroke="#333333" stroke-width="2.64" fill="#CCCCCC"></path>
                            <path d="M65.7254168,203.297854 L64.3394431,206.774162 L62.4432482,218.354234 L59.2829234,222.211717 L59.3438454,222.280328 L61.8721052,229.423532 L51.1346162,234.813335 L44.5017419,245.692046 C41.211958,244.807722 38.0516333,243.6642 35.0283828,242.200491 L34.3201655,240.500454 L34.4496246,237.085133 L34.4496246,237.016522 L33.3073385,235.56806 L33.3073385,235.499449 L33.5662567,233.349626 L32.2335896,224.742713 L37.9830961,215.449687 L37.9830961,215.320088 L25.2199532,206.088049 L33.4977195,189.506972 L46.0857119,193.044268 L51.9570622,190.833458 L52.4672833,190.650494 L62.3823263,200.324695 L65.7254168,203.297854 Z" id="Fill-48" stroke="#333333" stroke-width="2.64" fill="#FFFFFF"></path>
                            <path d="M45.3112419,139.149288 L35.2591246,155.029005 L31.3525063,154.266656 L31.0326662,154.198045 L23.516424,172.166596 L24.4074071,181.215671 L24.3388699,181.84842 L20.097181,188.999248 L19.3508875,188.869649 L2.08713755,175.017779 L2.08713755,174.956791 C6.58012937,155.28058 20.7368612,139.400863 39.3713544,132.570222 L45.3112419,139.149288 Z" id="Fill-52" stroke="#333333" stroke-width="2.64" fill="#FFFFFF"></path>
                            <path d="M119.261318,188.307798 C119.261318,196.975699 117.426045,205.193814 114.022033,212.596217 L113.062513,213.10699 L106.109798,206.901475 L105.927032,206.779499 L105.485348,205.064215 L105.607192,202.60183 L103.9623,200.512995 L103.848072,200.512995 L100.29937,201.847105 L98.662093,199.308485 L100.611594,191.974694 L98.5326339,189.824871 L98.5326339,189.634284 L102.515405,177.673038 L99.8576857,176.918313 L99.2865427,176.849702 L99.5378456,176.476151 L92.7145902,173.685956 L92.6460531,173.685956 L85.0688889,164.072743 L84.1779058,164.011755 L74.460859,155.46583 L74.3923219,155.412466 L64.7133514,150.663036 L60.2965119,145.029281 L59.093304,139.464138 L62.6953127,128.958978 C94.2300231,130.415063 119.261318,156.418766 119.261318,188.307798" id="Fill-56" stroke="#333333" stroke-width="2.64" fill="#FFFFFF"></path>
                            <g id="Group-8" transform="translate(2.864806, 0.000000)">
                                <path d="M74.7171252,85.729885 C65.5409012,89.0451856 46.9122092,88.8450061 38.8436963,85.1622529 C38.4498435,84.9894953 38.1024872,84.7152769 37.7578659,84.345082 C35.8077474,82.2418268 34.8477311,77.2181456 34.6726854,71.0098408 C33.9807079,75.0435936 33.4883918,79.3460804 33.1191548,83.9748872 C32.9222284,86.3989779 30.8982624,88.2280147 28.5050594,88.2280147 C28.3819804,88.2280147 28.2342856,88.2280147 28.1084715,88.2033351 C25.5675737,88.0058978 23.6694219,85.7819865 23.8909641,83.2043335 C25.6195404,61.4368761 31.2921153,42.4390247 43.0885546,30.4392271 C43.5535198,29.9730558 44.0239551,29.6001187 44.4916553,29.3780018 C45.9002262,28.7335886 47.3306778,28.1878939 48.7611294,27.7930194 L48.7857452,27.7683398 C49.9700388,30.1458134 51.9447732,31.7774129 54.2148971,32.7152399 C57.2508461,33.9300274 60.8009917,33.9053478 63.8123249,32.6192634 C65.7132118,31.7774129 67.3898214,30.4392271 68.574115,28.5855106 C69.2168609,28.8350494 69.8568718,29.0791038 70.4968827,29.3780018 C70.967318,29.6001187 71.4104024,29.9483761 71.8808377,30.4172896 C78.9619835,36.0579623 80.6905598,49.9114763 80.3185877,70.9851611 C80.0970455,78.2574333 78.8142887,83.9255279 76.122961,85.1622529 C75.7044923,85.356948 75.2121763,85.5571274 74.7171252,85.729885 M62.1357152,39.2718021 C62.1357152,38.8275682 59.3705401,36.0579623 58.9028399,36.0579623 C58.4570204,36.0579623 55.6699646,38.8275682 55.6699646,39.2718021 C55.6699646,39.5432783 56.6081001,40.5853082 57.4723883,41.4244166 C55.5468855,48.0056584 54.362592,65.6900036 54.5102868,66.186339 C54.7072132,66.7813929 58.2874448,70.5902866 58.9028399,70.5902866 C59.52097,70.5902866 63.0957315,66.7813929 63.2926579,66.186339 C63.4430878,65.7146833 62.28341,48.0056584 60.3360266,41.4244166 C61.1975797,40.5853082 62.1357152,39.5432783 62.1357152,39.2718021" id="Fill-62" fill="#FFFFFF"></path>
                                <path d="M70.5191146,12.0414371 L70.5191146,21.6363392 C70.5191146,24.1893126 69.9037195,26.3145053 68.8178891,27.9707845 L68.8178891,27.9954641 C67.6335956,29.8491806 65.9569859,31.1873664 64.0533639,32.029217 C61.0447659,33.3153013 57.4946202,33.339981 54.4586713,32.1251934 C52.1885473,31.1873664 50.213813,29.5557669 49.0295194,27.1782933 C48.2144628,25.6481546 47.7467626,23.7916959 47.7467626,21.6363392 L47.7713784,11.2736255 C48.189847,5.50955456 53.1239478,0.957528958 59.146614,0.957528958 C62.2782911,0.957528958 65.1419294,2.19425398 67.1905111,4.19879056 C69.2609736,6.20332713 70.5191146,8.97293307 70.5191146,12.0414371" id="Fill-64" fill="#FFFFFF"></path>
                                <path d="M60.267138,41.1737452 C62.2172565,47.754987 63.3741992,65.4640119 63.2265044,65.9356676 C63.029578,66.5307215 59.4520814,70.3396152 58.8366864,70.3396152 C58.2185562,70.3396152 54.6410597,66.5307215 54.4441333,65.9356676 C54.2937034,65.4393322 55.4779969,47.754987 57.4034997,41.1737452 C58.0462456,41.7660569 58.6370249,42.2623923 58.8366864,42.2623923 C59.0336128,42.2623923 59.624392,41.7660569 60.267138,41.1737452" id="Fill-66" fill="#FFFFFF"></path>
                                <path d="M57.2961151,41.7074577 C57.7391995,40.1965142 58.2096349,39.2586873 58.7265667,39.2586873 C59.2462336,39.2586873 59.7139339,40.1965142 60.1597534,41.7074577 C59.5142724,42.2997694 58.9262282,42.7961047 58.7265667,42.7961047 C58.5296403,42.7961047 57.936126,42.2997694 57.2961151,41.7074577" id="Fill-68" fill="#FFFFFF"></path>
                                <path d="M58.6191199,39.3037843 C58.1021881,39.3037843 57.6317528,40.2443534 57.1886683,41.7525547 C56.3243802,40.9134463 55.3862446,39.8714164 55.3862446,39.5999401 C55.3862446,39.1557063 58.1733004,36.3861004 58.6191199,36.3861004 C59.0868202,36.3861004 61.8492602,39.1557063 61.8492602,39.5999401 C61.8492602,39.8714164 60.9138597,40.9134463 60.0495715,41.7525547 C59.603752,40.2443534 59.1360518,39.3037843 58.6191199,39.3037843" id="Fill-70" fill="#FFFFFF"></path>
                                <path d="M74.6379573,85.6473512 C73.1828899,100.315294 71.3312346,117.484109 69.1623089,131.411662 C68.9380316,132.747105 69.2853879,134.131908 70.0730936,135.146516 C71.3093538,136.704077 72.9121161,139.673862 73.6752059,143.087881 C73.9733306,144.522044 73.6287094,146.030245 72.7151897,147.118892 C71.7770541,148.160922 70.4450657,148.651773 69.1376931,148.330937 C63.7577728,147.094212 59.0944459,142.841085 57.9593839,139.994698 C58.3532367,124.358764 57.073215,110.436695 57.073215,97.2742118 L55.049249,96.6791579 C54.4803505,109.962298 52.5821987,124.015991 52.284074,139.82194 C51.025933,142.690265 46.1656796,146.995494 40.7392628,148.256899 C39.4291551,148.553054 38.0971667,148.084141 37.2356136,146.995494 C36.3685904,145.931526 36.0732008,144.398645 36.4451729,142.937061 C37.3586926,139.476425 39.0845339,136.50664 40.3672907,134.924399 C41.2315788,133.885112 41.6254317,132.500309 41.4777368,131.137443 C39.7272798,115.65233 38.3925563,100.019138 37.5802349,84.3365872 L37.6786981,84.2625483 C38.0233193,84.6327431 38.3706756,84.9069615 38.7645284,85.0797191 C46.8330413,88.7624724 65.4617333,88.9626518 74.6379573,85.6473512" id="Fill-72" fill="#FFFFFF"></path>
                                <path d="M43.1781964,31.7890216 C42.8800717,31.7890216 42.5846821,31.676592 42.3576697,31.4489908 C41.9036449,30.9937882 41.9036449,30.2561407 42.3576697,29.8009381 C42.9566542,29.2003998 43.5200825,28.7781035 44.086246,28.5121116 C45.6397766,27.7991437 47.1358704,27.2452225 48.5417062,26.8558324 C49.1571012,26.6775904 49.7998472,27.0450431 49.9721578,27.6675189 C50.1417333,28.2872525 49.7807015,28.9289236 49.1625714,29.098939 C47.8716093,29.4581651 46.4931244,29.9709535 45.0654079,30.6208512 C44.7672832,30.7634447 44.4035163,31.0458897 43.9987231,31.4489908 C43.7744458,31.676592 43.4763211,31.7890216 43.1781964,31.7890216" id="Fill-74" fill="#333333"></path>
                                <path d="M57.4563521,89.5168412 C50.0497307,89.5168412 42.6595199,88.4912644 38.2751721,86.48947 C37.7691806,86.2673531 37.2878049,85.9108692 36.8201047,85.4063073 C34.2627964,82.6476701 33.5626135,76.2172484 33.423124,71.311481 C33.4067135,70.6670678 33.9099699,70.1323419 34.5527158,70.1131466 C35.1544354,70.1021778 35.726069,70.6012554 35.7452147,71.2456686 C35.9202604,77.5252702 36.9322433,82.1074598 38.5213301,83.8213249 C38.7729583,84.0900589 38.9945005,84.2628165 39.2215129,84.3615351 C46.9125835,87.8770152 65.2267402,88.1512336 74.2333887,84.9017454 C74.6983539,84.7399566 75.1551137,84.5562302 75.5462315,84.3725039 C77.5319062,83.4620988 78.844749,78.5453627 79.0690263,71.2182468 C79.4792896,47.9316194 77.1626692,36.4473524 71.0716257,31.5964288 C70.5711044,31.10832 70.2346884,30.8505547 69.914683,30.6969924 C69.3293739,30.4255162 68.7358596,30.1979149 68.1423452,29.9675714 L68.9054351,27.7683398 L68.4869665,28.8515025 L68.9792825,27.7957616 C69.6192934,28.0425582 70.2565691,28.2920969 70.89658,28.5882528 C71.4764189,28.8624712 72.0179665,29.2655723 72.6114809,29.8606262 C79.244072,35.1338463 81.8177908,47.1583235 81.3911169,71.2730905 C81.1258133,80.009689 79.4874949,85.1238623 76.5199232,86.48947 C76.0768388,86.6951338 75.5462315,86.9090242 75.0128891,87.0954927 C70.5164026,88.7216079 63.9795396,89.5168412 57.4563521,89.5168412" id="Fill-76" fill="#333333"></path>
                                <path d="M28.7115948,88.8537394 C28.5201386,88.8537394 28.287656,88.8455129 28.0934647,88.8071223 C26.6821587,88.7056615 25.2817931,87.9899514 24.2834856,86.8080701 C23.285178,85.6289309 22.8065374,84.1207297 22.9405568,82.5686535 C24.8633245,58.3469413 31.4138629,40.3719246 42.4061861,29.1454229 C42.619523,28.8903998 42.9395284,28.7258687 43.29509,28.7258687 C43.9351009,28.7258687 44.4547678,29.235915 44.4547678,29.877586 L44.4547678,29.9022657 C44.4547678,30.2066481 44.3344239,30.502804 44.1210869,30.7194366 C33.4843254,41.540095 27.1361835,59.0489405 25.2544422,82.7606063 C25.1751246,83.6984333 25.4595739,84.5978697 26.0558233,85.302611 C26.6493377,86.0046101 27.4835398,86.4323908 28.408,86.5036876 L28.7115948,86.5256251 C30.5358993,86.5256251 32.0210527,85.1572752 32.1687475,83.3419494 C32.5626003,78.4032758 33.074062,74.1282108 33.7359536,70.2754422 C35.9732565,56.792123 39.950076,46.3882765 46.2462512,37.5392484 C46.6182233,37.0154912 47.3430219,36.8948351 47.868159,37.2677722 C48.390561,37.6407092 48.510905,38.367388 48.1389328,38.8911452 C42.0533596,47.4412752 38.2050892,57.5352548 36.0252231,70.6648323 C35.377007,74.4545307 34.8710155,78.6610411 34.485368,83.5284179 C34.23921,86.5146564 31.7037823,88.8537394 28.7115948,88.8537394" id="Fill-78" fill="#333333"></path>
                                <path d="M58.3964213,2.3281143 C53.0438519,2.3281143 48.5555707,6.38654676 48.1781284,11.5637903 L48.1589827,21.8469807 C48.1589827,23.728119 48.5446303,25.4090778 49.3049851,26.8350136 C49.3104553,26.8459823 49.3131904,26.8542089 49.3186605,26.8651776 C50.3005575,28.836808 51.971697,30.3559779 54.1488279,31.2554143 C56.8921223,32.352288 60.1468783,32.3193818 62.8491464,31.1649223 C64.5749876,30.3998529 66.0191147,29.1987763 67.0174222,27.6878328 C67.0393029,27.6357313 67.0666538,27.5836298 67.0967398,27.5397549 C68.0977824,26.006874 68.6092441,24.0900873 68.6092441,21.8442385 L68.6092441,12.2465942 C68.6092441,9.58393342 67.5507646,7.09677244 65.6334671,5.24579818 C63.7106995,3.3619177 61.1424508,2.3281143 58.3964213,2.3281143 M58.3909511,34.3760198 C56.637759,34.3760198 54.887302,34.0551843 53.2790696,33.4135132 C50.5658612,32.2947021 48.4844584,30.3971107 47.2481981,27.9181763 C46.3100625,26.1522097 45.8368921,24.1092826 45.8368921,21.8442385 L45.8615079,11.4760404 C46.326473,5.00448598 51.8322074,0 58.3964213,0 C61.7523757,0 64.8977281,1.26963124 67.2499048,3.57306588 C69.621227,5.8627896 70.9285996,8.94500452 70.9285996,12.2465942 L70.9285996,21.8442385 C70.9285996,24.4931883 70.3214099,26.7938808 69.1207057,28.68873 C69.098825,28.7380893 69.0742092,28.7847065 69.0468583,28.8285814 C67.7996577,30.7810165 65.9753533,32.3276083 63.7736065,33.3010837 C62.0942618,34.0195359 60.2426065,34.3760198 58.3909511,34.3760198" id="Fill-80" fill="#333333"></path>
                                <path d="M70.148102,149.727303 C69.7898053,149.727303 69.4260385,149.683428 69.0677418,149.595679 C63.5565372,148.328789 58.4200399,143.900162 57.0880515,140.560182 C57.0306146,140.414846 57.0032637,140.255799 57.0059988,140.099495 C57.2357463,131.031092 56.8993303,122.585165 56.5738547,114.413457 C56.4015441,110.028704 56.2347037,105.824936 56.1581212,101.689722 C55.906493,105.731702 55.5646068,109.842236 55.2090453,114.125527 C54.5280081,122.346595 53.8250902,130.844624 53.6527796,139.976097 C53.6500445,140.129659 53.6172234,140.280479 53.5543163,140.420331 C52.0855735,143.774022 46.7740304,148.230071 41.2081241,149.524382 C39.4494618,149.919256 37.6661837,149.28307 36.5338568,147.854392 C35.4425562,146.513464 35.0623788,144.61313 35.527344,142.784093 C36.4900953,139.12602 38.3007243,136.019125 39.6737391,134.324455 C40.3383657,133.52648 40.6446957,132.462512 40.529822,131.398545 C38.7273982,115.44726 37.4145555,99.6769592 36.6268498,84.5291343 C36.5940287,83.8874632 37.0863448,83.3390264 37.7263556,83.3061202 C38.3581612,83.2786983 38.9133843,83.7668071 38.9462054,84.4084782 C39.7311759,99.509686 41.0412836,115.230627 42.8382372,131.14078 C43.0242232,132.838191 42.5237019,134.535603 41.4679575,135.802493 C40.3110148,137.228428 38.6426105,140.074815 37.7755872,143.368178 C37.4993432,144.459568 37.7154153,145.622254 38.3417507,146.392807 C38.9325299,147.135939 39.8050234,147.451291 40.6911922,147.253853 C45.8030738,146.066488 50.1354549,142.106774 51.3361591,139.685425 C51.516675,130.57589 52.2168578,122.116252 52.8951599,113.933574 C53.390211,107.961097 53.8579112,102.317683 54.095864,96.7647597 C54.1122745,96.4055336 54.2900553,96.0764715 54.5799748,95.8680655 C54.8698942,95.6596595 55.2391312,95.5965893 55.5810174,95.6953079 L57.6049833,96.2903619 C58.1000345,96.4356976 58.4419206,96.8909002 58.4419206,97.4064308 C58.4419206,102.87983 58.6607277,108.438237 58.8959454,114.322964 C59.2186859,122.45354 59.5523668,130.858335 59.3335597,139.902058 C60.4303304,142.2905 64.5685202,146.170691 69.6038193,147.330634 C70.4681074,147.544525 71.3870974,147.220947 72.0599293,146.472331 C72.7081454,145.699035 72.9761842,144.558286 72.7464367,143.455928 C72.0134328,140.179018 70.4708425,137.390217 69.3713367,136.002672 C68.3784994,134.730299 67.9518255,132.994496 68.2225993,131.35467 C70.5255443,116.590751 72.4455769,98.2071485 73.6900424,85.6643985 C73.7529495,85.0282118 74.3054375,84.5483296 74.9591238,84.6223685 C75.5991346,84.6854388 76.0640998,85.2558131 76.0011927,85.8974841 C74.7539921,98.467656 72.8284894,116.892391 70.5173391,131.724865 C70.3477635,132.744957 70.6021268,133.800698 71.1983762,134.563025 C72.4428418,136.134297 74.1932988,139.285066 75.0165606,142.965077 C75.3940029,144.777661 74.9399782,146.653315 73.8131214,147.999727 C72.8011385,149.126765 71.4882957,149.727303 70.148102,149.727303" id="Fill-82" fill="#333333"></path>
                                <path d="M32.2841164,45.2234328 C32.2895866,46.2106191 32.2485602,47.1402195 32.1391567,48.0423981 C31.7425688,50.7324807 30.7087051,52.6876579 29.234492,53.8037268 C27.0300102,55.5011388 23.8600419,55.2433735 20.5998157,52.7013688 C15.2116901,48.4701788 11.6150479,39.5251743 12.566859,32.7026202 C13.1494329,28.5838597 15.2581866,26.1981596 18.0206267,25.8937771 C19.8558715,25.6716602 21.9509497,26.3599484 24.108935,28.0409073 C24.8063828,28.6222503 25.4792147,29.2611792 26.1493115,29.9522096 C24.3168018,30.6953415 20.5150279,32.2282224 20.4767367,32.2720973 C19.4319326,32.7711748 18.6907235,33.9585405 18.4390953,35.6724056 C17.9166933,39.3469323 19.8640767,44.1951138 22.7796817,46.4793531 C24.2894509,47.6420392 25.7527236,47.9135154 26.9041961,47.4226645 C26.9479575,47.4062114 30.3832295,45.9912444 32.2841164,45.2234328" id="Fill-84" fill="#FFFFFF"></path>
                                <path d="M17.1888345,26.010823 L43.1448303,23.0081315 C44.1267272,22.8710222 45.2645243,23.2467015 46.4132617,24.1598488 C46.5254004,24.2475987 46.6484794,24.3545438 46.7442075,24.4697156 L50.778464,34.5143359 C50.7894043,34.665156 50.778464,34.8296871 50.7565833,34.9695385 C50.5514516,36.4064429 49.9907583,37.4676682 49.1948474,38.0764331 L28.4026999,53.923515 C29.8769129,52.807446 30.9107766,50.8522688 31.3073646,48.159444 C31.4167681,47.2600076 31.4577945,46.3304072 31.4523243,45.3404787 C31.2882189,40.0151572 28.8813405,34.0289693 25.3175194,30.0719977 C24.6474226,29.3809673 23.9773257,28.7392962 23.2771429,28.1579532 C21.1191576,26.4797365 19.0240793,25.7887061 17.1888345,26.010823" id="Fill-86" fill="#FF3E00"></path>
                                <path d="M55.2788089,33.2177657 C55.2569282,33.2287344 53.0661218,34.1144599 50.8725803,34.9974431 L50.8534347,34.9535682 C51.1789103,31.4874475 49.450334,27.1822185 46.8191782,24.9062057 L46.7918273,24.8431354 C48.8951109,23.9930584 50.9983944,23.1429813 51.0202751,23.1374969 C51.7724246,22.8056926 52.7297058,22.9921612 53.7498941,23.7764258 C55.680867,25.2928536 56.9690939,28.4984668 56.632678,30.9554638 C56.4631025,32.090728 55.9762566,32.8832192 55.2788089,33.2177657" id="Fill-88" fill="#FFFFFF"></path>
                                <path d="M46.7918273,24.8957529 C49.4229831,27.1717657 51.1515594,31.4769947 50.8260838,34.9403732 L46.7918273,24.8957529 Z" id="Fill-90" fill="#FFFFFF"></path>
                                <path d="M25.9387266,29.6833977 C29.5025477,33.6403693 31.9094261,39.6265572 32.0735314,44.9546209 C30.1726445,45.7224325 26.7373726,47.1346573 26.6936112,47.1538526 C25.5421386,47.6447035 24.078866,47.3704851 22.5690968,46.2105412 C19.6534918,43.9235597 17.7061083,39.0781204 18.2285103,35.4008515 C18.4801385,33.6897286 19.2213477,32.4996208 20.2661517,32.0032854 C20.3017079,31.9594105 24.1062169,30.4237874 25.9387266,29.6833977" id="Fill-92" fill="#FFFFFF"></path>
                                <path d="M51.0776388,35.4207642 C50.6181438,35.4207642 50.1805296,35.1438036 50.0000137,34.6913432 C49.7620609,34.0935471 50.0492453,33.4162276 50.6454947,33.1749154 C52.7788642,32.3138696 54.9122337,31.4528238 55.0325777,31.4007223 C55.319762,31.2636131 55.5823306,30.7453403 55.6889991,30.0378568 C55.9679781,28.0058984 54.8493267,25.2116128 53.2410943,23.9502081 C52.6284343,23.4785524 52.0622709,23.2975683 51.6930339,23.4620993 C51.5234583,23.5279117 49.4776117,24.3533091 47.431765,25.1787066 C46.8409858,25.4200188 46.1599486,25.1320894 45.9219958,24.5342933 C45.681308,23.9392394 45.9684923,23.2591777 46.5647418,23.0206077 C50.7740439,21.3177114 50.8342159,21.2985161 50.8588317,21.2902895 C51.4468758,21.0242977 52.8663871,20.7281418 54.6633406,22.1102026 C56.9252593,23.8843957 58.3830618,27.509563 57.989209,30.3724032 C57.7594615,31.9052841 57.0456033,33.0186109 55.9816536,33.525915 C55.8804553,33.5752743 51.5535443,35.3193033 51.5097829,35.3357565 C51.3675583,35.3933423 51.2225985,35.4207642 51.0776388,35.4207642" id="Fill-94" fill="#333333"></path>
                                <path d="M25.2806644,56.2601726 C23.3278108,56.2601726 21.1999115,55.4402595 19.1349192,53.8305975 C13.4623444,49.3772905 9.66330557,39.9222397 10.6643482,32.7514283 C11.3016239,28.2377933 13.7221778,25.3201094 17.1383041,24.9444302 C19.3236403,24.6784383 21.7223135,25.5065779 24.0662849,27.3301303 C24.7746729,27.9169577 25.4721207,28.5723397 26.2297403,29.35112 C26.6755599,29.811807 26.6646195,30.5494545 26.2051245,30.9964305 C25.7456296,31.4461487 25.0126257,31.4379221 24.5640711,30.974493 C23.8666234,30.2560408 23.2266125,29.6582446 22.6139525,29.1454562 C20.7896481,27.727747 18.9844893,27.0696229 17.4063429,27.2588336 C15.0651066,27.5165989 13.451404,29.6363072 12.9645581,33.075006 C12.0647138,39.5109121 15.4753699,48.0007141 20.5626357,51.9933341 C23.2867845,54.1157846 25.9152051,54.5188857 27.7723306,53.0902077 C29.0441471,52.1277011 29.8947598,50.397383 30.2366459,48.0829796 C30.3296389,47.3096837 30.3734004,46.4349269 30.3706653,45.4395141 C30.3651951,44.7951009 30.884862,44.2713437 31.5248729,44.2686015 L31.5303431,44.2686015 C32.1703539,44.2686015 32.6872858,44.7868743 32.6927559,45.4258032 C32.6982261,46.5199347 32.6462594,47.4906678 32.5395909,48.3928464 C32.1019767,51.3544052 30.9422989,53.6084805 29.1809015,54.9439242 C28.0376343,55.8241653 26.7056459,56.2601726 25.2806644,56.2601726" id="Fill-96" fill="#333333"></path>
                                <path d="M28.6098028,55.2967042 C28.2597114,55.2967042 27.9123551,55.1376576 27.6826076,54.8360173 C27.29696,54.3232289 27.3954232,53.5938079 27.9068849,53.2044178 L48.6962973,37.3573359 C49.2624607,36.9240708 49.6563136,36.093189 49.8122136,35.0127685 C49.8067435,34.9442139 49.8204189,34.6809642 49.8286242,34.6124096 C50.1185436,31.5521322 48.5185165,27.5759652 46.1909556,25.5604599 C46.1882206,25.5577177 45.9010362,25.2834993 45.8983011,25.2807571 C45.0394831,24.5979533 44.2052809,24.2826021 43.5105683,24.370352 L17.5272217,27.3757858 C16.8790056,27.4415982 16.3128421,26.99188 16.2417298,26.3529511 C16.1678824,25.7140222 16.6246423,25.1381636 17.2619181,25.0641246 L43.2179138,22.061433 C44.5170811,21.8777067 45.9584731,22.3575889 47.3396931,23.4572047 C47.4737124,23.5614077 47.676109,23.7286809 47.8484196,23.9425713 C50.6409456,26.3337558 52.5062764,30.9762735 52.1397745,34.8345265 C52.1643903,34.9195342 52.1370394,35.1882683 52.1069534,35.3610259 C51.8662656,37.0556956 51.174288,38.3911393 50.1048682,39.2110523 L29.3127207,55.0581342 C29.1021188,55.2171809 28.8559608,55.2967042 28.6098028,55.2967042" id="Fill-98" fill="#333333"></path>
                                <path d="M21.0227831,33.235533 C21.0063725,33.2437595 20.989962,33.2519861 20.9735515,33.2602126 C20.2761037,33.5920169 19.7701123,34.5079064 19.5841262,35.7775377 C19.1218961,39.0242836 20.9133795,43.4775906 23.4925686,45.4985803 C24.5948095,46.3459152 25.6423486,46.6283601 26.4464648,46.2883293 C26.4792859,46.2746184 29.1350574,45.1804869 31.0769707,44.3907379 C30.7405547,39.8085483 28.7357344,34.8232576 25.8119241,31.2803557 C24.1845461,31.9384799 21.4139008,33.057291 21.0227831,33.235533 M25.7298714,48.7617793 C24.5483129,48.7617793 23.290172,48.2791549 22.0703222,47.3385858 C18.7991556,44.7773859 16.7013423,39.5535252 17.2866513,35.4429912 C17.5929813,33.3561891 18.5475274,31.8370191 19.977979,31.1569574 L19.9834492,31.1734106 C20.4812354,30.9238718 21.7038203,30.4302787 25.103536,29.0564444 L25.7107258,28.8096479 C26.1620155,28.6286637 26.6816825,28.7465776 27.0071581,29.1085459 C30.7460249,33.2574705 33.2705121,39.5425564 33.4428228,45.1229011 C33.4564982,45.6110098 33.1665788,46.0579858 32.7152891,46.23897 C30.841753,46.9958128 27.4748583,48.3806158 27.3517793,48.4327173 C26.8348475,48.652092 26.2905647,48.7617793 25.7298714,48.7617793" id="Fill-100" fill="#333333"></path>
                                <path d="M75.867508,35.4285714 C75.867508,35.4285714 75.960501,35.6260087 76.1410169,36.0016879 C76.2996521,36.3115547 76.6059821,37.0327491 76.9998349,37.9733183 C77.7820704,39.8215504 78.8214043,42.5088908 79.6391959,46.0188864 C79.8634732,46.8826744 80.0385189,47.8205014 80.1670681,48.8241407 C80.347584,49.7948739 80.4323717,50.8615835 80.4733981,51.9776524 C80.5964771,54.1741419 80.37767,56.7243731 79.5215871,59.3842917 C78.6846498,62.0908274 76.7427365,64.7425194 74.3249177,66.6510795 C71.8223112,68.3759133 69.1419239,69.4508495 66.4861523,69.9115364 C63.805765,70.3941608 60.9558021,70.3777077 58.2863552,69.7799116 C55.6360538,69.1464671 53.218235,68.05782 51.1423024,66.7443138 C47.0205231,64.0542312 44.2662884,60.7224775 42.2012961,57.8623795 C40.1335687,54.9721175 38.8426066,52.4218863 37.9427623,50.6422088 C37.4695919,49.7427724 37.1468514,49.0380311 37.0183022,48.7226799 C36.8514618,48.3470007 36.7639389,48.1468213 36.7639389,48.1468213 C35.5057979,45.4238325 36.859667,42.40743 39.4169753,41.4750874 C42.0317205,40.5180651 44.7886904,41.7575323 45.85264,44.0417717 C45.9046067,44.0938732 46.0222156,44.5874663 46.8591528,46.1779331 C47.6195076,47.6751656 48.7162783,49.8332645 50.3272458,52.0736289 C51.9190677,54.3030246 54.0032056,56.7051778 56.5085472,58.3230664 C57.7639531,59.1100733 59.0986766,59.6831898 60.4634861,60.028705 C61.8365008,60.327603 63.253277,60.327603 64.6974041,60.0808065 C66.1880276,59.8422364 67.427023,59.2060497 68.3569533,58.6493864 C69.114573,57.9281919 69.7545838,57.2618412 70.0855296,56.1649676 C70.8431493,54.012353 70.5204088,50.8369039 69.9241594,48.2565086 C69.3142345,45.6212697 68.4663569,43.3726788 67.8099355,41.84254 L75.867508,35.4285714 Z" id="Fill-102" fill="#FFFFFF"></path>
                                <path d="M62.8780169,71.6260816 C61.2998705,71.6260816 59.7381346,71.4588084 58.2447759,71.1270041 C55.5972096,70.4935596 53.0754575,69.4213656 50.7342212,67.937844 C46.3170523,65.0558085 43.4643543,61.5156489 41.4704744,58.7515273 C39.3507803,55.7872263 38.0051164,53.1327921 37.1162125,51.3777943 C36.6266315,50.4427095 36.2874805,49.7023198 36.1534611,49.3677733 L35.9127733,48.8275631 C35.1825045,47.2453228 35.1387431,45.490325 35.7978995,43.8971161 C36.4379104,42.3587508 37.6878461,41.1521898 39.2304364,40.590042 C42.2937362,39.4684887 45.7618292,40.8560339 47.1129632,43.7572647 L47.107493,43.7600069 C47.1539895,43.8450146 47.1922808,43.9272801 47.2168966,43.9821238 C47.3126247,44.2261781 47.5314318,44.7691306 48.0975953,45.8440668 C48.8196588,47.2727447 49.9027541,49.4061639 51.4781654,51.5999112 C53.3817875,54.2625719 55.3565218,56.2643663 57.3476667,57.5531929 C58.4827287,58.2634185 59.6998433,58.7899179 60.9579843,59.1080112 C62.1012516,59.3548078 63.3758031,59.3712609 64.7132617,59.1409174 C66.0178992,58.9325115 67.117405,58.3621372 67.8613493,57.9233877 C68.4876847,57.3228494 68.9471796,56.8155453 69.1823973,56.0367651 C69.7595011,54.396939 69.6856537,51.6821767 69.0018814,48.7288444 C68.4028969,46.1374805 67.5577544,43.9163113 66.9532997,42.5095709 C66.6989364,41.9200013 66.9697102,41.2344553 67.5604894,40.9821744 C68.1512687,40.7326356 68.835041,40.9986275 69.0866692,41.5909392 C69.72668,43.0826874 70.6265243,45.4409657 71.2638001,48.2023451 C71.7315004,50.212366 72.3633059,53.9965801 71.3896142,56.7607017 C70.9984965,58.0687235 70.2080557,58.8996052 69.3656483,59.7030652 C69.3054763,59.7606511 69.2370991,59.8127526 69.1632517,59.8566275 C68.2579372,60.3995799 66.8493663,61.1564228 65.090704,61.4388677 C63.4687961,61.7158283 61.898855,61.6938908 60.427377,61.3730553 C58.8957271,60.9864073 57.4543352,60.3666737 56.1032011,59.5193389 C53.8494877,58.0604969 51.6641515,55.8585231 49.593689,52.9600345 C47.9143443,50.6209515 46.7820174,48.3915558 46.032603,46.9135186 C45.4117378,45.728895 45.1683148,45.1201302 45.0616464,44.8513961 L45.0671165,44.8486539 C45.0452358,44.8157477 45.0260902,44.7773572 45.0096797,44.7417088 C44.1618021,42.9263829 41.9737308,42.0625949 40.0236122,42.7783049 C39.0909468,43.1183358 38.3333271,43.8504989 37.9449445,44.7910681 C37.5346811,45.7755122 37.5647671,46.8669014 38.0269972,47.8650564 L38.2895657,48.4573682 C38.4263202,48.7919147 38.7326502,49.4582654 39.1784697,50.3083425 C40.0947245,52.118184 41.3419252,54.5724387 43.3549508,57.391404 C45.2284868,59.9855102 47.903404,63.3145216 51.986892,65.9744402 C54.0983808,67.3153682 56.3849153,68.2861014 58.7671779,68.8564757 C61.2068774,69.3994282 63.8845297,69.4405609 66.4883345,68.9743896 C69.081199,68.5246714 71.5646599,67.490868 73.8785453,65.9004012 C76.1131131,64.1316925 77.8663052,61.6911487 78.6239249,59.2478626 C79.3569288,56.9691076 79.6577886,54.6190559 79.5210342,52.252551 C79.4800078,51.0432478 79.3870148,50.0697725 79.2365849,49.2416329 C79.1025655,48.2133138 78.9302549,47.3166196 78.7251232,46.5213862 C77.8963912,42.9565469 76.8543223,40.3185658 76.140464,38.6403491 C75.7602866,37.729944 75.4676321,37.0361714 75.3172022,36.7400156 L75.0272827,36.1367351 C74.7537738,35.555392 74.9999318,34.8616195 75.5797707,34.5846589 C76.1623447,34.3076983 76.8515872,34.5544948 77.1250961,35.1358379 L77.398605,35.70347 C77.5490349,36.002368 77.8690403,36.7509843 78.2820388,37.7326862 C79.025983,39.4849418 80.1172836,42.2518056 80.9788367,45.9619807 C81.203114,46.8230265 81.3918351,47.8156971 81.5313247,48.8796646 C81.69543,49.7626478 81.7993634,50.8485527 81.8431248,52.1456058 C81.9935547,54.7726182 81.6544037,57.4078571 80.8393471,59.9498618 C79.9504431,62.8209285 77.9128018,65.6782843 75.2542951,67.7760552 C72.5985236,69.605092 69.8087327,70.7622936 66.8903926,71.2668555 C65.5638744,71.5054255 64.2154755,71.6260816 62.8780169,71.6260816" id="Fill-104" fill="#333333"></path>
                                <path d="M46.9965807,17.2803358 C46.3565698,17.2803358 45.8369029,16.762063 45.8369029,16.1203919 C45.8341678,15.4759787 46.3510996,14.9549637 46.9938456,14.9522215 L59.988254,14.9083466 C63.5247242,14.8946356 66.7740101,13.1039894 68.6831023,10.1122666 C69.0277235,9.57205631 69.7443169,9.41026745 70.2885996,9.76126701 C70.8274122,10.1067822 70.9860473,10.8279766 70.638691,11.3681869 C68.3029249,15.0262605 64.3233702,17.2227499 59.9964592,17.2364609 L47.0020509,17.2803358 L46.9965807,17.2803358 Z" id="Fill-106" fill="#333333"></path>
                                <path d="M1.16274293,51.3062716 C0.733333935,51.3062716 0.320335478,51.0649594 0.117938884,50.6536318 C-0.163775295,50.0750309 0.076912547,49.3785162 0.651281262,49.0960712 L8.7580854,45.1226465 C9.33518921,44.8402015 10.0326369,45.0787715 10.311616,45.6546302 C10.5933302,46.233231 10.3553774,46.932488 9.77827365,47.2121907 L1.6714695,51.1883577 C1.50736416,51.267881 1.33505354,51.3062716 1.16274293,51.3062716" id="Fill-108" fill="#333333"></path>
                                <path d="M11.6658087,57.5196064 C11.4497366,57.5196064 11.2336646,57.4592784 11.0367382,57.3331379 C10.4979256,56.9848805 10.3420256,56.2664283 10.6893819,55.7234758 L12.3112897,53.1979243 C12.658646,52.657714 13.3779745,52.5014095 13.916787,52.8496669 C14.4555996,53.1979243 14.6114997,53.9163765 14.2668784,54.459329 L12.6449706,56.9848805 C12.4206933,57.3303957 12.0487212,57.5196064 11.6658087,57.5196064" id="Fill-110" fill="#333333"></path>
                                <path d="M6.49418459,39.2553786 C6.43401263,39.2553786 6.37384067,39.2498942 6.31366871,39.2416677 L2.88933713,38.7014574 C2.25753155,38.5999966 1.82538747,38.0049426 1.92385068,37.3687559 C2.02231388,36.7353114 2.61035804,36.2993041 3.25310399,36.4007649 L6.67470047,36.9409752 C7.30650606,37.0396938 7.73865014,37.63749 7.64018693,38.2709345 C7.54992899,38.844051 7.05487786,39.2553786 6.49418459,39.2553786" id="Fill-112" fill="#333333"></path>
                            </g>
                        </g>
                    </g>
                </g>
            </g>
        </g>
    </g>
</svg>