<?xml version="1.0" encoding="UTF-8" standalone="no"?>
<svg width="382px" height="418px" viewBox="0 0 382 418" version="1.1" xmlns="http://www.w3.org/2000/svg" xmlns:xlink="http://www.w3.org/1999/xlink">
    <!-- Generator: Sketch 41 (35326) - http://www.bohemiancoding.com/sketch -->
    <title>Group 47</title>
    <desc>Created with Sketch.</desc>
    <defs>
        <polygon id="path-1" points="182.502276 0.140497855 0.283605694 0.140497855 0.283605694 168.644826 182.502276 168.644826 182.502276 0.140497855"></polygon>
    </defs>
    <g id="LANDING" stroke="none" stroke-width="1" fill="none" fill-rule="evenodd">
        <g id="01.-Landing-" transform="translate(-436.000000, -480.000000)">
            <g id="Group-47" transform="translate(368.000000, 410.000000)">
                <rect id="Rectangle-4" fill-opacity="0" fill="#FFFFFF" x="0" y="0" width="518" height="508"></rect>
                <g id="Page-1" transform="translate(259.000000, 279.000000) scale(-1, 1) translate(-259.000000, -279.000000) translate(68.000000, 70.000000)">
                    <path d="M134.162075,193.358224 C134.162075,193.358224 138.371355,221.07306 138.189522,240.076049 C138.00769,259.079037 135.80942,280.82344 134.162075,285.756361 C132.514729,290.691991 131.233762,293.067704 132.330183,291.970596 C133.429318,290.873488 142.032424,281.554845 164.367932,281.007646 C186.700726,280.457738 207.75798,275.524817 207.75798,275.524817 L134.162075,193.358224 Z" id="Fill-1" fill="#FF3E00"></path>
                    <path d="M286.650902,232.585648 C286.650902,232.585648 300.196044,230.941341 309.898285,218.334084 C319.600525,205.726827 325.826243,185.261028 332.782003,180.143901 C339.737763,175.029483 354.015662,167.74523 362.070557,162.159462 C370.125453,156.573694 374.519278,151.82227 374.519278,151.82227 C374.519278,151.82227 341.203277,153.650783 320.884207,148.167953 C300.562423,142.685124 241.985314,125.510648 241.985314,125.510648 L229.981675,154.314465 L286.650902,232.585648 Z" id="Fill-3" fill="#FF3E00"></path>
                    <path d="M127.310529,173.67232 C127.310529,173.67232 140.481151,230.377888 135.411561,261.505948 C130.339256,292.636716 127.310529,301.790116 127.310529,301.790116 C127.310529,301.790116 144.098798,279.818165 164.276744,283.480608 C184.457405,287.143051 216.560287,279.257421 216.560287,279.257421 L211.553117,273.408889 C211.553117,273.408889 200.749027,276.55664 187.383004,276.987356 C177.691619,277.29888 162.067619,276.82753 152.273105,279.257421 C142.606145,281.654804 136.556832,286.999479 136.556832,286.999479 C136.556832,286.999479 141.056501,270.662056 141.200338,249.605716 C141.346889,228.546666 137.227169,181.533571 137.227169,181.533571 L127.310529,173.67232 Z" id="Fill-5" fill="#60574C"></path>
                    <path d="M245.159507,123.374403 C245.159507,123.374403 314.443004,145.45742 337.182885,148.808339 C359.920052,152.161967 381.986883,149.547871 381.986883,149.547871 C381.986883,149.547871 361.925634,167.180152 344.871402,175.526297 C327.819884,183.869733 322.742152,208.566846 311.237873,220.583561 C299.730879,232.597567 274.684172,241.837652 274.684172,241.837652 L281.675213,233.95473 C281.675213,233.95473 300.672607,226.589209 311.237873,212.237416 C321.800424,197.885622 324.139817,182.16583 338.518131,173.673404 C352.896444,165.178269 370.952111,154.31284 370.952111,154.31284 C370.952111,154.31284 351.89501,155.166146 332.501385,152.828358 C313.107759,150.49328 259.942194,133.137307 259.942194,133.137307 L245.159507,123.374403 Z" id="Fill-7" fill="#60574C"></path>
                    <path d="M229.872576,91.5886209 C227.584747,137.886564 182.693904,167.500345 135.159709,165.159848 C87.625515,162.819352 50.6430162,133.785278 53.283654,80.3114376 C55.5714831,34.013494 98.2694837,-1.50841434 145.803678,0.832082022 C193.337872,3.17257838 232.331381,41.8043129 229.872576,91.5886209" id="Fill-9" fill="#FBF2E4"></path>
                    <g id="Group-13" transform="translate(48.980201, 0.273600)">
                        <mask id="mask-2" fill="white">
                            <use xlink:href="#path-1"></use>
                        </mask>
                        <g id="Clip-12"></g>
                        <path d="M23.7641119,37.3925856 C16.5396742,47.0986023 2.36761811,62.9430042 5.9526978,96.3898891 C9.09269569,125.700272 30.785006,152.101287 64.9531766,162.1405 C84.4390753,167.867131 112.533508,165.093209 135.191971,153.358221 C157.853149,141.620523 175.23305,120.407066 178.088087,88.9756084 C180.126236,66.5783585 169.172882,34.1148071 143.599675,18.4735733 C118.029182,2.83233956 98.687121,2.8133772 77.1033672,6.44060478 C55.3622064,10.0976303 32.418782,25.7632443 23.7641119,37.3925856 M110.926871,1.57269742 C146.101903,7.12866737 166.111587,30.2275244 175.458305,50.1975929 C187.475514,75.8672034 182.948706,108.371388 170.665534,127.745497 C158.379648,147.116897 142.446262,158.553906 109.963431,166.323053 C77.4778873,174.092201 40.0421649,161.138204 25.1129269,145.610744 C10.9734377,130.904084 1.84383281,114.496229 0.500445644,93.18796 C-1.42914683,62.5718838 9.84716363,47.4805583 21.2890228,33.0691687 C38.3785359,11.546896 69.7839426,-4.92597245 110.926871,1.57269742" id="Fill-11" fill="#60574C" mask="url(#mask-2)"></path>
                    </g>
                    <path d="M149.294042,48.7355953 C152.016097,48.6353657 152.982251,47.0669081 156.423493,44.9891758 C161.441519,41.9606168 165.702363,41.3836195 167.393131,39.8639222 C168.644245,38.7397254 165.292562,36.9518463 161.091424,38.5501019 C155.283649,40.7578618 152.051378,42.1096068 149.891103,44.2658974 C147.733542,46.4194791 147.253179,48.8114447 149.294042,48.7355953" id="Fill-14" fill="#4E4332"></path>
                    <path d="M92.7084036,53.0573869 C90.2061754,52.7756604 87.2100149,51.1069732 82.438955,49.6522897 C79.6979024,48.8152372 74.3677764,46.6968713 77.608189,46.2986618 C80.8458878,45.8977435 87.9346298,47.1275876 91.8915156,49.4409949 C95.8484015,51.7544022 94.7139856,53.2822262 92.7084036,53.0573869" id="Fill-16" fill="#4E4332"></path>
                    <path d="M119.171502,50.7710686 C119.388616,52.1309404 118.460457,53.4122538 117.095359,53.6289664 C115.732974,53.845679 114.452007,52.9192326 114.23218,51.5566519 C114.015067,50.1967802 114.945939,48.9181757 116.308324,48.6987542 C117.670708,48.4820415 118.954389,49.4111969 119.171502,50.7710686" id="Fill-18" fill="#4E4332"></path>
                    <path d="M127.742041,50.2330796 C127.926587,51.3924921 127.296959,52.454384 126.33352,52.6087917 C125.370081,52.7631995 124.436495,51.9478182 124.251948,50.7884057 C124.067402,49.631702 124.69703,48.5671012 125.66047,48.4126935 C126.626623,48.2609947 127.557495,49.073667 127.742041,50.2330796" id="Fill-20" fill="#4E4332"></path>
                    <path d="M127.766195,69.6077301 C127.071433,68.6758658 123.502637,63.9542395 117.010956,64.9592443 C112.147623,65.7150296 110.014487,69.139089 112.150337,73.3053893 C114.283473,77.4716895 119.817142,77.7290358 119.817142,77.7290358 C119.817142,77.7290358 113.49101,78.8884483 113.813966,84.4254559 C114.136922,89.9597546 118.183367,90.5855123 121.073684,91.0108108 C123.966716,91.4334004 129.535667,87.4811039 128.254699,86.8390928 C126.976446,86.1997905 124.965436,88.7217837 121.057401,88.2477248 C117.149366,87.7763749 115.369038,85.4114983 117.111371,82.3477236 C118.856417,79.2839488 122.840442,78.1218274 124.873163,78.2356015 C126.905884,78.3520846 124.973578,76.0820198 121.64632,75.63505 C118.319062,75.1907891 113.984942,74.8305044 113.453015,70.314755 C113.018789,66.6252226 121.822724,67.2509803 124.658764,69.6483637 C127.36725,71.9400997 128.952175,71.2005679 127.766195,69.6077301" id="Fill-22" fill="#4E4332"></path>
                    <path d="M121.609954,34.0376032 C119.902902,33.8235995 116.928453,28.6224965 117.229697,26.815655 C117.530942,25.0088135 118.651788,25.9840203 119.938183,27.4874641 C121.221864,28.9936169 124.022623,34.338292 121.609954,34.0376032" id="Fill-24" fill="#4E4332"></path>
                    <path d="M128.503565,34.0045546 C129.781819,33.7905508 135.291063,27.4191996 133.991098,26.8990893 C132.305758,26.2272802 130.378879,28.8115783 129.021923,30.7674097 C127.664966,32.7232412 126.693385,34.3052433 128.503565,34.0045546" id="Fill-26" fill="#4E4332"></path>
                    <path d="M119.513184,12.6629661 C119.513184,13.9334438 118.481897,14.9628288 117.209072,14.9628288 C115.936246,14.9628288 114.904959,13.9334438 114.904959,12.6629661 C114.904959,11.3924883 115.936246,10.3631033 117.209072,10.3631033 C118.481897,10.3631033 119.513184,11.3924883 119.513184,12.6629661" id="Fill-28" fill="#60574C"></path>
                    <path d="M148.637818,7.80751967 C148.637818,8.64728109 149.31901,9.32721696 150.160323,9.32721696 C150.998923,9.32721696 151.682829,8.64728109 151.682829,7.80751967 C151.682829,6.96775824 150.998923,6.28782238 150.160323,6.28782238 C149.31901,6.28782238 148.637818,6.96775824 148.637818,7.80751967" id="Fill-30" fill="#60574C"></path>
                    <path d="M140.188048,13.1437972 C140.188048,14.414275 141.219335,15.4436599 142.492161,15.4436599 C143.764986,15.4436599 144.796273,14.414275 144.796273,13.1437972 C144.796273,11.8733194 143.764986,10.8439344 142.492161,10.8439344 C141.219335,10.8439344 140.188048,11.8733194 140.188048,13.1437972" id="Fill-32" fill="#60574C"></path>
                    <path d="M168.176638,162.860798 C160.878925,163.15336 155.185134,159.65616 149.342078,155.189171 C143.499023,150.724891 125.332086,134.327872 110.546685,127.701884 C95.7612848,121.078604 75.2223877,119.645592 78.696197,126.788982 C82.1700062,133.932372 109.265718,152.629254 118.05337,165.290689 C126.838308,177.952124 137.091473,196.955112 142.399888,204.995151 C147.708303,213.035189 171.967975,249.253287 184.503541,262.735521 C197.039108,276.215046 221.225505,288.906279 233.671512,297.493517 C246.120233,306.083464 266.072925,310.848433 274.494198,313.589848 C282.915472,316.328553 293.757556,317.490675 293.391178,310.182041 C293.024799,302.870699 290.468293,297.303894 287.697387,292.232818 C283.048453,283.732265 272.738296,272.601363 272.738296,272.601363 C272.738296,272.601363 293.570296,275.564908 295.451038,271.450077 C297.334494,267.337955 288.11533,257.252692 282.806915,251.406868 C277.4985,245.558336 274.730309,242.879227 279.224549,240.015911 C283.721504,237.152595 295.535169,229.296763 296.493181,222.535329 C297.451192,215.773895 300.379505,198.05222 284.454261,183.432244 C268.529016,168.814978 253.151983,154.314194 253.151983,154.314194 C253.151983,154.314194 268.710848,156.75492 275.118398,152.187702 C281.525948,147.620483 280.08486,141.788204 276.043843,138.217864 C272.005539,134.647523 242.575862,117.93898 229.983303,113.084617 C217.388031,108.232963 209.50954,107.76974 209.216437,111.44031 C208.923335,115.113589 215.585992,123.473279 218.880683,126.39619 C218.880683,126.39619 214.489571,135.563134 200.515631,147.915754 C187.187602,159.699503 168.176638,162.860798 168.176638,162.860798" id="Fill-34" fill="#FFEE00"></path>
                    <path d="M151.914054,156.721601 C149.27613,148.716778 116.562617,125.785873 98.5639433,121.654789 C80.5679831,117.526413 72.385534,122.968609 79.4769899,131.135966 C86.5657318,139.300614 106.635122,152.807229 117.325227,168.917104 C128.015332,185.029687 152.559966,229.125289 170.55864,250.902199 C188.557314,272.6764 221.354958,294.009049 245.302531,305.11828 C278.135456,320.355887 296.256256,320.689082 296.32139,312.307721 C296.39738,302.490639 293.197676,296.875074 285.107499,284.985677 C280.44771,278.140267 271.627491,270.157116 271.627491,270.157116 L262.465319,267.158355 C262.465319,267.158355 273.586937,276.330717 282.390872,288.217404 C295.015998,305.269979 293.170536,314.526317 284.461588,312.895554 C275.749926,311.262083 255.965497,308.106205 229.982489,292.234714 C203.947917,276.330717 185.960099,263.758675 164.145662,233.890258 C142.328512,204.019131 132.197473,177.060081 118.904725,162.366964 C105.611977,147.673848 89.1683749,136.315398 82.3700216,129.635231 C75.992325,123.372236 88.3189199,122.2968 97.443097,125.035506 C103.014761,126.706902 115.417346,132.01907 127.203872,139.333121 C140.616032,147.657595 152.391703,158.168157 151.914054,156.721601" id="Fill-36" fill="#60574C"></path>
                    <path d="M231.482469,138.756395 C226.431876,135.129167 211.461929,123.545877 208.18895,113.184305 C204.918684,102.825441 220.960627,108.847343 231.482469,113.184305 C242.004312,117.523975 272.001197,133.31149 277.456163,138.756395 C282.911129,144.2013 281.820136,153.454929 269.821925,155.0884 C257.820999,156.721871 255.639013,155.0884 255.639013,155.0884 C255.639013,155.0884 288.089276,180.110582 295.723515,194.806407 C303.360467,209.50494 299.81881,225.715045 290.545368,233.952834 C281.274639,242.190622 276.584997,242.000999 280.729143,245.457565 C288.203261,251.69618 302.668419,269.490995 297.75895,273.846919 C292.852194,278.200134 265.76191,272.947562 244.186298,259.611608 C226.825394,248.878916 211.603053,230.298517 215.825902,223.138873 C220.922632,214.49204 237.919872,210.715822 245.008614,211.260313 C252.10007,211.804803 247.337152,214.594978 239.542792,215.402233 C232.682019,216.114676 218.493679,221.765457 219.809927,226.9178 C221.715095,234.378132 234.047117,249.978732 255.318771,259.776852 C276.587711,269.574971 295.264863,272.885257 293.652799,268.169048 C291.658072,262.334061 282.789003,253.492186 276.245758,247.505499 C269.699799,241.516104 278.745272,239.424827 285.291231,234.597554 C291.834477,229.767571 300.350737,214.619358 292.860336,199.16233 C286.868015,186.793457 273.420574,174.727982 259.785873,163.981744 C246.151171,153.235507 248.542129,151.721228 256.548174,152.566407 C265.148566,153.4766 279.556732,153.541614 277.597287,144.585964 C276.058498,137.542804 247.247592,124.242067 233.067395,117.716308 C218.887197,111.18784 206.245788,106.336186 211.812024,115.492294 C217.26699,124.464197 230.988537,135.183345 233.167809,137.415485 C234.26423,138.536973 236.432647,142.310482 231.482469,138.756395" id="Fill-38" fill="#60574C"></path>
                    <path d="M178.357342,159.796482 C178.357342,159.796482 172.052921,168.90383 175.068078,178.479819 C178.083236,188.053099 183.839447,188.873898 187.125996,186.685101 C190.415259,184.496303 188.770628,176.564621 187.125996,172.460626 C185.481364,168.356631 181.638463,162.158649 181.638463,162.158649 C181.638463,162.158649 191.785785,169.451029 198.909808,170.819028 C206.036545,172.187026 214.256989,170.976144 210.693621,165.290147 C207.132966,159.604149 201.175926,153.482018 195.897364,154.405755 C190.616089,155.332202 185.481364,156.320953 185.481364,156.320953 L182.194815,157.141752 C182.194815,157.141752 191.237575,155.773754 196.71968,157.688952 C202.199071,159.604149 211.399238,168.38372 207.757166,168.917374 C204.117808,169.451029 195.623259,167.535831 189.867049,163.981744 C184.113552,160.424948 179.453763,157.962551 179.453763,157.962551 C179.453763,157.962551 178.357342,161.129264 180.001973,165.290147 C181.646605,169.451029 186.634778,176.613382 186.029575,182.033906 C185.427086,187.454431 181.315507,186.083723 177.809131,180.118708 C174.302755,174.156402 178.357342,159.796482 178.357342,159.796482" id="Fill-40" fill="#60574C"></path>
                    <path d="M211.554474,77.9322038 C211.554474,96.3311058 196.608952,111.249061 178.176052,111.249061 C159.740438,111.249061 144.79763,96.3311058 144.79763,77.9322038 C144.79763,59.530593 159.740438,44.6153465 178.176052,44.6153465 C196.608952,44.6153465 211.554474,59.530593 211.554474,77.9322038" id="Fill-42"></path>
                    <path d="M106.574873,86.6603048 C106.574873,103.937719 92.5439404,117.942772 75.2346003,117.942772 C69.2069985,117.942772 63.578342,116.246996 58.8018543,113.305122 C58.8018543,113.305122 53.8761013,101.973761 54.3646057,86.6603048 C54.9046745,69.6321103 59.1492352,59.8041927 59.1492352,59.8041927 C63.8524472,56.9923464 69.3535498,55.3751284 75.2346003,55.3751284 C92.5439404,55.3751284 106.574873,69.3828907 106.574873,86.6603048" id="Fill-44"></path>
                    <path d="M5.09428697,44.902863 C5.09428697,44.902863 11.0974636,54.1646188 7.64265172,62.1558969 C4.18512596,70.147175 0.000271391347,74.6873045 0.000271391347,74.6873045 C0.000271391347,74.6873045 8.18814833,67.9665042 17.2851863,70.5101686 C26.3822242,73.0511242 32.567233,81.4053959 32.567233,81.4053959 C32.567233,81.4053959 26.200392,69.2369819 29.1097073,61.7929032 C32.0217364,54.3461156 37.2975842,52.1681537 37.2975842,52.1681537 C37.2975842,52.1681537 25.4730632,55.979587 20.3763337,53.8016252 C15.2823181,51.6209544 6.36711239,44.902863 6.36711239,44.902863 C6.36711239,44.902863 14.9186537,58.5232515 19.6490049,58.3417547 C24.3793561,58.1602578 31.2944076,55.0721029 31.2944076,55.0721029 C31.2944076,55.0721029 22.5610341,61.0669159 24.0156917,64.8783492 C25.4730632,68.6924915 28.7460429,75.7762854 28.7460429,75.7762854 C28.7460429,75.7762854 18.3761795,65.062555 12.1911707,67.05902 L6.00344798,69.0554851 C6.00344798,69.0554851 11.7867976,60.888128 12.0093385,56.8897801 C12.2291655,52.8887232 5.09428697,44.902863 5.09428697,44.902863" id="Fill-46" fill="#60574C"></path>
                    <path d="M148.125702,298.4159 C148.125702,298.4159 185.688979,329.787762 215.202788,347.769492 C244.716597,365.751222 253.916763,370.724777 253.916763,370.724777 C253.916763,370.724777 189.9064,329.787762 173.807466,316.779586 C157.708531,303.771411 148.125702,295.736791 148.125702,298.4159" id="Fill-48" fill="#60574C"></path>
                    <path d="M179.880118,301.673362 C179.880118,301.673362 207.320497,325.06749 253.915678,358.573971 C289.576501,384.216492 337.346806,415.471871 337.346806,415.471871 C337.346806,415.471871 256.477612,358.053861 225.237754,333.708906 C194.00061,309.361242 179.880118,301.673362 179.880118,301.673362" id="Fill-50" fill="#60574C"></path>
                    <path d="M235.936815,329.009222 C235.936815,329.009222 301.407264,377.273832 319.807597,391.36828 C338.20793,405.465436 347.622496,412.297302 347.622496,412.297302 C347.622496,412.297302 270.598918,352.072863 258.61699,342.250363 C246.635062,332.425155 230.802091,322.174647 230.802091,322.174647 L235.936815,329.009222 Z" id="Fill-52" fill="#60574C"></path>
                    <path d="M287.777176,339.008613 C287.777176,339.008613 323.682251,372.92143 334.01412,382.307796 C344.345989,391.69687 378.84797,417.859502 378.84797,417.859502 C378.84797,417.859502 350.349165,391.507247 327.204911,370.496958 C304.060657,349.486669 287.964436,334.314076 287.964436,334.314076 L287.777176,339.008613 Z" id="Fill-54" fill="#60574C"></path>
                    <polygon id="Fill-56" fill="#60574C" points="310.089344 337.551763 369.141388 396.922895 310.089344 332.426509"></polygon>
                    <path d="M312.743009,305.047307 L367.089126,380.222208 C367.089126,380.222208 339.700311,337.082851 329.430863,322.560396 C319.161414,308.037941 307.608285,292.234173 307.608285,292.234173 L312.743009,305.047307 Z" id="Fill-58" fill="#60574C"></path>
                    <path d="M310.731456,249.989026 C310.731456,249.989026 344.964761,314.910711 353.950528,332.4238 C362.936296,349.936889 368.499818,361.896717 368.499818,361.896717 C368.499818,361.896717 333.837716,285.86851 324.425864,270.064742 C315.011298,254.260974 310.731456,249.989026 310.731456,249.989026" id="Fill-60" fill="#60574C"></path>
                    <path d="M321.857145,221.2188 C321.857145,221.2188 335.977636,260.806779 346.675883,285.151733 L357.37413,309.499397 C357.37413,309.499397 352.654635,296.258255 339.61428,263.244796 C327.282258,232.016506 321.857145,221.2188 321.857145,221.2188" id="Fill-62" fill="#60574C"></path>
                    <path d="M297.944039,90.0583588 C298.904764,89.9174956 304.286455,95.2865509 302.940353,104.686461 C301.594252,114.083662 300.549396,118.688806 300.549396,118.688806 C300.549396,118.688806 309.282769,109.196793 316.007847,112.119704 C322.732924,115.042616 331.379453,122.332287 331.379453,122.332287 C331.379453,122.332287 323.69365,106.7967 325.039751,99.6993618 C326.383138,92.6020233 331.379453,90.0556499 331.379453,90.0556499 C331.379453,90.0556499 321.579511,94.7122625 314.661746,91.8354024 C307.74398,88.9585422 300.633527,82.8201571 300.633527,82.8201571 C300.633527,82.8201571 304.093767,88.5738773 308.512018,92.4096908 C312.932983,96.2455043 317.351234,96.0558807 320.618786,95.2865509 C323.886338,94.51993 325.615101,92.9866882 325.615101,92.9866882 C325.615101,92.9866882 319.465373,100.658315 322.157575,107.178656 C324.847063,113.701706 326.961202,117.345187 326.961202,117.345187 C326.961202,117.345187 317.929298,109.096563 312.547607,108.13761 C307.168631,107.178656 303.708391,112.119704 303.708391,112.119704 C303.708391,112.119704 308.897394,101.617269 306.397879,95.8635483 C303.901079,90.1098281 297.944039,90.0583588 297.944039,90.0583588" id="Fill-64" fill="#60574C"></path>
                </g>
            </g>
        </g>
    </g>
</svg>