<?xml version="1.0" encoding="UTF-8" standalone="no"?>
<svg width="284px" height="324px" viewBox="0 0 284 324" version="1.1" xmlns="http://www.w3.org/2000/svg" xmlns:xlink="http://www.w3.org/1999/xlink">
    <!-- Generator: Sketch 41.1 (35376) - http://www.bohemiancoding.com/sketch -->
    <title>Group 52</title>
    <desc>Created with Sketch.</desc>
    <defs>
        <polygon id="path-1" points="150.962708 1.36534369 0.428442905 1.36534369 0.428442905 146.646513 150.962708 146.646513 150.962708 1.36534369"></polygon>
    </defs>
    <g id="LANDING" stroke="none" stroke-width="1" fill="none" fill-rule="evenodd">
        <g id="Group-52">
            <rect id="Rectangle-4" fill="#FFFFFF" x="0" y="0" width="284" height="324"></rect>
            <g id="Page-1" transform="translate(59.721519, 77.200000)">
                <g id="Group-38" transform="translate(0.000000, 0.880287)">
                    <g id="Group-51" transform="translate(0.000000, 126.163636)">
                        <path d="M117.244524,0.828821598 C117.244524,0.828821598 140.439936,43.087107 147.65699,55.6222197 C154.876305,68.1550866 166.230955,81.0045876 166.230955,81.0045876 C166.230955,81.0045876 151.586576,75.3119129 140.822042,76.5784488 C130.057508,77.8427391 131.671849,78.9049226 131.671849,78.9049226 L42.2183656,78.6848507 C42.2183656,78.6848507 24.5442711,79.7829643 16.7981475,79.3450663 C9.04976299,78.9071682 1.62017688,73.4031265 1.62017688,73.4031265 C1.62017688,73.4031265 25.428315,57.6882002 29.3805111,39.8107313 C33.3327073,21.9310167 34.8159113,14.302608 34.8159113,14.302608 L117.244524,0.828821598 Z" id="Fill-1" fill="#FF3E00"></path>
                        <path d="M122.090938,9.36693548 C122.090938,9.36693548 141.420072,32.9146229 148.951402,52.4987714 C156.484993,72.0829199 172.43622,82.8664403 172.43622,82.8664403 C172.43622,82.8664403 169.777305,83.0865122 162.686866,82.8664403 C155.598688,82.6463685 155.820264,77.5847161 146.957216,77.5847161 C138.096428,77.5847161 129.954633,82.9630025 129.954633,82.9630025 L131.670718,78.9051471 C131.670718,78.9051471 136.988547,73.1832792 144.298301,73.403351 C151.610316,73.6234229 154.886479,76.9245005 159.207215,78.2920898 C161.328016,78.9635335 161.422977,78.072018 161.422977,78.072018 C161.422977,78.072018 155.080923,68.820018 148.508249,59.9812141 C137.874852,45.6787898 122.090938,9.36693548 122.090938,9.36693548" id="Fill-4" fill="#60574C"></path>
                        <path d="M30.124148,15.8098756 C30.124148,15.8098756 29.380285,39.8089348 15.6244719,59.1011513 C9.30728882,67.9579202 1.61995078,73.4035756 1.61995078,73.4035756 C1.61995078,73.4035756 6.05147506,81.1060901 16.7979214,79.3455154 C27.5421068,77.5849406 43.7149095,82.963227 43.7149095,82.963227 L42.2181395,78.6852998 C42.2181395,78.6852998 28.2068355,74.7240066 22.6674301,75.3842222 C17.1302858,76.0444377 13.1419139,76.0444377 10.2614231,75.3842222 C7.38093235,74.7240066 6.7162037,73.6236474 6.7162037,73.6236474 C6.7162037,73.6236474 14.6929474,67.9040251 22.6674301,55.3599299 C30.6441738,42.8180804 33.3324812,21.9314659 33.3324812,21.9314659 L30.124148,15.8098756 Z" id="Fill-7" fill="#60574C"></path>
                    </g>
                    <path d="M110.349152,133.906531 C110.349152,133.906531 122.633066,137.825158 125.007097,144.98423 C127.378867,152.145547 127.742885,167.103696 132.102058,172.423596 C136.463492,177.74125 142.226734,176.452258 147.19185,180.581973 C152.154705,184.713934 144.281967,188.675228 144.281967,188.675228 C144.281967,188.675228 154.528736,191.873006 153.902444,199.02085 C153.273891,206.168694 150.425054,213.846506 141.168595,218.459032 C131.912136,223.073804 117.32202,226.058248 103.593339,223.206297 C89.8646574,220.354345 83.3326811,218.124433 83.3326811,218.124433 C83.3326811,218.124433 57.3246077,225.83593 43.2273863,225.485612 C29.130165,225.135294 18.7703465,219.792937 17.9767419,207.751863 C17.1808763,195.713035 23.9299069,187.752273 30.6065861,183.189151 C37.2855262,178.626029 45.4883681,175.327197 45.4883681,175.327197 C45.4883681,175.327197 33.9822319,163.238964 36.2386917,153.771384 C38.4928905,144.306049 56.2302925,134.539799 56.2302925,134.539799 L110.349152,133.906531 Z" id="Fill-10" fill="#F3EA2B"></path>
                    <path d="M110.001639,135.808806 C110.001639,135.808806 120.94253,138.11956 123.099507,146.316113 C125.256483,154.510421 125.636328,169.852573 131.60532,175.022015 C137.576573,180.189212 148.915397,179.930965 145.83594,184.498578 C142.758743,189.066192 137.807193,190.016094 130.54492,188.720365 C123.280385,187.42239 121.313331,182.836811 119.310101,178.484778 C117.309133,174.132745 117.015205,166.347142 115.972892,168.514176 C114.932841,170.68121 114.311071,174.889523 117.311393,182.252947 C120.311716,189.616372 128.781354,192.522218 136.452865,192.683904 C144.122115,192.847835 152.28426,188.06464 150.654092,182.812109 C149.026185,177.559578 142.096276,177.265401 137.094984,173.672391 C132.095953,170.077136 129.495824,163.250417 128.654739,154.290349 C127.813654,145.330281 125.87147,137.320115 114.738396,134.546761 C103.605322,131.771161 110.001639,135.808806 110.001639,135.808806" id="Fill-12" fill="#60574C"></path>
                    <g id="Group-16" transform="translate(13.224610, 149.829133)" fill="#60574C">
                        <path d="M133.74589,36.9745856 C133.74589,36.9745856 142.688073,39.7187468 142.559197,47.1046274 C142.430321,54.490508 139.995243,64.8832886 128.807906,70.4187691 C117.618307,75.9542497 109.98071,75.5590186 100.086654,75.788073 C90.1948589,76.019373 69.9975087,69.9718886 69.9975087,69.9718886 C69.9975087,69.9718886 51.8124323,75.2042089 37.7649525,78.4132157 C23.7174727,81.6199769 5.15707333,74.8561361 3.19228017,66.4484934 C1.22748701,58.0430963 -0.98375317,46.9721352 8.50332636,38.0839274 C17.9926669,29.1979652 27.0682477,24.7426332 27.0682477,24.7426332 C27.0682477,24.7426332 23.4031963,18.8343779 21.5582351,11.5652701 C19.715535,4.29616234 20.4141784,0.384273016 20.4141784,0.384273016 L24.2194107,0.93894389 C24.2194107,0.93894389 24.1538422,10.2717866 28.775289,16.4382895 C33.3944747,22.6025468 35.5740612,24.8324585 39.7613994,25.4410245 C43.9487377,26.0518361 47.6070062,21.329274 48.0185048,18.2864439 C48.4300035,15.2413682 53.6212177,18.8635711 51.1725744,22.5666167 C48.7239312,26.2696623 45.0679236,32.200374 38.9655338,30.8260478 C32.865405,29.4517216 35.2281309,26.4695235 29.0285189,29.3798614 C22.8266459,32.2901992 12.1389851,37.89754 8.05791295,49.2447138 C3.97910183,60.5918876 8.18678891,67.7846439 17.359592,71.6179361 C26.532395,75.4512284 42.9064251,72.951841 58.3783233,68.7570021 C73.8502216,64.5621633 74.6800019,58.9503313 82.493955,56.5070847 C90.310169,54.0615924 102.309199,57.4816886 100.708424,53.6663614 C99.107649,49.8510342 98.8295483,43.6014429 87.6670813,41.0189672 C76.5068752,38.4387371 72.8192139,39.7546769 61.8353645,45.3485439 C50.853776,50.9424109 34.0501594,53.9874866 34.970379,51.0165167 C35.8905986,48.0455468 37.3851076,49.2177662 48.9319415,45.1688934 C60.4787754,41.117775 65.3082325,36.1055264 78.7000275,36.6152847 C92.0895616,37.1250429 96.4532564,40.149908 102.049186,46.2198487 C107.645116,52.2897895 107.891563,58.7729264 103.211331,59.5252128 C98.5310987,60.2752536 93.900608,57.6905322 85.8311641,60.0978487 C77.7617201,62.5051652 72.7649504,67.0323575 72.7649504,67.0323575 C72.7649504,67.0323575 87.818567,72.5678381 100.909652,71.8469905 C114.002997,71.1283886 127.347311,69.2779886 134.012686,59.2355264 C140.67806,49.1908186 138.448732,45.3620177 135.204223,43.1680361 C131.961975,40.9740546 128.502673,40.5181915 128.502673,40.5181915 L133.74589,36.9745856 Z" id="Fill-14"></path>
                    </g>
                    <path d="M151.34957,74.8765258 C151.34957,113.303765 119.207453,144.455159 79.5588764,144.455159 C39.908039,144.455159 7.76592208,113.303765 7.76592208,74.8765258 C7.76592208,36.449287 39.908039,5.29789282 79.5588764,5.29789282 C119.207453,5.29789282 151.34957,36.449287 151.34957,74.8765258" id="Fill-17" fill="#FBF2E4"></path>
                    <g id="Group-21" transform="translate(3.540783, 0.000000)">
                        <mask id="mask-2" fill="white">
                            <use xlink:href="#path-1"></use>
                        </mask>
                        <g id="Clip-20"></g>
                        <path d="M22.323394,27.907131 C15.4771412,35.2728009 4.59503592,48.6590077 4.59503592,76.5430086 C4.59503592,104.429255 22.323394,127.379605 46.9545295,138.068809 C62.4626035,144.796719 84.8191913,145.355881 104.632175,137.675823 C124.445158,129.995765 141.201294,110.088246 145.922224,90.7803096 C151.529459,67.8411883 143.003296,37.1366747 123.208401,21.9921387 C103.413505,6.84984845 84.2607288,2.38777951 62.5892185,6.51524942 C41.3563386,10.559631 30.5262359,19.0818009 22.323394,27.907131 M98.5998752,5.05558922 C128.008465,13.4025999 142.087599,34.5856378 147.807883,51.9533484 C154.432559,72.0629747 150.306267,99.8391853 138.408981,114.727719 C126.513956,129.614008 111.048841,142.375929 83.4490363,145.919535 C55.8492318,149.465386 35.6247498,139.539697 24.2045309,127.015813 C12.7843119,114.489682 2.46971305,102.167905 0.602142107,77.5917183 C-1.26542884,53.0155319 12.3569864,32.2232339 20.8040143,23.8313106 C43.6467131,1.14594553 70.9729389,-2.78615447 98.5998752,5.05558922" id="Fill-19" fill="#60574C" mask="url(#mask-2)"></path>
                    </g>
                    <path d="M145.817626,88.9629204 C145.817626,100.628974 136.29437,110.087572 124.54857,110.087572 C112.80277,110.087572 103.279514,100.628974 103.279514,88.9629204 C103.279514,77.296867 112.80277,67.8382689 124.54857,67.8382689 C136.29437,67.8382689 145.817626,77.296867 145.817626,88.9629204" id="Fill-22" fill-opacity="0.1" fill="#FF3E00"></path>
                    <path d="M54.6254477,91.5476417 C54.6254477,103.215941 45.1021924,112.672293 33.3563921,112.672293 C21.6083308,112.672293 12.0873366,103.215941 12.0873366,91.5476417 C12.0873366,79.8815883 21.6083308,70.4229903 33.3563921,70.4229903 C45.1021924,70.4229903 54.6254477,79.8815883 54.6254477,91.5476417" id="Fill-24" fill-opacity="0.1" fill="#FF3E00"></path>
                    <path d="M78.6974423,82.7481364 C78.6974423,83.7070209 77.9151426,84.4817636 76.9519644,84.4817636 C75.9865252,84.4817636 75.2042255,83.7070209 75.2042255,82.7481364 C75.2042255,81.7892519 75.9865252,81.0145092 76.9519644,81.0145092 C77.9151426,81.0145092 78.6974423,81.7892519 78.6974423,82.7481364" id="Fill-26" fill="#4E4332"></path>
                    <path d="M84.6689213,83.3158319 C84.6689213,84.130996 84.1172418,84.7912116 83.4344253,84.7912116 C82.7538697,84.7912116 82.1999292,84.130996 82.1999292,83.3158319 C82.1999292,82.5006679 82.7538697,81.8404523 83.4344253,81.8404523 C84.1172418,81.8404523 84.6689213,82.5006679 84.6689213,83.3158319" id="Fill-28" fill="#4E4332"></path>
                    <path d="M33.0721867,71.8211202 C32.8664374,73.119095 34.8154037,73.7096959 38.1707006,73.5345367 C41.5237366,73.3593775 46.7556484,73.8062581 47.4927285,72.692425 C48.2320695,71.5808377 47.9630127,70.763428 44.5421472,70.3300212 C41.1212818,69.8966144 33.406812,69.7057357 33.0721867,71.8211202" id="Fill-30" fill="#4E4332"></path>
                    <path d="M106.924217,70.2770243 C107.412589,71.9455282 109.472344,72.2486883 112.425186,71.9724757 C115.375767,71.6985087 120.942304,72.0420903 120.876736,71.3189971 C120.808906,70.5981495 120.876736,69.3136485 117.991723,68.9026981 C115.10671,68.4895019 106.521762,68.9026981 106.924217,70.2770243" id="Fill-32" fill="#4E4332"></path>
                    <path d="M69.0118486,58.2844561 C69.0118486,58.9267066 67.720828,59.4499386 66.1290968,59.4499386 C64.5373657,59.4499386 63.2486061,58.9267066 63.2486061,58.2844561 C63.2486061,57.6422056 64.5373657,57.1189736 66.1290968,57.1189736 C67.720828,57.1189736 69.0118486,57.6422056 69.0118486,58.2844561" id="Fill-34" fill="#4E4332"></path>
                    <path d="M94.7800318,58.2844561 C94.7800318,58.9267066 93.758068,59.4499386 92.4987012,59.4499386 C91.2393343,59.4499386 90.2173706,58.9267066 90.2173706,58.2844561 C90.2173706,57.6422056 91.2393343,57.1189736 92.4987012,57.1189736 C93.758068,57.1189736 94.7800318,57.6422056 94.7800318,58.2844561" id="Fill-36" fill="#4E4332"></path>
                </g>
                <g id="Group-74" transform="translate(68.384034, 14.354074)" fill="#60574C">
                    <path d="M5.29086373,2.02129252 C5.29086373,2.95772068 4.52665189,3.71674398 3.58382249,3.71674398 C2.64099309,3.71674398 1.87678125,2.95772068 1.87678125,2.02129252 C1.87678125,1.08486437 2.64099309,0.325841068 3.58382249,0.325841068 C4.52665189,0.325841068 5.29086373,1.08486437 5.29086373,2.02129252" id="Fill-62"></path>
                    <path d="M5.04532111,10.4985498 C5.04532111,11.6101372 4.13640643,12.5128809 3.01722046,12.5128809 C1.89577349,12.5128809 0.989119803,11.6101372 0.989119803,10.4985498 C0.989119803,9.38696243 1.89577349,8.48421874 3.01722046,8.48421874 C4.13640643,8.48421874 5.04532111,9.38696243 5.04532111,10.4985498" id="Fill-64"></path>
                    <path d="M4.80588314,18.9755825 C4.80588314,20.2645748 3.75452661,21.3087932 2.45672307,21.3087932 C1.15891953,21.3087932 0.107563008,20.2645748 0.107563008,18.9755825 C0.107563008,17.6865903 1.15891953,16.6423718 2.45672307,16.6423718 C3.75452661,16.6423718 4.80588314,17.6865903 4.80588314,18.9755825" id="Fill-66"></path>
                    <path d="M14.9068192,2.02129252 C14.9068192,2.95772068 15.6710311,3.71674398 16.6138605,3.71674398 C17.5566899,3.71674398 18.3209017,2.95772068 18.3209017,2.02129252 C18.3209017,1.08486437 17.5566899,0.325841068 16.6138605,0.325841068 C15.6710311,0.325841068 14.9068192,1.08486437 14.9068192,2.02129252" id="Fill-68"></path>
                    <path d="M15.1523618,10.4985498 C15.1523618,11.6101372 16.0612765,12.5128809 17.1804625,12.5128809 C18.3019095,12.5128809 19.2085631,11.6101372 19.2085631,10.4985498 C19.2085631,9.38696243 18.3019095,8.48421874 17.1804625,8.48421874 C16.0612765,8.48421874 15.1523618,9.38696243 15.1523618,10.4985498" id="Fill-70"></path>
                    <path d="M15.3917998,18.9755825 C15.3917998,20.2645748 16.4431563,21.3087932 17.7409599,21.3087932 C19.0387634,21.3087932 20.0901199,20.2645748 20.0901199,18.9755825 C20.0901199,17.6865903 19.0387634,16.6423718 17.7409599,16.6423718 C16.4431563,16.6423718 15.3917998,17.6865903 15.3917998,18.9755825" id="Fill-72"></path>
                </g>
                <path d="M61.3340067,117.004789 C61.3340067,117.004789 61.4651436,122.124828 56.9725729,123.30603 C52.4777411,124.487232 48.2497052,122.913045 47.3227026,125.800926 C46.3979611,128.688808 47.4561006,131.183704 49.9680513,133.413615 C52.4777411,135.645773 58.2929862,135.120295 58.8220559,131.706936 C59.3511257,128.295822 58.0307123,124.619724 61.3340067,122.913045 C64.6373011,121.206365 69.0009959,124.356985 71.2461508,129.081793 C73.4935667,133.808847 71.6440836,141.161043 68.736461,147.199545 C65.8288385,153.238047 59.4845236,159.669534 50.0991883,162.034183 C40.7138529,164.396587 27.1004816,158.488332 21.6809083,153.631032 C16.261335,148.773732 9.84466873,136.696728 7.76682648,129.607271 C5.68898423,122.517813 4.29395847,117.004789 7.76682648,115.167863 C11.2396945,113.328691 20.7561668,124.487232 20.7561668,124.487232 C20.7561668,124.487232 9.38795041,94.9504465 18.244216,90.3558853 C27.1004816,85.7613242 38.3353001,113.59143 38.3353001,113.59143 C38.3353001,113.59143 42.8301318,107.683175 49.1744467,106.634465 C55.5187616,105.58351 61.4651436,108.341145 61.3340067,117.004789" id="Fill-58" fill="#FBF2E4"></path>
                <path d="M7.76660038,112.535085 C4.20555408,112.063503 1.57151031,116.078691 5.65258242,130.926804 C9.73365452,145.772671 17.7510959,158.143852 34.1680846,162.569991 C50.5850732,166.998375 57.4855896,162.397077 63.2465712,157.434233 C69.0098137,152.471388 73.0027075,145.04284 73.9025783,138.766302 C74.80471,132.487517 73.188108,118.207549 63.2465712,119.860334 C53.3050343,121.515364 58.8218298,131.708283 55.581843,132.622255 C52.3418561,133.536227 48.507231,131.860986 47.8289365,128.36903 C47.1529029,124.874828 50.5850732,125.768589 55.8192461,125.05897 C61.0556798,124.351596 62.2449563,119.860334 63.2465712,116.316728 C64.2504471,112.770876 62.9571655,104.736008 54.1551635,104.147653 C45.3509004,103.557052 43.2097507,107.808032 40.44457,109.200323 C37.6771283,110.590369 38.4503841,109.934644 36.5488984,105.652226 C34.6451517,101.367562 22.9852687,81.1052327 14.6580728,91.6596987 C6.33087695,102.21641 19.5892741,121.55354 17.988499,119.624542 C16.1932795,117.459754 11.3276467,113.006668 7.76660038,112.535085 M24.1768061,130.926804 C26.9645966,130.421537 17.7510959,112.063503 16.3244164,101.902022 C14.8954759,91.7405415 20.1273877,87.7163706 27.2698292,96.4653492 C34.4100096,105.214328 35.5970251,116.78831 37.9755779,116.552519 C40.3541307,116.316728 42.0204743,107.808032 48.9209907,108.046069 C55.8192461,108.28186 58.0757059,109.853802 59.1519332,116.78831 C60.2258995,123.722819 52.2514168,121.986946 49.872864,121.986946 C47.4920502,121.986946 43.6868178,124.351596 45.8279676,129.312195 C47.9691173,134.27504 50.3476702,136.401652 55.1070368,136.401652 C59.8641424,136.401652 61.4603956,132.247235 61.0556798,126.206487 C60.6487031,120.16574 71.080873,125.606904 70.334749,135.458487 C69.5863641,145.307825 65.4645943,149.675577 61.0556798,154.598001 C56.6445044,159.52267 43.7523863,163.600736 32.7165343,158.615435 C21.6806822,153.632379 9.7743522,138.036472 7.76660038,128.130993 C5.75884856,118.22776 5.61188475,114.443872 11.0902436,117.262139 C16.5686024,120.07816 21.7959923,131.355719 24.1768061,130.926804" id="Fill-60" fill="#60574C"></path>
            </g>
            <text id="PEACE-OF-MIND!" font-family="ChalkboardSE-Regular, Chalkboard SE" font-size="17.6" font-weight="normal" line-spacing="14.4" fill="#666666">
                <tspan x="74" y="44">PEACE OF MIND!</tspan>
            </text>
        </g>
    </g>
</svg>